<?xml version="1.0" encoding="utf-8"?>
<!-- Generator: Adobe Illustrator 27.5.0, SVG Export Plug-In . SVG Version: 6.00 Build 0)  -->
<svg version="1.1" id="think_people_set" xmlns="http://www.w3.org/2000/svg" xmlns:xlink="http://www.w3.org/1999/xlink" x="0px"
	 y="0px" viewBox="0 0 2000 2000" style="enable-background:new 0 0 2000 2000;" xml:space="preserve">
<g>
	<defs>
		<rect id="SVGID_1_" width="2000" height="2000"/>
	</defs>
	<clipPath id="SVGID_00000178178609478061671760000013126994341171245215_">
		<use xlink:href="#SVGID_1_"  style="overflow:visible;"/>
	</clipPath>

		<rect style="clipPath:url(#SVGID_00000178178609478061671760000013126994341171245215_);fill:#FFFFFF;" width="2000" height="2000"/>
	<g style="clipPath:url(#SVGID_00000178178609478061671760000013126994341171245215_);">
		<g>
			<g>

					<linearGradient id="SVGID_00000054951852188125890630000006773597909094786182_" gradientUnits="userSpaceOnUse" x1="995.6669" y1="901.0547" x2="1204.9003" y2="901.0547">
					<stop  offset="0" style="stop-color:#B13C52"/>
					<stop  offset="1" style="stop-color:#705ABC"/>
				</linearGradient>
				<path style="fill:url(#SVGID_00000054951852188125890630000006773597909094786182_);" d="M1053.427,884.634l-57.76,17.457
					c0,0,58.319,39.071,105.201,38.11c46.882-0.962,104.032-77.48,104.032-77.48s-50.8-2.54-74.93,1.27
					C1105.84,867.801,1053.427,884.634,1053.427,884.634z"/>

					<linearGradient id="SVGID_00000039122828720288959630000008748777436140477610_" gradientUnits="userSpaceOnUse" x1="1123.066" y1="948.9698" x2="1098.3035" y2="848.372">
					<stop  offset="0" style="stop-color:#7D3248"/>
					<stop  offset="1" style="stop-color:#661C37"/>
				</linearGradient>
				<path style="fill:url(#SVGID_00000039122828720288959630000008748777436140477610_);" d="M1156.774,922.369
					c0,0-27.965,37.923-107.157,11.9c0,0,3.067-21.882,3.944-45.123c0.647-16.993,1.066-33.947,0.59-41.719l99.842-56.503
					c0,0-5.372,24.784-4.344,64.866C1150.144,874.858,1152.106,897.394,1156.774,922.369z"/>

					<linearGradient id="SVGID_00000023961188451319107110000008803987202267753367_" gradientUnits="userSpaceOnUse" x1="1103.8009" y1="834.088" x2="1103.8009" y2="918.0095">
					<stop  offset="0" style="stop-color:#8D7BF4"/>
					<stop  offset="1" style="stop-color:#7055C1"/>
				</linearGradient>
				<path style="opacity:0.5;fill:url(#SVGID_00000023961188451319107110000008803987202267753367_);" d="M1149.649,855.789
					c-26.708,21.584-73.504,28.998-96.04,32.065c0.647-16.992,1.018-32.656,0.542-40.428l99.842-56.503
					C1153.993,790.923,1148.62,815.707,1149.649,855.789z"/>

					<linearGradient id="SVGID_00000114772082468564238700000001975267081221692335_" gradientUnits="userSpaceOnUse" x1="1166.9067" y1="841.1065" x2="1140.6403" y2="465.8747">
					<stop  offset="0" style="stop-color:#271840"/>
					<stop  offset="1" style="stop-color:#4A3B64"/>
				</linearGradient>
				<path style="fill:url(#SVGID_00000114772082468564238700000001975267081221692335_);" d="M1355.523,591.645
					c0,39.358-28.252,65.399-28.252,65.399c-12.059,65.399-102.947,148.914-122.873,159.068
					c-19.926,10.154-86.354,12.383-86.354,12.383c-47.358-26.823-92.984-91.345-125.807-146.952
					c-30.099-50.997-49.435-94.507-49.435-94.507c6.134-29.547,73.685-98.908,116.815-101.442
					c64.77-3.81,130.493-21.908,130.493-21.908c17.774-38.729,55.569-53.017,96.203-35.243c0,0,0,0,0.019,0.019
					C1326.948,446.255,1355.523,552.269,1355.523,591.645z"/>

					<linearGradient id="SVGID_00000127727465965847819590000002804277952910635661_" gradientUnits="userSpaceOnUse" x1="992.2379" y1="628.4788" x2="1355.5234" y2="628.4788">
					<stop  offset="0" style="stop-color:#2B398D"/>
					<stop  offset="1" style="stop-color:#262262"/>
				</linearGradient>
				<path style="opacity:0.5;fill:url(#SVGID_00000127727465965847819590000002804277952910635661_);" d="M1355.523,591.645
					c0,39.358-28.252,65.399-28.252,65.399c-12.059,65.399-102.947,148.914-122.873,159.068
					c-19.926,10.154-86.354,12.383-86.354,12.383c-47.358-26.823-92.984-91.345-125.807-146.952
					c39.453-63.113,72.619-115.939,72.619-115.939l123.349-1.905c0,0,30.004,24.803,60.008,32.404c0,0,18.574-14.592,21.431-35.643
					c0,0-13.335-57.207-32.842-76.753c0.8,0.533,26.499,18.155,46.654,53.321c20.479,35.719,27.623,59.246,30.004,63.913
					c2.381,4.667,28.575-44.863,12.859-93.441c-15.469-47.816-39.243-78.105-39.986-79.039
					C1326.948,446.255,1355.523,552.269,1355.523,591.645z"/>

					<linearGradient id="SVGID_00000059287382775233506150000006838339708373730730_" gradientUnits="userSpaceOnUse" x1="1101.9872" y1="845.6512" x2="1075.7207" y2="470.419">
					<stop  offset="0" style="stop-color:#271840"/>
					<stop  offset="1" style="stop-color:#4A3B64"/>
				</linearGradient>
				<path style="fill:url(#SVGID_00000059287382775233506150000006838339708373730730_);" d="M1329.177,763.725
					c-31.756,44.463-8.573,83.82-8.573,83.82s-58.865-63.38-42.539-87.002c41.263-59.703,39.358-101.594,39.358-101.594
					c-45.073-16.516-102.547,21.431-130.874-19.679l-131.693-126.55c0,0-86.678,68.123-110.167,66.847
					c-23.508-1.258-67.323-32.385-67.323-32.385c-6.058,92.088,45.72,150.496,51.435,175.908
					c5.715,25.394-16.44,60.713-33.643,72.39c-17.221,11.659-66.999-17.469-66.999-17.469c54.293-1.905,72.714-47.302,72.714-47.302
					c-76.524-142.247-55.893-212.732-55.893-212.732c48.33-19.45,108.414,10.097,109.843,10.782l0.019,0.019
					c12.973-16.154,28.937-30.48,44.92-42.329c33.338-24.708,66.752-38.672,73.19-36.1c2.991,1.2,12.764,11.43,24.784,24.899
					c26.137,29.356,62.846,74.105,62.846,74.105l6.668-0.133c2.057-1.162,4.305-2.115,6.629-2.915
					c12.744-4.305,28.309-3.315,30.518,2.153c8.896,22.136,17.755,38.462,26.441,50.216c0,0,0,0,0,0.019
					c15.812,21.431,31.071,27.718,45.092,26.441c1.143-0.095,2.267-0.248,3.391-0.457c42.406-7.506,61.246-2.61,69.59,2.915h0.02
					c6.153,4.076,6.591,8.496,6.591,8.496S1370.173,706.327,1329.177,763.725z"/>

					<linearGradient id="SVGID_00000124129784773530772900000003499765807195163051_" gradientUnits="userSpaceOnUse" x1="828.1598" y1="661.3973" x2="1358.0684" y2="661.3973">
					<stop  offset="0" style="stop-color:#2B398D"/>
					<stop  offset="1" style="stop-color:#262262"/>
				</linearGradient>
				<path style="opacity:0.5;fill:url(#SVGID_00000124129784773530772900000003499765807195163051_);" d="M1329.177,763.725
					c-31.756,44.463-8.573,83.82-8.573,83.82s-58.865-63.38-42.539-87.002c41.263-59.703,39.358-101.594,39.358-101.594
					c-45.073-16.516-102.547,21.431-130.874-19.679l-131.693-126.55c0,0-86.678,68.123-110.167,66.847
					c-23.508-1.258-67.323-32.385-67.323-32.385c-6.058,92.088,45.72,150.496,51.435,175.908
					c5.715,25.394-16.44,60.713-33.643,72.39c-17.221,11.659-66.999-17.469-66.999-17.469c54.293-1.905,72.714-47.302,72.714-47.302
					c-76.524-142.247-55.893-212.732-55.893-212.732c5.562,8.573,116.529,25.87,109.862,10.801
					c12.973-16.154,28.937-30.48,44.92-42.329c0,0,23.184,10.573,55.093,7.239c31.909-3.334,49.149-4.401,42.901-18.383
					c0-0.019-0.019-0.038-0.019-0.057c26.137,29.356,62.846,74.105,62.846,74.105l6.668-0.133c2.057-1.162,4.305-2.115,6.629-2.915
					c-1.867,12.306,22.898,69.514,45.13,78.391c21.908,8.725,12.116-25.051,11.83-26.003c15.812,21.431,31.071,27.718,45.092,26.441
					c6.001,2.496,36.443,14.821,57.379,16.269c23.317,1.619,15.602-13.811,15.602-13.811h0.02c6.153,4.076,6.591,8.496,6.591,8.496
					S1370.173,706.327,1329.177,763.725z"/>

					<linearGradient id="SVGID_00000088818867762582802210000004233822541632026545_" gradientUnits="userSpaceOnUse" x1="1183.4438" y1="734.4354" x2="1267.2726" y2="734.4354">
					<stop  offset="0" style="stop-color:#9C404D"/>
					<stop  offset="1" style="stop-color:#BF6367"/>
				</linearGradient>
				<path style="fill:url(#SVGID_00000088818867762582802210000004233822541632026545_);" d="M1190.639,707.051
					c0,0,31.54-23.971,44.876-26.511c13.335-2.54,31.115,26.035,31.75,45.085c0.635,19.05-34.925,62.865-50.8,62.865
					c-15.875,0-33.02-14.605-33.02-14.605S1186.685,724.899,1190.639,707.051z"/>

					<linearGradient id="SVGID_00000041994027176132865490000007639087637507553951_" gradientUnits="userSpaceOnUse" x1="1204.1953" y1="756.6856" x2="952.4304" y2="663.8215">
					<stop  offset="0" style="stop-color:#9C404D"/>
					<stop  offset="1" style="stop-color:#BF6367"/>
				</linearGradient>
				<path style="fill:url(#SVGID_00000041994027176132865490000007639087637507553951_);" d="M1177.729,806.264
					c-8.249,20.326-100.953,93.987-166.371,73.031c-1.753-0.552-3.467-1.162-5.144-1.81h-0.019
					c-61.57-23.489-101.302-95.892-93.892-116.295c5.81-16.002,17.183-36.062,22.232-44.672h0.019
					c1.562-2.667,2.514-4.229,2.514-4.229s-3.181-99.689,6.973-129.541c0.286-0.838,0.8-1.81,1.543-2.877
					c9.582-14.002,56.178-46.52,109.271-67.151c0,0,57.684,22.632,70.162,29.394c16.421,8.878,42.234,7.106,42.234,7.106
					s-0.895,4.553-1.2,10.63c0,0,0,0.095-0.019,0.267c-0.267,5.829,0.019,12.973,2.172,18.822
					c4.439,12.059,21.67,85.702,22.298,121.897S1185.978,785.956,1177.729,806.264z"/>

					<linearGradient id="SVGID_00000135651201667739945900000005625204636558461880_" gradientUnits="userSpaceOnUse" x1="934.5547" y1="648.1955" x2="1002.6085" y2="648.1955">
					<stop  offset="0" style="stop-color:#8D7BF4"/>
					<stop  offset="1" style="stop-color:#EFAEF0"/>
				</linearGradient>
				<path style="opacity:0.5;fill:url(#SVGID_00000135651201667739945900000005625204636558461880_);" d="M1001.839,615.134
					c-9.258-18.498-49.74-33.014-56.254-35.262c-0.743,1.067-1.258,2.039-1.543,2.877c-10.154,29.851-6.973,129.541-6.973,129.541
					s-0.953,1.562-2.514,4.229c1.505-0.305,46.977-4.419,55.112-15.678C997.915,689.41,1005.002,621.478,1001.839,615.134z
					 M988.314,657.463c0.059,8.239-18.231-15.659-30.137-14.707c-11.906,0.953-17.012,12.744-19.05,7.334
					c-2.038-5.41,2.858-32.576,19.526-31.623C975.322,619.42,988.18,638.619,988.314,657.463z"/>

					<linearGradient id="SVGID_00000071518552436906057350000016954350547715052205_" gradientUnits="userSpaceOnUse" x1="1011.3643" y1="721.7376" x2="1190.6385" y2="721.7376">
					<stop  offset="0" style="stop-color:#8D7BF4"/>
					<stop  offset="1" style="stop-color:#EFAEF0"/>
				</linearGradient>
				<path style="opacity:0.5;fill:url(#SVGID_00000071518552436906057350000016954350547715052205_);" d="M1190.588,703.754
					c-0.629-36.195-17.945-112.756-22.384-124.815c-2.114-5.734-2.419-12.725-2.191-18.479c-0.381,4.344-2.839,30.308-9.24,41.339
					c0,0-77.153-3.334-95.25,10.478c-8.801,6.725-25.394,86.049-19.05,94.927c6.344,8.896,39.224,26.956,89.535,27.241
					c14.611,0.076,23.652,35.811-28.813,85.225c-68.263,64.294-91.831,59.631-91.831,59.631
					c65.418,20.955,158.116-52.711,166.364-73.038C1185.978,785.956,1191.216,739.95,1190.588,703.754z M1144.162,662.759
					c-1.657,10.477-9.772,1.429-30.48-7.62c-20.726-9.049-44.063,3.81-48.825,5.239c-4.763,1.429-0.932-10.036,12.859-21.76
					C1114.864,607.038,1145.82,652.282,1144.162,662.759z"/>

					<linearGradient id="SVGID_00000017495684432526242930000015457620613049038255_" gradientUnits="userSpaceOnUse" x1="1204.3989" y1="726.8036" x2="1257.2629" y2="726.8036">
					<stop  offset="0" style="stop-color:#8D7BF4"/>
					<stop  offset="1" style="stop-color:#7055C1"/>
				</linearGradient>
				<path style="opacity:0.5;fill:url(#SVGID_00000017495684432526242930000015457620613049038255_);" d="M1204.399,752.771
					c0,0,1.953-20.725,14.288-35.243c12.138-14.288,20.955-19.526,25.718-15.24c4.763,4.286,12.859,26.67,12.859,26.67
					s-12.859-6.667-20.955-6.191C1228.212,723.243,1204.399,752.771,1204.399,752.771z"/>

					<linearGradient id="SVGID_00000164509449152478227370000005638268126077369507_" gradientUnits="userSpaceOnUse" x1="1051.3633" y1="685.9003" x2="1144.1669" y2="685.9003">
					<stop  offset="0" style="stop-color:#FFFAFF"/>
					<stop  offset="1" style="stop-color:#CBCCFF"/>
				</linearGradient>
				<path style="fill:url(#SVGID_00000164509449152478227370000005638268126077369507_);" d="M1051.363,700.836
					c0-20.455,18.256-37.279,29.21-42.042c7.432-3.232,56.674-3.655,63.577,35.874c0.655,3.753-17.909,16.189-26.901,19.081
					C1108.082,716.696,1051.363,708.003,1051.363,700.836z"/>

					<linearGradient id="SVGID_00000172439098636466024080000013633278453782039703_" gradientUnits="userSpaceOnUse" x1="936.5201" y1="677.0304" x2="988.3167" y2="677.0304">
					<stop  offset="0" style="stop-color:#FFFAFF"/>
					<stop  offset="1" style="stop-color:#CBCCFF"/>
				</linearGradient>
				<path style="fill:url(#SVGID_00000172439098636466024080000013633278453782039703_);" d="M986.752,697.865
					c1.585-2.378,3.651-24.469-3.334-34.629c-6.985-10.16-34.528-17.378-40.62-9.745c-6.092,7.633-8.102,39.581-4.465,44.374
					C946.747,708.956,984.212,701.675,986.752,697.865z"/>

					<linearGradient id="SVGID_00000098901474544789566200000005842618074260422072_" gradientUnits="userSpaceOnUse" x1="1130.0052" y1="843.6892" x2="1103.7389" y2="468.4581">
					<stop  offset="0" style="stop-color:#271840"/>
					<stop  offset="1" style="stop-color:#4A3B64"/>
				</linearGradient>
				<path style="fill:url(#SVGID_00000098901474544789566200000005842618074260422072_);" d="M1114.864,607.038
					c-32.775,3.364-50.006,8.573-50.006,8.573s21.431-23.336,47.149-28.575c25.718-5.239,50.483,18.098,50.483,18.098
					S1133.425,605.133,1114.864,607.038z"/>

					<linearGradient id="SVGID_00000057862254791341589820000016441488337888131769_" gradientUnits="userSpaceOnUse" x1="987.6769" y1="853.6527" x2="961.4105" y2="478.4205">
					<stop  offset="0" style="stop-color:#271840"/>
					<stop  offset="1" style="stop-color:#4A3B64"/>
				</linearGradient>
				<path style="fill:url(#SVGID_00000057862254791341589820000016441488337888131769_);" d="M997.229,615.61
					c0,0-5.921-25.373-23.813-35.738c-17.892-10.365-30.619,7.161-30.619,7.161s18.236,4.288,32.047,11.432
					C988.657,605.609,997.229,615.61,997.229,615.61z"/>
				<g>

						<linearGradient id="SVGID_00000057132952722951119940000015660470180958037684_" gradientUnits="userSpaceOnUse" x1="989.7487" y1="749.4678" x2="1025.9984" y2="749.4678">
						<stop  offset="0" style="stop-color:#5E233F"/>
						<stop  offset="1" style="stop-color:#661C49"/>
					</linearGradient>
					<path style="fill:url(#SVGID_00000057132952722951119940000015660470180958037684_);" d="M1025.957,754.523
						c-12.059,3.169-31.922,5.611-35.814,4.115s22.168-22.483,29.47-18.223C1026.916,744.675,1025.957,754.523,1025.957,754.523z"/>

						<linearGradient id="SVGID_00000023980725115757155940000005591756019232222652_" gradientUnits="userSpaceOnUse" x1="1002.903" y1="748.6806" x2="992.5848" y2="709.4713">
						<stop  offset="0" style="stop-color:#9C404D"/>
						<stop  offset="1" style="stop-color:#BF6367"/>
					</linearGradient>
					<path style="fill:url(#SVGID_00000023980725115757155940000005591756019232222652_);" d="M1038.663,746.58
						c-3.486,6.039-12.706,7.944-12.706,7.944s-3.163-4.458-6.02-7.62c-6.877-7.639-29.794,11.735-29.794,11.735
						c-5.658-1.258-23.87-13.011-27.718-18.403c-3.467-4.839-7.144-11.468-7.125-16.707c0-0.609,0.057-1.219,0.172-1.791
						c3.181-16.592,33.338-24.06,42.558-23.87c9.22,0.172,38.729,26.175,40.634,30.29c0.247,0.552,0.495,1.162,0.724,1.848
						C1040.892,734.445,1041.692,741.341,1038.663,746.58z"/>

						<linearGradient id="SVGID_00000009550142961636207070000012465120707507929520_" gradientUnits="userSpaceOnUse" x1="979.0222" y1="754.0971" x2="1013.2241" y2="718.2667">
						<stop  offset="0" style="stop-color:#8D7BF4"/>
						<stop  offset="1" style="stop-color:#EFAEF0"/>
					</linearGradient>
					<path style="opacity:0.5;fill:url(#SVGID_00000009550142961636207070000012465120707507929520_);" d="M1038.663,746.58
						c-3.486,6.039-12.706,7.944-12.706,7.944s-3.163-4.458-6.02-7.62c-6.877-7.639-29.794,11.735-29.794,11.735
						c-5.658-1.258-23.87-13.011-27.718-18.403c-3.467-4.839-7.144-11.468-7.125-16.707c7.887-1.81,20.822-2.648,38.595,3.277
						c29.851,9.925,39.376,12.154,41.587,10.573c2.229-1.6,3.905-7.372,3.905-7.372
						C1040.892,734.445,1041.692,741.341,1038.663,746.58z"/>
				</g>
				<g>
					<defs>
						<path id="SVGID_00000182490482583524661960000005014696363404025258_" d="M986.752,697.865
							c1.585-2.378,3.651-24.469-3.334-34.629c-6.985-10.16-34.528-17.378-40.62-9.745c-6.092,7.633-8.102,39.581-4.465,44.374
							C946.747,708.956,984.212,701.675,986.752,697.865z"/>
					</defs>

						<linearGradient id="SVGID_00000026851471033607987000000017443211085396215972_" gradientUnits="userSpaceOnUse" x1="936.5201" y1="677.0304" x2="988.3167" y2="677.0304">
						<stop  offset="0" style="stop-color:#FFFAFF"/>
						<stop  offset="1" style="stop-color:#CBCCFF"/>
					</linearGradient>

						<use xlink:href="#SVGID_00000182490482583524661960000005014696363404025258_"  style="overflow:visible;fill:url(#SVGID_00000026851471033607987000000017443211085396215972_);"/>
					<clipPath id="SVGID_00000057837896363600079790000015195650732739468943_">
						<use xlink:href="#SVGID_00000182490482583524661960000005014696363404025258_"  style="overflow:visible;"/>
					</clipPath>

						<linearGradient id="SVGID_00000131340493711033290750000013704100263013989290_" gradientUnits="userSpaceOnUse" x1="941.3823" y1="699.9636" x2="953.2482" y2="651.4678">
						<stop  offset="0" style="stop-color:#290042"/>
						<stop  offset="1" style="stop-color:#0F001C"/>
					</linearGradient>

						<circle style="clipPath:url(#SVGID_00000057837896363600079790000015195650732739468943_);fill:url(#SVGID_00000131340493711033290750000013704100263013989290_);" cx="950.215" cy="663.866" r="25.247"/>
				</g>
				<g>
					<defs>
						<path id="SVGID_00000143577135213429216470000009042840900680326834_" d="M1051.363,700.836
							c0-20.455,18.256-37.279,29.21-42.042c7.432-3.232,56.674-3.655,63.577,35.874c0.655,3.753-17.909,16.189-26.901,19.081
							C1108.082,716.696,1051.363,708.003,1051.363,700.836z"/>
					</defs>
					<clipPath id="SVGID_00000088824328935653684870000006810699956513927819_">
						<use xlink:href="#SVGID_00000143577135213429216470000009042840900680326834_"  style="overflow:visible;"/>
					</clipPath>

						<linearGradient id="SVGID_00000090259577778103635900000013324674170536686725_" gradientUnits="userSpaceOnUse" x1="1068.9508" y1="731.177" x2="1080.8167" y2="682.6813">
						<stop  offset="0" style="stop-color:#290042"/>
						<stop  offset="1" style="stop-color:#0F001C"/>
					</linearGradient>

						<circle style="clipPath:url(#SVGID_00000088824328935653684870000006810699956513927819_);fill:url(#SVGID_00000090259577778103635900000013324674170536686725_);" cx="1082.93" cy="674.043" r="25.247"/>
				</g>

					<linearGradient id="SVGID_00000032608239769179189110000011811119827735617712_" gradientUnits="userSpaceOnUse" x1="1057.3713" y1="668.8647" x2="1143.9641" y2="668.8647">
					<stop  offset="0" style="stop-color:#290042"/>
					<stop  offset="1" style="stop-color:#0F001C"/>
				</linearGradient>
				<path style="fill:url(#SVGID_00000032608239769179189110000011811119827735617712_);" d="M1142.971,689.586
					c0,0,3.117-19.071-1.693-23.635c-19.67-18.663-52.449-24.533-71.182-8.489c-10.469,8.967-12.724,22.919-12.724,22.919
					s11.137-18.733,28.6-21.587C1109.5,654.948,1129.151,664.188,1142.971,689.586z"/>

					<linearGradient id="SVGID_00000147179178866683584280000007724859159114058634_" gradientUnits="userSpaceOnUse" x1="930.1665" y1="659.7012" x2="988.1797" y2="659.7012">
					<stop  offset="0" style="stop-color:#290042"/>
					<stop  offset="1" style="stop-color:#0F001C"/>
				</linearGradient>
				<path style="fill:url(#SVGID_00000147179178866683584280000007724859159114058634_);" d="M987.957,677.998
					c3.319-27.691-31.262-43.602-46.687-33.574c-9.049,5.883-11.647,14.411-11.012,17.196c0.635,2.785,6.352,10.665,6.352,10.665
					s2.051-19.134,15.615-20.955C975.56,648.195,987.957,677.998,987.957,677.998z"/>

					<linearGradient id="SVGID_00000080914148678587555420000004122824719230236566_" gradientUnits="userSpaceOnUse" x1="984.1659" y1="776.0995" x2="973.1597" y2="815.3089">
					<stop  offset="0" style="stop-color:#853D57"/>
					<stop  offset="1" style="stop-color:#661C49"/>
				</linearGradient>
				<path style="fill:url(#SVGID_00000080914148678587555420000004122824719230236566_);" d="M955.15,784.479
					c0,0,6.163,19.964,21.23,24.86c15.067,4.897,30.3-18.457,30.3-18.457S970.457,769.789,955.15,784.479z"/>

					<linearGradient id="SVGID_00000074407639389839656150000016765314106453313460_" gradientUnits="userSpaceOnUse" x1="987.4247" y1="770.1945" x2="974.355" y2="805.9645">
					<stop  offset="0" style="stop-color:#5E233F"/>
					<stop  offset="1" style="stop-color:#661C49"/>
				</linearGradient>
				<path style="fill:url(#SVGID_00000074407639389839656150000016765314106453313460_);" d="M1010.966,793.896
					c0,0-17.022-20.717-30.205-23.73c-13.183-3.013-23.967,3.767-30.205,12.807c0,0,3.124,1.973,8.445,3.911
					c10.976,3.999,39.962,5.658,39.962,5.658S1006.68,795.352,1010.966,793.896z"/>
			</g>
			<g>

					<linearGradient id="SVGID_00000098920123214663103450000006958254168917696438_" gradientUnits="userSpaceOnUse" x1="853.5079" y1="1245.0363" x2="1321.0284" y2="1245.0363">
					<stop  offset="0" style="stop-color:#F5AB61"/>
					<stop  offset="1" style="stop-color:#EE693D"/>
				</linearGradient>
				<path style="fill:url(#SVGID_00000098920123214663103450000006958254168917696438_);" d="M1321.028,1051.112
					c-6.775,2.238-11.531,42.089-23.982,62.334c-29.678,48.285-66.331,125.527-66.331,125.527l7.354,140.956
					c0,0,44.307,81.6,40.49,97.788c-3.817,16.188-43.807,48.584-43.807,48.584l-35.254-81.919c0,0-57.137-9.533-145.732-0.959
					c-88.575,8.574-143.834,41.909-143.834,41.909c-7.615,20.964-22.843,60.975-22.843,60.975s-31.437-12.391-33.355-25.721
					c-1.898-13.33,8.154-47.645,30.497-78.102c10.812-14.769-1.439-241.162-4.397-248.117c-5.436-12.89-9.913-25.881-13.59-38.471
					c-16.108-55.179-12.351-114.595-12.351-114.595c2.278-9.173,51.622-33.296,92.412-54.6
					c19.006-9.933,36.153-19.246,45.806-26.181c0,0,154.206-30.557,197.874-9.133c25.001,12.271,48.064,26.32,67.15,39.131
					c32.176,21.584,53.081,39.631,53.081,39.631C1321.028,1041.579,1321.028,1051.112,1321.028,1051.112z"/>

					<linearGradient id="SVGID_00000050628782505413827930000017579430149282057606_" gradientUnits="userSpaceOnUse" x1="1101.7207" y1="1002.9439" x2="1101.7207" y2="1343.4939">
					<stop  offset="0" style="stop-color:#EFB3EB"/>
					<stop  offset="1" style="stop-color:#F8AD40"/>
				</linearGradient>
				<path style="opacity:0.7;fill:url(#SVGID_00000050628782505413827930000017579430149282057606_);" d="M1257.136,990.517
					c-33.016,89.334-264.105,76.723-310.83-3.817c19.006-9.933,36.153-19.246,45.806-26.181c0,0,154.206-30.557,197.874-9.133
					C1214.987,963.657,1238.05,977.706,1257.136,990.517z"/>

					<linearGradient id="SVGID_00000114059622909713295950000013336346421040514994_" gradientUnits="userSpaceOnUse" x1="853.516" y1="1317.094" x2="1297.0391" y2="1317.094">
					<stop  offset="0" style="stop-color:#EF9397"/>
					<stop  offset="1" style="stop-color:#D37189"/>
				</linearGradient>
				<path style="opacity:0.5;fill:url(#SVGID_00000114059622909713295950000013336346421040514994_);" d="M1230.707,1238.966
					c0,0,36.672-77.229,66.333-125.521l-0.381-8.877c-40.958,28.175-118.872,152.153-118.872,152.153l-29.118,9.548
					c0,0-112.789-1.637-173.956-9.542c-47.625-6.155-62.753-54.673-62.753-54.673c20.365-52.693,26.575-94.603,26.575-94.603
					s-28.537,8.249-53.169-19.564l-19.126,68.009c3.677,12.592,8.154,25.584,13.602,38.462
					c2.953,6.972,15.203,233.357,4.383,248.121c-22.346,30.461-32.385,64.77-30.48,78.105c1.905,13.335,33.338,25.718,33.338,25.718
					s15.24-40.005,22.86-60.96c0,0,55.245-33.338,143.828-41.91c88.583-8.573,145.733,0.953,145.733,0.953l35.243,81.915
					c0,0,40.005-32.385,43.815-48.578c3.81-16.193-40.481-97.784-40.481-97.784L1230.707,1238.966z M1244.651,1443.031
					c-16.764-6.115-60.389-19.603-95.974-23.413c-115.958-12.402-251.766,45.168-259.348,48.425
					c5.448-2.572,76.563-35.871,140.628-55.093c66.675-20.003,157.163-29.528,180.023-18.098S1261.416,1449.146,1244.651,1443.031z"
					/>

					<linearGradient id="SVGID_00000100382711836717152290000014133500867657089688_" gradientUnits="userSpaceOnUse" x1="987.9263" y1="935.6931" x2="1207.4517" y2="935.6931">
					<stop  offset="0" style="stop-color:#F5AB61"/>
					<stop  offset="1" style="stop-color:#EE693D"/>
				</linearGradient>
				<path style="fill:url(#SVGID_00000100382711836717152290000014133500867657089688_);" d="M1183.31,927.174
					c0,0,12.059,3.81,24.136,10.154c0,0-8.896,43.815-29.223,63.513c0,0-91.65,30.899-166.993-8.267
					c-15.887-8.249-19.126-32.061-19.126-32.061s-5.01-24.822-4.057-63.38l65.918-15.921l-0.188,6.192
					c0,0-23.229,8.662-51.308,16.911c0,0,81.176,35.124,101.47,31.115c38.177-7.541,95.889-69.482,95.889-69.482l-50.311-2.172
					l-0.076-3.429c39.586-3.029,58.369-0.343,58.007,1.258c-0.324,1.41-1.067,3.6-2.076,6.382
					C1200.113,882.234,1187.349,911.629,1183.31,927.174z"/>

					<linearGradient id="SVGID_00000167369552630102272510000015374115123727213460_" gradientUnits="userSpaceOnUse" x1="987.9263" y1="940.2006" x2="1207.4465" y2="940.2006">
					<stop  offset="0" style="stop-color:#EF9397"/>
					<stop  offset="1" style="stop-color:#D37189"/>
				</linearGradient>
				<path style="opacity:0.5;fill:url(#SVGID_00000167369552630102272510000015374115123727213460_);" d="M1207.447,937.327
					c0,0-8.896,43.815-29.223,63.513c0,0-91.65,30.899-166.993-8.267c-15.887-8.249-19.126-32.061-19.126-32.061
					s-5.01-24.822-4.057-63.38c0,0,5.372,13.526,9.83,17.336c0,0,49.549,17.793,73.667,24.136
					c24.136,6.344,32.385,6.991,36.843,6.991c4.439,0,72.619-37.624,96.946-77.553c0.019-0.019,0.019-0.038,0.038-0.057
					c-5.258,14.249-18.021,43.644-22.06,59.189c0,0-48.254,21.584-114.929,33.661
					C1068.381,960.835,1143.934,960.835,1207.447,937.327z"/>

					<linearGradient id="SVGID_00000006674837467550531300000005597687607058248855_" gradientUnits="userSpaceOnUse" x1="1110.2911" y1="1274.5139" x2="1201.7314" y2="1274.5139">
					<stop  offset="0" style="stop-color:#9C404D"/>
					<stop  offset="1" style="stop-color:#BF6367"/>
				</linearGradient>
				<path style="fill:url(#SVGID_00000006674837467550531300000005597687607058248855_);" d="M1201.731,1244.681
					c0,0-34.29,93.974-40.653,102.223c-2.953,3.829-14.078,6.153-25.185,7.563c-12.821,1.6-25.603,1.962-25.603,1.962v-59.684
					c0,0,2.515-2.305,5.715-6.229c3.505-4.305,7.849-10.592,10.611-17.907c5.258-13.964,24.937-72.39,31.299-80.01
					C1157.916,1192.599,1187.12,1208.486,1201.731,1244.681z"/>

					<linearGradient id="SVGID_00000039098244338888460720000014434328781124958898_" gradientUnits="userSpaceOnUse" x1="1110.2911" y1="1323.4725" x2="1135.8943" y2="1323.4725">
					<stop  offset="0" style="stop-color:#8D7BF4"/>
					<stop  offset="1" style="stop-color:#EFAEF0"/>
				</linearGradient>
				<path style="opacity:0.5;fill:url(#SVGID_00000039098244338888460720000014434328781124958898_);" d="M1135.894,1354.467
					c-12.821,1.6-25.603,1.962-25.603,1.962v-59.684c0,0,2.515-2.305,5.715-6.229
					C1123.035,1304.118,1133.723,1330.654,1135.894,1354.467z"/>

					<linearGradient id="SVGID_00000039111460991042131720000013144461248653216184_" gradientUnits="userSpaceOnUse" x1="774.4904" y1="1239.4987" x2="1126.619" y2="1239.4987">
					<stop  offset="0" style="stop-color:#F5AB61"/>
					<stop  offset="1" style="stop-color:#EE693D"/>
				</linearGradient>
				<path style="fill:url(#SVGID_00000039111460991042131720000013144461248653216184_);" d="M1126.617,1372.946
					c-135.789,60.008-307.164,67.075-320.499,64.218c-13.335-2.858-29.528-11.83-31.433-22.308
					c-1.905-10.478,10.554-63.799,18.098-91.44c4.648-17.012,10.725-40.9,17.202-67.323v-0.057
					c16.554-67.761,40.481-186.648,43.91-214.728c0,0,11.124,16.252,31.47,46.56v0.019c0.648,0.953,1.296,1.943,1.943,2.953
					c0.019,0.019,0.019,0.038,0.038,0.057c9.925,15.393,20.841,36.862,31.547,66.714c1.886,5.258-22.649,57.067-25.145,87.414
					c-2.096,25.489,17.526,53.626,17.526,53.626c94.07,4.648,152.191-0.572,180.824-4.667c14.744-2.096,21.679-3.905,21.679-3.905
					C1127.074,1320.558,1126.617,1372.946,1126.617,1372.946z"/>

					<linearGradient id="SVGID_00000098204496977599468020000017347613869811766458_" gradientUnits="userSpaceOnUse" x1="1097.2921" y1="1100.1501" x2="1168.2065" y2="1100.1501">
					<stop  offset="0" style="stop-color:#B13C52"/>
					<stop  offset="1" style="stop-color:#705ABC"/>
				</linearGradient>
				<path style="fill:url(#SVGID_00000098204496977599468020000017347613869811766458_);" d="M1097.689,1124.342
					c-5.983-13.653,57.494-63.594,68.686-48.578C1180.929,1095.291,1104.153,1139.093,1097.689,1124.342z"/>

					<linearGradient id="SVGID_00000174568656388453311620000001353427148947681947_" gradientUnits="userSpaceOnUse" x1="1164.1249" y1="1053.3474" x2="1080.8911" y2="872.4341">
					<stop  offset="0" style="stop-color:#9C404D"/>
					<stop  offset="1" style="stop-color:#BF6367"/>
				</linearGradient>
				<path style="fill:url(#SVGID_00000174568656388453311620000001353427148947681947_);" d="M1177.786,1095.062
					c-4.077,23.603-44.006,41.662-44.006,41.662l-14.23-30.995l-12.44-27.108c0,0-23.336-8.096-30.004-11.906
					s-10.954-10.954-13.811-26.194s-5.715-66.199-5.715-66.199c-4.286-6.668-20.955-5.239-20.955-5.239s6.668,12.383,8.096,20.003
					c1.429,7.62-2.534,15.716-9.049,17.621c-6.515,1.905-9.811-7.448-9.811-7.448c-5.049-14.612-17.336-32.081-19.317-44.939
					c-0.247-1.6-0.209-3.143,0.057-4.591c0.019-0.019,0.019-0.057,0.019-0.076c0.191-1.029,0.495-2.019,0.876-2.972
					c0.057-0.171,0.076-0.248,0.076-0.248v0.057c3.429-8.382,13.335-13.602,13.335-13.602c2.857-14.764,19.679-18.098,19.679-18.098
					s5.563-13.335,12.897-15.716c6.134-2,26.365-2.915,32.766-3.162c1.238-0.057,1.962-0.076,1.962-0.076
					c7.144-16.097,14.859-44.234,14.859-44.234s-2.724-19.545-2.21-31.109c0.419-9.22,13.849-34.062,24.422-46.615
					c2.667-3.181,5.162-5.563,7.22-6.725c10.172-5.715,17.888,4.953,16.535,8.573c-5.715,15.24-27.165,88.107-22.079,150.496
					c2.457,30.023,27.299,124.168,35.852,146.19c0.552,1.429,1.048,2.572,1.448,3.353
					C1170.928,1088.623,1177.786,1095.062,1177.786,1095.062z"/>

					<linearGradient id="SVGID_00000014628986939515609830000012814287572361096110_" gradientUnits="userSpaceOnUse" x1="1221.7329" y1="982.599" x2="1080.7172" y2="930.3201">
					<stop  offset="0" style="stop-color:#8D7BF4"/>
					<stop  offset="1" style="stop-color:#EFAEF0"/>
				</linearGradient>
				<path style="opacity:0.5;fill:url(#SVGID_00000014628986939515609830000012814287572361096110_);" d="M1177.786,1095.062
					c-4.077,23.603-44.006,41.662-44.006,41.662l-26.67-58.103c0,0-23.336-8.096-30.004-11.906s-10.954-10.954-13.811-26.194
					s-5.715-66.199-5.715-66.199c-4.286-6.668-20.955-5.239-20.955-5.239s6.668,12.383,8.096,20.003
					c1.429,7.62-2.534,15.716-9.049,17.621c-6.515,1.905-9.811-7.448-9.811-7.448c-5.049-14.612-17.336-32.081-19.317-44.939
					c-0.247-1.6-0.209-3.143,0.057-4.591c0.019-0.019,0.019-0.057,0.019-0.076c0.438-1.486,0.743-2.515,0.876-2.972
					c0.057-0.171,0.076-0.248,0.076-0.248v0.057c-0.952,5.429,32.309,6.877,45.911,6.877c13.621,0,21.717-1.905,30.766-6.191
					s36.671-31.433,37.148-37.148c0.476-5.715-20.155-16.955-33.185-14.192c7.144-16.097,14.859-44.234,14.859-44.234
					s-3.144-25.886-2.21-31.109c2.2-12.297,16.022-39.468,29.093-51.484c10.503-9.656,20.437,3.097,19.085,6.716
					c-5.715,15.24-27.165,88.107-22.079,150.496c2.61,31.966,30.633,136.684,37.3,149.543
					C1170.928,1088.623,1177.786,1095.062,1177.786,1095.062z"/>

					<linearGradient id="SVGID_00000142874071223566524050000003252359100047723954_" gradientUnits="userSpaceOnUse" x1="1119.5496" y1="1104.568" x2="1177.7858" y2="1104.568">
					<stop  offset="0" style="stop-color:#8D7BF4"/>
					<stop  offset="1" style="stop-color:#EFAEF0"/>
				</linearGradient>
				<path style="opacity:0.5;fill:url(#SVGID_00000142874071223566524050000003252359100047723954_);" d="M1177.786,1095.062
					c-4.077,23.603-44.006,41.662-44.006,41.662l-14.23-30.995c4.324-0.019,8.744-1.01,13.202-3.296
					c20.212-10.439,27.47-22.67,30.061-30.023c0.552,1.429,1.048,2.572,1.448,3.353
					C1170.928,1088.623,1177.786,1095.062,1177.786,1095.062z"/>

					<linearGradient id="SVGID_00000148652080895895607790000000494547527053911953_" gradientUnits="userSpaceOnUse" x1="1097.6801" y1="1238.2451" x2="1358.5709" y2="1238.2451">
					<stop  offset="0" style="stop-color:#F5AB61"/>
					<stop  offset="1" style="stop-color:#EE693D"/>
				</linearGradient>
				<path style="fill:url(#SVGID_00000148652080895895607790000000494547527053911953_);" d="M1358.571,1350.085
					c0,35.243-34.29,74.295-41.91,75.248c-7.62,0.953-69.533-12.383-104.775-65.723c-35.243-53.34-114.205-235.268-114.205-235.268
					s55.359-6.668,68.694-48.578c0,0,5.544,9.773,14.516,24.384c15.45,25.165,41.11,64.751,66.18,93.574
					c0,0,0.076-0.228,0.266-0.667c3.086-8.096,28.178-113.028,73.689-141.945C1321.026,1051.11,1358.571,1314.843,1358.571,1350.085
					z"/>

					<linearGradient id="SVGID_00000147200219309208841340000013403696927034094520_" gradientUnits="userSpaceOnUse" x1="1097.6801" y1="1238.2451" x2="1358.5709" y2="1238.2451">
					<stop  offset="0" style="stop-color:#EF9397"/>
					<stop  offset="1" style="stop-color:#D37189"/>
				</linearGradient>
				<path style="opacity:0.5;fill:url(#SVGID_00000147200219309208841340000013403696927034094520_);" d="M1358.571,1350.085
					c0,35.243-34.29,74.295-41.91,75.248c-7.62,0.953-69.533-12.383-104.775-65.723c-35.243-53.34-114.205-235.268-114.205-235.268
					s55.359-6.668,68.694-48.578c0,0,5.544,9.773,14.516,24.384c-10.916-12.954,0.514,79.439,32.9,128.016
					c32.385,48.578,98.889,117.158,101.842,104.776c2.934-12.383-28.099-86.621-64.465-133.827c-1.467-1.905-2.744-3.924-3.83-6.058
					c3.086-8.096,28.178-113.028,73.689-141.945C1321.026,1051.11,1358.571,1314.843,1358.571,1350.085z"/>
				<g>

						<linearGradient id="SVGID_00000168093655450621966350000013103527571241248159_" gradientUnits="userSpaceOnUse" x1="1230.2971" y1="1189.0607" x2="1314.1382" y2="1189.0607">
						<stop  offset="0" style="stop-color:#9C404D"/>
						<stop  offset="1" style="stop-color:#BF6367"/>
					</linearGradient>
					<path style="fill:url(#SVGID_00000168093655450621966350000013103527571241248159_);" d="M1230.297,1173.044
						c0,0,26.36-7.285,46.835-9.173c28.781-2.653,28.458-2.893,30.592-2.986c0,0,6.323,7.328-0.905,16.798l5.11,0.356
						c2.373,2.623,6.37,13.99-10.19,22.186c-3.151,1.56-14.605,5.397-14.605,5.397s-0.114,7.585-8.908,9.109
						c-14.597,2.528-12.535,2.506-12.535,2.506L1230.297,1173.044z"/>

						<linearGradient id="SVGID_00000147194689653905874320000011278609154466923960_" gradientUnits="userSpaceOnUse" x1="1238.2379" y1="1178.7996" x2="1309.6663" y2="1178.7996">
						<stop  offset="0" style="stop-color:#8D7BF4"/>
						<stop  offset="1" style="stop-color:#EFAEF0"/>
					</linearGradient>
					<path style="opacity:0.5;fill:url(#SVGID_00000147194689653905874320000011278609154466923960_);" d="M1306.819,1177.682
						c-19.05,3.492-66.878,7.565-66.878,7.565l-1.703-2.167c0,0,52.299-3.062,71.428-10.727L1306.819,1177.682z"/>

						<linearGradient id="SVGID_00000066494570742817949290000004837467692027858067_" gradientUnits="userSpaceOnUse" x1="1248.7811" y1="1200.8763" x2="1299.1158" y2="1200.8763">
						<stop  offset="0" style="stop-color:#8D7BF4"/>
						<stop  offset="1" style="stop-color:#EFAEF0"/>
					</linearGradient>
					<path style="opacity:0.5;fill:url(#SVGID_00000066494570742817949290000004837467692027858067_);" d="M1248.781,1196.13
						c0,0,40.092,5.879,50.335,5.145l-11.982,4.347c0,0-19.823-2.223-35.967-6.509L1248.781,1196.13z"/>
				</g>

					<linearGradient id="SVGID_00000176036934217943548600000010491226210148660898_" gradientUnits="userSpaceOnUse" x1="774.4904" y1="1262.7883" x2="1126.619" y2="1262.7883">
					<stop  offset="0" style="stop-color:#EF9397"/>
					<stop  offset="1" style="stop-color:#D37189"/>
				</linearGradient>
				<path style="opacity:0.5;fill:url(#SVGID_00000176036934217943548600000010491226210148660898_);" d="M1126.617,1372.946
					c-135.789,60.008-307.164,67.075-320.499,64.218c-13.335-2.858-29.528-11.83-31.433-22.308
					c-1.905-10.478,10.554-63.799,18.098-91.44c4.648-17.012,10.725-40.9,17.202-67.323c-1.562,14.555-0.381,30.975,13.907,27.318
					c24.765-6.344,63.511-142.05,61.473-195.524c10.439,15.564,22.098,37.872,33.528,69.723
					c1.886,5.258-22.649,57.067-25.145,87.414c-2.096,25.489,17.526,53.626,17.526,53.626
					c-34.042,2.534-74.676,29.851-46.101,35.566c28.575,5.715,180.976-3.81,213.99-17.792c32.423-13.697,13.64-22.117,12.935-22.441
					c14.744-2.096,21.679-3.905,21.679-3.905C1127.074,1320.558,1126.617,1372.946,1126.617,1372.946z"/>

					<linearGradient id="SVGID_00000021834344642042925310000008967126815147281804_" gradientUnits="userSpaceOnUse" x1="886.8126" y1="1194.7733" x2="918.9971" y2="1194.7733">
					<stop  offset="0" style="stop-color:#EF9397"/>
					<stop  offset="1" style="stop-color:#D37189"/>
				</linearGradient>
				<path style="opacity:0.5;fill:url(#SVGID_00000021834344642042925310000008967126815147281804_);" d="M911.275,1298.65
					c0,0-26.422-19.679-24.346-53.626c2.058-33.928,22.44-82.709,22.44-82.709s-8.344-47.111-22.022-71.419
					c9.925,15.393,20.841,36.862,31.547,66.714c1.886,5.258-22.649,57.067-25.145,87.414
					C891.653,1270.513,911.275,1298.65,911.275,1298.65z"/>
			</g>
			<g>

					<linearGradient id="SVGID_00000041267228576757037210000006203239475520657587_" gradientUnits="userSpaceOnUse" x1="1109.9728" y1="1488.9409" x2="1132.6732" y2="2006.9165">
					<stop  offset="0" style="stop-color:#423787"/>
					<stop  offset="1" style="stop-color:#523287"/>
				</linearGradient>
				<path style="fill:url(#SVGID_00000041267228576757037210000006203239475520657587_);" d="M1105.657,2000
					c-12.176-90.919-33.466-239.062-33.466-239.062c0.61-0.19,1.238-0.362,1.867-0.533c1.467-0.438,2.953-0.838,4.439-1.219
					c10.935-2.819,21.622-4.61,21.622-4.61c14.772,78.16,43.784,185.408,60.656,245.424h296.089
					c-12.197-35.063-30.687-86.303-51.944-138.744c-67.971-167.698-158.154-318.918-189.244-383.612
					c-10.268-21.336-16.174-33.261-16.174-33.261c-3.695-0.534-7.353-1.048-10.992-1.524
					c-194.215-25.432-278.569,42.482-278.569,42.482c-37.147,64.771-91.764,166.365-91.764,209.551
					c0,32.799-6.955,217.936-10.301,305.108H1105.657z"/>

					<linearGradient id="SVGID_00000015354180258323781880000003231537381019624125_" gradientUnits="userSpaceOnUse" x1="1135.9161" y1="2013.1637" x2="985.2696" y2="1453.9154">
					<stop  offset="0" style="stop-color:#EFB8FF"/>
					<stop  offset="1" style="stop-color:#9B1F63"/>
				</linearGradient>
				<path style="opacity:0.5;fill:url(#SVGID_00000015354180258323781880000003231537381019624125_);" d="M933.141,2000
					c-4.547-11.581-9.412-23.932-14.627-37.13c-64.771-163.831-17.145-344.178-17.145-344.178s110.552,126.365,123.24,155.569
					c7.866,18.089,10.501,132.858,12.904,225.739h68.144c-12.176-90.919-33.466-239.062-33.466-239.062
					c0.613-0.187,1.242-0.361,1.865-0.539c0,0.002,0.001,0.004,0.001,0.006c1.467-0.438,2.953-0.838,4.439-1.219
					c10.935-2.819,21.622-4.61,21.622-4.61c14.772,78.16,43.784,185.408,60.656,245.424h66.436
					c-23.256-53.979-82.029-209.967-80.095-232.718c2.19-25.585,39.053-138.437,40.005-140.018
					c-71.438,95.25-122.987,97.308-122.987,97.308s0.009,0.034,0.011,0.041c-41.014-110.129-28.455-194.577-28.455-194.577
					c93.29-22.012,121.948-42.935,158.188-49.93c14.821,37.451,40.849,120.812,40.849,120.812
					c22.841,8.878,81.306,101.594,140.99,233.669c27.55,60.981,47.797,119.768,61.614,165.414h19.533
					c-12.197-35.063-30.687-86.303-51.944-138.744c-67.971-167.698-158.154-318.918-189.244-383.612
					c-10.268-21.336-16.174-33.261-16.174-33.261c-3.582-0.528-7.138-1.015-10.677-1.48c-0.104-0.014-0.211-0.03-0.315-0.044
					c0,0.001-0.001,0.002-0.001,0.004c-194.203-25.425-278.568,42.478-278.568,42.478c-37.147,64.771-91.764,166.365-91.764,209.551
					c0,32.799-6.955,217.936-10.301,305.108H933.141z"/>

					<linearGradient id="SVGID_00000109019906554755318120000000419689332585529507_" gradientUnits="userSpaceOnUse" x1="1161.1895" y1="2006.3557" x2="1010.543" y2="1447.1073">
					<stop  offset="0" style="stop-color:#EFB8FF"/>
					<stop  offset="1" style="stop-color:#9B1F63"/>
				</linearGradient>
				<path style="opacity:0.5;fill:url(#SVGID_00000109019906554755318120000000419689332585529507_);" d="M1187.12,1627.264
					c0,0-80.986,106.68-136.867,97.155c-51.465-8.772-112.101-70.696-112.101-70.696s34.655,63.552,134.039,107.214l27.934-6.356
					C1100.125,1754.582,1152.83,1726.325,1187.12,1627.264z"/>

					<linearGradient id="SVGID_00000075121094173443270530000001909174431819255714_" gradientUnits="userSpaceOnUse" x1="1255.5142" y1="1748.0546" x2="1379.3455" y2="2144.3152">
					<stop  offset="0.0119" style="stop-color:#662D8E"/>
					<stop  offset="1" style="stop-color:#9B1F63"/>
				</linearGradient>
				<path style="opacity:0.2;fill:url(#SVGID_00000075121094173443270530000001909174431819255714_);" d="M1293.706,2000h106.684
					c-34.793-97.031-117.402-316.536-155.738-325.428c-32.134-7.454-64.504,43.18-42.92,113.03
					C1216.596,1835.709,1265.006,1939.833,1293.706,2000z"/>
			</g>
		</g>
		<g>
			<g>

					<linearGradient id="SVGID_00000168797933097732782620000012960593955709688205_" gradientUnits="userSpaceOnUse" x1="796.7803" y1="124.1439" x2="796.7803" y2="1331.1498" gradientTransform="matrix(0.9844 0.1758 -0.1758 0.9844 -7.8737 43.2994)">
					<stop  offset="0" style="stop-color:#CBCFE1"/>
					<stop  offset="1" style="stop-color:#E3E4E5"/>
				</linearGradient>
				<path style="fill:url(#SVGID_00000168797933097732782620000012960593955709688205_);" d="M728.084,566.828l-36.856-6.582
					l3.291-18.428c6.163-34.509,13.111-48.633,28.594-58.124c5.511-3.378,11.424-6.502,17.144-9.524
					c22.084-11.667,36.771-20.496,39.59-36.279c2.265-12.682,3.024-42.985-38.742-50.444c-39.33-7.024-52.949,31.773-54.373,36.22
					l-5.672,17.722l-35.546-11.021l5.458-17.789c7.977-25.99,38.454-72.393,96.715-61.989
					c65.622,11.719,74.259,64.527,69.017,93.882c-6.242,34.951-35.471,50.393-58.957,62.8c-5.439,2.873-10.576,5.588-15.065,8.34
					c-2.139,1.311-6.12,3.751-11.305,32.787L728.084,566.828z"/>

					<linearGradient id="SVGID_00000160170860888478556750000003948343765079453118_" gradientUnits="userSpaceOnUse" x1="797.835" y1="124.1437" x2="797.835" y2="1331.1516" gradientTransform="matrix(0.9844 0.1758 -0.1758 0.9844 -7.8737 43.2994)">
					<stop  offset="0" style="stop-color:#CBCFE1"/>
					<stop  offset="1" style="stop-color:#E3E4E5"/>
				</linearGradient>
				<polygon style="fill:url(#SVGID_00000160170860888478556750000003948343765079453118_);" points="718.533,617.943
					682.496,611.508 688.932,575.471 724.969,581.906 				"/>
			</g>
			<g>

					<linearGradient id="SVGID_00000067937772166594673020000005919740710238662058_" gradientUnits="userSpaceOnUse" x1="562.3484" y1="574.2276" x2="562.3484" y2="1816.5626" gradientTransform="matrix(0.9928 -0.1196 0.1196 0.9928 -57.4434 -21.0134)">
					<stop  offset="0" style="stop-color:#CBCFE1"/>
					<stop  offset="1" style="stop-color:#E3E4E5"/>
				</linearGradient>
				<path style="fill:url(#SVGID_00000067937772166594673020000005919740710238662058_);" d="M617.081,757.284l-26.811,3.229
					l-1.614-13.405c-3.023-25.104-1.207-36.311,7.472-46.121c3.089-3.492,6.51-6.893,9.818-10.183
					c12.774-12.703,21.044-21.889,19.661-33.371c-1.111-9.226-6.975-30.288-37.358-26.629c-28.61,3.445-29.826,33.078-29.872,36.446
					l-0.177,13.42l-26.843-0.109l0.016-13.421c0.024-19.609,11.265-58.043,53.647-63.146c47.737-5.749,64.826,28.857,67.397,50.211
					c3.062,25.425-13.845,42.238-27.43,55.747c-3.146,3.128-6.118,6.084-8.634,8.928c-1.2,1.355-3.431,3.878-0.887,25
					L617.081,757.284z"/>

					<linearGradient id="SVGID_00000018930659472820699520000010898907355198990495_" gradientUnits="userSpaceOnUse" x1="563.1049" y1="574.216" x2="563.1049" y2="1816.5962" gradientTransform="matrix(0.9928 -0.1196 0.1196 0.9928 -57.4434 -21.0134)">
					<stop  offset="0" style="stop-color:#CBCFE1"/>
					<stop  offset="1" style="stop-color:#E3E4E5"/>
				</linearGradient>
				<polygon style="fill:url(#SVGID_00000018930659472820699520000010898907355198990495_);" points="621.267,794.557
					595.052,797.714 591.895,771.499 618.11,768.342 				"/>
			</g>
			<g>

					<linearGradient id="SVGID_00000034055635743790534860000004385594852843286679_" gradientUnits="userSpaceOnUse" x1="208.5069" y1="750.2547" x2="208.5069" y2="1812.5509" gradientTransform="matrix(0.9375 -0.348 0.348 0.9375 -86.9675 -189.6258)">
					<stop  offset="0" style="stop-color:#CBCFE1"/>
					<stop  offset="1" style="stop-color:#E3E4E5"/>
				</linearGradient>
				<path style="fill:url(#SVGID_00000034055635743790534860000004385594852843286679_);" d="M464.103,660.732l-21.648,8.035
					l-4.018-10.824c-7.524-20.27-8.251-29.951-2.992-39.841c1.872-3.52,4.037-7.031,6.131-10.427
					c8.086-13.112,13.129-22.401,9.688-31.671c-2.765-7.449-11.844-23.792-36.377-14.686c-23.102,8.575-18.199,33.457-17.564,36.266
					l2.531,11.194l-22.341,5.266l-2.666-11.163c-3.894-16.31-2.217-50.51,32.004-63.212c38.545-14.307,59.661,11.057,66.061,28.299
					c7.62,20.529-3.082,37.883-11.682,51.828c-1.992,3.229-3.873,6.28-5.397,9.147c-0.727,1.366-2.079,3.909,4.252,20.964
					L464.103,660.732z"/>

					<linearGradient id="SVGID_00000135650405333881956980000007051975691917815965_" gradientUnits="userSpaceOnUse" x1="209.1558" y1="750.2502" x2="209.1558" y2="1812.5634" gradientTransform="matrix(0.9375 -0.348 0.348 0.9375 -86.9675 -189.6258)">
					<stop  offset="0" style="stop-color:#CBCFE1"/>
					<stop  offset="1" style="stop-color:#E3E4E5"/>
				</linearGradient>
				<polygon style="fill:url(#SVGID_00000135650405333881956980000007051975691917815965_);" points="475.023,690.889
					453.856,698.746 445.999,677.578 467.166,669.721 				"/>
			</g>
		</g>
	</g>
</g>
</svg>
