<svg width="413" height="274" viewBox="0 0 413 274" fill="none" xmlns="http://www.w3.org/2000/svg">
<path d="M347.936 80.742C337.94 81.2358 327.63 84.0455 318.145 80.8441C314.807 79.7203 311.759 77.8897 308.532 76.4933C305.671 75.2588 302.683 74.3563 299.694 73.4623C296.016 72.3554 292.321 71.2485 288.557 70.4737C287.536 70.2609 286.488 70.0821 285.467 70.2694C284.445 70.4652 283.449 71.1123 283.134 72.1085C282.657 73.6155 283.858 75.097 284.981 76.2124C288.651 79.8395 292.517 83.2792 296.552 86.4976C296.237 88.9242 293.521 89.9715 291.129 90.4909C280.384 92.8323 268.719 93.4283 259.754 99.797C259.14 100.231 258.502 100.759 258.332 101.491C258.11 102.47 258.843 103.467 259.762 103.875C260.682 104.284 261.729 104.25 262.734 104.207C272.235 103.773 281.712 102.811 291.103 101.33C289.571 102.956 287.876 104.207 285.731 104.82C281.542 106.004 277.361 107.187 273.172 108.379C267.834 109.886 262.265 111.538 258.298 115.412C257.966 115.736 257.633 116.127 257.676 116.587C257.736 117.175 258.383 117.49 258.945 117.669C262.24 118.69 265.773 118.605 269.213 118.35C277.029 117.779 284.777 116.408 292.321 114.28C285.16 116.757 278.247 119.627 271.393 122.854C269.17 123.901 266.94 125.059 265.203 126.804C264.581 127.426 264.011 128.397 264.496 129.129C264.734 129.495 265.177 129.665 265.594 129.793C267.859 130.457 270.286 130.202 272.627 129.887C280.58 128.814 288.438 127.085 296.11 124.735C289.119 127.23 282.81 131.453 277.438 136.579C277.055 136.945 276.671 137.337 276.527 137.839C276.271 138.741 276.918 139.704 277.761 140.112C278.604 140.521 279.583 140.495 280.52 140.419C290.669 139.593 299.609 133.769 309 129.818C311.946 128.575 314.977 127.511 317.838 126.081C323.032 123.484 327.613 119.737 332.951 117.456C339.158 114.808 346.029 114.288 352.764 113.812L347.928 80.7335L347.936 80.742Z" fill="#B77548"/>
<mask id="mask0_992_8725" style="mask-type:luminance" maskUnits="userSpaceOnUse" x="257" y="70" width="96" height="71">
<path d="M347.936 80.7428C337.94 81.2367 327.629 84.0464 318.144 80.845C314.807 79.7211 311.759 77.8905 308.532 76.4942C305.671 75.2596 302.682 74.3571 299.694 73.4631C296.016 72.3562 292.321 71.2494 288.557 70.4746C287.535 70.2617 286.488 70.0829 285.466 70.2702C284.445 70.4661 283.449 71.1132 283.134 72.1093C282.657 73.6164 283.857 75.0979 284.981 76.2132C288.651 79.8403 292.516 83.2801 296.552 86.4985C296.237 88.9251 293.521 89.9723 291.129 90.4917C280.383 92.8331 268.719 93.4291 259.753 99.7978C259.14 100.232 258.502 100.76 258.331 101.492C258.11 102.471 258.842 103.468 259.762 103.876C260.681 104.285 261.729 104.251 262.733 104.208C272.235 103.774 281.712 102.812 291.103 101.33C289.57 102.957 287.876 104.208 285.73 104.821C281.541 106.005 277.361 107.188 273.172 108.38C267.833 109.887 262.265 111.539 258.297 115.413C257.965 115.737 257.633 116.128 257.676 116.588C257.735 117.176 258.382 117.491 258.944 117.669C262.239 118.691 265.773 118.606 269.213 118.351C277.029 117.78 284.777 116.409 292.32 114.281C285.16 116.758 278.246 119.628 271.392 122.855C269.17 123.902 266.939 125.06 265.202 126.805C264.581 127.427 264.01 128.397 264.496 129.13C264.734 129.496 265.177 129.666 265.594 129.794C267.859 130.458 270.286 130.202 272.627 129.887C280.579 128.815 288.438 127.086 296.109 124.736C289.119 127.231 282.81 131.454 277.438 136.58C277.054 136.946 276.671 137.337 276.526 137.84C276.271 138.742 276.918 139.704 277.761 140.113C278.604 140.522 279.583 140.496 280.52 140.42C290.669 139.594 299.609 133.77 309 129.819C311.946 128.576 314.977 127.512 317.838 126.081C323.032 123.485 327.612 119.738 332.951 117.456C339.158 114.809 346.029 114.289 352.764 113.812L347.927 80.7343L347.936 80.7428Z" fill="white"/>
</mask>
<g mask="url(#mask0_992_8725)">
<g style="mix-blend-mode:color-burn" opacity="0.37">
<path d="M336.145 78.8525C330.832 90.9428 332.356 105.162 339.015 116.503L341.433 107.282C334.689 110.219 327.52 111.879 320.922 115.285C314.323 118.691 308.576 122.761 302.216 126.184C289.598 132.986 276.128 136.213 262.735 140.922C257.533 142.744 258.035 151.105 264.097 150.96C278.546 150.611 293.02 144.711 305.749 138.206C319.313 131.275 331.088 121.773 346.635 119.602C351.352 118.946 352.246 113.14 350.662 109.7C346.226 100.079 343.996 90.1254 342.429 79.6784C342.003 76.8602 337.303 76.2471 336.154 78.861L336.145 78.8525Z" fill="#C9C9D1"/>
</g>
</g>
<path d="M425.387 54.5432C399.912 53.9557 376.396 69.0431 350.955 70.5416C346.928 70.78 341.734 71.4271 340.517 75.2755C337 86.3867 337.928 98.8346 343.045 109.307C344.041 111.351 345.199 113.343 345.702 115.557C346.621 119.575 345.489 124.437 348.375 127.383C358.567 127.068 368.282 128.848 378.303 130.721C386.749 132.296 395.076 134.646 403.616 135.582C411.168 136.408 418.814 136.11 426.341 135.14L425.379 54.5517L425.387 54.5432Z" fill="white"/>
<mask id="mask1_992_8725" style="mask-type:luminance" maskUnits="userSpaceOnUse" x="338" y="54" width="89" height="83">
<path d="M425.391 54.5447C399.916 53.9572 376.4 69.0445 350.959 70.543C346.932 70.7814 341.738 71.4285 340.52 75.277C337.004 86.3882 337.932 98.8361 343.049 109.309C344.045 111.352 345.203 113.344 345.706 115.558C346.625 119.577 345.493 124.439 348.379 127.385C358.571 127.069 368.286 128.849 378.307 130.722C386.753 132.297 395.08 134.647 403.62 135.584C411.172 136.41 418.818 136.112 426.345 135.141L425.382 54.5532L425.391 54.5447Z" fill="white"/>
</mask>
<g mask="url(#mask1_992_8725)">
<g opacity="0.25">
<path d="M346.921 127.623C347.739 127.342 349.782 129.445 350.676 130.041C352.234 131.08 353.912 131.82 355.631 132.544C359.693 134.23 363.831 135.073 368.216 135.396C372.226 135.694 376.202 135.149 380.187 134.792C382.486 134.587 384.742 134.724 387.041 134.647C389.34 134.57 391.545 134.026 393.758 134.196C398.143 134.536 402.443 136.614 406.743 137.474C411.042 138.334 415.214 138.819 419.48 139.092C424.086 139.381 428.718 139.262 433.307 138.836C437.394 138.453 442.809 138.615 445.508 135.132C447.194 132.961 447.296 129.837 444.623 128.278C440.468 125.86 435.521 127.929 431.009 128.381C426.496 128.832 421.779 128.994 417.173 128.866C412.226 128.73 407.211 128.329 402.315 127.555C399.88 127.172 397.445 126.703 395.419 125.247C393.197 123.655 391.706 121.646 389.101 120.539C380.74 116.971 370.838 122.318 362.017 120.99C357.879 120.36 355.121 117.15 351.153 116.146C346.564 114.988 342.477 117.338 341.046 121.765C339.965 125.103 343.516 128.781 346.896 127.614L346.921 127.623Z" fill="#C9C9D1"/>
</g>
<g opacity="0.25">
<path d="M344.307 72.1527C349.714 70.7989 355.078 70.8755 360.535 71.9654C365.601 72.9786 370.378 75.9415 375.648 75.4988C382.553 74.9198 389.603 65.8436 382.545 60.6584C381.736 60.0624 380.663 60.2837 379.846 60.6584C377.257 61.8333 375.682 62.838 373.979 65.1284C371.902 67.9296 375.784 70.6967 378.322 69.4707C383.098 67.1633 388.496 66.7972 393.699 67.589C396.347 67.9892 398.705 68.7725 401.166 69.7857C403.115 70.5946 405.074 71.429 407.236 70.8415C411.213 69.7687 411.459 65.0858 414.797 63.3659C418.322 61.5524 422.528 61.2714 426.411 61.0671C425.9 57.2782 425.38 53.4808 424.869 49.692C419.497 50.5945 413.912 52.7912 408.828 54.7154C406.427 55.6179 404.095 56.6652 401.651 57.457C398.977 58.3169 396.227 58.1211 393.596 59.0321C389.671 60.3859 388.624 67.2995 393.596 68.0828C399.063 68.9428 403.831 65.8095 408.922 64.1067C414.823 62.1314 420.297 61.7056 426.411 61.0756C434.729 60.2242 433.188 48.0487 424.869 49.7005C420.408 50.586 415.785 51.7439 412.098 54.5281C410.336 55.8648 408.999 57.3974 407.96 59.3557C407.483 60.2667 407.126 61.2033 406.708 62.1314C406.436 62.9062 406.087 63.6384 405.644 64.328C405.389 64.0471 405.091 63.8257 404.75 63.6469C402.46 62.9743 400.203 60.9564 397.837 60.122C395.47 59.2876 392.685 58.9215 390.14 58.9129C384.827 58.8874 379.454 61.0245 375.12 63.9875L379.786 67.572L381.906 65.5456L378.518 62.9658C378.177 69.7346 366.112 64.7793 362.315 64.3791C355.725 63.681 349.16 65.1965 343.073 67.6912C340.391 68.7895 341.327 72.9019 344.299 72.1527H344.307Z" fill="#C9C9D1"/>
</g>
</g>
<path d="M308.536 25.1699H128.629V193.063H308.536V25.1699Z" fill="#C19A5B"/>
<path d="M273.653 10.2012H171.013L128.629 25.1693H308.536L273.653 10.2012Z" fill="#CEA263"/>
<path d="M153.139 16.5101H288.474" stroke="#B78A4E" stroke-width="1.14943" stroke-miterlimit="10"/>
<path d="M190.55 34.3392H137.242V55.1822H190.55V34.3392Z" fill="#FFFAF5"/>
<path d="M148.495 36.9189H139.87V45.5439H148.495V36.9189Z" fill="#35322F"/>
<path d="M188.32 37.5232H153.139V39.0217H188.32V37.5232Z" fill="#35322F"/>
<path d="M188.32 42.4712H153.139V43.9697H188.32V42.4712Z" fill="#35322F"/>
<path d="M188.32 47.4177H153.139V48.9162H188.32V47.4177Z" fill="#35322F"/>
<path d="M238.124 25.1703H199.052V193.064H238.124V25.1703Z" fill="#F49422"/>
<mask id="mask2_992_8725" style="mask-type:luminance" maskUnits="userSpaceOnUse" x="199" y="25" width="40" height="169">
<path d="M238.117 25.1707H199.045V193.064H238.117V25.1707Z" fill="white"/>
</mask>
<g mask="url(#mask2_992_8725)">
<path d="M232.047 15.4394C210.898 29.7945 190.753 45.5885 171.809 62.7534C167.041 67.0786 174.116 74.12 178.867 69.8117C197.19 53.2088 216.628 37.9512 237.088 24.0559C242.375 20.4713 237.386 11.8208 232.047 15.4394Z" fill="white"/>
<path d="M237.757 63.1621C220.022 79.3989 202.278 95.6357 184.543 111.872C179.792 116.215 186.867 123.265 191.601 118.931C209.336 102.694 227.08 86.4573 244.815 70.2205C249.566 65.8782 242.491 58.8283 237.757 63.1621Z" fill="white"/>
<path d="M242.295 117.9C222.354 137.338 201.835 156.18 180.77 174.409C175.909 178.615 182.993 185.656 187.829 181.467C208.893 163.247 229.413 144.405 249.353 124.958C253.959 120.471 246.901 113.413 242.295 117.9Z" fill="white"/>
</g>
<g style="mix-blend-mode:color-burn">
<path d="M180.672 16.8506C183.2 16.8506 183.209 12.917 180.672 12.917C178.134 12.917 178.134 16.8506 180.672 16.8506Z" fill="#C9C9D1"/>
</g>
<g style="mix-blend-mode:color-burn">
<path d="M244.036 11.9728C246.565 11.9728 246.573 8.03918 244.036 8.03918C241.498 8.03918 241.498 11.9728 244.036 11.9728Z" fill="#C9C9D1"/>
</g>
<g style="mix-blend-mode:color-burn">
<path d="M246.126 0.0096922C222.669 2.13827 201.502 14.1264 178.071 16.255C175.576 16.4849 175.551 20.4185 178.071 20.1886C201.528 18.06 222.694 6.07188 246.126 3.9433C248.62 3.71341 248.646 -0.220194 246.126 0.0096922Z" fill="#C9C9D1"/>
</g>
<g style="mix-blend-mode:color-burn">
<path d="M247.781 7.29756C225.252 9.82631 204.827 21.5079 182.281 23.8919C179.795 24.1559 179.761 28.0895 182.281 27.8255C204.852 25.433 225.269 13.7514 247.781 11.2312C250.267 10.9502 250.293 7.01659 247.781 7.29756Z" fill="#C9C9D1"/>
</g>
<path d="M235.89 3.02462C217.022 8.98464 198.197 15.0894 179.44 21.4155C178.606 21.6965 178.963 23.0247 179.806 22.7437C198.555 16.4176 217.38 10.3129 236.256 4.35286C237.099 4.08891 236.741 2.76068 235.89 3.02462Z" fill="white"/>
<path d="M243.415 5.35719C226.557 11.0618 209.698 16.7578 192.848 22.4624C192.014 22.7434 192.372 24.0801 193.215 23.7907C210.073 18.0861 226.931 12.39 243.781 6.68542C244.615 6.40445 244.258 5.0677 243.415 5.35719Z" fill="white"/>
<path d="M248.97 8.88158C229.515 15.5738 210.026 22.1639 190.511 28.6773C189.676 28.9583 190.034 30.2865 190.877 30.0056C210.392 23.5006 229.881 16.9021 249.336 10.2098C250.17 9.92032 249.813 8.59209 248.97 8.88158Z" fill="white"/>
<path d="M239.321 10.2014H200.249V24.846H239.321V10.2014Z" fill="#FFA13B"/>
<g style="mix-blend-mode:color-burn">
<path d="M308.536 25.1699V193.063H128.629V171.548C170.834 171.829 213.048 155.711 242.576 127.495C270.835 100.487 286.944 62.8627 287.131 25.1699H308.545H308.536Z" fill="#C9C9D1"/>
</g>
<path d="M303.552 175.149H250.286V187.486H303.552V175.149Z" fill="white"/>
<path d="M300.921 176.997H252.756V185.486H300.921V176.997Z" stroke="#35322F" stroke-width="0.425715" stroke-miterlimit="10"/>
<path d="M257.106 177.95H254.22V184.361H257.106V177.95Z" fill="#35322F"/>
<path d="M268.754 177.95H265.868V184.362H268.754V177.95Z" fill="#35322F"/>
<path d="M259.211 177.95H257.772V184.362H259.211V177.95Z" fill="#35322F"/>
<path d="M261.32 177.95H260.307V184.361H261.32V177.95Z" fill="#35322F"/>
<path d="M259.345 177.95H258.92V184.362H259.345V177.95Z" fill="#35322F"/>
<path d="M264.641 177.95H263.917V184.361H264.641V177.95Z" fill="#35322F"/>
<path d="M273.482 177.95H272.758V184.362H273.482V177.95Z" fill="#35322F"/>
<path d="M276.816 177.95H273.93V184.362H276.816V177.95Z" fill="#35322F"/>
<path d="M281.553 177.95H280.829V184.362H281.553V177.95Z" fill="#35322F"/>
<path d="M278.522 177.95H277.798V184.362H278.522V177.95Z" fill="#35322F"/>
<path d="M270.841 177.95H270.117V184.362H270.841V177.95Z" fill="#35322F"/>
<path d="M288.55 177.95H285.664V184.362H288.55V177.95Z" fill="#35322F"/>
<path d="M295.251 177.95H290.857V184.362H295.251V177.95Z" fill="#35322F"/>
<path d="M290.25 177.95H289.526V184.361H290.25V177.95Z" fill="#35322F"/>
<path d="M297.959 177.95H296.061V184.362H297.959V177.95Z" fill="#35322F"/>
<path d="M299.438 177.95H298.493V184.361H299.438V177.95Z" fill="#35322F"/>
<path d="M283.492 177.95H282.769V184.361H283.492V177.95Z" fill="#35322F"/>
<g style="mix-blend-mode:color-burn" opacity="0.38">
<path d="M116.476 239.737C116.459 241.798 113.7 242.956 111.359 243.663C108.225 244.599 104.871 245.527 101.61 245.57C100.639 245.834 99.6259 246.047 98.5786 246.225C96.7736 246.532 94.926 246.77 93.1465 247.179C91.3755 247.579 89.6726 248.175 88.2252 249.188C85.8497 250.849 84.3512 253.514 82.1119 255.344C76.8331 259.644 69.1021 258.392 62.4865 260.078C62.4184 260.095 62.3332 260.121 62.2566 260.138C43.3037 272.807 0.102172 273.701 0 273.258V255.574C18.3058 258.861 37.2841 255.957 55.394 251.521C60.8432 250.193 66.3094 248.703 71.2307 246.021C75.326 243.799 78.9531 240.802 83.023 238.528C84.5641 237.66 86.1647 236.911 87.7995 236.264C92.0226 234.552 96.5096 233.505 101.022 232.875C101.754 232.773 102.487 232.679 103.227 232.585C105.773 232.27 108.362 232.015 110.89 232.075H110.907C112.074 233.65 113.334 235.174 114.696 236.638C115.548 237.566 116.501 238.571 116.484 239.746L116.476 239.737Z" fill="#C9C9D1"/>
</g>
<g filter="url(#filter0_d_992_8725)">
<path d="M300.606 206.071L253.514 215.803L204.063 226.02L223.629 254.024L251.734 246.838L304.54 233.342C304.54 233.342 304.574 233.334 304.6 233.334L309.529 232.065L300.615 206.063L300.606 206.071Z" fill="#E5E5A8"/>
<mask id="mask3_992_8725" style="mask-type:luminance" maskUnits="userSpaceOnUse" x="204" y="206" width="106" height="49">
<path d="M300.611 206.072L253.519 215.803L204.068 226.021L223.633 254.024L251.739 246.838L304.545 233.343C304.545 233.343 304.579 233.334 304.605 233.334L309.534 232.066L300.62 206.063L300.611 206.072Z" fill="white"/>
</mask>
<g mask="url(#mask3_992_8725)">
<path d="M203.401 229.001C231.302 223.296 259.28 217.932 287.309 212.9C291.072 212.228 293.201 207.639 292.256 204.19C291.166 200.223 287.326 198.571 283.546 199.244C255.508 204.267 227.539 209.64 199.637 215.344C190.714 217.166 194.495 230.823 203.401 229.001Z" fill="#7E9355"/>
<path d="M195.94 232.321C203.875 244.335 212.449 255.906 221.568 267.043C223.995 270.006 229.069 269.554 231.581 267.043C234.51 264.114 234.016 259.993 231.581 257.03C223.22 246.821 215.438 236.187 208.167 225.178C203.169 217.609 190.9 224.693 195.94 232.321Z" fill="#7E9355"/>
<path d="M225.65 265.289C241.93 261.61 258.149 257.66 274.284 253.386C282.356 251.249 290.402 249.043 298.43 246.762C305.77 244.676 313.322 241.576 320.908 240.657C324.706 240.197 327.992 237.728 327.992 233.573C327.992 230.108 324.731 226.029 320.908 226.489C312.462 227.511 304.425 230.312 296.276 232.645C288.128 234.978 280.21 237.157 272.138 239.303C255.467 243.73 238.711 247.834 221.887 251.632C212.998 253.641 216.761 267.298 225.65 265.289Z" fill="#7E9355"/>
<path d="M209.483 226.046C209.27 227.306 208.742 228.319 207.789 229.171C206.086 230.695 208.598 233.19 210.292 231.674C211.646 230.456 212.591 228.779 212.897 226.983C213.059 226.037 212.65 225.075 211.663 224.803C210.811 224.573 209.645 225.092 209.483 226.037V226.046Z" fill="#7E9355"/>
<path d="M223.872 250.695C224.043 250.661 224.451 250.933 224.647 251.163C225.03 251.623 225.26 252.236 225.482 252.789C225.831 253.675 226.665 254.296 227.661 254.024C228.513 253.794 229.253 252.738 228.896 251.844C228.41 250.601 227.9 249.316 226.886 248.388C225.771 247.383 224.409 246.974 222.936 247.264C221.999 247.451 221.463 248.566 221.701 249.443C221.974 250.422 222.936 250.865 223.881 250.678L223.872 250.695Z" fill="#7E9355"/>
<path d="M263.434 221.406C263.161 220.946 262.702 220.588 262.037 220.52C255.422 219.847 247.708 223.049 244.881 229.452C242.08 235.803 249.011 238.877 254.375 238.162C259.594 237.464 269.871 233.683 269.717 227.076C269.624 223.1 266.746 221.618 263.434 221.406ZM264.064 227.621C264.064 227.621 264.064 227.604 264.055 227.595C264.157 227.578 264.243 227.57 264.302 227.57C264.243 227.57 264.166 227.595 264.072 227.621H264.064Z" fill="#7E9355"/>
</g>
</g>
<g filter="url(#filter1_d_992_8725)">
<path d="M296.569 203.313L249.476 213.044L200.025 223.262L219.591 251.265L247.697 244.079L300.502 230.584C300.502 230.584 300.536 230.575 300.562 230.575L305.492 229.307L296.577 203.304L296.569 203.313Z" fill="#E5E5A8"/>
<mask id="mask4_992_8725" style="mask-type:luminance" maskUnits="userSpaceOnUse" x="200" y="203" width="106" height="49">
<path d="M296.568 203.313L249.475 213.044L200.024 223.262L219.59 251.265L247.696 244.079L300.501 230.584C300.501 230.584 300.536 230.575 300.561 230.575L305.491 229.307L296.576 203.304L296.568 203.313Z" fill="white"/>
</mask>
<g mask="url(#mask4_992_8725)">
<path d="M199.371 226.242C227.272 220.537 255.25 215.173 283.279 210.141C287.043 209.469 289.171 204.879 288.226 201.431C287.136 197.463 283.296 195.812 279.516 196.484C251.478 201.508 223.509 206.88 195.607 212.585C186.684 214.407 190.465 228.064 199.371 226.242Z" fill="#7E9355"/>
<path d="M191.908 229.555C199.844 241.569 208.417 253.14 217.536 264.277C219.963 267.24 225.037 266.788 227.549 264.277C230.478 261.348 229.984 257.227 227.549 254.264C219.188 244.055 211.406 233.421 204.135 222.412C199.137 214.843 186.868 221.926 191.908 229.555Z" fill="#7E9355"/>
<path d="M221.621 262.521C237.9 258.843 254.12 254.892 270.254 250.618C278.326 248.481 286.372 246.276 294.401 243.994C301.74 241.908 309.292 238.809 316.879 237.889C320.676 237.43 323.963 234.96 323.963 230.805C323.963 227.34 320.702 223.262 316.879 223.722C308.433 224.743 300.395 227.544 292.247 229.877C284.099 232.21 276.18 234.39 268.109 236.536C251.438 240.963 234.682 245.067 217.857 248.864C208.968 250.874 212.732 264.531 221.621 262.521Z" fill="#7E9355"/>
<path d="M205.437 223.288C205.225 224.548 204.697 225.562 203.743 226.413C202.04 227.937 204.552 230.432 206.246 228.916C207.6 227.699 208.545 226.021 208.852 224.225C209.013 223.28 208.605 222.318 207.617 222.045C206.766 221.815 205.599 222.335 205.437 223.28V223.288Z" fill="#7E9355"/>
<path d="M219.84 247.936C220.01 247.902 220.419 248.174 220.614 248.404C220.998 248.864 221.228 249.477 221.449 250.03C221.798 250.916 222.632 251.537 223.629 251.265C224.471 251.035 225.221 249.979 224.863 249.085C224.378 247.842 223.867 246.556 222.854 245.628C221.738 244.624 220.376 244.215 218.903 244.504C217.967 244.692 217.43 245.807 217.669 246.684C217.941 247.663 218.903 248.106 219.848 247.919L219.84 247.936Z" fill="#7E9355"/>
<path d="M259.397 218.648C259.125 218.188 258.665 217.83 258.001 217.762C251.385 217.09 243.663 220.291 240.845 226.694C238.043 233.046 244.974 236.119 250.338 235.404C255.557 234.706 265.834 230.925 265.681 224.318C265.587 220.342 262.709 218.861 259.397 218.648ZM260.027 224.863C260.027 224.863 260.027 224.846 260.019 224.838C260.121 224.821 260.206 224.812 260.266 224.812C260.206 224.812 260.13 224.838 260.036 224.863H260.027Z" fill="#7E9355"/>
</g>
</g>
<g filter="url(#filter2_d_992_8725)">
<path d="M298.642 205.339L250.621 207.893L200.2 210.567L215.338 241.184L244.202 238.298L298.429 232.883C298.429 232.883 298.472 232.883 298.489 232.883L303.546 232.372L298.634 205.33L298.642 205.339Z" fill="#E5E5A8"/>
<mask id="mask5_992_8725" style="mask-type:luminance" maskUnits="userSpaceOnUse" x="200" y="205" width="104" height="37">
<path d="M298.637 205.339L250.616 207.894L200.195 210.567L215.333 241.185L244.196 238.298L298.424 232.883C298.424 232.883 298.467 232.883 298.484 232.883L303.541 232.372L298.628 205.331L298.637 205.339Z" fill="white"/>
</mask>
<g mask="url(#mask5_992_8725)">
<path d="M198.258 213.47C226.704 212.014 255.159 210.907 283.631 210.149C292.724 209.902 292.758 195.743 283.631 195.99C255.159 196.747 226.696 197.863 198.258 199.31C189.19 199.77 189.131 213.938 198.258 213.47Z" fill="#7E9355"/>
<path d="M191.685 216.536C197.475 229.06 203.895 241.261 210.936 253.13C215.585 260.963 227.828 253.845 223.163 245.987C216.121 234.118 209.701 221.917 203.912 209.392C202.311 205.918 197.296 205.05 194.222 206.855C190.663 208.941 190.067 213.062 191.685 216.544V216.536Z" fill="#7E9355"/>
<path d="M214.807 252.678C231.734 251.469 248.643 249.962 265.51 248.123C273.803 247.221 282.096 246.242 290.372 245.177C298.648 244.113 306.506 242.41 314.578 242.649C323.697 242.921 323.688 228.762 314.578 228.489C306.77 228.259 298.92 229.92 291.198 230.907C282.641 232.006 274.076 233.019 265.51 233.955C248.643 235.795 231.734 237.302 214.807 238.511C205.765 239.158 205.697 253.325 214.807 252.67V252.678Z" fill="#7E9355"/>
<path d="M205.456 211.665C205.132 212.661 204.451 213.563 203.557 214.151C202.757 214.67 202.425 215.717 202.919 216.569C203.387 217.361 204.536 217.727 205.337 217.207C207.031 216.1 208.232 214.534 208.862 212.61C209.16 211.699 208.513 210.677 207.627 210.43C206.665 210.166 205.745 210.753 205.447 211.665H205.456Z" fill="#7E9355"/>
<path d="M215.876 237.956C216.949 237.913 217.212 239.659 217.408 240.527C217.621 241.464 218.694 242.009 219.588 241.762C220.542 241.498 221.035 240.519 220.823 239.582C220.252 237.096 218.864 234.286 215.876 234.414C214.922 234.456 214.105 235.197 214.105 236.185C214.105 237.113 214.914 237.998 215.876 237.956Z" fill="#7E9355"/>
<path d="M259.589 214.917C259.385 214.423 258.985 213.997 258.338 213.836C251.892 212.175 243.787 214.185 240.032 220.094C236.311 225.951 242.705 230.038 248.112 230.132C253.374 230.226 264.102 228.029 264.945 221.473C265.456 217.531 262.825 215.624 259.581 214.925L259.589 214.917ZM259.283 221.158C259.283 221.158 259.283 221.141 259.283 221.132C259.385 221.132 259.47 221.132 259.53 221.141C259.47 221.141 259.393 221.141 259.291 221.158H259.283Z" fill="#7E9355"/>
</g>
</g>
<path d="M379.949 234.314C354.849 237.072 333.699 244.692 308.531 246.736C293.699 247.936 277.888 252.892 264.359 246.727C263.337 246.268 262.29 245.757 261.6 244.88C261.404 244.633 261.259 244.352 261.157 244.062L304.444 233.002C304.444 233.002 304.478 233.002 304.487 233.002C304.504 232.338 304.521 231.683 304.529 231.019C293.758 229.69 282.988 228.362 272.217 227.042C270.004 226.761 267.722 226.472 265.755 225.408C263.788 224.343 262.187 222.308 262.307 220.069C262.332 219.558 262.434 219.081 262.613 218.63C263.618 216.025 266.904 214.501 269.816 213.743C280.289 211.018 291.468 211.087 301.506 207.051C304.827 205.714 307.96 203.952 311.238 202.504C324.64 196.587 340.451 196.348 354.031 201.866C358.416 203.645 362.903 199.626 366.896 197.098C367.824 196.519 368.965 195.863 369.936 196.34C369.97 196.238 370.617 195.616 370.77 195.531C370.941 195.429 371.153 195.514 371.324 195.608C377.658 198.851 380.868 206.233 381.584 213.309C382.299 220.393 380.102 227.221 379.932 234.331L379.949 234.314Z" fill="#B77548"/>
<mask id="mask6_992_8725" style="mask-type:luminance" maskUnits="userSpaceOnUse" x="261" y="195" width="121" height="55">
<path d="M379.951 234.313C354.851 237.072 333.701 244.692 308.533 246.735C293.701 247.936 277.89 252.891 264.361 246.727C263.339 246.267 262.292 245.756 261.602 244.879C261.406 244.632 261.261 244.351 261.159 244.062L304.446 233.002C304.446 233.002 304.48 233.002 304.488 233.002C304.505 232.338 304.523 231.682 304.531 231.018C293.76 229.69 282.99 228.361 272.219 227.042C270.006 226.761 267.724 226.471 265.757 225.407C263.79 224.343 262.189 222.308 262.309 220.069C262.334 219.558 262.436 219.081 262.615 218.63C263.62 216.024 266.906 214.5 269.818 213.742C280.291 211.018 291.47 211.086 301.508 207.05C304.829 205.713 307.962 203.951 311.24 202.504C324.642 196.586 340.453 196.348 354.033 201.865C358.418 203.644 362.905 199.626 366.898 197.097C367.826 196.518 368.967 195.862 369.938 196.339C369.972 196.237 370.619 195.615 370.772 195.53C370.943 195.428 371.155 195.513 371.326 195.607C377.66 198.851 380.87 206.233 381.585 213.308C382.301 220.392 380.104 227.221 379.934 234.33L379.951 234.313Z" fill="white"/>
</mask>
<g mask="url(#mask6_992_8725)">
<g style="mix-blend-mode:color-burn">
<path d="M302.723 231.155C297.546 232.704 292.191 233.53 286.929 234.765C281.923 235.94 276.942 237.2 271.859 238.026C261.616 239.703 251.22 239.924 241.778 244.437C239.257 245.638 239.819 250.014 242.578 250.533C247.942 251.547 252.267 251.393 257.64 250.312C263.012 249.231 268.104 247.766 273.272 246.174C278.176 244.667 283.115 243.245 287.976 241.585C293.408 239.72 298.474 237.098 303.77 234.927C306.035 233.999 305.218 230.405 302.732 231.146L302.723 231.155Z" fill="#C9C9D1"/>
</g>
<g style="mix-blend-mode:color-burn">
<path d="M275.473 217.473C275.729 218.623 275.856 219.772 275.814 220.947C275.78 221.918 275.541 222.863 275.695 223.825C275.771 224.293 276.401 224.268 276.623 223.944C277.857 222.131 277.355 219.082 276.904 217.073C276.699 216.137 275.26 216.537 275.473 217.465V217.473Z" fill="#C9C9D1"/>
</g>
<g style="mix-blend-mode:color-burn">
<path d="M278.696 217.507C279.369 219.218 279.037 220.742 278.713 222.479C278.62 222.99 279.224 223.441 279.641 223.015C281.157 221.449 281.08 218.98 280.288 217.064C279.888 216.102 278.305 216.511 278.696 217.507Z" fill="#C9C9D1"/>
</g>
<g style="mix-blend-mode:color-burn">
<path d="M304.845 249.332C319.37 247.51 333.742 244.164 348.046 241.039C355.181 239.481 362.325 237.982 369.46 236.467C376.595 234.951 385.339 234.108 392.431 231.273C394.27 230.541 394.211 227.544 391.929 227.586C384.624 227.714 377.012 230.175 369.885 231.682C362.759 233.189 355.632 234.807 348.523 236.441C333.802 239.813 318.91 243.295 304.751 248.591C304.385 248.727 304.393 249.4 304.853 249.34L304.845 249.332Z" fill="#C9C9D1"/>
</g>
<g style="mix-blend-mode:color-burn">
<path d="M344.767 197.064C346.249 197.064 346.249 194.756 344.767 194.756C343.286 194.756 343.286 197.064 344.767 197.064Z" fill="#C9C9D1"/>
</g>
<g style="mix-blend-mode:color-burn">
<path d="M343.943 196.332C346.685 198.614 349.929 200.385 353.054 202.096C355.089 203.203 357.038 204.199 359.422 204.02C362.394 203.799 365.382 201.806 367.996 200.521C371.76 198.673 375.863 196.996 379.261 194.535C381.006 193.275 380.053 189.955 377.677 190.772C372.313 192.619 367.273 195.957 362.309 198.682C356.221 202.019 350.619 196.63 344.676 195.072C343.994 194.893 343.339 195.829 343.943 196.332Z" fill="#C9C9D1"/>
</g>
</g>
<path d="M271.513 222.734C271.505 223.108 271.471 223.534 271.181 223.781C270.968 223.96 270.67 223.994 270.389 224.019C268.44 224.155 266.481 224.062 264.557 223.721C263.978 223.619 263.374 223.483 262.914 223.108C262.105 222.453 261.977 221.278 262.02 220.239C262.054 219.192 262.25 218.034 263.059 217.37C263.638 216.893 264.421 216.757 265.17 216.646C266.252 216.476 271.054 215.13 271.718 215.88C272.101 216.305 271.65 218.791 271.624 219.396C271.59 220.511 271.513 221.627 271.513 222.742V222.734Z" fill="#FF9E97"/>
<path d="M412.811 173.164C402.032 177.098 393.322 185.476 382.569 189.486C378.09 191.155 370.564 191.078 369.252 195.667C367.899 200.401 370.7 205.186 372.13 209.895C375.774 221.942 370.334 234.91 371.704 247.417C371.858 248.805 372.428 250.516 373.824 250.627C380.738 245.246 389.789 243.509 398.516 242.666C407.243 241.823 416.175 241.662 424.459 238.801L425.328 169.35C421.241 170.857 416.924 171.674 412.828 173.164H412.811Z" fill="white"/>
<mask id="mask7_992_8725" style="mask-type:luminance" maskUnits="userSpaceOnUse" x="368" y="169" width="58" height="82">
<path d="M412.812 173.165C402.033 177.098 393.323 185.476 382.57 189.486C378.091 191.155 370.564 191.079 369.253 195.668C367.9 200.402 370.701 205.187 372.131 209.895C375.775 221.943 370.335 234.91 371.705 247.418C371.859 248.806 372.429 250.517 373.825 250.628C380.739 245.247 389.79 243.51 398.517 242.667C407.244 241.824 416.176 241.662 424.46 238.801L425.328 169.35C421.242 170.857 416.925 171.675 412.829 173.165H412.812Z" fill="white"/>
</mask>
<g mask="url(#mask7_992_8725)">
<g opacity="0.25">
<path d="M377.786 182.043C378.748 188.548 382.971 197.165 390.651 197.165C398.331 197.165 401.174 189.323 406.189 185.245C408.599 183.286 411.996 183.261 414.84 182.171C418.084 180.919 420.885 179.097 423.669 177.028C429.348 172.805 435.496 169.399 441.72 166.053C444.555 164.529 444.112 159.548 440.783 158.901C435.445 157.871 430.004 158.271 425.074 160.655C420.408 162.912 416.696 166.624 412.115 168.999C407.535 171.375 402.469 171.358 398.169 174.712C396.236 176.219 394.644 177.973 393.111 179.881C392.149 181.081 390.429 184.138 388.922 184.478H392.354C390.029 184.044 387.705 180.196 386.598 178.314C383.635 173.273 377.011 176.901 377.769 182.035L377.786 182.043Z" fill="#C9C9D1"/>
</g>
<g opacity="0.25">
<path d="M375.693 254.627C377.745 249.757 386.353 250.736 390.678 250.489C397.54 250.089 404.386 249.468 411.197 248.522C417.958 247.586 424.156 245.202 430.533 242.86C433.573 241.745 436.63 240.681 439.644 239.514C443.262 238.109 445.68 236.466 448.652 234.006C451.496 231.656 449.154 226.641 445.663 226.785C437.549 227.109 430.491 230.762 422.99 233.725C415.642 236.628 408.507 237.99 400.708 238.978C390.525 240.272 373.828 241.072 370.15 253.112C369.035 256.756 374.305 257.931 375.693 254.636V254.627Z" fill="#C9C9D1"/>
</g>
</g>
<defs>
<filter id="filter0_d_992_8725" x="204.063" y="206.063" width="105.471" height="48.9066" filterUnits="userSpaceOnUse" color-interpolation-filters="sRGB">
<feFlood flood-opacity="0" result="BackgroundImageFix"/>
<feColorMatrix in="SourceAlpha" type="matrix" values="0 0 0 0 0 0 0 0 0 0 0 0 0 0 0 0 0 0 127 0" result="hardAlpha"/>
<feOffset dy="0.945088"/>
<feColorMatrix type="matrix" values="0 0 0 0 0.717647 0 0 0 0 0.717647 0 0 0 0 0.717647 0 0 0 0.75 0"/>
<feBlend mode="normal" in2="BackgroundImageFix" result="effect1_dropShadow_992_8725"/>
<feBlend mode="normal" in="SourceGraphic" in2="effect1_dropShadow_992_8725" result="shape"/>
</filter>
<filter id="filter1_d_992_8725" x="200.024" y="203.304" width="105.468" height="48.9061" filterUnits="userSpaceOnUse" color-interpolation-filters="sRGB">
<feFlood flood-opacity="0" result="BackgroundImageFix"/>
<feColorMatrix in="SourceAlpha" type="matrix" values="0 0 0 0 0 0 0 0 0 0 0 0 0 0 0 0 0 0 127 0" result="hardAlpha"/>
<feOffset dy="0.945088"/>
<feColorMatrix type="matrix" values="0 0 0 0 0.717647 0 0 0 0 0.717647 0 0 0 0 0.717647 0 0 0 0.75 0"/>
<feBlend mode="normal" in2="BackgroundImageFix" result="effect1_dropShadow_992_8725"/>
<feBlend mode="normal" in="SourceGraphic" in2="effect1_dropShadow_992_8725" result="shape"/>
</filter>
<filter id="filter2_d_992_8725" x="200.195" y="205.33" width="103.352" height="36.7993" filterUnits="userSpaceOnUse" color-interpolation-filters="sRGB">
<feFlood flood-opacity="0" result="BackgroundImageFix"/>
<feColorMatrix in="SourceAlpha" type="matrix" values="0 0 0 0 0 0 0 0 0 0 0 0 0 0 0 0 0 0 127 0" result="hardAlpha"/>
<feOffset dy="0.945088"/>
<feColorMatrix type="matrix" values="0 0 0 0 0.717647 0 0 0 0 0.717647 0 0 0 0 0.717647 0 0 0 0.75 0"/>
<feBlend mode="normal" in2="BackgroundImageFix" result="effect1_dropShadow_992_8725"/>
<feBlend mode="normal" in="SourceGraphic" in2="effect1_dropShadow_992_8725" result="shape"/>
</filter>
</defs>
</svg>
