<svg width="322" height="168" viewBox="0 0 322 168" fill="none" xmlns="http://www.w3.org/2000/svg">
<g clip-path="url(#clip0_788_326)">
<mask id="mask0_788_326" style="mask-type:luminance" maskUnits="userSpaceOnUse" x="0" y="0" width="322" height="168">
<path d="M314 0H8C3.58172 0 0 2.52827 0 5.64706V162.353C0 165.472 3.58172 168 8 168H314C318.418 168 322 165.472 322 162.353V5.64706C322 2.52827 318.418 0 314 0Z" fill="white"/>
</mask>
<g mask="url(#mask0_788_326)">
<path d="M314 0H8C3.58172 0 0 2.51322 0 5.61345V161.387C0 164.487 3.58172 167 8 167H314C318.418 167 322 164.487 322 161.387V5.61345C322 2.51322 318.418 0 314 0Z" fill="#E1EDFF"/>
<path d="M29.2116 46.617C29.2116 43.8936 31.4543 42 34.7127 42C37.8441 42 39.833 43.7447 39.9176 46.5532H37.2093C37.1459 45.2128 36.1938 44.4255 34.6704 44.4255C32.9989 44.4255 31.9198 45.234 31.9198 46.5319C31.9198 47.6383 32.5122 48.2553 33.8029 48.5532L36.2361 49.0851C38.8808 49.6596 40.1715 51.0213 40.1715 53.3404C40.1715 56.234 37.9287 58.1064 34.5223 58.1064C31.2216 58.1064 29.0635 56.3404 29 53.5532H31.7082C31.7294 54.8723 32.7873 55.6596 34.5223 55.6596C36.3207 55.6596 37.4632 54.8723 37.4632 53.5745C37.4632 52.5319 36.9343 51.9149 35.6648 51.6383L33.2105 51.0851C30.5869 50.5106 29.2116 49 29.2116 46.617ZM46.9166 58.1064C43.8064 58.1064 41.6271 55.8298 41.6271 52.5745C41.6271 49.2766 43.764 47 46.832 47C49.9634 47 51.9522 49.1064 51.9522 52.383V53.1702L44.0814 53.1915C44.2718 55.0426 45.2451 55.9787 46.9589 55.9787C48.3765 55.9787 49.3075 55.4255 49.6037 54.4255H51.9946C51.5502 56.7234 49.646 58.1064 46.9166 58.1064ZM46.8531 49.1277C45.3297 49.1277 44.3988 49.9574 44.1449 51.5319H49.3921C49.3921 50.0851 48.3977 49.1277 46.8531 49.1277ZM56.5994 57.8298H54.0181V47.3191H56.409L56.6206 48.6809C57.2765 47.617 58.546 47 59.9636 47C62.5872 47 63.9413 48.6383 63.9413 51.3617V57.8298H61.36V51.9787C61.36 50.2128 60.4925 49.3617 59.1596 49.3617C57.5727 49.3617 56.5994 50.4681 56.5994 52.1702V57.8298ZM70.7726 58.1064C67.7469 58.1064 65.8639 55.8723 65.8639 52.617C65.8639 49.3404 67.7681 47 70.9207 47C72.3806 47 73.6712 47.617 74.3271 48.6596V42H76.8872V57.8298H74.5175L74.3483 56.1915C73.7135 57.4043 72.3594 58.1064 70.7726 58.1064ZM71.3438 55.7234C73.1423 55.7234 74.306 54.4255 74.306 52.5319C74.306 50.6383 73.1423 49.3191 71.3438 49.3191C69.5454 49.3191 68.4452 50.6596 68.4452 52.5319C68.4452 54.4043 69.5454 55.7234 71.3438 55.7234ZM91.7756 52.4681H88.3691V57.8298H85.6609V42.2766H91.7756C94.8852 42.2766 96.8952 44.3191 96.8952 47.3617C96.8952 50.3617 94.8641 52.4681 91.7756 52.4681ZM91.2466 44.7021H88.3691V50.0426H91.2043C93.0656 50.0426 94.0601 49.0426 94.0601 47.3404C94.0601 45.6383 93.0445 44.7021 91.2466 44.7021ZM101.49 58.1064C99.2685 58.1064 97.9144 56.8085 97.9144 54.8298C97.9144 52.8936 99.3108 51.6809 101.786 51.4894L104.918 51.2553V51.0213C104.918 49.5957 104.071 49.0213 102.76 49.0213C101.236 49.0213 100.39 49.6596 100.39 50.766H98.1894C98.1894 48.4894 100.051 47 102.887 47C105.701 47 107.436 48.5319 107.436 51.4468V57.8298H105.172L104.981 56.2766C104.537 57.3617 103.119 58.1064 101.49 58.1064ZM102.336 56.1489C103.923 56.1489 104.939 55.1915 104.939 53.5745V53.0213L102.76 53.1915C101.152 53.3404 100.538 53.8723 100.538 54.7234C100.538 55.6808 101.173 56.1489 102.336 56.1489ZM109.357 52.5532C109.357 49.2979 111.494 47 114.583 47C117.44 47 119.386 48.5957 119.661 51.1277H117.08C116.784 49.9362 115.916 49.3191 114.689 49.3191C113.039 49.3191 111.939 50.5745 111.939 52.5532C111.939 54.5319 112.954 55.766 114.605 55.766C115.895 55.766 116.805 55.1277 117.08 53.9787H119.683C119.365 56.4255 117.334 58.1064 114.605 58.1064C111.431 58.1064 109.357 55.8936 109.357 52.5532ZM124.207 57.8298H121.647V42H124.207V51.7234L128.269 47.3191H131.506L127.529 51.4894L131.422 57.8298H128.46L125.73 53.4043L124.207 55V57.8298ZM135.769 58.1064C133.547 58.1064 132.193 56.8085 132.193 54.8298C132.193 52.8936 133.59 51.6809 136.065 51.4894L139.196 51.2553V51.0213C139.196 49.5957 138.35 49.0213 137.038 49.0213C135.515 49.0213 134.669 49.6596 134.669 50.766H132.468C132.468 48.4894 134.33 47 137.165 47C139.979 47 141.714 48.5319 141.714 51.4468V57.8298H139.45L139.26 56.2766C138.816 57.3617 137.398 58.1064 135.769 58.1064ZM136.615 56.1489C138.202 56.1489 139.218 55.1915 139.218 53.5745V53.0213L137.038 53.1915C135.43 53.3404 134.817 53.8723 134.817 54.7234C134.817 55.6808 135.452 56.1489 136.615 56.1489ZM143.657 52.3404C143.657 49.2766 145.646 46.9787 148.629 46.9787C150.195 46.9787 151.422 47.6383 152.036 48.766L152.184 47.3191H154.575V57.2979C154.575 60.8085 152.48 63 149.095 63C146.09 63 144.038 61.2766 143.721 58.4681H146.302C146.471 59.8298 147.508 60.6383 149.095 60.6383C150.872 60.6383 152.015 59.5106 152.015 57.766V56.0213C151.359 57 150.068 57.617 148.566 57.617C145.604 57.617 143.657 55.383 143.657 52.3404ZM146.26 52.2766C146.26 54.0426 147.381 55.3617 149.074 55.3617C150.851 55.3617 151.951 54.1064 151.951 52.2766C151.951 50.4894 150.872 49.2553 149.074 49.2553C147.36 49.2553 146.26 50.5532 146.26 52.2766ZM161.922 58.1064C158.812 58.1064 156.633 55.8298 156.633 52.5745C156.633 49.2766 158.77 47 161.837 47C164.969 47 166.958 49.1064 166.958 52.383V53.1702L159.087 53.1915C159.277 55.0426 160.251 55.9787 161.964 55.9787C163.382 55.9787 164.313 55.4255 164.609 54.4255H167C166.556 56.7234 164.651 58.1064 161.922 58.1064ZM161.859 49.1277C160.335 49.1277 159.404 49.9574 159.15 51.5319H164.398C164.398 50.0851 163.403 49.1277 161.859 49.1277Z" fill="#1067F5"/>
<path d="M30.2768 73.3094L28.0898 69.5564H28.8188L30.4118 72.3374C30.4838 72.4724 30.5378 72.5804 30.6008 72.7244C30.6818 72.5624 30.6818 72.5624 30.7988 72.3374L32.3738 69.5564H33.0848L30.9248 73.3094V76.0005H30.2768V73.3094ZM32.6748 73.8224C32.6748 72.4904 33.6108 71.5275 34.8888 71.5275C36.1668 71.5275 37.1028 72.4904 37.1028 73.8224C37.1028 75.1454 36.1668 76.1085 34.8888 76.1085C33.6108 76.1085 32.6748 75.1454 32.6748 73.8224ZM33.3048 73.8135C33.3048 74.8395 33.9528 75.5505 34.8888 75.5505C35.8158 75.5505 36.4728 74.8395 36.4728 73.8135C36.4728 72.8055 35.8158 72.0854 34.8888 72.0854C33.9528 72.0854 33.3048 72.8055 33.3048 73.8135ZM41.0506 71.6444H41.6716V76.0005H41.1316L41.0506 75.2625C40.8076 75.7665 40.2046 76.1085 39.5206 76.1085C38.4946 76.1085 37.9366 75.4065 37.9366 74.3445V71.6355H38.5666V74.1465C38.5666 75.1815 39.0256 75.5505 39.7186 75.5505C40.5556 75.5505 41.0506 74.9925 41.0506 73.9575V71.6444ZM45.1553 73.8315C45.1553 72.4635 45.9923 71.5275 47.2613 71.5275C48.2693 71.5275 49.0073 72.1125 49.1783 73.0125H48.5573C48.3953 72.4095 47.8733 72.0764 47.2703 72.0764C46.3883 72.0764 45.7673 72.7514 45.7673 73.8224C45.7673 74.8574 46.3433 75.5505 47.2253 75.5505C47.8733 75.5505 48.3953 75.1905 48.5663 74.6325H49.1963C48.9893 75.5235 48.2153 76.1085 47.2253 76.1085C45.9923 76.1085 45.1553 75.1995 45.1553 73.8315ZM51.3881 76.1085C50.4611 76.1085 49.9121 75.5864 49.9121 74.8214C49.9121 74.0204 50.5241 73.5164 51.5411 73.4354L52.9811 73.3185V73.1745C52.9811 72.3195 52.4681 72.0495 51.8291 72.0495C51.0731 72.0495 50.6231 72.3914 50.6231 72.9764H50.0561C50.0561 72.0944 50.7761 71.5275 51.8471 71.5275C52.8551 71.5275 53.5931 72.0314 53.5931 73.1834V76.0005H53.0711L52.9901 75.2355C52.7201 75.7845 52.1261 76.1085 51.3881 76.1085ZM51.5321 75.6044C52.4501 75.6044 52.9811 74.9654 52.9811 74.0204V73.7865L51.6941 73.8855C50.8751 73.9575 50.5421 74.3175 50.5421 74.8035C50.5421 75.3345 50.9381 75.6044 51.5321 75.6044ZM55.4602 76.0005H54.8392V71.6444H55.3792L55.4692 72.4005C55.7572 71.8425 56.3332 71.5275 56.9632 71.5275C58.1602 71.5275 58.6552 72.2384 58.6552 73.3364V76.0005H58.0342V73.4715C58.0342 72.4545 57.5752 72.0945 56.8552 72.0945C55.9642 72.0945 55.4602 72.7424 55.4602 73.7234V76.0005ZM62.02 74.7765H62.614C62.614 75.2805 62.992 75.5955 63.604 75.5955C64.279 75.5955 64.675 75.3074 64.675 74.8394C64.675 74.4794 64.495 74.2725 63.982 74.1465L63.235 73.9575C62.479 73.7685 62.11 73.3724 62.11 72.7785C62.11 72.0135 62.749 71.5275 63.685 71.5275C64.603 71.5275 65.197 72.0315 65.224 72.8415H64.621C64.603 72.3375 64.252 72.0405 63.667 72.0405C63.055 72.0405 62.713 72.3014 62.713 72.7694C62.713 73.1024 62.947 73.3365 63.424 73.4535L64.171 73.6424C64.927 73.8314 65.269 74.1824 65.269 74.8124C65.269 75.5954 64.603 76.1085 63.613 76.1085C62.632 76.1085 62.02 75.5865 62.02 74.7765ZM68.1184 76.1085C66.8404 76.1085 65.9854 75.1904 65.9854 73.8224C65.9854 72.4634 66.8314 71.5275 68.0734 71.5275C69.2524 71.5275 70.0534 72.3645 70.0534 73.5975V73.9035H66.5884C66.6334 74.9655 67.1914 75.5775 68.1274 75.5775C68.8384 75.5775 69.2974 75.2714 69.4594 74.6954H70.0534C69.8194 75.6134 69.1444 76.1085 68.1184 76.1085ZM68.0734 72.0584C67.2544 72.0584 66.7144 72.5985 66.6064 73.4535H69.4324C69.4324 72.6165 68.8924 72.0584 68.0734 72.0584ZM71.6672 76.0005H71.0462V71.6444H71.5862L71.6762 72.4005C71.9642 71.8425 72.5402 71.5275 73.1702 71.5275C74.3672 71.5275 74.8622 72.2384 74.8622 73.3364V76.0005H74.2412V73.4715C74.2412 72.4545 73.7822 72.0945 73.0622 72.0945C72.1712 72.0945 71.6672 72.7424 71.6672 73.7234V76.0005ZM77.8099 76.1085C76.5409 76.1085 75.7939 75.1365 75.7939 73.8315C75.7939 72.5175 76.5409 71.5275 77.8369 71.5275C78.5569 71.5275 79.1329 71.8425 79.4389 72.4725V69.4395H80.0599V76.0005H79.5199L79.4569 75.1095C79.1509 75.7845 78.5389 76.1085 77.8099 76.1085ZM77.9179 75.5415C78.8719 75.5415 79.4299 74.8215 79.4299 73.8135C79.4299 72.8145 78.8719 72.0854 77.9179 72.0854C76.9729 72.0854 76.4239 72.8145 76.4239 73.8135C76.4239 74.8215 76.9729 75.5415 77.9179 75.5415ZM83.4109 77.8995V77.3865H83.8879C84.2659 77.3865 84.6439 77.3595 84.8599 76.7745L85.0489 76.2615L83.2849 71.6444H83.9419L85.3459 75.4425L86.7229 71.6444H87.3619L85.3639 76.9995C85.1119 77.6835 84.6889 77.9624 84.0679 77.9624C83.8069 77.9624 83.6089 77.9445 83.4109 77.8995ZM87.6328 73.8224C87.6328 72.4904 88.5688 71.5275 89.8468 71.5275C91.1248 71.5275 92.0608 72.4904 92.0608 73.8224C92.0608 75.1454 91.1248 76.1085 89.8468 76.1085C88.5688 76.1085 87.6328 75.1454 87.6328 73.8224ZM88.2628 73.8135C88.2628 74.8395 88.9108 75.5505 89.8468 75.5505C90.7738 75.5505 91.4308 74.8395 91.4308 73.8135C91.4308 72.8055 90.7738 72.0854 89.8468 72.0854C88.9108 72.0854 88.2628 72.8055 88.2628 73.8135ZM96.0086 71.6444H96.6296V76.0005H96.0896L96.0086 75.2625C95.7656 75.7665 95.1626 76.1085 94.4786 76.1085C93.4526 76.1085 92.8946 75.4065 92.8946 74.3445V71.6355H93.5246V74.1465C93.5246 75.1815 93.9837 75.5505 94.6767 75.5505C95.5137 75.5505 96.0086 74.9925 96.0086 73.9575V71.6444ZM100.2 71.5904V72.1485H99.8582C99.0572 72.1485 98.5443 72.6884 98.5443 73.5164V76.0005H97.9232V71.6444H98.5082L98.5532 72.3195C98.7242 71.8515 99.1832 71.5454 99.7952 71.5454C99.9302 71.5454 100.047 71.5544 100.2 71.5904ZM103.522 77.8995V71.6444H104.062L104.125 72.5265C104.431 71.8515 105.043 71.5275 105.772 71.5275C107.032 71.5275 107.788 72.4905 107.788 73.8045C107.788 75.1185 107.059 76.1085 105.772 76.1085C105.034 76.1085 104.449 75.7935 104.143 75.1635V77.8995H103.522ZM104.152 73.8224C104.152 74.8214 104.71 75.5505 105.664 75.5505C106.609 75.5505 107.158 74.8214 107.158 73.8224C107.158 72.8144 106.609 72.0945 105.664 72.0945C104.71 72.0945 104.152 72.8144 104.152 73.8224ZM110.029 76.1085C109.102 76.1085 108.553 75.5864 108.553 74.8214C108.553 74.0204 109.165 73.5164 110.182 73.4354L111.622 73.3185V73.1745C111.622 72.3195 111.109 72.0495 110.47 72.0495C109.714 72.0495 109.264 72.3914 109.264 72.9764H108.697C108.697 72.0944 109.417 71.5275 110.488 71.5275C111.496 71.5275 112.234 72.0314 112.234 73.1834V76.0005H111.712L111.631 75.2355C111.361 75.7845 110.767 76.1085 110.029 76.1085ZM110.173 75.6044C111.091 75.6044 111.622 74.9654 111.622 74.0204V73.7865L110.335 73.8855C109.516 73.9575 109.183 74.3175 109.183 74.8035C109.183 75.3345 109.579 75.6044 110.173 75.6044ZM113.174 73.8315C113.174 72.4635 114.011 71.5275 115.28 71.5275C116.288 71.5275 117.026 72.1125 117.197 73.0125H116.576C116.414 72.4095 115.892 72.0764 115.289 72.0764C114.407 72.0764 113.786 72.7514 113.786 73.8224C113.786 74.8574 114.362 75.5505 115.244 75.5505C115.892 75.5505 116.414 75.1905 116.585 74.6325H117.215C117.008 75.5235 116.234 76.1085 115.244 76.1085C114.011 76.1085 113.174 75.1995 113.174 73.8315ZM118.804 76.0005H118.183V69.4395H118.804V73.8944L120.964 71.6444H121.747L120.073 73.3814L121.756 76.0005H121.036L119.65 73.8224L118.804 74.6954V76.0005ZM123.678 76.1085C122.751 76.1085 122.202 75.5864 122.202 74.8214C122.202 74.0204 122.814 73.5164 123.831 73.4354L125.271 73.3185V73.1745C125.271 72.3195 124.758 72.0495 124.119 72.0495C123.363 72.0495 122.913 72.3914 122.913 72.9764H122.346C122.346 72.0944 123.066 71.5275 124.137 71.5275C125.145 71.5275 125.883 72.0314 125.883 73.1834V76.0005H125.361L125.28 75.2355C125.01 75.7845 124.416 76.1085 123.678 76.1085ZM123.822 75.6044C124.74 75.6044 125.271 74.9654 125.271 74.0204V73.7865L123.984 73.8855C123.165 73.9575 122.832 74.3175 122.832 74.8035C122.832 75.3345 123.228 75.6044 123.822 75.6044ZM126.832 73.6964C126.832 72.5084 127.597 71.5275 128.875 71.5275C129.631 71.5275 130.207 71.8784 130.486 72.5174L130.549 71.6444H131.089V75.8654C131.089 77.1614 130.261 78.0075 128.983 78.0075C127.867 78.0075 127.084 77.3774 126.913 76.3244H127.534C127.669 77.0264 128.209 77.4405 128.992 77.4405C129.883 77.4405 130.477 76.8375 130.477 75.9285V74.8934C130.18 75.5054 129.577 75.8654 128.83 75.8654C127.588 75.8654 126.832 74.8844 126.832 73.6964ZM127.453 73.6874C127.453 74.5784 128.002 75.3074 128.92 75.3074C129.865 75.3074 130.423 74.6234 130.423 73.6874C130.423 72.7604 129.883 72.0764 128.929 72.0764C127.993 72.0764 127.453 72.8054 127.453 73.6874ZM134.212 76.1085C132.934 76.1085 132.079 75.1904 132.079 73.8224C132.079 72.4634 132.925 71.5275 134.167 71.5275C135.346 71.5275 136.147 72.3645 136.147 73.5975V73.9035H132.682C132.727 74.9655 133.285 75.5775 134.221 75.5775C134.932 75.5775 135.391 75.2714 135.553 74.6954H136.147C135.913 75.6134 135.238 76.1085 134.212 76.1085ZM134.167 72.0584C133.348 72.0584 132.808 72.5985 132.7 73.4535H135.526C135.526 72.6165 134.986 72.0584 134.167 72.0584ZM140.635 76.0005H140.023V72.1665H139.15V71.6444H140.023V70.2674H140.635V71.6444H141.508V72.1665H140.635V76.0005ZM142.938 75.9914H142.317V69.4395H142.938V72.4005C143.217 71.8785 143.748 71.5275 144.477 71.5275C145.62 71.5275 146.133 72.2384 146.133 73.3364V76.0005H145.512V73.4715C145.512 72.4545 145.035 72.0945 144.36 72.0945C143.424 72.0945 142.938 72.7875 142.938 73.6245V75.9914ZM149.648 71.5904V72.1485H149.306C148.505 72.1485 147.992 72.6884 147.992 73.5164V76.0005H147.371V71.6444H147.956L148.001 72.3195C148.172 71.8515 148.631 71.5454 149.243 71.5454C149.378 71.5454 149.495 71.5544 149.648 71.5904ZM150 73.8224C150 72.4904 150.936 71.5275 152.214 71.5275C153.492 71.5275 154.428 72.4904 154.428 73.8224C154.428 75.1454 153.492 76.1085 152.214 76.1085C150.936 76.1085 150 75.1454 150 73.8224ZM150.63 73.8135C150.63 74.8395 151.278 75.5505 152.214 75.5505C153.141 75.5505 153.798 74.8395 153.798 73.8135C153.798 72.8055 153.141 72.0854 152.214 72.0854C151.278 72.0854 150.63 72.8055 150.63 73.8135ZM158.376 71.6444H158.997V76.0005H158.457L158.376 75.2625C158.133 75.7665 157.53 76.1085 156.846 76.1085C155.82 76.1085 155.262 75.4065 155.262 74.3445V71.6355H155.892V74.1465C155.892 75.1815 156.351 75.5505 157.044 75.5505C157.881 75.5505 158.376 74.9925 158.376 73.9575V71.6444ZM159.994 73.6964C159.994 72.5084 160.759 71.5275 162.037 71.5275C162.793 71.5275 163.369 71.8784 163.648 72.5174L163.711 71.6444H164.251V75.8654C164.251 77.1614 163.423 78.0075 162.145 78.0075C161.029 78.0075 160.246 77.3774 160.075 76.3244H160.696C160.831 77.0264 161.371 77.4405 162.154 77.4405C163.045 77.4405 163.639 76.8375 163.639 75.9285V74.8934C163.342 75.5054 162.739 75.8654 161.992 75.8654C160.75 75.8654 159.994 74.8844 159.994 73.6964ZM160.615 73.6874C160.615 74.5784 161.164 75.3074 162.082 75.3074C163.027 75.3074 163.585 74.6234 163.585 73.6874C163.585 72.7604 163.045 72.0764 162.091 72.0764C161.155 72.0764 160.615 72.8054 160.615 73.6874ZM166.167 75.9914H165.546V69.4395H166.167V72.4005C166.446 71.8785 166.977 71.5275 167.706 71.5275C168.849 71.5275 169.362 72.2384 169.362 73.3364V76.0005H168.741V73.4715C168.741 72.4545 168.264 72.0945 167.589 72.0945C166.653 72.0945 166.167 72.7875 166.167 73.6245V75.9914ZM174.347 76.1085C173.42 76.1085 172.871 75.5864 172.871 74.8214C172.871 74.0204 173.483 73.5164 174.5 73.4354L175.94 73.3185V73.1745C175.94 72.3195 175.427 72.0495 174.788 72.0495C174.032 72.0495 173.582 72.3914 173.582 72.9764H173.015C173.015 72.0944 173.735 71.5275 174.806 71.5275C175.814 71.5275 176.552 72.0314 176.552 73.1834V76.0005H176.03L175.949 75.2355C175.679 75.7845 175.085 76.1085 174.347 76.1085ZM174.491 75.6044C175.409 75.6044 175.94 74.9654 175.94 74.0204V73.7865L174.653 73.8855C173.834 73.9575 173.501 74.3175 173.501 74.8035C173.501 75.3345 173.897 75.6044 174.491 75.6044ZM28.3418 87.8315C28.3418 86.4635 29.1788 85.5275 30.4478 85.5275C31.4558 85.5275 32.1938 86.1125 32.3648 87.0125H31.7438C31.5818 86.4095 31.0598 86.0764 30.4568 86.0764C29.5748 86.0764 28.9538 86.7514 28.9538 87.8224C28.9538 88.8574 29.5298 89.5505 30.4118 89.5505C31.0598 89.5505 31.5818 89.1905 31.7528 88.6325H32.3828C32.1758 89.5235 31.4018 90.1085 30.4118 90.1085C29.1788 90.1085 28.3418 89.1995 28.3418 87.8315ZM34.5746 90.1085C33.6476 90.1085 33.0986 89.5864 33.0986 88.8214C33.0986 88.0204 33.7106 87.5164 34.7276 87.4354L36.1676 87.3185V87.1745C36.1676 86.3195 35.6546 86.0495 35.0156 86.0495C34.2596 86.0495 33.8096 86.3914 33.8096 86.9764H33.2426C33.2426 86.0944 33.9626 85.5275 35.0336 85.5275C36.0416 85.5275 36.7796 86.0314 36.7796 87.1834V90.0005H36.2576L36.1766 89.2355C35.9066 89.7845 35.3126 90.1085 34.5746 90.1085ZM34.7186 89.6044C35.6366 89.6044 36.1676 88.9654 36.1676 88.0204V87.7865L34.8806 87.8855C34.0616 87.9575 33.7286 88.3175 33.7286 88.8035C33.7286 89.3345 34.1246 89.6044 34.7186 89.6044ZM38.5657 90.0005H38.0257V83.4395H38.6467V86.4904C38.9527 85.8514 39.5467 85.5275 40.2847 85.5275C41.5537 85.5275 42.2917 86.5175 42.2917 87.8315C42.2917 89.1365 41.5357 90.1085 40.2667 90.1085C39.5377 90.1085 38.9347 89.7845 38.6287 89.1095L38.5657 90.0005ZM38.6557 87.8135C38.6557 88.8215 39.2137 89.5415 40.1677 89.5415C41.1127 89.5415 41.6617 88.8215 41.6617 87.8135C41.6617 86.8145 41.1127 86.0854 40.1677 86.0854C39.2137 86.0854 38.6557 86.8145 38.6557 87.8135ZM44.1071 89.6945C44.1071 90.2525 43.6751 90.7385 43.1171 90.8195V90.4865C43.4411 90.4325 43.6751 90.1984 43.6751 89.9464C43.6211 89.9824 43.5491 90.0095 43.4411 90.0095C43.1891 90.0095 42.9731 89.8295 42.9731 89.5235C42.9731 89.2085 43.1891 88.9835 43.5041 88.9835C43.8281 88.9835 44.1071 89.2445 44.1071 89.6945ZM48.8597 90.0005H48.2477V86.1665H47.3747V85.6444H48.2477V84.2674H48.8597V85.6444H49.7327V86.1665H48.8597V90.0005ZM52.8184 85.5904V86.1485H52.4764C51.6754 86.1485 51.1624 86.6884 51.1624 87.5164V90.0005H50.5414V85.6444H51.1264L51.1714 86.3195C51.3424 85.8515 51.8014 85.5454 52.4134 85.5454C52.5484 85.5454 52.6654 85.5544 52.8184 85.5904ZM56.7039 85.6444H57.3249V90.0005H56.7849L56.7039 89.2625C56.4609 89.7665 55.8579 90.1085 55.1739 90.1085C54.1479 90.1085 53.5899 89.4065 53.5899 88.3445V85.6355H54.2199V88.1465C54.2199 89.1815 54.6789 89.5505 55.3719 89.5505C56.2089 89.5505 56.7039 88.9925 56.7039 87.9575V85.6444ZM58.2246 87.8315C58.2246 86.4635 59.0616 85.5275 60.3306 85.5275C61.3386 85.5275 62.0766 86.1125 62.2476 87.0125H61.6266C61.4646 86.4095 60.9426 86.0764 60.3396 86.0764C59.4576 86.0764 58.8366 86.7514 58.8366 87.8224C58.8366 88.8574 59.4126 89.5505 60.2946 89.5505C60.9426 89.5505 61.4646 89.1905 61.6356 88.6325H62.2656C62.0586 89.5235 61.2846 90.1085 60.2946 90.1085C59.0616 90.1085 58.2246 89.1995 58.2246 87.8315ZM63.8544 90.0005H63.2334V83.4395H63.8544V87.8944L66.0144 85.6444H66.7974L65.1234 87.3814L66.8064 90.0005H66.0864L64.7004 87.8224L63.8544 88.6954V90.0005ZM68.6462 89.6945C68.6462 90.2525 68.2142 90.7385 67.6562 90.8195V90.4865C67.9802 90.4325 68.2142 90.1984 68.2142 89.9464C68.1602 89.9824 68.0882 90.0095 67.9802 90.0095C67.7282 90.0095 67.5122 89.8295 67.5122 89.5235C67.5122 89.2085 67.7282 88.9835 68.0432 88.9835C68.3672 88.9835 68.6462 89.2445 68.6462 89.6945ZM72.9398 90.0005H72.3998V83.4395H73.0208V86.4904C73.3268 85.8514 73.9208 85.5275 74.6588 85.5275C75.9278 85.5275 76.6658 86.5175 76.6658 87.8315C76.6658 89.1365 75.9098 90.1085 74.6408 90.1085C73.9118 90.1085 73.3088 89.7845 73.0028 89.1095L72.9398 90.0005ZM73.0298 87.8135C73.0298 88.8215 73.5878 89.5415 74.5418 89.5415C75.4868 89.5415 76.0358 88.8215 76.0358 87.8135C76.0358 86.8145 75.4868 86.0854 74.5418 86.0854C73.5878 86.0854 73.0298 86.8145 73.0298 87.8135ZM77.9616 84.4474C77.7096 84.4474 77.5026 84.2404 77.5026 83.9884C77.5026 83.7364 77.7096 83.5204 77.9616 83.5204C78.2136 83.5204 78.4296 83.7364 78.4296 83.9884C78.4296 84.2404 78.2136 84.4474 77.9616 84.4474ZM77.6556 90.0005V85.6444H78.2766V90.0005H77.6556ZM80.2196 90.0005H79.5986V83.4395H80.2196V87.8944L82.3796 85.6444H83.1626L81.4886 87.3814L83.1716 90.0005H82.4516L81.0656 87.8224L80.2196 88.6954V90.0005ZM85.591 90.1085C84.313 90.1085 83.458 89.1904 83.458 87.8224C83.458 86.4634 84.304 85.5275 85.546 85.5275C86.725 85.5275 87.526 86.3645 87.526 87.5975V87.9035H84.061C84.106 88.9655 84.664 89.5775 85.6 89.5775C86.311 89.5775 86.77 89.2714 86.932 88.6954H87.526C87.292 89.6133 86.6171 90.1085 85.591 90.1085ZM85.546 86.0584C84.727 86.0584 84.187 86.5985 84.079 87.4535H86.905C86.905 86.6165 86.365 86.0584 85.546 86.0584ZM92.266 90.1085C91.339 90.1085 90.79 89.5864 90.79 88.8214C90.79 88.0204 91.402 87.5164 92.419 87.4354L93.859 87.3185V87.1745C93.859 86.3195 93.346 86.0495 92.707 86.0495C91.951 86.0495 91.501 86.3914 91.501 86.9764H90.934C90.934 86.0944 91.654 85.5275 92.725 85.5275C93.733 85.5275 94.471 86.0314 94.471 87.1834V90.0005H93.9491L93.868 89.2355C93.598 89.7845 93.004 90.1085 92.266 90.1085ZM92.41 89.6044C93.328 89.6044 93.859 88.9654 93.859 88.0204V87.7865L92.572 87.8855C91.753 87.9575 91.42 88.3175 91.42 88.8035C91.42 89.3345 91.816 89.6044 92.41 89.6044ZM96.3382 90.0005H95.7171V85.6444H96.2571L96.3471 86.4005C96.6351 85.8425 97.2112 85.5275 97.8411 85.5275C99.0381 85.5275 99.5331 86.2384 99.5331 87.3364V90.0005H98.9121V87.4715C98.9121 86.4545 98.4531 86.0945 97.7331 86.0945C96.8421 86.0945 96.3382 86.7423 96.3382 87.7234V90.0005ZM102.481 90.1085C101.212 90.1085 100.465 89.1365 100.465 87.8315C100.465 86.5175 101.212 85.5275 102.508 85.5275C103.228 85.5275 103.804 85.8425 104.11 86.4725V83.4395H104.731V90.0005H104.191L104.128 89.1095C103.822 89.7845 103.21 90.1085 102.481 90.1085ZM102.589 89.5415C103.543 89.5415 104.101 88.8215 104.101 87.8135C104.101 86.8145 103.543 86.0854 102.589 86.0854C101.644 86.0854 101.095 86.8145 101.095 87.8135C101.095 88.8215 101.644 89.5415 102.589 89.5415ZM109.063 90.0005H108.523V83.4395H109.144V86.4904C109.45 85.8514 110.044 85.5275 110.782 85.5275C112.051 85.5275 112.789 86.5175 112.789 87.8315C112.789 89.1365 112.033 90.1085 110.764 90.1085C110.035 90.1085 109.432 89.7845 109.126 89.1095L109.063 90.0005ZM109.153 87.8135C109.153 88.8215 109.711 89.5415 110.665 89.5415C111.61 89.5415 112.159 88.8215 112.159 87.8135C112.159 86.8145 111.61 86.0854 110.665 86.0854C109.711 86.0854 109.153 86.8145 109.153 87.8135ZM116.733 85.6444H117.354V90.0005H116.814L116.733 89.2625C116.49 89.7665 115.887 90.1085 115.203 90.1085C114.177 90.1085 113.619 89.4065 113.619 88.3445V85.6355H114.249V88.1465C114.249 89.1815 114.708 89.5505 115.401 89.5505C116.238 89.5505 116.733 88.9925 116.733 87.9575V85.6444ZM118.191 88.7765H118.785C118.785 89.2805 119.163 89.5955 119.775 89.5955C120.45 89.5955 120.846 89.3074 120.846 88.8394C120.846 88.4794 120.666 88.2725 120.153 88.1465L119.406 87.9575C118.65 87.7685 118.281 87.3724 118.281 86.7785C118.281 86.0135 118.92 85.5275 119.856 85.5275C120.774 85.5275 121.368 86.0315 121.395 86.8415H120.792C120.774 86.3375 120.423 86.0405 119.838 86.0405C119.226 86.0405 118.884 86.3014 118.884 86.7694C118.884 87.1024 119.118 87.3365 119.595 87.4535L120.342 87.6424C121.098 87.8314 121.44 88.1824 121.44 88.8124C121.44 89.5954 120.774 90.1085 119.784 90.1085C118.803 90.1085 118.191 89.5865 118.191 88.7765ZM124.289 90.1085C123.011 90.1085 122.156 89.1904 122.156 87.8224C122.156 86.4634 123.002 85.5275 124.244 85.5275C125.423 85.5275 126.224 86.3645 126.224 87.5975V87.9035H122.759C122.804 88.9655 123.362 89.5775 124.298 89.5775C125.009 89.5775 125.468 89.2714 125.63 88.6954H126.224C125.99 89.6133 125.315 90.1085 124.289 90.1085ZM124.244 86.0584C123.425 86.0584 122.885 86.5985 122.777 87.4535H125.603C125.603 86.6165 125.063 86.0584 124.244 86.0584ZM126.848 88.7765H127.442C127.442 89.2805 127.82 89.5955 128.432 89.5955C129.107 89.5955 129.503 89.3074 129.503 88.8394C129.503 88.4794 129.323 88.2725 128.81 88.1465L128.063 87.9575C127.307 87.7685 126.938 87.3724 126.938 86.7785C126.938 86.0135 127.577 85.5275 128.513 85.5275C129.431 85.5275 130.025 86.0315 130.052 86.8415H129.449C129.431 86.3375 129.08 86.0405 128.495 86.0405C127.883 86.0405 127.541 86.3014 127.541 86.7694C127.541 87.1024 127.775 87.3365 128.252 87.4535L128.999 87.6424C129.755 87.8314 130.097 88.1824 130.097 88.8124C130.097 89.5954 129.431 90.1085 128.441 90.1085C127.46 90.1085 126.848 89.5865 126.848 88.7765ZM134.534 90.0005L133.094 85.6444H133.733L134.588 88.2725C134.687 88.5605 134.768 88.8575 134.858 89.2085C134.93 88.8575 135.074 88.4165 135.119 88.2725L135.983 85.6444H136.622L137.477 88.2725C137.558 88.5065 137.666 88.8845 137.747 89.2085C137.837 88.8485 137.855 88.7405 138.008 88.2725L138.872 85.6444H139.52L138.044 90.0005H137.441L136.541 87.2645C136.433 86.9405 136.361 86.6704 136.307 86.4094C136.244 86.6434 136.172 86.9045 136.055 87.2645L135.155 90.0005H134.534ZM140.601 84.4474C140.349 84.4474 140.142 84.2404 140.142 83.9884C140.142 83.7364 140.349 83.5204 140.601 83.5204C140.853 83.5204 141.069 83.7364 141.069 83.9884C141.069 84.2404 140.853 84.4474 140.601 84.4474ZM140.295 90.0005V85.6444H140.916V90.0005H140.295ZM143.21 90.0005H142.598V86.1665H141.725V85.6444H142.598V84.2674H143.21V85.6444H144.083V86.1665H143.21V90.0005ZM145.513 89.9914H144.892V83.4395H145.513V86.4005C145.792 85.8785 146.323 85.5275 147.052 85.5275C148.195 85.5275 148.708 86.2384 148.708 87.3364V90.0005H148.087V87.4715C148.087 86.4545 147.61 86.0945 146.935 86.0945C145.999 86.0945 145.513 86.7875 145.513 87.6245V89.9914ZM154.269 90.1085C152.991 90.1085 152.136 89.1904 152.136 87.8224C152.136 86.4634 152.982 85.5275 154.224 85.5275C155.403 85.5275 156.204 86.3645 156.204 87.5975V87.9035H152.739C152.784 88.9655 153.342 89.5775 154.278 89.5775C154.989 89.5775 155.448 89.2714 155.61 88.6954H156.204C155.97 89.6133 155.295 90.1085 154.269 90.1085ZM154.224 86.0584C153.405 86.0584 152.865 86.5985 152.757 87.4535H155.583C155.583 86.6165 155.043 86.0584 154.224 86.0584ZM158.404 90.1085C157.477 90.1085 156.928 89.5864 156.928 88.8214C156.928 88.0204 157.54 87.5164 158.557 87.4354L159.997 87.3185V87.1745C159.997 86.3195 159.484 86.0495 158.845 86.0495C158.089 86.0495 157.639 86.3914 157.639 86.9764H157.072C157.072 86.0944 157.792 85.5275 158.863 85.5275C159.871 85.5275 160.609 86.0314 160.609 87.1834V90.0005H160.087L160.006 89.2355C159.736 89.7845 159.142 90.1085 158.404 90.1085ZM158.548 89.6044C159.466 89.6044 159.997 88.9654 159.997 88.0204V87.7865L158.71 87.8855C157.891 87.9575 157.558 88.3175 157.558 88.8035C157.558 89.3345 157.954 89.6044 158.548 89.6044ZM161.486 88.7765H162.08C162.08 89.2805 162.458 89.5955 163.07 89.5955C163.745 89.5955 164.141 89.3074 164.141 88.8394C164.141 88.4794 163.961 88.2725 163.448 88.1465L162.701 87.9575C161.945 87.7685 161.576 87.3724 161.576 86.7785C161.576 86.0135 162.215 85.5275 163.151 85.5275C164.069 85.5275 164.663 86.0315 164.69 86.8415H164.087C164.069 86.3375 163.718 86.0405 163.133 86.0405C162.521 86.0405 162.179 86.3014 162.179 86.7694C162.179 87.1024 162.413 87.3365 162.89 87.4535L163.637 87.6424C164.393 87.8314 164.735 88.1824 164.735 88.8124C164.735 89.5954 164.069 90.1085 163.079 90.1085C162.098 90.1085 161.486 89.5865 161.486 88.7765ZM167.584 90.1085C166.306 90.1085 165.451 89.1904 165.451 87.8224C165.451 86.4634 166.297 85.5275 167.539 85.5275C168.718 85.5275 169.519 86.3645 169.519 87.5975V87.9035H166.054C166.099 88.9655 166.657 89.5775 167.593 89.5775C168.304 89.5775 168.763 89.2714 168.925 88.6954H169.519C169.285 89.6133 168.61 90.1085 167.584 90.1085ZM167.539 86.0584C166.72 86.0584 166.18 86.5985 166.072 87.4535H168.898C168.898 86.6165 168.358 86.0584 167.539 86.0584ZM29.8988 104.108C28.9718 104.108 28.4228 103.586 28.4228 102.821C28.4228 102.02 29.0348 101.516 30.0518 101.435L31.4918 101.318V101.174C31.4918 100.319 30.9788 100.049 30.3398 100.049C29.5838 100.049 29.1338 100.391 29.1338 100.976H28.5668C28.5668 100.094 29.2868 99.5275 30.3578 99.5275C31.3658 99.5275 32.1038 100.031 32.1038 101.183V104H31.5818L31.5008 103.235C31.2308 103.784 30.6368 104.108 29.8988 104.108ZM30.0428 103.604C30.9608 103.604 31.4918 102.965 31.4918 102.02V101.786L30.2048 101.885C29.3858 101.957 29.0528 102.317 29.0528 102.803C29.0528 103.334 29.4488 103.604 30.0428 103.604ZM33.9709 104H33.3499V99.6444H33.8899L33.9799 100.4C34.2679 99.8425 34.8439 99.5275 35.4739 99.5275C36.6709 99.5275 37.1659 100.238 37.1659 101.336V104H36.5449V101.471C36.5449 100.454 36.0859 100.094 35.3659 100.094C34.4749 100.094 33.9709 100.742 33.9709 101.723V104ZM37.8748 105.899V105.386H38.3518C38.7298 105.386 39.1078 105.359 39.3238 104.774L39.5128 104.261L37.7488 99.6444H38.4058L39.8098 103.442L41.1868 99.6444H41.8258L39.8278 104.999C39.5758 105.683 39.1528 105.962 38.5318 105.962C38.2708 105.962 38.0728 105.944 37.8748 105.899ZM43.4701 104L42.0301 99.6444H42.6691L43.5241 102.272C43.6231 102.56 43.7041 102.857 43.7941 103.208C43.8661 102.857 44.0101 102.416 44.0551 102.272L44.9191 99.6444H45.5581L46.4131 102.272C46.4941 102.506 46.6021 102.884 46.6831 103.208C46.7731 102.848 46.7911 102.74 46.9441 102.272L47.8081 99.6444H48.4561L46.9801 104H46.3771L45.4771 101.264C45.3691 100.94 45.2971 100.67 45.2431 100.409C45.1801 100.643 45.1081 100.904 44.9911 101.264L44.0911 104H43.4701ZM49.8528 103.991H49.2318V97.4395H49.8528V100.4C50.1318 99.8785 50.6628 99.5275 51.3918 99.5275C52.5348 99.5275 53.0478 100.238 53.0478 101.336V104H52.4268V101.471C52.4268 100.454 51.9498 100.094 51.2748 100.094C50.3388 100.094 49.8528 100.787 49.8528 101.624V103.991ZM56.1125 104.108C54.8345 104.108 53.9795 103.19 53.9795 101.822C53.9795 100.463 54.8255 99.5275 56.0675 99.5275C57.2465 99.5275 58.0475 100.364 58.0475 101.597V101.903H54.5825C54.6275 102.965 55.1855 103.577 56.1215 103.577C56.8325 103.577 57.2915 103.271 57.4535 102.695H58.0475C57.8135 103.613 57.1385 104.108 56.1125 104.108ZM56.0675 100.058C55.2485 100.058 54.7085 100.598 54.6005 101.453H57.4265C57.4265 100.616 56.8865 100.058 56.0675 100.058ZM61.3174 99.5904V100.148H60.9754C60.1744 100.148 59.6614 100.688 59.6614 101.516V104H59.0404V99.6444H59.6254L59.6704 100.319C59.8414 99.8515 60.3004 99.5454 60.9124 99.5454C61.0474 99.5454 61.1644 99.5544 61.3174 99.5904ZM63.8029 104.108C62.5249 104.108 61.6699 103.19 61.6699 101.822C61.6699 100.463 62.5159 99.5275 63.7579 99.5275C64.9369 99.5275 65.7379 100.364 65.7379 101.597V101.903H62.2729C62.3179 102.965 62.8759 103.577 63.8119 103.577C64.5229 103.577 64.9819 103.271 65.1439 102.695H65.7379C65.5039 103.613 64.8289 104.108 63.8029 104.108ZM63.7579 100.058C62.9389 100.058 62.3989 100.598 62.2909 101.453H65.1169C65.1169 100.616 64.5769 100.058 63.7579 100.058ZM69.5329 98.4474C69.2809 98.4474 69.0739 98.2404 69.0739 97.9884C69.0739 97.7364 69.2809 97.5204 69.5329 97.5204C69.7849 97.5204 70.0009 97.7364 70.0009 97.9884C70.0009 98.2404 69.7849 98.4474 69.5329 98.4474ZM69.2269 104V99.6444H69.8479V104H69.2269ZM71.7639 104H71.1429V99.6444H71.6829L71.7729 100.4C72.0609 99.8425 72.6369 99.5275 73.2669 99.5275C74.4639 99.5275 74.9589 100.238 74.9589 101.336V104H74.3379V101.471C74.3379 100.454 73.8789 100.094 73.1589 100.094C72.2679 100.094 71.7639 100.742 71.7639 101.723V104ZM78.2517 105.899V105.386H78.7287C79.1067 105.386 79.4847 105.359 79.7007 104.774L79.8897 104.261L78.1257 99.6444H78.7827L80.1867 103.442L81.5637 99.6444H82.2027L80.2047 104.999C79.9527 105.683 79.5297 105.962 78.9087 105.962C78.6477 105.962 78.4497 105.944 78.2517 105.899ZM82.4736 101.822C82.4736 100.49 83.4096 99.5275 84.6876 99.5275C85.9656 99.5275 86.9016 100.49 86.9016 101.822C86.9016 103.145 85.9656 104.108 84.6876 104.108C83.4096 104.108 82.4736 103.145 82.4736 101.822ZM83.1036 101.813C83.1036 102.839 83.7516 103.55 84.6876 103.55C85.6146 103.55 86.2716 102.839 86.2716 101.813C86.2716 100.805 85.6146 100.085 84.6876 100.085C83.7516 100.085 83.1036 100.805 83.1036 101.813ZM90.8494 99.6444H91.4704V104H90.9304L90.8494 103.262C90.6064 103.766 90.0034 104.108 89.3194 104.108C88.2934 104.108 87.7354 103.406 87.7354 102.344V99.6355H88.3654V102.146C88.3654 103.181 88.8244 103.55 89.5174 103.55C90.3545 103.55 90.8494 102.992 90.8494 101.957V99.6444ZM95.041 99.5904V100.148H94.6991C93.8981 100.148 93.385 100.688 93.385 101.516V104H92.764V99.6444H93.349L93.394 100.319C93.565 99.8515 94.024 99.5454 94.636 99.5454C94.771 99.5454 94.888 99.5544 95.041 99.5904ZM98.0566 101.831C98.0566 100.463 98.8936 99.5275 100.163 99.5275C101.171 99.5275 101.909 100.112 102.08 101.012H101.459C101.297 100.409 100.775 100.076 100.172 100.076C99.2896 100.076 98.6686 100.751 98.6686 101.822C98.6686 102.857 99.2446 103.55 100.127 103.55C100.775 103.55 101.297 103.19 101.468 102.632H102.098C101.891 103.523 101.117 104.108 100.127 104.108C98.8936 104.108 98.0566 103.199 98.0566 101.831ZM103.345 98.4474C103.093 98.4474 102.886 98.2404 102.886 97.9884C102.886 97.7364 103.093 97.5204 103.345 97.5204C103.597 97.5204 103.813 97.7364 103.813 97.9884C103.813 98.2404 103.597 98.4474 103.345 98.4474ZM103.039 104V99.6444H103.66V104H103.039ZM105.954 104H105.342V100.166H104.469V99.6444H105.342V98.2674H105.954V99.6444H106.827V100.166H105.954V104ZM107.194 105.899V105.386H107.671C108.049 105.386 108.427 105.359 108.643 104.774L108.832 104.261L107.068 99.6444H107.725L109.129 103.442L110.506 99.6444H111.145L109.147 104.999C108.895 105.683 108.472 105.962 107.851 105.962C107.59 105.962 107.392 105.944 107.194 105.899ZM111.717 104.099C111.411 104.099 111.15 103.847 111.15 103.55C111.15 103.244 111.411 102.983 111.717 102.983C112.023 102.983 112.284 103.244 112.284 103.55C112.284 103.847 112.023 104.099 111.717 104.099Z" fill="#2C2C2C"/>
<path d="M309.932 62.0582C304.849 62.3102 299.606 63.7382 294.783 62.1102C293.085 61.5392 291.535 60.6082 289.894 59.8982C288.44 59.2702 286.92 58.8112 285.4 58.3572C283.53 57.7942 281.651 57.2312 279.737 56.8372C279.217 56.7292 278.685 56.6382 278.165 56.7332C277.646 56.8322 277.139 57.1622 276.979 57.6682C276.736 58.4342 277.347 59.1882 277.918 59.7552C279.785 61.5992 281.75 63.3492 283.802 64.9852C283.642 66.2192 282.261 66.7522 281.044 67.0162C275.58 68.2072 269.649 68.5102 265.09 71.7482C264.778 71.9692 264.453 72.2372 264.367 72.6102C264.254 73.1082 264.626 73.6142 265.094 73.8222C265.562 74.0302 266.094 74.0132 266.605 73.9912C271.437 73.7702 276.256 73.2812 281.031 72.5282C280.252 73.3552 279.391 73.9912 278.299 74.3032C276.169 74.9052 274.043 75.5062 271.913 76.1132C269.198 76.8792 266.367 77.7192 264.349 79.6892C264.18 79.8532 264.011 80.0532 264.033 80.2862C264.063 80.5852 264.392 80.7452 264.678 80.8362C266.354 81.3562 268.151 81.3132 269.9 81.1832C273.874 80.8932 277.814 80.1952 281.651 79.1132C278.009 80.3732 274.494 81.8322 271.008 83.4732C269.878 84.0062 268.744 84.5942 267.861 85.4822C267.545 85.7982 267.254 86.2922 267.501 86.6642C267.622 86.8502 267.848 86.9372 268.06 87.0022C269.211 87.3392 270.445 87.2102 271.636 87.0492C275.68 86.5042 279.676 85.6252 283.577 84.4302C280.023 85.6982 276.814 87.8462 274.082 90.4522C273.887 90.6392 273.693 90.8382 273.619 91.0932C273.489 91.5522 273.818 92.0412 274.247 92.2492C274.675 92.4572 275.173 92.4442 275.65 92.4052C280.811 91.9852 285.357 89.0242 290.132 87.0152C291.631 86.3832 293.172 85.8412 294.627 85.1142C297.268 83.7932 299.597 81.8882 302.312 80.7282C305.468 79.3812 308.962 79.1172 312.387 78.8752L309.928 62.0542L309.932 62.0582Z" fill="#B77548"/>
<mask id="mask1_788_326" style="mask-type:luminance" maskUnits="userSpaceOnUse" x="264" y="56" width="49" height="37">
<path d="M309.932 62.0582C304.849 62.3102 299.606 63.7382 294.783 62.1102C293.085 61.5392 291.535 60.6082 289.894 59.8982C288.44 59.2702 286.92 58.8112 285.4 58.3572C283.53 57.7942 281.651 57.2312 279.737 56.8372C279.217 56.7292 278.685 56.6382 278.165 56.7332C277.646 56.8322 277.139 57.1622 276.979 57.6682C276.736 58.4342 277.347 59.1882 277.918 59.7552C279.785 61.5992 281.75 63.3492 283.802 64.9852C283.642 66.2192 282.261 66.7522 281.044 67.0162C275.58 68.2072 269.649 68.5102 265.09 71.7482C264.778 71.9692 264.453 72.2372 264.367 72.6102C264.254 73.1082 264.626 73.6142 265.094 73.8222C265.562 74.0302 266.094 74.0132 266.605 73.9912C271.437 73.7702 276.256 73.2812 281.031 72.5282C280.252 73.3552 279.391 73.9912 278.299 74.3032C276.169 74.9052 274.043 75.5062 271.913 76.1132C269.198 76.8792 266.367 77.7192 264.349 79.6892C264.18 79.8532 264.011 80.0532 264.033 80.2862C264.063 80.5852 264.392 80.7452 264.678 80.8362C266.354 81.3562 268.151 81.3132 269.9 81.1832C273.874 80.8932 277.814 80.1952 281.651 79.1132C278.009 80.3732 274.494 81.8322 271.008 83.4732C269.878 84.0062 268.744 84.5942 267.861 85.4822C267.545 85.7982 267.254 86.2922 267.501 86.6642C267.622 86.8502 267.848 86.9372 268.06 87.0022C269.211 87.3392 270.445 87.2102 271.636 87.0492C275.68 86.5042 279.676 85.6252 283.577 84.4302C280.023 85.6982 276.814 87.8462 274.082 90.4522C273.887 90.6392 273.693 90.8382 273.619 91.0932C273.489 91.5522 273.818 92.0412 274.247 92.2492C274.675 92.4572 275.173 92.4442 275.65 92.4052C280.811 91.9852 285.357 89.0242 290.132 87.0152C291.631 86.3832 293.172 85.8412 294.627 85.1142C297.268 83.7932 299.597 81.8882 302.312 80.7282C305.468 79.3812 308.962 79.1172 312.387 78.8752L309.928 62.0542L309.932 62.0582Z" fill="white"/>
</mask>
<g mask="url(#mask1_788_326)">
<g style="mix-blend-mode:color-burn" opacity="0.37">
<path d="M303.936 61.0969C301.234 67.2459 302.009 74.4759 305.395 80.2429L306.625 75.5539C303.196 77.0479 299.55 77.8918 296.195 79.6238C292.839 81.3558 289.916 83.4259 286.682 85.1659C280.266 88.6259 273.416 90.2659 266.605 92.6609C263.96 93.5869 264.215 97.8389 267.298 97.7649C274.646 97.5879 282.006 94.5869 288.479 91.2799C295.376 87.7549 301.364 82.9229 309.27 81.8189C311.669 81.4859 312.123 78.5329 311.318 76.7839C309.062 71.8909 307.928 66.8299 307.131 61.5169C306.915 60.0839 304.525 59.7729 303.94 61.1019L303.936 61.0969Z" fill="#C9C9D1"/>
</g>
</g>
<path d="M349.317 48.7351C336.363 48.4361 324.404 56.1081 311.467 56.8711C309.419 56.9921 306.778 57.3211 306.159 59.2781C304.371 64.9281 304.843 71.2581 307.445 76.5841C307.952 77.6231 308.54 78.6361 308.796 79.7621C309.263 81.8051 308.688 84.2771 310.155 85.7751C315.338 85.6151 320.278 86.5201 325.374 87.4731C329.669 88.2741 333.904 89.4691 338.246 89.9451C342.087 90.3651 345.975 90.2131 349.802 89.7201L349.313 48.7391L349.317 48.7351Z" fill="white"/>
<mask id="mask2_788_326" style="mask-type:luminance" maskUnits="userSpaceOnUse" x="305" y="48" width="45" height="43">
<path d="M349.319 48.7351C336.365 48.4361 324.406 56.1081 311.469 56.8711C309.421 56.9921 306.78 57.3211 306.161 59.2781C304.373 64.9281 304.845 71.2581 307.447 76.5841C307.954 77.6231 308.542 78.6361 308.798 79.7621C309.265 81.8051 308.69 84.2771 310.157 85.7751C315.34 85.6151 320.28 86.5201 325.376 87.4731C329.671 88.2741 333.906 89.4691 338.248 89.9451C342.089 90.3651 345.977 90.2131 349.804 89.7201L349.315 48.7391L349.319 48.7351Z" fill="white"/>
</mask>
<g mask="url(#mask2_788_326)">
<g opacity="0.25">
<path d="M309.416 85.8961C309.832 85.7531 310.871 86.8221 311.325 87.1251C312.118 87.6541 312.971 88.0301 313.845 88.3981C315.911 89.2561 318.015 89.6841 320.245 89.8491C322.284 90.0001 324.306 89.7231 326.332 89.5411C327.501 89.4371 328.649 89.5071 329.818 89.4681C330.987 89.4291 332.108 89.1521 333.234 89.2381C335.463 89.4111 337.65 90.4681 339.836 90.9051C342.023 91.3421 344.144 91.5891 346.314 91.7281C348.656 91.8751 351.011 91.8141 353.345 91.5981C355.423 91.4031 358.177 91.4851 359.549 89.7151C360.407 88.6101 360.459 87.0211 359.099 86.2291C356.986 85.0001 354.471 86.0521 352.176 86.2811C349.881 86.5111 347.483 86.5931 345.14 86.5281C342.625 86.4591 340.075 86.2551 337.585 85.8611C336.347 85.6661 335.108 85.4281 334.078 84.6881C332.948 83.8781 332.19 82.8561 330.865 82.2931C326.614 80.4791 321.578 83.1981 317.093 82.5231C314.988 82.2031 313.586 80.5701 311.568 80.0591C309.234 79.4711 307.156 80.6651 306.429 82.9171C305.879 84.6141 307.684 86.4851 309.403 85.8911L309.416 85.8961Z" fill="#C9C9D1"/>
</g>
<g opacity="0.25">
<path d="M308.087 57.6886C310.837 57.0006 313.564 57.0386 316.34 57.5936C318.916 58.1086 321.345 59.6156 324.025 59.3906C327.536 59.0956 331.121 54.4806 327.532 51.8436C327.121 51.5406 326.575 51.6526 326.159 51.8436C324.843 52.4406 324.042 52.9516 323.176 54.1166C322.12 55.5406 324.094 56.9486 325.384 56.3246C327.813 55.1516 330.558 54.9656 333.204 55.3676C334.55 55.5716 335.75 55.9696 337.001 56.4846C337.992 56.8966 338.988 57.3206 340.088 57.0216C342.11 56.4766 342.235 54.0946 343.933 53.2206C345.725 52.2976 347.864 52.1556 349.838 52.0516C349.579 50.1246 349.314 48.1936 349.055 46.2666C346.323 46.7256 343.482 47.8426 340.898 48.8216C339.677 49.2806 338.49 49.8126 337.248 50.2156C335.888 50.6526 334.49 50.5536 333.152 51.0166C331.156 51.7046 330.623 55.2206 333.152 55.6186C335.931 56.0566 338.356 54.4626 340.945 53.5966C343.946 52.5926 346.73 52.3756 349.838 52.0556C354.068 51.6226 353.285 45.4316 349.055 46.2716C346.786 46.7216 344.435 47.3106 342.56 48.7256C341.664 49.4056 340.984 50.1856 340.456 51.1806C340.213 51.6446 340.032 52.1206 339.819 52.5926C339.681 52.9866 339.503 53.3586 339.278 53.7096C339.148 53.5666 338.997 53.4546 338.824 53.3636C337.659 53.0216 336.512 51.9946 335.308 51.5706C334.104 51.1466 332.688 50.9606 331.394 50.9556C328.692 50.9426 325.96 52.0296 323.756 53.5366L326.129 55.3596L327.207 54.3286L325.484 53.0166C325.311 56.4586 319.176 53.9386 317.244 53.7356C313.893 53.3806 310.555 54.1516 307.459 55.4196C306.096 55.9786 306.572 58.0696 308.083 57.6886H308.087Z" fill="#C9C9D1"/>
</g>
</g>
<path d="M289.896 33.7988H198.41V119.176H289.896V33.7988Z" fill="#C19A5B"/>
<path d="M272.158 26.1875H219.963L198.41 33.7991H289.896L272.158 26.1875Z" fill="#CEA263"/>
<path d="M210.875 29.3945H279.695" stroke="#B78A4E" stroke-width="0.584507" stroke-miterlimit="10"/>
<path d="M229.899 38.4609H202.791V49.06H229.899V38.4609Z" fill="#FFFAF5"/>
<path d="M208.513 39.7734H204.127V44.1594H208.513V39.7734Z" fill="#35322F"/>
<path d="M228.765 40.0801H210.875V40.8421H228.765V40.0801Z" fill="#35322F"/>
<path d="M228.765 42.5977H210.875V43.3597H228.765V42.5977Z" fill="#35322F"/>
<path d="M228.765 45.1113H210.875V45.8733H228.765V45.1113Z" fill="#35322F"/>
<path d="M254.089 33.7988H234.22V119.176H254.089V33.7988Z" fill="#F49422"/>
<mask id="mask3_788_326" style="mask-type:luminance" maskUnits="userSpaceOnUse" x="234" y="33" width="21" height="87">
<path d="M254.087 33.7988H234.219V119.176H254.087V33.7988Z" fill="white"/>
</mask>
<g mask="url(#mask3_788_326)">
<path d="M251 28.8511C240.245 36.151 230.001 44.1825 220.367 52.9115C217.943 55.1105 221.541 58.6915 223.957 56.5005C233.274 48.0575 243.159 40.2985 253.563 33.2328C256.252 31.41 253.715 27.011 251 28.8511Z" fill="white"/>
<path d="M253.904 53.1201C244.885 61.3761 235.862 69.6331 226.843 77.8901C224.427 80.0981 228.025 83.6831 230.432 81.4791C239.451 73.2221 248.474 64.9661 257.493 56.7091C259.909 54.5011 256.311 50.9161 253.904 53.1201Z" fill="white"/>
<path d="M256.21 80.9551C246.07 90.8401 235.635 100.421 224.924 109.691C222.451 111.83 226.054 115.411 228.513 113.28C239.224 104.015 249.659 94.4331 259.799 84.5441C262.141 82.2621 258.552 78.6731 256.21 80.9551Z" fill="white"/>
</g>
<g style="mix-blend-mode:color-burn">
<path d="M224.876 29.5687C226.162 29.5687 226.166 27.5684 224.876 27.5684C223.586 27.5684 223.586 29.5687 224.876 29.5687Z" fill="#C9C9D1"/>
</g>
<g style="mix-blend-mode:color-burn">
<path d="M257.097 27.0882C258.383 27.0882 258.387 25.0879 257.097 25.0879C255.806 25.0879 255.806 27.0882 257.097 27.0882Z" fill="#C9C9D1"/>
</g>
<g style="mix-blend-mode:color-burn">
<path d="M258.159 21.0049C246.231 22.0873 235.467 28.1835 223.552 29.266C222.283 29.3829 222.27 31.3832 223.552 31.2663C235.48 30.1839 246.244 24.0877 258.159 23.0052C259.428 22.8883 259.441 20.888 258.159 21.0049Z" fill="#C9C9D1"/>
</g>
<g style="mix-blend-mode:color-burn">
<path d="M259.001 24.7104C247.545 25.9963 237.158 31.9367 225.693 33.149C224.429 33.2832 224.412 35.2835 225.693 35.1493C237.171 33.9326 247.554 27.9923 259.001 26.7107C260.266 26.5678 260.279 24.5675 259.001 24.7104Z" fill="#C9C9D1"/>
</g>
<path d="M252.955 22.5371C243.36 25.5678 233.787 28.6722 224.249 31.8892C223.825 32.0321 224.007 32.7075 224.435 32.5646C233.969 29.3477 243.542 26.2433 253.141 23.2125C253.57 23.0783 253.388 22.4028 252.955 22.5371Z" fill="white"/>
<path d="M256.781 23.7239C248.209 26.6248 239.636 29.5213 231.067 32.4222C230.643 32.5651 230.825 33.2448 231.254 33.0976C239.826 30.1967 248.399 27.3002 256.968 24.3993C257.392 24.2564 257.21 23.5767 256.781 23.7239Z" fill="white"/>
<path d="M259.606 25.517C249.712 28.9201 239.802 32.2713 229.878 35.5835C229.454 35.7263 229.635 36.4018 230.064 36.2589C239.988 32.951 249.898 29.5955 259.792 26.1924C260.216 26.0452 260.034 25.3697 259.606 25.517Z" fill="white"/>
<path d="M254.699 26.1875H234.83V33.6346H254.699V26.1875Z" fill="#FFA13B"/>
<g style="mix-blend-mode:color-burn">
<path d="M289.896 33.7988V119.176H198.41V108.235C219.872 108.378 241.339 100.182 256.354 85.8325C270.725 72.0995 278.916 52.9665 279.012 33.7988H289.901H289.896Z" fill="#C9C9D1"/>
</g>
<path d="M287.362 110.066H260.275V116.34H287.362V110.066Z" fill="white"/>
<path d="M286.024 111.006H261.531V115.323H286.024V111.006Z" stroke="#35322F" stroke-width="0.216484" stroke-miterlimit="10"/>
<path d="M263.743 111.49H262.275V114.75H263.743V111.49Z" fill="#35322F"/>
<path d="M269.667 111.49H268.199V114.75H269.667V111.49Z" fill="#35322F"/>
<path d="M264.814 111.49H264.082V114.75H264.814V111.49Z" fill="#35322F"/>
<path d="M265.886 111.49H265.371V114.75H265.886V111.49Z" fill="#35322F"/>
<path d="M264.882 111.49H264.666V114.75H264.882V111.49Z" fill="#35322F"/>
<path d="M267.575 111.49H267.207V114.75H267.575V111.49Z" fill="#35322F"/>
<path d="M272.071 111.49H271.703V114.75H272.071V111.49Z" fill="#35322F"/>
<path d="M273.767 111.49H272.299V114.75H273.767V111.49Z" fill="#35322F"/>
<path d="M276.175 111.49H275.807V114.75H276.175V111.49Z" fill="#35322F"/>
<path d="M274.634 111.49H274.266V114.75H274.634V111.49Z" fill="#35322F"/>
<path d="M270.727 111.49H270.359V114.75H270.727V111.49Z" fill="#35322F"/>
<path d="M279.733 111.49H278.266V114.75H279.733V111.49Z" fill="#35322F"/>
<path d="M283.14 111.49H280.906V114.75H283.14V111.49Z" fill="#35322F"/>
<path d="M280.598 111.49H280.23V114.75H280.598V111.49Z" fill="#35322F"/>
<path d="M284.518 111.49H283.553V114.75H284.518V111.49Z" fill="#35322F"/>
<path d="M285.27 111.49H284.789V114.75H285.27V111.49Z" fill="#35322F"/>
<path d="M277.161 111.49H276.793V114.75H277.161V111.49Z" fill="#35322F"/>
<g filter="url(#filter0_d_788_326)">
<path d="M275.866 126.791L251.919 131.74L226.772 136.936L236.722 151.176L251.014 147.522L277.867 140.659C277.867 140.659 277.884 140.655 277.897 140.655L280.404 140.01L275.871 126.787L275.866 126.791Z" fill="#E5E5A8"/>
<mask id="mask4_788_326" style="mask-type:luminance" maskUnits="userSpaceOnUse" x="226" y="126" width="55" height="26">
<path d="M275.868 126.791L251.921 131.74L226.774 136.936L236.724 151.176L251.016 147.522L277.869 140.659C277.869 140.659 277.886 140.655 277.899 140.655L280.406 140.01L275.873 126.787L275.868 126.791Z" fill="white"/>
</mask>
<g mask="url(#mask4_788_326)">
<path d="M226.435 138.451C240.623 135.55 254.851 132.822 269.104 130.263C271.018 129.921 272.1 127.587 271.619 125.834C271.065 123.816 269.112 122.976 267.19 123.318C252.932 125.873 238.709 128.605 224.521 131.506C219.984 132.432 221.906 139.377 226.435 138.451Z" fill="#7E9355"/>
<path d="M222.642 140.14C226.677 146.249 231.037 152.133 235.674 157.796C236.908 159.303 239.488 159.074 240.766 157.796C242.255 156.307 242.004 154.211 240.766 152.705C236.514 147.513 232.557 142.106 228.859 136.507C226.318 132.658 220.078 136.261 222.642 140.14Z" fill="#7E9355"/>
<path d="M237.749 156.905C246.028 155.034 254.276 153.025 262.48 150.852C266.585 149.765 270.677 148.644 274.759 147.483C278.492 146.423 282.332 144.847 286.19 144.379C288.121 144.145 289.792 142.89 289.792 140.777C289.792 139.014 288.134 136.941 286.19 137.174C281.895 137.694 277.808 139.118 273.664 140.305C269.521 141.491 265.494 142.599 261.389 143.691C252.912 145.942 244.391 148.029 235.836 149.96C231.315 150.982 233.229 157.927 237.749 156.905Z" fill="#7E9355"/>
<path d="M229.53 136.949C229.421 137.59 229.153 138.105 228.668 138.538C227.802 139.313 229.079 140.582 229.941 139.811C230.629 139.192 231.11 138.339 231.266 137.425C231.348 136.945 231.14 136.456 230.638 136.317C230.205 136.2 229.612 136.464 229.53 136.945V136.949Z" fill="#7E9355"/>
<path d="M236.846 149.482C236.933 149.465 237.141 149.604 237.24 149.721C237.435 149.954 237.552 150.266 237.664 150.548C237.842 150.998 238.266 151.314 238.773 151.175C239.206 151.059 239.583 150.522 239.401 150.067C239.154 149.435 238.894 148.781 238.379 148.309C237.812 147.798 237.119 147.59 236.37 147.738C235.894 147.833 235.621 148.4 235.742 148.846C235.881 149.344 236.37 149.569 236.85 149.474L236.846 149.482Z" fill="#7E9355"/>
<path d="M256.965 134.589C256.827 134.355 256.593 134.174 256.255 134.139C252.891 133.797 248.968 135.424 247.531 138.68C246.106 141.91 249.631 143.473 252.358 143.109C255.013 142.754 260.239 140.833 260.161 137.473C260.113 135.451 258.65 134.698 256.965 134.589ZM257.286 137.749C257.286 137.749 257.286 137.74 257.281 137.736C257.333 137.727 257.377 137.723 257.407 137.723C257.377 137.723 257.338 137.736 257.29 137.749H257.286Z" fill="#7E9355"/>
</g>
</g>
<g filter="url(#filter1_d_788_326)">
<path d="M273.812 125.39L249.865 130.338L224.718 135.534L234.667 149.774L248.96 146.12L275.812 139.258C275.812 139.258 275.83 139.253 275.843 139.253L278.35 138.608L273.816 125.385L273.812 125.39Z" fill="#E5E5A8"/>
<mask id="mask5_788_326" style="mask-type:luminance" maskUnits="userSpaceOnUse" x="224" y="125" width="55" height="25">
<path d="M273.812 125.39L249.864 130.338L224.718 135.534L234.667 149.774L248.959 146.12L275.812 139.258C275.812 139.258 275.829 139.253 275.842 139.253L278.349 138.608L273.816 125.385L273.812 125.39Z" fill="white"/>
</mask>
<g mask="url(#mask5_788_326)">
<path d="M224.386 137.048C238.575 134.147 252.802 131.42 267.055 128.861C268.969 128.519 270.051 126.185 269.571 124.432C269.017 122.414 267.064 121.574 265.142 121.916C250.884 124.471 236.661 127.203 222.473 130.103C217.935 131.03 219.857 137.975 224.386 137.048Z" fill="#7E9355"/>
<path d="M220.591 138.732C224.626 144.841 228.986 150.725 233.623 156.388C234.857 157.895 237.438 157.666 238.715 156.388C240.205 154.899 239.953 152.803 238.715 151.297C234.463 146.105 230.506 140.697 226.809 135.099C224.267 131.25 218.028 134.852 220.591 138.732Z" fill="#7E9355"/>
<path d="M235.703 155.496C243.981 153.626 252.229 151.617 260.434 149.443C264.538 148.356 268.63 147.235 272.713 146.075C276.445 145.014 280.285 143.438 284.143 142.97C286.074 142.736 287.745 141.481 287.745 139.368C287.745 137.606 286.087 135.532 284.143 135.766C279.848 136.285 275.761 137.71 271.617 138.896C267.474 140.082 263.447 141.191 259.343 142.282C250.865 144.533 242.344 146.62 233.789 148.551C229.269 149.573 231.183 156.518 235.703 155.496Z" fill="#7E9355"/>
<path d="M227.471 135.546C227.363 136.187 227.095 136.702 226.61 137.135C225.744 137.91 227.021 139.178 227.883 138.408C228.571 137.789 229.052 136.936 229.207 136.022C229.29 135.542 229.082 135.052 228.58 134.914C228.147 134.797 227.554 135.061 227.471 135.542V135.546Z" fill="#7E9355"/>
<path d="M234.796 148.08C234.882 148.063 235.09 148.201 235.19 148.318C235.384 148.552 235.501 148.864 235.614 149.145C235.791 149.596 236.216 149.912 236.722 149.773C237.151 149.656 237.532 149.119 237.35 148.665C237.103 148.033 236.844 147.379 236.328 146.907C235.761 146.396 235.068 146.188 234.319 146.335C233.843 146.431 233.57 146.998 233.692 147.444C233.83 147.942 234.319 148.167 234.8 148.072L234.796 148.08Z" fill="#7E9355"/>
<path d="M254.911 133.186C254.772 132.953 254.538 132.771 254.201 132.736C250.837 132.394 246.91 134.022 245.476 137.278C244.052 140.508 247.576 142.071 250.304 141.707C252.958 141.352 258.184 139.43 258.106 136.07C258.058 134.048 256.595 133.295 254.911 133.186ZM255.231 136.347C255.231 136.347 255.231 136.338 255.227 136.334C255.279 136.325 255.322 136.321 255.352 136.321C255.322 136.321 255.283 136.334 255.236 136.347H255.231Z" fill="#7E9355"/>
</g>
</g>
<g filter="url(#filter2_d_788_326)">
<path d="M274.867 126.418L250.448 127.717L224.807 129.076L232.505 144.646L247.183 143.178L274.759 140.424C274.759 140.424 274.78 140.424 274.789 140.424L277.361 140.165L274.863 126.414L274.867 126.418Z" fill="#E5E5A8"/>
<mask id="mask6_788_326" style="mask-type:luminance" maskUnits="userSpaceOnUse" x="224" y="126" width="54" height="19">
<path d="M274.865 126.418L250.446 127.717L224.805 129.076L232.503 144.646L247.181 143.178L274.757 140.424C274.757 140.424 274.778 140.424 274.787 140.424L277.359 140.165L274.861 126.414L274.865 126.418Z" fill="white"/>
</mask>
<g mask="url(#mask6_788_326)">
<path d="M223.818 130.553C238.283 129.812 252.753 129.249 267.232 128.864C271.856 128.738 271.873 121.538 267.232 121.664C252.753 122.049 238.279 122.616 223.818 123.352C219.207 123.586 219.177 130.791 223.818 130.553Z" fill="#7E9355"/>
<path d="M220.475 132.112C223.42 138.481 226.684 144.685 230.265 150.721C232.629 154.704 238.855 151.084 236.482 147.088C232.902 141.052 229.637 134.848 226.693 128.479C225.879 126.713 223.329 126.271 221.766 127.189C219.956 128.25 219.653 130.345 220.475 132.116V132.112Z" fill="#7E9355"/>
<path d="M232.234 150.492C240.841 149.877 249.44 149.111 258.017 148.175C262.234 147.716 266.451 147.219 270.66 146.677C274.868 146.136 278.864 145.27 282.969 145.391C287.606 145.53 287.602 138.33 282.969 138.191C278.999 138.074 275.007 138.919 271.08 139.421C266.728 139.979 262.373 140.495 258.017 140.971C249.44 141.906 240.841 142.672 232.234 143.287C227.636 143.616 227.601 150.821 232.234 150.487V150.492Z" fill="#7E9355"/>
<path d="M227.477 129.635C227.313 130.141 226.966 130.6 226.512 130.899C226.105 131.163 225.936 131.696 226.187 132.129C226.425 132.531 227.01 132.717 227.417 132.453C228.278 131.89 228.889 131.094 229.209 130.115C229.361 129.652 229.032 129.132 228.581 129.007C228.092 128.873 227.624 129.171 227.473 129.635H227.477Z" fill="#7E9355"/>
<path d="M232.776 143.004C233.322 142.983 233.456 143.87 233.555 144.312C233.664 144.788 234.209 145.065 234.664 144.94C235.149 144.806 235.4 144.308 235.292 143.831C235.001 142.567 234.296 141.138 232.776 141.203C232.291 141.225 231.875 141.602 231.875 142.104C231.875 142.576 232.287 143.026 232.776 143.004Z" fill="#7E9355"/>
<path d="M255.006 131.289C254.902 131.037 254.698 130.821 254.369 130.739C251.092 129.894 246.97 130.916 245.061 133.921C243.168 136.9 246.42 138.978 249.169 139.026C251.845 139.073 257.301 137.956 257.729 134.622C257.989 132.618 256.651 131.648 255.001 131.293L255.006 131.289ZM254.85 134.462C254.85 134.462 254.85 134.454 254.85 134.449C254.902 134.449 254.945 134.449 254.975 134.454C254.945 134.454 254.906 134.454 254.854 134.462H254.85Z" fill="#7E9355"/>
</g>
</g>
<path d="M316.211 141.154C303.447 142.557 292.692 146.432 279.894 147.471C272.351 148.082 264.311 150.601 257.431 147.467C256.912 147.233 256.379 146.973 256.028 146.527C255.929 146.402 255.855 146.259 255.803 146.111L277.815 140.487C277.815 140.487 277.833 140.487 277.837 140.487C277.846 140.15 277.854 139.816 277.859 139.478C272.382 138.803 266.905 138.128 261.427 137.456C260.302 137.314 259.141 137.166 258.141 136.625C257.141 136.084 256.327 135.049 256.388 133.91C256.401 133.651 256.453 133.408 256.544 133.179C257.054 131.854 258.726 131.079 260.207 130.694C265.532 129.308 271.217 129.343 276.322 127.29C278.01 126.611 279.603 125.714 281.27 124.978C288.085 121.969 296.126 121.848 303.031 124.654C305.261 125.558 307.543 123.515 309.574 122.229C310.045 121.935 310.626 121.601 311.119 121.844C311.137 121.792 311.466 121.476 311.544 121.432C311.63 121.38 311.738 121.424 311.825 121.471C315.046 123.121 316.679 126.875 317.042 130.473C317.406 134.075 316.289 137.547 316.202 141.163L316.211 141.154Z" fill="#B77548"/>
<mask id="mask7_788_326" style="mask-type:luminance" maskUnits="userSpaceOnUse" x="255" y="121" width="63" height="29">
<path d="M316.211 141.154C303.447 142.557 292.692 146.432 279.894 147.471C272.351 148.082 264.311 150.601 257.431 147.467C256.912 147.233 256.379 146.973 256.028 146.527C255.929 146.402 255.855 146.259 255.803 146.111L277.815 140.487C277.815 140.487 277.833 140.487 277.837 140.487C277.846 140.15 277.854 139.816 277.859 139.478C272.382 138.803 266.905 138.128 261.427 137.456C260.302 137.314 259.141 137.166 258.141 136.625C257.141 136.084 256.327 135.049 256.388 133.91C256.401 133.651 256.453 133.408 256.544 133.179C257.054 131.854 258.726 131.079 260.207 130.694C265.532 129.308 271.217 129.343 276.322 127.29C278.01 126.611 279.603 125.714 281.27 124.978C288.085 121.969 296.126 121.848 303.031 124.654C305.261 125.558 307.543 123.515 309.574 122.229C310.045 121.935 310.626 121.601 311.119 121.844C311.137 121.792 311.466 121.476 311.544 121.432C311.63 121.38 311.738 121.424 311.825 121.471C315.046 123.121 316.679 126.875 317.042 130.473C317.406 134.075 316.289 137.547 316.202 141.163L316.211 141.154Z" fill="white"/>
</mask>
<g mask="url(#mask7_788_326)">
<g style="mix-blend-mode:color-burn">
<path d="M276.939 139.548C274.307 140.336 271.583 140.756 268.908 141.384C266.362 141.981 263.829 142.622 261.244 143.042C256.035 143.895 250.749 144.007 245.947 146.302C244.666 146.913 244.951 149.138 246.354 149.402C249.082 149.917 251.281 149.839 254.013 149.29C256.745 148.74 259.335 147.995 261.963 147.185C264.457 146.419 266.968 145.696 269.44 144.852C272.202 143.903 274.779 142.57 277.472 141.466C278.623 140.994 278.208 139.167 276.943 139.543L276.939 139.548Z" fill="#C9C9D1"/>
</g>
<g style="mix-blend-mode:color-burn">
<path d="M263.08 132.59C263.21 133.175 263.275 133.759 263.253 134.357C263.236 134.85 263.114 135.331 263.192 135.82C263.231 136.058 263.552 136.045 263.664 135.881C264.292 134.959 264.037 133.409 263.807 132.387C263.703 131.911 262.971 132.114 263.08 132.586V132.59Z" fill="#C9C9D1"/>
</g>
<g style="mix-blend-mode:color-burn">
<path d="M264.721 132.606C265.064 133.476 264.895 134.251 264.73 135.135C264.683 135.395 264.99 135.624 265.202 135.408C265.973 134.611 265.934 133.355 265.531 132.381C265.328 131.892 264.522 132.1 264.721 132.606Z" fill="#C9C9D1"/>
</g>
<g style="mix-blend-mode:color-burn">
<path d="M278.017 148.793C285.404 147.866 292.712 146.165 299.986 144.576C303.614 143.783 307.247 143.021 310.875 142.251C314.503 141.48 318.95 141.051 322.557 139.609C323.492 139.237 323.462 137.713 322.301 137.735C318.586 137.8 314.716 139.051 311.092 139.817C307.468 140.584 303.844 141.406 300.229 142.238C292.742 143.952 285.17 145.723 277.97 148.416C277.783 148.485 277.788 148.827 278.022 148.797L278.017 148.793Z" fill="#C9C9D1"/>
</g>
<g style="mix-blend-mode:color-burn">
<path d="M298.319 122.212C299.073 122.212 299.073 121.039 298.319 121.039C297.566 121.039 297.566 122.212 298.319 122.212Z" fill="#C9C9D1"/>
</g>
<g style="mix-blend-mode:color-burn">
<path d="M297.899 121.84C299.293 123 300.943 123.901 302.532 124.771C303.567 125.334 304.558 125.84 305.77 125.749C307.282 125.637 308.801 124.624 310.13 123.97C312.044 123.03 314.131 122.177 315.859 120.926C316.746 120.285 316.261 118.597 315.053 119.012C312.326 119.952 309.762 121.649 307.238 123.035C304.142 124.732 301.294 121.991 298.271 121.199C297.925 121.108 297.592 121.584 297.899 121.84Z" fill="#C9C9D1"/>
</g>
</g>
<path d="M261.07 135.265C261.066 135.455 261.048 135.672 260.901 135.797C260.793 135.888 260.641 135.905 260.499 135.918C259.507 135.988 258.511 135.94 257.533 135.767C257.238 135.715 256.931 135.646 256.697 135.455C256.286 135.122 256.221 134.524 256.242 133.996C256.26 133.463 256.359 132.875 256.771 132.537C257.065 132.294 257.463 132.225 257.844 132.169C258.394 132.082 260.836 131.398 261.174 131.779C261.369 131.996 261.139 133.26 261.126 133.567C261.109 134.134 261.07 134.702 261.07 135.269V135.265Z" fill="#FF9E97"/>
<path d="M332.922 110.056C327.44 112.057 323.011 116.317 317.543 118.356C315.265 119.205 311.438 119.166 310.771 121.5C310.083 123.907 311.507 126.34 312.234 128.735C314.088 134.861 311.321 141.455 312.018 147.816C312.096 148.521 312.386 149.392 313.096 149.448C316.612 146.711 321.214 145.828 325.652 145.4C330.09 144.971 334.632 144.889 338.845 143.434L339.286 108.117C337.208 108.883 335.013 109.299 332.93 110.056H332.922Z" fill="white"/>
<path d="M38.1494 125.916L47.7546 125.987" stroke="#1067F5" stroke-width="1.74645" stroke-linecap="round" stroke-linejoin="round"/>
<path d="M43.7969 129.886L47.7551 125.986L43.8546 122.027" stroke="#1067F5" stroke-width="1.74645" stroke-linecap="round" stroke-linejoin="round"/>
</g>
</g>
<defs>
<filter id="filter0_d_788_326" x="226.772" y="126.787" width="53.6338" height="24.8693" filterUnits="userSpaceOnUse" color-interpolation-filters="sRGB">
<feFlood flood-opacity="0" result="BackgroundImageFix"/>
<feColorMatrix in="SourceAlpha" type="matrix" values="0 0 0 0 0 0 0 0 0 0 0 0 0 0 0 0 0 0 127 0" result="hardAlpha"/>
<feOffset dy="0.480595"/>
<feColorMatrix type="matrix" values="0 0 0 0 0.717647 0 0 0 0 0.717647 0 0 0 0 0.717647 0 0 0 0.75 0"/>
<feBlend mode="normal" in2="BackgroundImageFix" result="effect1_dropShadow_788_326"/>
<feBlend mode="normal" in="SourceGraphic" in2="effect1_dropShadow_788_326" result="shape"/>
</filter>
<filter id="filter1_d_788_326" x="224.718" y="125.385" width="53.6318" height="24.8693" filterUnits="userSpaceOnUse" color-interpolation-filters="sRGB">
<feFlood flood-opacity="0" result="BackgroundImageFix"/>
<feColorMatrix in="SourceAlpha" type="matrix" values="0 0 0 0 0 0 0 0 0 0 0 0 0 0 0 0 0 0 127 0" result="hardAlpha"/>
<feOffset dy="0.480595"/>
<feColorMatrix type="matrix" values="0 0 0 0 0.717647 0 0 0 0 0.717647 0 0 0 0 0.717647 0 0 0 0.75 0"/>
<feBlend mode="normal" in2="BackgroundImageFix" result="effect1_dropShadow_788_326"/>
<feBlend mode="normal" in="SourceGraphic" in2="effect1_dropShadow_788_326" result="shape"/>
</filter>
<filter id="filter2_d_788_326" x="224.805" y="126.414" width="52.5557" height="18.713" filterUnits="userSpaceOnUse" color-interpolation-filters="sRGB">
<feFlood flood-opacity="0" result="BackgroundImageFix"/>
<feColorMatrix in="SourceAlpha" type="matrix" values="0 0 0 0 0 0 0 0 0 0 0 0 0 0 0 0 0 0 127 0" result="hardAlpha"/>
<feOffset dy="0.480595"/>
<feColorMatrix type="matrix" values="0 0 0 0 0.717647 0 0 0 0 0.717647 0 0 0 0 0.717647 0 0 0 0.75 0"/>
<feBlend mode="normal" in2="BackgroundImageFix" result="effect1_dropShadow_788_326"/>
<feBlend mode="normal" in="SourceGraphic" in2="effect1_dropShadow_788_326" result="shape"/>
</filter>
<clipPath id="clip0_788_326">
<rect width="322" height="168" fill="white"/>
</clipPath>
</defs>
</svg>
