<svg width="631" height="584" viewBox="0 0 631 584" fill="none" xmlns="http://www.w3.org/2000/svg">
<g clip-path="url(#clip0_589_12560)">
<path d="M-322.185 396.672V425.614L-320.303 423.887V415.14C-320.303 415.959 -317.003 415.959 -313.615 415.782V357.5H-270.258V403.514H-267.579V408.497H-262.928V315.56H-259.098V310.046H-255.82V288.522H-254.514V282.233L-253.296 281.126V275.147L-251.679 273.686V266.246H-249.399V259.359L-245.966 256.215V250.856L-242.755 244.567V238.5H-241.648L-240.807 206.258V205.66L-240.763 238.522L-238.991 241.976V246.228L-237.662 247.246V251.896L-236.777 252.517V259.802L-234.562 260.2V267.486L-233.012 268.704V274.372L-232.127 275.391V282.278L-226.369 287.349V309.426L-222.273 313.19V322.823L-220.235 324.683V412.394H-215.474V384.714L-212.441 384.161V379.09L-209.407 375.835L-206.993 377.141V364.342H-200.24V333.12H-178.738V370.808H-174.044V333.12H-150.084V374.263H-147.958V378.581H-141.337V383.585H-140.917V391.402L-133.786 391.092V396.716H-129.402V303.89H-112.019V364.741H-98.6443V292.707H-84.3174V327.606H-68.1525V332.787H-62.0187V393.018L-52.3198 401.898H-51.434V327.606H-30.774V396.716H-26.3895V389.697C-26.3895 389.697 -26.2567 389.697 -26.0795 389.697V387.217L-22.9572 384.936V262.282H-20.9421V237.902L-17.9085 237.592V228.956L-13.8562 228.646V223.708H-9.80386V218.77H-4.75513V187.923C-4.75513 187.923 -4.44513 183.362 2.04297 183.14V170.961H3.72592V183.251C3.72592 183.251 9.26184 183.716 9.06253 188.543C8.88538 192.861 9.06253 216.312 9.06253 216.312L11.0776 216.622V219.39L14.4435 218.77V224.328H18.4958V228.336H22.2159V238.522H25.9139V262.592H29.6119V408.851L31.4498 407.168V388.036H33.3099V341.446H52.8849V329.687H73.1242V353.536H89.0456V383.209H98.0138V362.172H100.782V352.362H125.738V413.545H129.325V396.916L134.174 386.929L139.024 395.255V418.528H143.275V403.869H148.501C148.501 403.869 149.254 391.911 148.723 390.184C149.675 390.427 153.572 390.361 157.049 390.25V367.774H164.135V372.092H170.756V366.468H179.724V370.365H198.612V365.184H205.233V389.985H214.002L217.235 379.09L219.76 389.985H221.288V363.036H226.27V349.572H260.991V416.269L263.294 415.738V394.679L269.959 357.544L276.625 394.679V416.845H279.836V404.909H284.552V409.227H288.339V412.261H296.355V416.845H301.071V391.535H310.549V360.068H336.523V366.49H340.266V380.131H342.059V379.09C342.059 379.09 343.853 379.112 346.643 379.156V376.1H367.192V357.566H368.897V336.95H382.051V357.566H388.893V424.817H395.381V411.885H398.415V383.054H401.449V370.852L411.148 360.866L417.126 365.56V178.8H433.313V176.674H421.289L418.367 175.346L418.123 172.689L420.802 170.939H433.313L435.373 95.6506L437.321 170.917L449.213 171.138L451.892 173.131V175.346L448.548 176.763L437.565 176.674L437.809 179.332L451.892 179.487V373.709C454.726 372.757 458.048 372.27 461.835 372.69L461.525 269.722L486.702 250.856L507.672 270.032V389.896C509.731 388.922 512.256 388.036 515.068 387.704V255.86L543.611 256.192V419.901H549.678L550.564 419.104V401.344H552.114V359.006H574.612V416.446C576.34 417.443 578.31 419.303 579.373 422.802L582.983 421.783V429.998C582.983 429.998 600.233 428.094 609.356 438.346C611.149 439.033 612.965 439.786 614.803 440.716C634.799 450.703 637.235 466.779 637.235 466.779L642.438 457.877H637.833L636.615 451.81L642.062 451.876V446.827L645.937 446.894V427.828L647.797 421.318L647.731 412.217H645.937L646.225 403.957L645.826 402.053H643.523V398.067L645.539 387.859L643.523 383.895V376.278L641.154 374.462V367.575L645.317 350.214V345.431H642.726V340.671L640.689 339.652V335.533L642.04 333.895H643.391L643.058 332.987L641.708 331.525V327.672L649.48 318.35V321.029L647.554 324.727L648.904 326.166L649.015 327.672L650.255 329.466V332.544L646.557 332.965L646.889 334.072L650.255 334.271L651.384 335.6V339.408L646.779 339.519L646.712 340.206L649.237 343.439L649.635 357.123L650.587 357.588V361.331L654.64 361.84L652.735 356.791L656.566 359.67L658.36 359.781L661.061 354.732L661.615 360.091L668.014 357.101L664.073 361.309L670.937 361.508L665.645 364.386L670.937 365.826L665.202 366.557L664.87 371.384L661.726 374.573L665.623 379.333H671.026L677.093 390.095L682.607 385.977C682.607 385.977 688.232 392.553 688.564 392.553C688.896 392.553 678.998 403.16 678.998 403.16L681.146 422.093L678.444 422.802L677.78 425.37L674.857 426.3L674.746 428.36L670.428 428.271L670.14 431.327L677.891 432.965L678.112 436.043L681.035 436.243V447.403L685.685 447.492L685.619 451.92L690.535 451.765V457.301L685.619 457.191C685.619 457.191 694.277 459.87 699.016 468.86V413.501H727.426V439.874H734.733V388.678H763.542V426.123H769.676V396.008H776.253V482.169L702.027 482.213C702.027 482.213 702.027 482.235 702.027 482.257L-330.932 482.811V396.65H-322.185V396.672Z" fill="url(#paint0_linear_589_12560)"/>
<path d="M444.204 214.981C443.54 214.981 442.942 214.582 442.699 213.94L424.497 165.955C424.187 165.113 424.607 164.183 425.427 163.873C426.246 163.563 427.198 163.984 427.53 164.826L445.732 212.811C446.042 213.652 445.622 214.582 444.78 214.892C444.603 214.959 444.404 215.003 444.204 215.003V214.981Z" fill="#0E1A2D"/>
<path d="M300.582 453.579H465.84C465.84 453.579 445.092 490.692 377.62 490.692C310.148 490.692 300.582 453.579 300.582 453.579Z" fill="#1D2C49"/>
<path d="M369.138 583.408C520.345 583.408 642.923 575.873 642.923 566.578C642.923 557.284 520.345 549.749 369.138 549.749C217.931 549.749 95.3535 557.284 95.3535 566.578C95.3535 575.873 217.931 583.408 369.138 583.408Z" fill="url(#paint1_linear_589_12560)"/>
<path d="M27.594 566.579C27.594 574.063 -27.3666 580.13 -95.1927 580.13C-163.019 580.13 -217.979 574.063 -217.979 566.579C-217.979 559.094 -163.019 553.027 -95.1927 553.027C-27.3666 553.027 27.594 559.094 27.594 566.579Z" fill="url(#paint2_linear_589_12560)"/>
<path d="M438.447 284.047C451.113 341.731 455.985 453.579 397.902 453.579C339.819 453.579 402.796 476.764 402.796 476.764C402.796 476.764 442.987 482.366 457.092 472.113C471.198 461.861 484.24 386.152 482.602 369.898C480.963 353.645 456.539 289.317 451.645 284.025C446.751 278.71 438.447 284.025 438.447 284.025V284.047Z" fill="#1D2C49"/>
<path d="M454.722 250.322H433.663V265.447H454.722V250.322Z" fill="#00358A"/>
<path d="M285.491 513.995C291.348 477.553 266.554 443.264 230.112 437.408C193.671 431.551 159.382 456.345 153.525 492.786C147.669 529.228 172.462 563.517 208.904 569.373C245.345 575.23 279.634 550.436 285.491 513.995Z" fill="#1D2C49"/>
<path d="M247.723 531.625C263.306 516.042 263.306 490.777 247.723 475.194C232.14 459.611 206.875 459.611 191.292 475.194C175.709 490.777 175.709 516.042 191.292 531.625C206.875 547.208 232.14 547.208 247.723 531.625Z" fill="#0E1A2D"/>
<path d="M254.878 509.112C258.031 489.577 244.752 471.185 225.217 468.031C205.682 464.878 187.29 478.157 184.137 497.692C180.983 517.227 194.263 535.619 213.797 538.772C233.332 541.926 251.724 528.646 254.878 509.112Z" fill="#1067F5"/>
<path d="M235.165 519.068C243.813 510.42 243.813 496.399 235.165 487.752C226.518 479.104 212.497 479.104 203.849 487.752C195.202 496.399 195.202 510.42 203.849 519.067C212.497 527.715 226.518 527.715 235.165 519.068Z" fill="url(#paint3_linear_589_12560)"/>
<path d="M224.893 503.402C224.893 506.37 222.48 508.806 219.512 508.806C216.545 508.806 214.109 506.392 214.109 503.402C214.109 500.413 216.523 497.999 219.512 497.999C222.502 497.999 224.893 500.413 224.893 503.402Z" fill="#1067F5"/>
<path d="M587.385 550.661C613.484 524.562 613.484 482.248 587.385 456.15C561.287 430.051 518.972 430.051 492.874 456.15C466.775 482.248 466.775 524.562 492.874 550.661C518.972 576.76 561.287 576.76 587.385 550.661Z" fill="#1D2C49"/>
<path d="M568.344 531.621C583.927 516.038 583.927 490.773 568.344 475.19C552.761 459.607 527.496 459.607 511.913 475.19C496.33 490.773 496.33 516.038 511.913 531.621C527.496 547.204 552.761 547.204 568.344 531.621Z" fill="#0E1A2D"/>
<path d="M565.464 528.74C579.456 514.748 579.456 492.063 565.464 478.071C551.472 464.079 528.786 464.079 514.795 478.071C500.803 492.063 500.803 514.748 514.795 528.74C528.786 542.732 551.472 542.732 565.464 528.74Z" fill="#1067F5"/>
<path d="M555.786 519.063C564.434 510.416 564.434 496.395 555.786 487.747C547.139 479.1 533.118 479.1 524.47 487.747C515.823 496.395 515.823 510.416 524.47 519.063C533.118 527.711 547.139 527.711 555.786 519.063Z" fill="url(#paint4_linear_589_12560)"/>
<path d="M186.652 408.738C191.495 408.738 195.421 404.812 195.421 399.969C195.421 395.127 191.495 391.201 186.652 391.201C181.809 391.201 177.883 395.127 177.883 399.969C177.883 404.812 181.809 408.738 186.652 408.738Z" fill="#0457AA"/>
<path d="M345.71 350.589H250.492C174.627 350.589 113.112 412.104 113.112 487.968V503.402H391.879C467.633 503.402 457.978 501.166 473.213 468.858C488.448 436.551 514.799 426.985 544.892 426.985C544.892 426.985 537.098 371.935 524.83 360.421C512.584 348.906 491.415 335.177 477.287 296.182C464.112 259.777 458.022 263.188 434.661 263.808C432.225 263.874 430.609 266.376 431.627 268.591C438.647 283.958 460.503 333.582 465.795 367.108C472.106 407.21 455.764 470.718 418.629 475.546C381.494 480.373 309.815 479.996 302.397 447.689C294.978 415.381 345.732 350.589 345.732 350.589H345.71Z" fill="#1067F5"/>
<path d="M219.512 412.259C169.157 412.259 128.347 453.07 128.347 503.425H310.656C310.656 453.07 269.845 412.259 219.49 412.259H219.512Z" fill="#00358A"/>
<path d="M256.847 446.095H182.157C180.739 446.095 179.588 444.943 179.588 443.526C179.588 442.109 180.739 440.957 182.157 440.957H256.847C258.264 440.957 259.416 442.109 259.416 443.526C259.416 444.943 258.264 446.095 256.847 446.095Z" fill="#1067F5"/>
<path d="M256.847 458.694H182.157C180.739 458.694 179.588 457.543 179.588 456.126C179.588 454.708 180.739 453.557 182.157 453.557H256.847C258.264 453.557 259.416 454.708 259.416 456.126C259.416 457.543 258.264 458.694 256.847 458.694Z" fill="#1067F5"/>
<path d="M256.847 471.294H182.157C180.739 471.294 179.588 470.143 179.588 468.726C179.588 467.308 180.739 466.157 182.157 466.157H256.847C258.264 466.157 259.416 467.308 259.416 468.726C259.416 470.143 258.264 471.294 256.847 471.294Z" fill="#1067F5"/>
<path d="M256.847 483.894H182.157C180.739 483.894 179.588 482.742 179.588 481.325C179.588 479.908 180.739 478.757 182.157 478.757H256.847C258.264 478.757 259.416 479.908 259.416 481.325C259.416 482.742 258.264 483.894 256.847 483.894Z" fill="#1067F5"/>
<path d="M514.133 369.943V401.874C514.133 403.579 515.506 404.952 517.211 404.952H525.161C526.866 404.952 528.239 403.579 528.239 401.874V384.07C528.239 376.276 521.928 369.943 514.111 369.943H514.133Z" fill="url(#paint5_linear_589_12560)"/>
<path d="M422.371 208.249H478.616V254.53H422.371C416.281 254.53 411.321 249.592 411.321 243.48V219.277C411.321 213.187 416.259 208.227 422.371 208.227V208.249Z" fill="#1067F5"/>
<path d="M478.615 254.53V208.249C490.041 208.249 499.297 217.505 499.297 228.932V233.825C499.297 245.251 490.041 254.508 478.615 254.508V254.53Z" fill="url(#paint6_linear_589_12560)"/>
<path d="M540.132 505.838C539.202 505.838 538.316 505.307 537.918 504.421L513.648 451.143C513.095 449.926 513.648 448.486 514.844 447.91C516.084 447.357 517.501 447.91 518.077 449.106L542.346 502.384C542.9 503.602 542.346 505.041 541.151 505.617C540.818 505.772 540.486 505.838 540.154 505.838H540.132Z" fill="#0E1A2D"/>
<path d="M518.985 453.07H602.888C588.14 434.713 565.509 422.932 540.133 422.932C509.619 422.932 483.068 439.916 469.428 464.939H500.23L518.985 453.07Z" fill="#00358A"/>
<path d="M544.89 503.403C544.89 506.016 542.764 508.141 540.151 508.141C537.538 508.141 535.412 506.016 535.412 503.403C535.412 500.79 537.538 498.664 540.151 498.664C542.764 498.664 544.89 500.79 544.89 503.403Z" fill="#1067F5"/>
<path d="M186.65 410.82C192.643 410.82 197.501 405.962 197.501 399.969C197.501 393.977 192.643 389.119 186.65 389.119C180.658 389.119 175.8 393.977 175.8 399.969C175.8 405.962 180.658 410.82 186.65 410.82Z" fill="#00358A"/>
<path d="M192.142 399.969C192.142 402.981 189.684 405.439 186.673 405.439C183.661 405.439 181.203 402.981 181.203 399.969C181.203 396.958 183.661 394.5 186.673 394.5C189.684 394.5 192.142 396.958 192.142 399.969Z" fill="#1067F5"/>
<path d="M401.159 254.773C398.546 254.773 396.088 253.201 395.091 250.61C393.807 247.266 395.468 243.502 398.812 242.218L442.612 225.344C445.955 224.06 449.72 225.721 451.004 229.064C452.289 232.408 450.628 236.172 447.284 237.457L403.484 254.33C402.709 254.618 401.934 254.773 401.159 254.773Z" fill="#0E1A2D"/>
<path d="M186.652 402.383C186.12 402.383 185.589 402.206 185.124 401.852L123.476 352.538C122.435 351.696 122.258 350.168 123.099 349.105C123.941 348.065 125.469 347.887 126.509 348.729L188.157 398.043C189.198 398.884 189.375 400.412 188.534 401.453C188.047 402.051 187.338 402.361 186.629 402.361L186.652 402.383Z" fill="#0E1A2D"/>
<path d="M349.253 334.048H105.982C100.112 334.048 95.3535 338.806 95.3535 344.677V351.431C95.3535 357.301 100.112 362.059 105.982 362.059H349.253C355.123 362.059 359.882 357.301 359.882 351.431V344.677C359.882 338.806 355.123 334.048 349.253 334.048Z" fill="#1D2C49"/>
<path d="M294.713 372.489H220.023C218.606 372.489 217.454 371.338 217.454 369.92C217.454 368.503 218.606 367.352 220.023 367.352H294.713C296.131 367.352 297.282 368.503 297.282 369.92C297.282 371.338 296.131 372.489 294.713 372.489Z" fill="#00358A"/>
<path d="M294.713 383.428H220.023C218.606 383.428 217.454 382.276 217.454 380.859C217.454 379.442 218.606 378.291 220.023 378.291H294.713C296.131 378.291 297.282 379.442 297.282 380.859C297.282 382.276 296.131 383.428 294.713 383.428Z" fill="#00358A"/>
<path d="M294.713 394.367H220.023C218.606 394.367 217.454 393.216 217.454 391.798C217.454 390.381 218.606 389.23 220.023 389.23H294.713C296.131 389.23 297.282 390.381 297.282 391.798C297.282 393.216 296.131 394.367 294.713 394.367Z" fill="#00358A"/>
<path d="M430.01 191.066C438.314 191.066 445.046 179.555 445.046 165.357C445.046 151.158 438.314 139.648 430.01 139.648C421.706 139.648 414.975 151.158 414.975 165.357C414.975 179.555 421.706 191.066 430.01 191.066Z" fill="#F2A222"/>
<path d="M426.002 191.066C434.306 191.066 441.038 179.555 441.038 165.357C441.038 151.158 434.306 139.648 426.002 139.648C417.698 139.648 410.967 151.158 410.967 165.357C410.967 179.555 417.698 191.066 426.002 191.066Z" fill="url(#paint7_linear_589_12560)"/>
<path d="M463.558 216.465C463.447 216.465 463.337 216.465 463.226 216.42C462.34 216.243 461.787 215.38 461.986 214.494L472.991 162.855C473.168 161.969 474.054 161.437 474.918 161.615C475.804 161.792 476.357 162.655 476.158 163.541L465.153 215.18C464.998 215.933 464.311 216.465 463.558 216.465Z" fill="#0E1A2D"/>
<path d="M478.593 191.066C486.897 191.066 493.629 179.555 493.629 165.357C493.629 151.158 486.897 139.648 478.593 139.648C470.289 139.648 463.558 151.158 463.558 165.357C463.558 179.555 470.289 191.066 478.593 191.066Z" fill="#F2A222"/>
<path d="M474.563 191.066C482.867 191.066 489.598 179.555 489.598 165.357C489.598 151.158 482.867 139.648 474.563 139.648C466.259 139.648 459.527 151.158 459.527 165.357C459.527 179.555 466.259 191.066 474.563 191.066Z" fill="url(#paint8_linear_589_12560)"/>
<path d="M117.918 495.475C115.859 469.877 123.587 446.028 134.216 423.109C134.415 422.689 133.862 422.357 133.574 422.733C125.359 434.536 120.708 449.283 118.14 463.322C116.213 473.863 115.128 484.957 116.9 495.586C116.988 496.161 117.963 496.029 117.918 495.453V495.475Z" fill="white"/>
<path d="M143.384 409.115C146.351 405.129 148.942 400.966 152.419 397.334C155.563 394.035 159.128 391.267 162.671 388.41C162.959 388.167 162.583 387.724 162.273 387.901C154.412 392.374 146.484 400.412 142.808 408.782C142.631 409.181 143.118 409.447 143.384 409.115Z" fill="white"/>
<path d="M187.537 370.717C188.91 370.053 190.128 368.968 191.412 368.127C192.719 367.263 194.114 366.532 195.376 365.624C195.686 365.403 195.509 364.894 195.11 364.982C192.32 365.713 188.688 367.795 187.028 370.23C186.806 370.562 187.227 370.872 187.537 370.74V370.717Z" fill="white"/>
<path d="M456.517 268.502C458.155 269.897 459.927 271.115 461.366 272.71C462.894 274.415 464.09 276.452 465.086 278.533C465.33 279.021 466.105 278.666 465.95 278.157C464.754 273.839 461.3 269.211 456.849 267.904C456.539 267.816 456.251 268.259 456.517 268.48V268.502Z" fill="white"/>
<path d="M420.954 210.597C417.256 211.925 413.935 217.107 414.577 221.048C414.644 221.469 415.308 221.558 415.485 221.159C416.26 219.454 416.636 217.638 417.566 216C418.585 214.206 420.047 212.855 421.331 211.283C421.552 210.995 421.353 210.464 420.932 210.597H420.954Z" fill="white"/>
<path d="M462.098 479.908C461.145 482.632 459.883 485.201 457.935 487.349C456.052 489.43 453.772 490.604 451.447 492.065C450.804 492.464 451.247 493.305 451.934 493.217C457.957 492.397 462.806 485.821 463.161 480.041C463.205 479.399 462.297 479.355 462.098 479.908Z" fill="white"/>
<path d="M541.993 425.831C557.184 428.422 572.463 429.883 584.332 440.977C584.664 441.287 585.262 440.889 584.996 440.468C581.254 434.511 573.681 431.655 567.326 429.33C559.575 426.495 550.386 424.148 542.082 425.122C541.727 425.167 541.55 425.765 541.993 425.831Z" fill="white"/>
<path d="M523.638 362.789C526.206 366.952 528.31 371.137 530.192 375.654C530.259 375.787 530.436 375.743 530.414 375.588C529.705 370.716 527.336 366.088 523.837 362.634C523.748 362.545 523.571 362.656 523.638 362.789Z" fill="white"/>
<path d="M520.648 377.116C521.556 378.223 522.508 379.153 523.217 380.437C523.903 381.7 524.103 383.05 524.634 384.357C524.789 384.755 525.343 384.8 525.498 384.357C526.494 381.367 524.014 377.249 521.268 376.097C520.648 375.831 520.338 376.717 520.67 377.116H520.648Z" fill="white"/>
<path d="M426.157 143.612C423.301 142.593 420.378 145.605 419.071 147.886C416.99 151.517 415.927 156.3 416.126 160.441C416.148 160.95 416.857 161.061 417.012 160.552C418.119 157.274 418.717 153.82 420.046 150.609C420.754 148.882 421.64 147.354 423.102 146.158C424.12 145.317 425.316 144.963 426.268 144.033C426.401 143.9 426.334 143.678 426.157 143.612Z" fill="white"/>
<path d="M483.558 160.373C483.27 164.249 482.606 167.681 480.679 171.091C479.196 173.726 477.136 176.007 475.631 178.598C475.387 179.018 475.896 179.616 476.339 179.306C481.897 175.298 486.481 167.149 484.577 160.218C484.422 159.643 483.602 159.798 483.558 160.351V160.373Z" fill="white"/>
<path d="M465.551 152.292C460.48 155.857 460.679 164.316 461.676 169.675C461.809 170.361 462.783 170.14 462.827 169.52C463.027 166.641 462.827 163.763 463.226 160.884C463.647 157.872 464.887 155.614 466.127 152.89C466.282 152.536 465.927 152.026 465.529 152.292H465.551Z" fill="white"/>
<path d="M435.037 172.576C434.395 174.281 433.642 175.942 432.535 177.403C431.516 178.754 430.188 179.839 428.992 181.035C428.682 181.345 428.992 181.898 429.413 181.765C433.133 180.614 435.746 176.451 436.012 172.687C436.056 172.066 435.214 172.044 435.015 172.554L435.037 172.576Z" fill="white"/>
<path d="M195.331 351.718C193.981 351.718 192.896 350.633 192.896 349.283V68.6776C192.896 67.3269 193.981 66.2418 195.331 66.2418C196.682 66.2418 197.767 67.3269 197.767 68.6776V349.283C197.767 350.633 196.682 351.718 195.331 351.718Z" fill="#0E1A2D"/>
<path d="M198.453 129.883V68.6776L108.749 95.0286C104.498 96.2686 104.498 102.292 108.749 103.532L198.453 129.883Z" fill="#FFCA36"/>
<path d="M198.299 68.6776H191.833C190.891 68.6776 190.128 69.441 190.128 70.3827V128.178C190.128 129.119 190.891 129.883 191.833 129.883H198.299C199.241 129.883 200.004 129.119 200.004 128.178V70.3827C200.004 69.441 199.241 68.6776 198.299 68.6776Z" fill="#F2A222"/>
<path d="M-13.1409 206.136C-11.9008 218.492 7.29776 248.829 13.498 251.486C19.6982 254.143 50.9873 265.503 62.6127 262.381L58.4276 275.025L52.0945 277.018C52.0945 277.018 11.9258 275.534 -1.11682 269.622C-14.1595 263.709 -39.5361 216.61 -39.5361 216.61L-13.1409 206.114V206.136Z" fill="#FDF1E5"/>
<path d="M52.095 277.018C51.8957 277.062 76.143 289.329 78.7781 288.222C81.3911 287.115 72.0464 280.516 72.0464 280.516C72.0464 280.516 88.8313 287.735 89.4514 285.454C90.0714 283.174 77.4716 275.534 77.4716 275.534C77.4716 275.534 96.2273 278.922 97.866 275.844C99.4825 272.766 78.0695 269.334 78.0695 269.334C78.0695 269.334 95.4745 266.787 95.0316 263.997C94.5666 261.207 73.5522 264.219 73.5522 264.219C73.5522 264.219 83.074 257.066 81.7896 254.852C80.5053 252.637 61.1739 263.178 61.1739 263.178L52.1171 277.04L52.095 277.018Z" fill="#FFCC99"/>
<path d="M60.3325 264.019C60.3325 264.019 60.3325 263.997 60.3325 263.975C60.3325 263.886 60.2439 263.82 60.1554 263.798C59.4025 263.598 58.3839 264.971 58.0296 265.503C57.2545 266.654 56.7009 268.071 56.3466 269.422C56.2802 269.71 56.6566 269.843 56.8116 269.621C57.6088 268.492 58.4724 267.385 59.2475 266.211C59.5575 265.746 60.4432 264.595 60.3325 264.019Z" fill="#EAA86C"/>
<path d="M73.8405 259.945C74.3498 260.299 74.9256 260.565 75.5456 260.543C75.9221 260.543 76.0992 260.166 75.9442 259.834C75.6785 259.258 75.1913 258.882 74.6377 258.572C73.7298 258.085 73.0212 259.347 73.8405 259.923V259.945Z" fill="#EAA86C"/>
<path d="M84.0049 265.414C84.0049 266.056 84.182 266.322 84.7356 266.676C84.8463 266.743 85.0456 266.676 85.0899 266.544C85.1564 266.145 85.2449 265.835 85.2228 265.414C85.1785 264.639 83.9828 264.639 84.027 265.414H84.0049Z" fill="#EAA86C"/>
<path d="M80.7942 265.414C80.5949 266.034 80.5506 266.455 80.9492 266.964C81.0156 267.031 81.1263 267.031 81.1928 266.986C81.7464 266.743 81.8792 266.322 81.9678 265.724C82.1006 264.949 81.0156 264.639 80.772 265.392L80.7942 265.414Z" fill="#EAA86C"/>
<path d="M89.5187 274.095C89.2308 274.471 89.1422 274.538 89.1644 275.003C89.1644 275.136 89.2751 275.202 89.3858 275.18C89.8287 275.091 89.8508 275.069 90.1387 274.715C90.493 274.272 89.873 273.652 89.5187 274.095Z" fill="#EAA86C"/>
<path d="M84.5345 273.231C84.2466 273.718 84.1359 274.294 84.6231 274.67C84.7338 274.759 84.8667 274.759 84.9331 274.626C85.1324 274.294 85.1767 273.917 85.3095 273.563C85.4645 273.098 84.7781 272.832 84.5345 273.231Z" fill="#EAA86C"/>
<path d="M78.4252 279.254C78.0931 279.542 78.0266 279.675 78.0488 280.118C78.0488 280.472 78.4695 280.627 78.7131 280.406C78.8459 280.273 79.001 280.14 79.156 280.007C79.6653 279.564 78.9124 278.833 78.4252 279.276V279.254Z" fill="#EAA86C"/>
<path d="M82.3441 281.336C82.0563 281.491 81.9455 281.557 81.7241 281.801C81.0598 282.509 82.0563 283.484 82.787 282.863C83.0306 282.642 83.1192 282.553 83.2742 282.243C83.5842 281.623 82.9642 281.048 82.3663 281.336H82.3441Z" fill="#EAA86C"/>
<path d="M72.3119 282.841C72.3119 282.841 72.2234 282.797 72.1791 282.753C72.0241 282.664 71.8469 282.664 71.6919 282.753C71.6255 282.797 71.5369 282.841 71.4705 282.886C71.2933 282.974 71.1826 283.173 71.1826 283.373C71.1826 283.461 71.1826 283.55 71.1826 283.638C71.1826 284.015 71.7141 284.303 72.0019 283.971C72.1791 283.749 72.6884 283.085 72.3119 282.819V282.841Z" fill="#EAA86C"/>
<path d="M73.9743 284.79C73.8414 285.056 73.775 285.189 73.7972 285.477C73.7972 285.72 74.0186 285.897 74.2622 285.831C74.5279 285.764 74.6386 285.676 74.8379 285.477C75.4136 284.857 74.3286 284.081 73.9522 284.79H73.9743Z" fill="#EAA86C"/>
<path d="M72.091 269.467C70.8731 271.77 70.076 274.227 70.2531 276.863C70.2531 277.04 70.541 277.106 70.5852 276.907C71.0724 274.449 71.5817 272.08 72.7111 269.821C72.9103 269.422 72.3125 269.068 72.1132 269.467H72.091Z" fill="#EAA86C"/>
<path d="M70.7177 271.548C69.6326 269.954 66.599 270.684 65.0268 270.994C64.6503 271.083 64.761 271.614 65.1153 271.637C66.0675 271.703 67.0197 271.703 67.9719 271.703C68.8576 271.703 69.7434 271.526 70.607 271.637C70.6734 271.637 70.7398 271.592 70.6955 271.526L70.7177 271.548Z" fill="#EAA86C"/>
<path d="M-106.721 218.182C-99.3911 229.829 -69.7186 268.669 -60.0197 273.607C-50.3207 278.546 11.3937 304.321 11.3937 304.321L17.8154 295.397L14.1395 289.861C14.1395 289.861 -43.1905 257.066 -48.815 252.283C-54.4395 247.5 -83.5141 202.637 -83.5141 202.637L-106.721 218.182Z" fill="#FDF1E5"/>
<path d="M8.8257 251.973C7.74066 253.213 6.12417 254.564 5.50415 256.092C5.26057 256.69 6.05777 257.199 6.56707 256.911C7.27567 256.49 7.74066 255.804 8.27211 255.162C8.84785 254.475 9.42358 253.811 9.99932 253.125C10.6636 252.327 9.53432 251.176 8.84787 251.973H8.8257Z" fill="#EAA86C"/>
<path d="M-92.5921 60.7845C-92.5921 60.7845 -56.9186 18.8886 -18.7429 20.8594C19.4328 22.8302 -44.5403 45.1732 -44.5403 45.1732C-44.5403 45.1732 -73.5707 52.702 -92.6143 60.7845H-92.5921Z" fill="#F2A222"/>
<path d="M237.482 160.94H28.401C24.6587 160.94 21.625 163.974 21.625 167.716V328.657C21.625 332.399 24.6587 335.433 28.401 335.433H237.482C241.224 335.433 244.258 332.399 244.258 328.657V167.716C244.258 163.974 241.224 160.94 237.482 160.94Z" fill="#9E5A2D"/>
<path d="M237.482 160.94H100.944C97.2017 160.94 94.168 163.974 94.168 167.716V328.657C94.168 332.399 97.2017 335.433 100.944 335.433H237.482C241.224 335.433 244.258 332.399 244.258 328.657V167.716C244.258 163.974 241.224 160.94 237.482 160.94Z" fill="#AD6D42"/>
<path d="M178.424 160.94H160V335.433H178.424V160.94Z" fill="#E2BE91"/>
<path d="M65.2038 160.94H46.7803V335.433H65.2038V160.94Z" fill="#C69F75"/>
<path d="M244.258 257.398V238.975H94.1679V257.398H244.258Z" fill="#E2BE91"/>
<path d="M94.168 257.398V238.975H21.6252V257.398H94.168Z" fill="#C69F75"/>
<path d="M11.3956 304.298C11.2185 304.365 32.72 313.599 35.178 312.137C37.6138 310.676 27.4277 305.472 27.4277 305.472C27.4277 305.472 45.0762 310.233 45.364 307.886C45.6519 305.538 32.1 299.781 32.1 299.781C32.1 299.781 51.1435 300.468 52.3171 297.168C53.4908 293.891 31.79 293.537 31.79 293.537C31.79 293.537 48.6635 288.532 47.7999 285.831C46.9362 283.129 26.5641 289.108 26.5641 289.108C26.5641 289.108 34.9565 280.671 33.3843 278.656C31.8121 276.663 14.1636 289.839 14.1636 289.839L11.4178 304.298H11.3956Z" fill="#CEEDF9"/>
<path opacity="0.5" d="M26.4968 284.17C26.8511 284.325 27.2054 284.458 27.5818 284.591C27.9804 284.723 28.3569 284.126 28.0026 283.86C27.6704 283.572 27.3161 283.306 26.9618 283.041C26.2975 282.531 25.5668 283.816 26.4747 284.192L26.4968 284.17Z" fill="white"/>
<path opacity="0.5" d="M35.6875 289.13C35.6875 289.13 35.754 289.329 35.7983 289.418C35.909 289.728 36.1083 289.861 36.4404 289.905C36.5069 289.905 36.5733 289.905 36.6397 289.927C36.7947 289.927 36.9497 289.817 37.0162 289.706C37.149 289.507 37.0826 289.152 37.0826 288.953C37.0162 287.868 35.3554 288.222 35.7097 289.13H35.6875Z" fill="white"/>
<g opacity="0.5">
<path d="M38.9645 287.824C39.1638 288.731 39.4738 289.241 40.3817 289.418C40.5145 289.44 40.6917 289.351 40.6695 289.196C40.6031 288.576 40.4703 288.067 40.3595 287.447C40.1824 286.539 38.7652 286.916 38.9645 287.846V287.824Z" fill="white"/>
</g>
<path opacity="0.5" d="M37.5037 296.659C37.5037 296.659 37.6587 296.88 37.7473 296.991C37.9687 297.301 38.5223 297.124 38.4116 296.703C38.3673 296.57 38.3452 296.46 38.3009 296.327C38.1237 295.707 37.1494 296.172 37.5037 296.659Z" fill="white"/>
<path opacity="0.5" d="M43.3918 296.947C43.3918 297.168 43.414 297.39 43.4361 297.611C43.4583 297.987 43.9676 298.054 44.0783 297.7C44.1447 297.5 44.2333 297.279 44.2997 297.08C44.5212 296.437 43.3476 296.26 43.3918 296.947Z" fill="white"/>
<path opacity="0.5" d="M34.2919 302.97C34.1148 303.324 33.9155 303.634 33.7383 303.988C33.6055 304.254 33.6055 304.653 33.849 304.852C33.8933 304.896 33.9376 304.941 34.0041 304.963C34.3584 305.184 34.7569 305.007 34.9784 304.697C35.2441 304.321 35.3991 303.922 35.5541 303.501C35.8198 302.771 34.6462 302.283 34.2919 302.97Z" fill="white"/>
<g opacity="0.5">
<path d="M37.7911 304.697C37.5918 304.963 37.3925 305.229 37.2375 305.516C36.9054 306.159 37.7468 306.911 38.2783 306.314C38.544 306.004 38.7433 305.716 38.9647 305.361C39.4297 304.609 38.3004 304.011 37.8133 304.675L37.7911 304.697Z" fill="white"/>
</g>
<path opacity="0.5" d="M27.2727 307.842C27.1841 308.041 27.0955 308.218 27.0069 308.417C26.8741 308.683 26.9184 308.905 27.0955 309.148C27.2062 309.303 27.3391 309.303 27.5162 309.325C27.7155 309.325 27.937 309.192 28.0255 309.037C28.1363 308.86 28.247 308.683 28.3577 308.506C28.7784 307.797 27.627 307.155 27.2727 307.864V307.842Z" fill="white"/>
<path d="M244.258 257.398H178.425V260.078H244.258V257.398Z" fill="#A3743B"/>
<path d="M17.8178 295.397L14.142 289.861C14.142 289.861 12.4812 288.909 9.73541 287.337C7.80891 289.02 3.97806 293.205 2.58301 300.623C7.94178 302.859 11.3741 304.299 11.3741 304.299L17.7957 295.375L17.8178 295.397Z" fill="#CEEDF9"/>
</g>
<defs>
<linearGradient id="paint0_linear_589_12560" x1="222.661" y1="151.851" x2="222.661" y2="621.098" gradientUnits="userSpaceOnUse">
<stop stop-color="#E4ECF4"/>
<stop offset="1" stop-color="#E4ECF4" stop-opacity="0"/>
</linearGradient>
<linearGradient id="paint1_linear_589_12560" x1="369.138" y1="432.432" x2="369.138" y2="1083.85" gradientUnits="userSpaceOnUse">
<stop stop-color="#E4ECF4"/>
<stop offset="1" stop-color="#E4ECF4" stop-opacity="0"/>
</linearGradient>
<linearGradient id="paint2_linear_589_12560" x1="-95.1927" y1="432.432" x2="-95.1927" y2="1083.85" gradientUnits="userSpaceOnUse">
<stop stop-color="#E4ECF4"/>
<stop offset="1" stop-color="#E4ECF4" stop-opacity="0"/>
</linearGradient>
<linearGradient id="paint3_linear_589_12560" x1="219.499" y1="559.567" x2="219.499" y2="451.639" gradientUnits="userSpaceOnUse">
<stop stop-color="#E4ECF4"/>
<stop offset="1" stop-color="#E4ECF4" stop-opacity="0"/>
</linearGradient>
<linearGradient id="paint4_linear_589_12560" x1="540.126" y1="559.563" x2="540.126" y2="451.635" gradientUnits="userSpaceOnUse">
<stop stop-color="#E4ECF4"/>
<stop offset="1" stop-color="#E4ECF4" stop-opacity="0"/>
</linearGradient>
<linearGradient id="paint5_linear_589_12560" x1="521.197" y1="404.952" x2="521.197" y2="369.943" gradientUnits="userSpaceOnUse">
<stop stop-color="#CEEDF9"/>
<stop offset="1" stop-color="#B3EFFF"/>
</linearGradient>
<linearGradient id="paint6_linear_589_12560" x1="488.956" y1="254.53" x2="488.956" y2="208.249" gradientUnits="userSpaceOnUse">
<stop stop-color="#CEEDF9"/>
<stop offset="1" stop-color="#B3EFFF"/>
</linearGradient>
<linearGradient id="paint7_linear_589_12560" x1="426.002" y1="191.066" x2="426.002" y2="139.648" gradientUnits="userSpaceOnUse">
<stop stop-color="#CEEDF9"/>
<stop offset="1" stop-color="#B3EFFF"/>
</linearGradient>
<linearGradient id="paint8_linear_589_12560" x1="474.563" y1="191.066" x2="474.563" y2="139.648" gradientUnits="userSpaceOnUse">
<stop stop-color="#CEEDF9"/>
<stop offset="1" stop-color="#B3EFFF"/>
</linearGradient>
<clipPath id="clip0_589_12560">
<rect width="1107.18" height="583.973" fill="white" transform="translate(-341)"/>
</clipPath>
</defs>
</svg>
