<svg width="96" height="96" viewBox="0 0 96 96" fill="none" xmlns="http://www.w3.org/2000/svg">
<g id="Frame">
<g id="Blob">
<path id="Vector" d="M84.0091 48.3915C84.0091 68.5415 68.6791 88.0015 46.0191 83.4115C20.4291 78.2315 5.61907 66.8815 14.6891 48.9315C24.8491 28.8015 28.6191 6.59154 47.9391 13.3215C72.8391 21.9915 83.9991 28.2415 83.9991 48.3915H84.0091Z" fill="#F7EDDA"/>
</g>
<g id="Illustration">
<g id="Group">
<path id="Vector_2" d="M72.0494 34.6678L39.7494 19.0078L19.6094 48.7178L28.5094 81.9178L80.9494 67.8678C80.9494 67.8678 72.0094 34.5178 72.0494 34.6678Z" fill="#C2E0F1"/>
<path id="Vector_3" d="M68.4689 32.9278L39.7489 19.0078L38.1989 21.2978L29.3789 63.6678L60.7189 70.1878L68.4689 32.9278Z" fill="#96CEEE"/>
<path id="Vector_4" d="M28.5083 82.6693C28.1783 82.6693 27.8783 82.4493 27.7883 82.1093L19.1383 49.8093C18.9283 49.0193 19.0683 48.1793 19.5283 47.5093L39.1383 18.5793C39.3483 18.2693 39.7583 18.1693 40.0883 18.3293L71.3883 33.5093C72.2183 33.9093 72.8283 34.6493 73.0683 35.5393L81.6783 67.6793C81.7883 68.0793 81.5483 68.4893 81.1483 68.5993L28.7083 82.6493C28.6383 82.6693 28.5783 82.6793 28.5183 82.6793L28.5083 82.6693ZM40.0083 19.9593L20.7583 48.3593C20.5483 48.6693 20.4783 49.0593 20.5783 49.4293L29.0383 80.9993L80.0283 67.3393L71.6083 35.9293C71.4883 35.4593 71.1583 35.0693 70.7283 34.8593L40.0083 19.9693V19.9593Z" fill="#575756"/>
<g id="Group_2">
<path id="Vector_5" d="M34.9467 15.8594C32.2867 15.8594 30.1367 18.0094 30.1367 20.6694V67.9594H62.1467V20.6794C62.1467 18.0194 64.2967 15.8694 66.9567 15.8694H34.9467V15.8594Z" fill="#F0F0F1"/>
<path id="Vector_6" d="M34.9467 15.8594C32.2867 15.8594 30.1367 18.0094 30.1367 20.6694V49.4094L37.7667 15.8594H34.9467Z" fill="white"/>
<path id="Vector_7" d="M62.1367 68.7211H30.1367C29.7267 68.7211 29.3867 68.3811 29.3867 67.9711V20.6811C29.3867 17.6111 31.8867 15.1211 34.9467 15.1211H66.9567C67.3667 15.1211 67.7067 15.4611 67.7067 15.8711C67.7067 16.2811 67.3667 16.6211 66.9567 16.6211C64.7167 16.6211 62.8967 18.4411 62.8967 20.6811V67.9711C62.8967 68.3811 62.5567 68.7211 62.1467 68.7211H62.1367ZM30.8767 67.2211H61.3867V20.6811C61.3867 19.0811 62.0667 17.6311 63.1567 16.6211H34.9467C32.7067 16.6211 30.8867 18.4411 30.8867 20.6811V67.2211H30.8767Z" fill="#575756"/>
<path id="Vector_8" d="M62.1367 20.6811C62.1367 18.0211 64.2867 15.8711 66.9467 15.8711C69.6067 15.8711 71.7567 18.0211 71.7567 20.6811V22.4311H62.1367V20.6811Z" fill="#B9BABC"/>
<path id="Vector_9" d="M64.5467 16.5312C63.1167 17.3612 62.1367 18.9012 62.1367 20.6712V22.4212H66.9467V20.6712C66.9467 18.8912 65.9767 17.3612 64.5367 16.5312H64.5467Z" fill="#9C9EA1"/>
<path id="Vector_10" d="M71.7684 23.1694H62.1484C61.7384 23.1694 61.3984 22.8294 61.3984 22.4194V20.6694C61.3984 17.5994 63.8984 15.1094 66.9584 15.1094C70.0184 15.1094 72.5184 17.6094 72.5184 20.6694V22.4194C72.5184 22.8294 72.1784 23.1694 71.7684 23.1694ZM62.8984 21.6694H71.0184V20.6694C71.0184 18.4294 69.1984 16.6094 66.9584 16.6094C64.7184 16.6094 62.8984 18.4294 62.8984 20.6694V21.6694Z" fill="#575756"/>
</g>
<path id="Vector_11" d="M50.2879 58.3699L20.6279 49.1699C20.1979 49.0399 19.7879 49.4299 19.9079 49.8599L28.4979 81.9199L50.2879 58.3699Z" fill="#FAD895"/>
<path id="Vector_12" d="M20.6396 49.1699C20.2096 49.0399 19.7996 49.4299 19.9196 49.8599L28.5096 81.9199L28.5496 81.8699L25.9496 50.8199L20.6396 49.1699Z" fill="#F7EDDA"/>
<path id="Vector_13" d="M28.5082 82.6697C28.4482 82.6697 28.3882 82.6697 28.3282 82.6497C28.0582 82.5797 27.8582 82.3797 27.7882 82.1197L19.2882 50.3897C19.1482 49.8597 19.3082 49.2897 19.6982 48.9097C20.0982 48.5297 20.6682 48.3897 21.1882 48.5597L50.5182 57.6597C50.7682 57.7397 50.9582 57.9297 51.0182 58.1797C51.0782 58.4297 51.0182 58.6897 50.8482 58.8797L29.0582 82.4297C28.9182 82.5897 28.7182 82.6697 28.5082 82.6697ZM20.7382 49.9897L28.8782 80.4097L48.9282 58.7297L20.7282 49.9897H20.7382Z" fill="#575756"/>
<path id="Vector_14" d="M50.2891 58.3687L71.0591 35.9187C71.4991 35.4387 72.2991 35.6387 72.4691 36.2687L80.9391 67.8787L50.2991 58.3787L50.2891 58.3687Z" fill="#DE9506"/>
<path id="Vector_15" d="M50.2891 58.3706L80.9391 67.8706L80.4391 66.0306L57.6691 50.3906L50.2891 58.3706Z" fill="#B67E0A"/>
<path id="Vector_16" d="M80.9373 68.6207C80.8673 68.6207 80.7873 68.6106 80.7173 68.5906L50.0773 59.0906C49.8273 59.0106 49.6373 58.8206 49.5773 58.5706C49.5173 58.3206 49.5773 58.0606 49.7473 57.8706L70.5973 35.3306C70.9673 34.9306 71.5373 34.7606 72.0673 34.8906C72.5973 35.0206 73.0173 35.4306 73.1673 35.9606L81.6673 67.6907C81.7373 67.9506 81.6673 68.2407 81.4573 68.4306C81.3173 68.5706 81.1273 68.6406 80.9373 68.6406V68.6207ZM51.6473 58.0006L79.8573 66.7506L71.7073 36.3406L51.6473 58.0106V58.0006Z" fill="#575756"/>
<path id="Vector_17" d="M47.1479 54.4393L29.3479 80.6893C29.0579 81.1193 29.4579 81.6693 29.9479 81.5393L79.5279 68.2593C80.0279 68.1293 80.0879 67.4493 79.6279 67.2193L51.0879 53.3893C49.6979 52.7193 48.0179 53.1593 47.1479 54.4393Z" fill="#DE9506"/>
<path id="Vector_18" d="M51.0801 53.3776C49.6901 52.7076 48.0101 53.1476 47.1401 54.4276L29.3401 80.6776C29.0501 81.1076 29.4501 81.6576 29.9401 81.5276L35.0701 80.1576L75.1801 65.0576L51.0801 53.3776Z" fill="#FCAE16"/>
<path id="Vector_19" d="M51.079 53.3776C49.689 52.7076 48.009 53.1476 47.139 54.4276L29.339 80.6776C29.079 81.0676 29.379 81.5576 29.809 81.5376L68.909 62.0076L51.079 53.3676V53.3776Z" fill="#FFBE42"/>
<path id="Vector_20" d="M29.7986 82.3103C29.3886 82.3103 28.9886 82.1103 28.7386 81.7603C28.4186 81.3103 28.4086 80.7303 28.7186 80.2703L46.5186 54.0203C47.5886 52.4403 49.6886 51.8803 51.3986 52.7103L79.9386 66.5403C80.4386 66.7803 80.7186 67.2903 80.6686 67.8403C80.6186 68.3903 80.2386 68.8403 79.7086 68.9803L30.1286 82.2603C30.0086 82.2903 29.8986 82.3103 29.7886 82.3103H29.7986ZM49.7386 53.8303C48.9686 53.8303 48.2186 54.2003 47.7686 54.8603L30.2586 80.6803L78.8286 67.6703L50.7586 54.0703C50.4286 53.9103 50.0786 53.8403 49.7386 53.8403V53.8303Z" fill="#575756"/>
<path id="Vector_21" d="M54.4178 30.2383H37.7578C37.3478 30.2383 37.0078 29.8983 37.0078 29.4883C37.0078 29.0783 37.3478 28.7383 37.7578 28.7383H54.4178C54.8278 28.7383 55.1678 29.0783 55.1678 29.4883C55.1678 29.8983 54.8278 30.2383 54.4178 30.2383Z" fill="#575756"/>
<path id="Vector_22" d="M54.4178 34.1094H37.7578C37.3478 34.1094 37.0078 33.7694 37.0078 33.3594C37.0078 32.9494 37.3478 32.6094 37.7578 32.6094H54.4178C54.8278 32.6094 55.1678 32.9494 55.1678 33.3594C55.1678 33.7694 54.8278 34.1094 54.4178 34.1094Z" fill="#575756"/>
<path id="Vector_23" d="M54.4178 37.9883H37.7578C37.3478 37.9883 37.0078 37.6483 37.0078 37.2383C37.0078 36.8283 37.3478 36.4883 37.7578 36.4883H54.4178C54.8278 36.4883 55.1678 36.8283 55.1678 37.2383C55.1678 37.6483 54.8278 37.9883 54.4178 37.9883Z" fill="#575756"/>
<path id="Vector_24" d="M54.4178 41.8594H37.7578C37.3478 41.8594 37.0078 41.5194 37.0078 41.1094C37.0078 40.6994 37.3478 40.3594 37.7578 40.3594H54.4178C54.8278 40.3594 55.1678 40.6994 55.1678 41.1094C55.1678 41.5194 54.8278 41.8594 54.4178 41.8594Z" fill="#575756"/>
<path id="Vector_25" d="M62.9869 67.8713L62.9469 67.8412C61.9369 67.1712 60.7569 66.7913 59.5469 66.7313L59.8469 66.1813C60.2769 65.3913 60.5569 64.5213 60.6469 63.6213L60.6869 63.2812L60.9869 63.4613C61.8469 63.9813 62.8169 64.2913 63.8169 64.3913L64.1269 64.4212C63.5069 65.3712 63.1269 66.4513 63.0169 67.5813L62.9869 67.8713Z" fill="white"/>
<path id="Vector_26" d="M26.4991 58.6505C27.4435 58.6505 28.2091 57.8849 28.2091 56.9405C28.2091 55.9961 27.4435 55.2305 26.4991 55.2305C25.5547 55.2305 24.7891 55.9961 24.7891 56.9405C24.7891 57.8849 25.5547 58.6505 26.4991 58.6505Z" fill="white"/>
</g>
</g>
</g>
</svg>
