<svg width="322" height="167" viewBox="0 0 322 167" fill="none" xmlns="http://www.w3.org/2000/svg">
<g clip-path="url(#clip0_788_144)">
<mask id="mask0_788_144" style="mask-type:luminance" maskUnits="userSpaceOnUse" x="0" y="0" width="322" height="167">
<path d="M314 0H8C3.58172 0 0 3.58172 0 8V159C0 163.418 3.58172 167 8 167H314C318.418 167 322 163.418 322 159V8C322 3.58172 318.418 0 314 0Z" fill="white"/>
</mask>
<g mask="url(#mask0_788_144)">
<path d="M314 0H8C3.58172 0 0 3.58172 0 8V159C0 163.418 3.58172 167 8 167H314C318.418 167 322 163.418 322 159V8C322 3.58172 318.418 0 314 0Z" fill="#3480FD"/>
<path d="M119.242 13.3644C118.106 12.3829 116.722 11.7311 115.242 11.4796C113.761 11.228 112.24 11.3863 110.843 11.9374L15.6806 49.3227C14.0219 49.9743 12.6188 51.1456 11.6812 52.6611C10.7437 54.1767 10.3221 55.9551 10.4795 57.7302C10.637 59.5054 11.365 61.1818 12.5547 62.5087C13.7443 63.8356 15.3317 64.7415 17.0792 65.0911L41.2511 69.9256V100.118C41.2497 101.75 41.7328 103.346 42.639 104.704C43.5453 106.061 44.8341 107.118 46.3422 107.743C47.8502 108.368 49.5097 108.532 51.1105 108.213C52.7113 107.894 54.1814 107.107 55.3346 105.951L68.7117 92.574L89.0149 110.441C90.5097 111.769 92.4387 112.503 94.4378 112.505C95.3068 112.504 96.1704 112.367 96.9971 112.1C98.3605 111.667 99.5868 110.885 100.553 109.83C101.52 108.776 102.193 107.486 102.506 106.09L121.901 21.4593C122.239 19.9959 122.169 18.468 121.701 17.041C121.232 15.6141 120.382 14.3427 119.242 13.3644ZM94.4647 104.248L51.9813 66.8615L113.157 22.6791L94.4647 104.248Z" fill="#2F7EFD"/>
<path d="M38.1494 129.916L47.7546 129.987" stroke="white" stroke-width="1.74645" stroke-linecap="round" stroke-linejoin="round"/>
<path d="M43.7969 133.886L47.7551 129.986L43.8546 126.027" stroke="white" stroke-width="1.74645" stroke-linecap="round" stroke-linejoin="round"/>
<mask id="mask1_788_144" style="mask-type:luminance" maskUnits="userSpaceOnUse" x="168" y="10" width="155" height="139">
<path d="M321.223 10.0009L168 10.9395L168.84 148.002L322.063 147.063L321.223 10.0009Z" fill="white"/>
</mask>
<g mask="url(#mask1_788_144)">
<path d="M231.175 50.4006C239.951 35.7691 256.657 26.5703 273.359 27.1703C290.06 27.7702 306.109 38.1435 313.884 53.3694C319.758 64.8714 322.871 77.9671 321.247 90.8512C319.622 103.732 313.286 116.047 303.427 124.154C293.567 132.261 280.205 135.906 267.851 133.241C257.535 131.015 246.527 131.18 236.866 135.518C229.649 138.758 221.376 139.501 213.539 138.671C205.706 137.841 197.871 134.108 193.434 127.412C188.25 119.586 186.376 108.317 189.449 99.3895C192.522 90.4628 199.743 83.1557 208.467 80.1503C220.594 75.9699 224.459 61.6059 231.175 50.4071V50.4006Z" fill="#00358A"/>
<path d="M186.492 98.7964C188.104 102.451 192.37 104.109 196.028 102.496C199.682 100.884 201.34 96.6182 199.727 92.9609L186.496 98.7963L186.492 98.7964Z" fill="#FA101D"/>
<path d="M187.549 98.3264C188.808 101.18 192.139 102.473 194.992 101.217C197.845 99.9572 199.138 96.6267 197.882 93.7734L187.549 98.3297V98.3264Z" fill="white"/>
<path d="M284.867 133.951C281.509 136.11 280.535 140.587 282.698 143.945C284.857 147.303 289.334 148.277 292.692 146.114L284.87 133.951H284.867Z" fill="#FA101D"/>
<path d="M285.491 134.922C282.868 136.609 282.109 140.102 283.797 142.725C285.484 145.348 288.977 146.107 291.6 144.42L285.491 134.922Z" fill="white"/>
<path d="M287.116 40.6875C285.451 44.3194 287.047 48.6108 290.676 50.2726C294.308 51.9377 298.599 50.3444 300.261 46.7125L287.112 40.6876L287.116 40.6875Z" fill="#FA101D"/>
<path d="M288.162 41.168C286.863 44.0011 288.109 47.3551 290.942 48.6544C293.778 49.9537 297.129 48.7108 298.428 45.8744L288.162 41.168Z" fill="white"/>
<path d="M295.525 54.9538C295.549 58.9459 298.807 62.164 302.799 62.1396C306.791 62.1151 310.008 58.8574 309.984 54.8652L295.521 54.9538H295.525Z" fill="#FA101D"/>
<path d="M296.68 54.9462C296.699 58.0638 299.243 60.5776 302.361 60.5585C305.479 60.5394 307.993 57.9946 307.973 54.877L296.68 54.9462Z" fill="white"/>
<path d="M182.086 108.332C182.082 107.666 181.539 107.129 180.872 107.133C180.206 107.137 179.669 107.68 179.673 108.347C179.677 109.013 180.22 109.55 180.887 109.545C181.553 109.541 182.09 108.998 182.086 108.332Z" fill="#FF6400"/>
<path d="M185.518 73.1597C185.514 72.4932 184.971 71.9569 184.305 71.961C183.638 71.965 183.102 72.508 183.106 73.1744C183.11 73.8409 183.653 74.3772 184.319 74.3732C184.986 74.3691 185.522 73.8261 185.518 73.1597Z" fill="#FFBE00"/>
<path d="M259.597 42.5913C259.593 41.9249 259.05 41.3885 258.384 41.3926C257.717 41.3967 257.181 41.9396 257.185 42.6061C257.189 43.2725 257.732 43.8089 258.399 43.8048C259.065 43.8007 259.601 43.2577 259.597 42.5913Z" fill="#FF6400"/>
<path d="M260.636 19.3042C260.632 18.6377 260.089 18.1014 259.423 18.1055C258.756 18.1096 258.22 18.6525 258.224 19.319C258.228 19.9854 258.771 20.5218 259.438 20.5177C260.104 20.5136 260.64 19.9706 260.636 19.3042Z" fill="#FF6400"/>
<path d="M307.063 88.7007C307.059 88.0343 306.516 87.4979 305.85 87.502C305.183 87.5061 304.647 88.049 304.651 88.7155C304.655 89.3819 305.198 89.9183 305.864 89.9142C306.531 89.9101 307.067 89.3671 307.063 88.7007Z" fill="white"/>
<path d="M320.15 66.5483C320.146 65.8819 319.603 65.3456 318.937 65.3496C318.27 65.3537 317.734 65.8967 317.738 66.5631C317.742 67.2296 318.285 67.7659 318.951 67.7618C319.618 67.7577 320.154 67.2148 320.15 66.5483Z" fill="#FF9A7D"/>
<path d="M287.664 109.694C287.66 109.028 287.117 108.491 286.45 108.496C285.784 108.5 285.247 109.043 285.252 109.709C285.256 110.375 285.799 110.912 286.465 110.908C287.131 110.904 287.668 110.361 287.664 109.694Z" fill="#FF6400"/>
<path d="M233.289 133.169C233.285 132.503 232.742 131.967 232.075 131.971C231.409 131.975 230.872 132.518 230.877 133.184C230.881 133.851 231.424 134.387 232.09 134.383C232.756 134.379 233.293 133.836 233.289 133.169Z" fill="#FFBE00"/>
<path d="M196.359 125.166C196.357 124.763 196.026 124.437 195.623 124.439C195.22 124.442 194.894 124.772 194.896 125.175C194.899 125.578 195.229 125.905 195.632 125.902C196.035 125.9 196.361 125.569 196.359 125.166Z" fill="white"/>
<path d="M195.994 65.5215C196.398 65.5191 196.724 65.1896 196.721 64.7856C196.719 64.3816 196.389 64.0561 195.985 64.0586C195.581 64.0611 195.256 64.3906 195.258 64.7945C195.261 65.1985 195.59 65.524 195.994 65.5215Z" fill="#FF6400"/>
<path d="M190.758 80.3461C190.756 79.943 190.426 79.6167 190.022 79.6192C189.619 79.6216 189.293 79.952 189.295 80.3551C189.298 80.7582 189.628 81.0846 190.031 81.0821C190.435 81.0796 190.761 80.7493 190.758 80.3461Z" fill="white"/>
<path d="M250.366 42.3208C250.363 41.9176 250.033 41.5913 249.63 41.5938C249.227 41.5962 248.9 41.9266 248.903 42.3297C248.905 42.7328 249.236 43.0592 249.639 43.0567C250.042 43.0542 250.368 42.7239 250.366 42.3208Z" fill="#FFBE00"/>
<path d="M258.145 36.3032C258.143 35.9 257.812 35.5737 257.409 35.5762C257.006 35.5786 256.68 35.909 256.682 36.3121C256.685 36.7152 257.015 37.0416 257.418 37.0391C257.821 37.0366 258.148 36.7063 258.145 36.3032Z" fill="#FF9A7D"/>
<path d="M313.336 84.1368C313.74 84.1343 314.066 83.8048 314.063 83.4008C314.061 82.9968 313.731 82.6714 313.327 82.6738C312.923 82.6763 312.598 83.0058 312.6 83.4098C312.603 83.8138 312.932 84.1392 313.336 84.1368Z" fill="#FF6400"/>
<path d="M298.486 25.1098C298.483 24.7067 298.153 24.3803 297.75 24.3828C297.347 24.3853 297.021 24.7156 297.023 25.1188C297.025 25.5219 297.356 25.8482 297.759 25.8457C298.162 25.8433 298.488 25.5129 298.486 25.1098Z" fill="#FF9A7D"/>
<path d="M297.317 108.903C297.315 108.5 296.984 108.173 296.581 108.176C296.178 108.178 295.852 108.508 295.854 108.912C295.857 109.315 296.187 109.641 296.59 109.639C296.993 109.636 297.319 109.306 297.317 108.903Z" fill="#FF9A7D"/>
<path d="M312.707 100.29C313.111 100.287 313.437 99.9572 313.434 99.5532C313.432 99.1492 313.102 98.8237 312.698 98.8262C312.294 98.8287 311.969 99.1582 311.971 99.5621C311.974 99.9661 312.303 100.292 312.707 100.29Z" fill="#FFBE00"/>
<path d="M306.981 75.3008C307.385 75.2984 307.71 74.9689 307.708 74.5649C307.705 74.1609 307.376 73.8354 306.972 73.8379C306.568 73.8404 306.242 74.1699 306.245 74.5739C306.247 74.9778 306.577 75.3033 306.981 75.3008Z" fill="#FF9A7D"/>
<path d="M246.368 29.6001C246.365 29.197 246.035 28.8707 245.632 28.8731C245.229 28.8756 244.902 29.206 244.905 29.6091C244.907 30.0122 245.238 30.3385 245.641 30.3361C246.044 30.3336 246.37 30.0032 246.368 29.6001Z" fill="white"/>
<path d="M232.178 29.6879C232.176 29.2848 231.846 28.9585 231.442 28.961C231.039 28.9634 230.713 29.2938 230.715 29.6969C230.718 30.1 231.048 30.4264 231.451 30.4239C231.854 30.4214 232.181 30.0911 232.178 29.6879Z" fill="#FF9A7D"/>
<path d="M269.704 14.1352C269.701 13.7321 269.371 13.4057 268.968 13.4082C268.565 13.4107 268.238 13.741 268.241 14.1441C268.243 14.5473 268.574 14.8736 268.977 14.8711C269.38 14.8687 269.706 14.5383 269.704 14.1352Z" fill="#FFBE00"/>
<path d="M195.246 112.125L191.634 114.241L195.272 116.309L195.246 112.125Z" fill="#FFBE00"/>
<path d="M275.123 34.8379L271.511 36.9537L275.148 39.0251L275.123 34.8379Z" fill="white"/>
<path d="M239.723 28.8835C236.51 26.5461 234.991 22.1113 236.095 18.2943C236.543 19.1921 237.144 19.702 237.592 20.5998C237.936 17.7986 238.992 15.0872 240.629 12.7885C240.859 14.2663 241.132 15.6983 241.362 17.1761C242.526 14.6234 244.232 12.3177 246.327 10.4551C246.208 13.2192 245.686 16.1516 244.801 18.7708C246.066 17.6935 247.331 16.6194 248.598 15.5421C248.504 18.7124 247.434 21.866 245.28 24.1972C246.171 23.7366 247.066 23.2759 247.957 22.8153C246.625 26.1233 243.257 28.3644 239.73 28.8802L239.723 28.8835Z" fill="#BAD734"/>
<path d="M238.633 31.3403C240.139 27.303 241.646 23.2658 243.155 19.2285" stroke="black" stroke-width="0.650199" stroke-linecap="round" stroke-linejoin="round"/>
<path d="M292.561 127.147C292.719 123.176 295.564 119.45 299.354 118.25C298.855 119.121 298.766 119.901 298.267 120.772C300.789 119.505 303.626 118.877 306.449 118.96C305.346 119.975 304.306 120.992 303.203 122.007C305.974 121.558 308.835 121.696 311.551 122.408C309.187 123.843 306.46 125.036 303.785 125.755C305.381 126.21 306.98 126.665 308.576 127.12C305.885 128.801 302.668 129.663 299.534 129.165C300.412 129.651 301.289 130.14 302.17 130.625C298.68 131.352 294.944 129.798 292.558 127.147H292.561Z" fill="#FFDC00"/>
<path d="M288.744 128.48C292.773 126.957 296.801 125.434 300.83 123.91" stroke="black" stroke-width="0.650199" stroke-linecap="round" stroke-linejoin="round"/>
<path d="M289.483 65.3718L274.845 56.0431L248.473 50.7754L216.738 57.0167L200.521 74.8278L204.082 93.1322L218.953 110.2C224.213 116.54 235.394 120.877 248.313 120.797C261.232 120.718 272.358 116.245 277.54 109.841L292.202 92.5925L296.108 77.4999L289.483 65.3718Z" fill="#E6E9F1"/>
<path d="M248.233 107.501C269.762 107.369 287.153 97.0858 287.076 84.5321C286.999 71.9783 269.484 61.9084 247.955 62.0403C226.425 62.1722 209.035 72.4559 209.112 85.0096C209.189 97.5633 226.704 107.633 248.233 107.501Z" fill="#FF6400"/>
<path d="M231.212 88.9896C229.449 92.5733 230.929 96.9076 234.513 98.6673C238.097 100.43 242.431 98.9504 244.191 95.3667L231.212 88.9863V88.9896Z" fill="#FA101D"/>
<path d="M232.249 89.5C230.875 92.2979 232.027 95.6817 234.825 97.0592C237.623 98.4335 241.007 97.2814 242.384 94.4836L232.249 89.5033V89.5Z" fill="white"/>
<path d="M245.089 91.1033C246.026 94.9859 249.935 97.371 253.818 96.4304C257.7 95.493 260.085 91.5837 259.148 87.7012L245.092 91.1001L245.089 91.1033Z" fill="#FA101D"/>
<path d="M246.211 90.8328C246.945 93.8647 249.996 95.7252 253.028 94.9946C256.06 94.2608 257.921 91.2097 257.19 88.1777L246.214 90.8327L246.211 90.8328Z" fill="white"/>
<path d="M268.098 86.5899C269.426 86.2679 270.241 84.9304 269.919 83.6025C269.597 82.2746 268.26 81.4592 266.932 81.7812C265.604 82.1032 264.788 83.4407 265.11 84.7686C265.432 86.0965 266.77 86.9119 268.098 86.5899Z" fill="#FFA000"/>
<path d="M277.245 90.8005C278.205 89.8285 278.196 88.262 277.224 87.3018C276.252 86.3416 274.685 86.3512 273.725 87.3232C272.765 88.2953 272.774 89.8617 273.746 90.8219C274.718 91.7822 276.285 91.7726 277.245 90.8005Z" fill="#FFA000"/>
<path d="M276.26 83.7011C276.253 82.6316 275.38 81.7689 274.311 81.7754C273.241 81.782 272.378 82.6553 272.385 83.7248C272.391 84.7944 273.265 85.6571 274.334 85.6505C275.404 85.644 276.267 84.7707 276.26 83.7011Z" fill="#FFA000"/>
<path d="M221.279 81.5905C220.775 80.0006 219.646 78.8826 218.092 78.2875C217.93 75.2357 215.956 72.3511 213.171 71.0938C213.335 71.834 213.168 72.6055 213.335 73.349C212.152 71.3829 210.97 69.4135 209.791 67.4473C209.724 70.3899 210.169 73.5439 211.463 76.1889C210.285 74.8534 209.417 73.243 208.948 71.526C208.381 75.5836 209.411 79.7549 211.957 82.9643C213.972 85.504 218.85 83.7348 221.282 81.5938L221.279 81.5905Z" fill="#BAD734"/>
<path d="M211.51 73.0996C213.156 75.9309 214.799 78.7623 216.445 81.5936" stroke="black" stroke-width="0.650199" stroke-linecap="round" stroke-linejoin="round"/>
<path d="M214.703 73.877C215.369 75.4041 216.035 76.9345 216.701 78.4617" stroke="black" stroke-width="0.650199" stroke-linecap="round" stroke-linejoin="round"/>
<path d="M210.418 77.5547C211.571 78.9228 212.727 80.2942 213.879 81.6623" stroke="black" stroke-width="0.650199" stroke-linecap="round" stroke-linejoin="round"/>
<path d="M232.111 74.4372C233.072 73.4652 233.062 71.8987 232.09 70.9385C231.118 69.9783 229.551 69.9879 228.591 70.9599C227.631 71.932 227.641 73.4984 228.613 74.4586C229.585 75.4189 231.151 75.4093 232.111 74.4372Z" fill="#FFA000"/>
<path d="M222.692 89.5254C224.019 89.2034 224.835 87.8659 224.513 86.538C224.191 85.2102 222.853 84.3947 221.525 84.7167C220.198 85.0387 219.382 86.3762 219.704 87.7041C220.026 89.032 221.364 89.8474 222.692 89.5254Z" fill="#FFA000"/>
<path d="M222.227 95.3203C223.555 94.9983 224.37 93.6608 224.048 92.333C223.726 91.0051 222.388 90.1897 221.061 90.5117C219.733 90.8337 218.917 92.1712 219.239 93.499C219.561 94.8269 220.899 95.6423 222.227 95.3203Z" fill="#FFA000"/>
<path d="M220.123 73.8887C221.451 73.5667 222.266 72.2292 221.944 70.9013C221.622 69.5734 220.285 68.758 218.957 69.08C217.629 69.402 216.814 70.7395 217.136 72.0674C217.458 73.3953 218.795 74.2107 220.123 73.8887Z" fill="#FFA000"/>
<path d="M220.188 84.4102C221.515 84.0882 222.331 82.7507 222.009 81.4228C221.687 80.0949 220.349 79.2795 219.022 79.6015C217.694 79.9235 216.878 81.261 217.2 82.5889C217.522 83.9168 218.86 84.7322 220.188 84.4102Z" fill="#FFA000"/>
<path d="M227.261 71.7478C228.221 70.7757 228.211 69.2093 227.239 68.2491C226.267 67.2889 224.701 67.2984 223.741 68.2705C222.78 69.2426 222.79 70.809 223.762 71.7692C224.734 72.7294 226.301 72.7198 227.261 71.7478Z" fill="#FFA000"/>
<path d="M226.793 75.3691C226.787 74.2995 225.913 73.4368 224.844 73.4434C223.774 73.4499 222.912 74.3233 222.918 75.3928C222.925 76.4624 223.798 77.3251 224.868 77.3185C225.937 77.312 226.8 76.4386 226.793 75.3691Z" fill="#FFA000"/>
<path d="M212.91 88.1209C212.904 87.0514 212.031 86.1888 210.961 86.1954C209.891 86.2019 209.029 87.0752 209.035 88.1448C209.042 89.2143 209.915 90.0769 210.985 90.0704C212.054 90.0638 212.917 89.1905 212.91 88.1209Z" fill="#FFA000"/>
<path d="M219.114 89.0644C219.107 87.9948 218.234 87.1322 217.164 87.1387C216.095 87.1453 215.232 88.0186 215.238 89.0881C215.245 90.1577 216.118 91.0204 217.188 91.0138C218.257 91.0073 219.12 90.134 219.114 89.0644Z" fill="#FFA000"/>
<path d="M227.52 82.9589C227.513 81.8894 226.64 81.0267 225.57 81.0332C224.501 81.0398 223.638 81.9131 223.645 82.9827C223.651 84.0522 224.525 84.9149 225.594 84.9083C226.664 84.9018 227.526 84.0285 227.52 82.9589Z" fill="#FFA000"/>
<path d="M217.096 84.9609C217.089 83.8913 216.216 83.0286 215.147 83.0352C214.077 83.0417 213.214 83.9151 213.221 84.9846C213.227 86.0542 214.101 86.9169 215.17 86.9103C216.24 86.9038 217.103 86.0304 217.096 84.9609Z" fill="#FFA000"/>
<path d="M229.43 78.4355C229.423 77.366 228.55 76.5033 227.481 76.5098C226.411 76.5164 225.548 77.3897 225.555 78.4592C225.561 79.5288 226.435 80.3915 227.504 80.3849C228.574 80.3784 229.436 79.5051 229.43 78.4355Z" fill="#FFA000"/>
<path d="M234.324 77.8789C234.318 76.8093 233.445 75.9466 232.375 75.9532C231.306 75.9597 230.443 76.833 230.449 77.9026C230.456 78.9722 231.329 79.8348 232.399 79.8283C233.468 79.8217 234.331 78.9484 234.324 77.8789Z" fill="#FFA000"/>
<path d="M215.711 91.8984C215.705 90.8288 214.831 89.9662 213.762 89.9727C212.692 89.9793 211.83 90.8526 211.836 91.9221C211.843 92.9917 212.716 93.8544 213.786 93.8478C214.855 93.8413 215.718 92.968 215.711 91.8984Z" fill="#FFA000"/>
<path d="M271.591 57.1523C269.333 58.3853 267.751 60.778 267.503 63.3381C267.163 61.8577 266.822 60.374 266.481 58.8936C264.834 61.2575 264.679 64.5745 266.099 67.0789L270.093 66.2839C271.19 63.387 271.864 60.2391 271.591 57.1555V57.1523Z" fill="#BAD734"/>
<path d="M266.506 62.2559C266.703 63.6364 266.9 65.0201 267.1 66.4006" stroke="black" stroke-width="0.650199" stroke-linecap="round" stroke-linejoin="round"/>
<path d="M269.632 61.2246C269.394 62.5492 269.158 63.8706 268.919 65.1952" stroke="black" stroke-width="0.650199" stroke-linecap="round" stroke-linejoin="round"/>
<path d="M260.981 70.1424C261.942 69.1703 261.932 67.6039 260.96 66.6437C259.988 65.6834 258.422 65.693 257.461 66.6651C256.501 67.6372 256.511 69.2036 257.483 70.1638C258.455 71.124 260.021 71.1144 260.981 70.1424Z" fill="#FFA000"/>
<path d="M266.367 65.8847C266.361 64.8152 265.488 63.9525 264.418 63.959C263.348 63.9656 262.486 64.8389 262.492 65.9085C262.499 66.978 263.372 67.8407 264.442 67.8341C265.511 67.8276 266.374 66.9543 266.367 65.8847Z" fill="#FFA000"/>
<path d="M234.781 82.9348C233.507 82.4615 231.927 83.0661 231.294 84.2664L236.544 86.2206C236.851 84.8988 236.052 83.4082 234.778 82.9316L234.781 82.9348Z" fill="#BAD734"/>
<path d="M228.895 94.707L225.13 96.814C225.762 97.6359 227.019 97.8948 227.923 97.3886C228.827 96.8824 229.265 95.6768 228.895 94.707Z" fill="#BAD734"/>
<path d="M252.694 69.0625C252.231 69.9138 252.433 71.07 253.152 71.7125C253.872 72.3551 255.046 72.4292 255.839 71.8749L252.694 69.0625Z" fill="#BAD734"/>
<path d="M281.605 78.5353C281.499 77.5638 280.658 76.7237 279.688 76.6191L280.147 80.8167C281.071 80.5054 281.712 79.5034 281.605 78.532V78.5353Z" fill="#BAD734"/>
<path d="M278.154 78.625L275.896 78.9802C275.861 79.6729 276.561 80.3026 277.246 80.1943C277.932 80.0861 278.401 79.2705 278.157 78.625H278.154Z" fill="#BAD734"/>
<path d="M261.603 87.7484C261.682 88.5347 262.457 89.1867 263.246 89.1331C264.036 89.0795 264.714 88.3308 264.687 87.541L261.603 87.7517V87.7484Z" fill="#BAD734"/>
<path d="M247.643 99.293L244.27 100.594C244.62 101.467 245.725 101.948 246.6 101.607C247.476 101.27 247.97 100.172 247.646 99.293H247.643Z" fill="#BAD734"/>
<path d="M251.25 99.2966C250.305 99.3771 249.524 100.328 249.634 101.27L253.175 100.972C253.124 100.023 252.196 99.216 251.25 99.2966Z" fill="#BAD734"/>
<path d="M261.221 85.0136C261.941 81.5923 260.635 77.8226 257.949 75.5828C255.266 73.343 251.322 72.73 248.085 74.0502C244.849 75.3705 242.459 78.5646 242.104 82.0422C244.335 84.8374 247.631 86.8524 251.158 87.4387C254.686 88.0251 258.203 86.9372 261.217 85.0136H261.221Z" fill="#A92A23"/>
<path d="M248.279 74.9219C248.915 77.2522 249.546 79.5826 250.182 81.9162" stroke="black" stroke-width="0.650199" stroke-linecap="round" stroke-linejoin="round"/>
<path d="M251.326 74.8809C251.762 76.9654 252.197 79.0467 252.632 81.1312" stroke="black" stroke-width="0.650199" stroke-linecap="round" stroke-linejoin="round"/>
<path d="M254.07 74.6816C254.612 76.6127 255.154 78.5437 255.696 80.4748" stroke="black" stroke-width="0.650199" stroke-linecap="round" stroke-linejoin="round"/>
<path d="M280.494 73.8905C280.362 70.3965 278.177 67.058 275.03 65.5363C271.884 64.0146 267.91 64.3803 265.091 66.4457C262.272 68.5111 260.727 72.191 261.23 75.6503C264.071 77.8209 267.759 78.9752 271.323 78.6868C274.888 78.3983 278.036 76.4869 280.494 73.8905Z" fill="#A92A23"/>
<path d="M268.045 66.0137L266.357 71.2615" stroke="black" stroke-width="0.650199" stroke-linecap="round" stroke-linejoin="round"/>
<path d="M270.888 65.8984C270.305 67.8981 269.725 69.8945 269.146 71.8942" stroke="black" stroke-width="0.650199" stroke-linecap="round" stroke-linejoin="round"/>
<path d="M273.357 66.1836C273.06 68.1523 272.763 70.121 272.47 72.0897" stroke="black" stroke-width="0.650199" stroke-linecap="round" stroke-linejoin="round"/>
<path d="M241.103 75.3572C242.063 74.3851 242.053 72.8187 241.081 71.8584C240.109 70.8982 238.543 70.9078 237.582 71.8799C236.622 72.8519 236.632 74.4184 237.604 75.3786C238.576 76.3388 240.142 76.3292 241.103 75.3572Z" fill="#FFA000"/>
<path d="M242.26 78.3574C242.253 77.2878 241.38 76.4252 240.311 76.4317C239.241 76.4383 238.378 77.3116 238.385 78.3811C238.391 79.4507 239.265 80.3134 240.334 80.3068C241.404 80.3003 242.267 79.427 242.26 78.3574Z" fill="#FFA000"/>
<path d="M244.383 67.957C244.377 66.8874 243.503 66.0247 242.434 66.0313C241.364 66.0379 240.501 66.9112 240.508 67.9807C240.515 69.0503 241.388 69.913 242.457 69.9064C243.527 69.8999 244.39 69.0265 244.383 67.957Z" fill="#FFA000"/>
<path d="M245.436 84.7871C245.429 83.7175 244.556 82.8548 243.486 82.8614C242.417 82.8679 241.554 83.7412 241.561 84.8108C241.567 85.8804 242.441 86.743 243.51 86.7365C244.58 86.7299 245.442 85.8566 245.436 84.7871Z" fill="#FFA000"/>
<path d="M248.414 89.3594C249.742 89.0374 250.557 87.6999 250.235 86.372C249.913 85.0441 248.576 84.2287 247.248 84.5507C245.92 84.8727 245.105 86.2102 245.427 87.5381C245.749 88.866 247.086 89.6814 248.414 89.3594Z" fill="#FFA000"/>
<path d="M258.91 54.8185C255.998 55.5093 253.412 57.4627 251.952 60.0725C252.154 59.0472 252.32 57.9701 252.522 56.948C250.094 58.0813 248.13 60.1707 247.144 62.6606C246.158 65.1504 246.159 68.0178 247.153 70.5086L252.362 68.1131C256.025 66.3514 258.596 62.5059 258.822 58.4472C257.919 59.1127 257.012 59.7782 256.109 60.4437C257.132 58.5908 257.891 56.6713 258.916 54.8184L258.91 54.8185Z" fill="#BAD734"/>
<path d="M253.095 60.9395C250.884 64.617 248.673 68.2945 246.462 71.972" stroke="black" stroke-width="0.650199" stroke-linecap="round" stroke-linejoin="round"/>
<path d="M294.846 82.5218C292.042 82.3504 289.117 84.0621 287.832 86.5603C287.926 84.3815 288.019 82.1279 288.113 79.9492C284.754 82.3885 282.475 86.7036 282.309 90.853C282.006 89.6552 281.702 88.4542 281.396 87.2564C280.08 90.5838 279.507 94.2025 279.737 97.774C286.575 94.7509 291.848 89.3706 294.846 82.525V82.5218Z" fill="#BAD734"/>
<path d="M281.289 91.0312C281.322 92.7217 281.355 94.412 281.392 96.1024" stroke="black" stroke-width="0.650199" stroke-linecap="round" stroke-linejoin="round"/>
<path d="M285.682 85.7539C285.153 88.5628 284.627 91.3684 284.098 94.1773" stroke="black" stroke-width="0.650199" stroke-linecap="round" stroke-linejoin="round"/>
<path d="M275.807 99.2988C275.675 95.8047 273.489 92.4663 270.343 90.9446C267.196 89.4228 263.222 89.7885 260.403 91.854C257.584 93.9194 256.04 97.5993 256.542 101.058C259.384 103.229 263.071 104.383 266.636 104.095C270.2 103.806 273.349 101.895 275.807 99.2988Z" fill="#A92A23"/>
<path d="M263.853 91.3262C263.478 93.2921 263.1 95.2581 262.726 97.224" stroke="black" stroke-width="0.650199" stroke-linecap="round" stroke-linejoin="round"/>
<path d="M267.123 91.6836C266.764 93.5291 266.401 95.3747 266.042 97.2203" stroke="black" stroke-width="0.650199" stroke-linecap="round" stroke-linejoin="round"/>
<path d="M269.672 92.123C269.401 94.0916 269.13 96.0601 268.859 98.0287" stroke="black" stroke-width="0.650199" stroke-linecap="round" stroke-linejoin="round"/>
<path d="M228.258 85.4902C228.721 85.7637 229.184 86.0372 229.648 86.3107" stroke="black" stroke-width="0.650199" stroke-linecap="round" stroke-linejoin="round"/>
<path d="M227.246 90.0418C227.67 89.7271 228.097 89.4124 228.521 89.0977" stroke="black" stroke-width="0.650199" stroke-linecap="round" stroke-linejoin="round"/>
<path d="M225.563 92.5586C225.779 92.71 225.994 92.8615 226.213 93.0162" stroke="black" stroke-width="0.650199" stroke-linecap="round" stroke-linejoin="round"/>
<path d="M217.447 93.2656L217.453 94.1889" stroke="black" stroke-width="0.650199" stroke-linecap="round" stroke-linejoin="round"/>
<path d="M230.854 99.1781L231.869 99.1719" stroke="black" stroke-width="0.650199" stroke-linecap="round" stroke-linejoin="round"/>
<path d="M222.17 96.7422C222.202 97.1711 222.237 97.6033 222.269 98.0323" stroke="black" stroke-width="0.650199" stroke-linecap="round" stroke-linejoin="round"/>
<path d="M237.916 89.0667C238.65 88.8379 239.383 88.6058 240.116 88.377" stroke="black" stroke-width="0.650199" stroke-linecap="round" stroke-linejoin="round"/>
<path d="M241.766 89.2441L241.774 90.6258" stroke="black" stroke-width="0.650199" stroke-linecap="round" stroke-linejoin="round"/>
<path d="M232.812 87.457C233.03 87.8556 233.247 88.2541 233.467 88.6527" stroke="black" stroke-width="0.650199" stroke-linecap="round" stroke-linejoin="round"/>
<path d="M235.996 80.6132C236.363 80.5199 236.733 80.4233 237.099 80.3301" stroke="black" stroke-width="0.650199" stroke-linecap="round" stroke-linejoin="round"/>
<path d="M239.231 82.1602L239.237 83.0834" stroke="black" stroke-width="0.650199" stroke-linecap="round" stroke-linejoin="round"/>
<path d="M232.328 68.7324C232.756 68.5445 233.187 68.3598 233.615 68.1719" stroke="black" stroke-width="0.650199" stroke-linecap="round" stroke-linejoin="round"/>
<path d="M235.809 68.3535C235.997 68.814 236.188 69.2712 236.376 69.7317" stroke="black" stroke-width="0.650199" stroke-linecap="round" stroke-linejoin="round"/>
<path d="M229.449 66.8976C229.691 66.7108 229.937 66.524 230.18 66.334" stroke="black" stroke-width="0.650199" stroke-linecap="round" stroke-linejoin="round"/>
<path d="M249.041 71.5723C249.351 71.6907 249.66 71.8091 249.966 71.9275" stroke="black" stroke-width="0.650199" stroke-linecap="round" stroke-linejoin="round"/>
<path d="M244.53 73.8281C244.379 74.1672 244.225 74.5062 244.075 74.8453" stroke="black" stroke-width="0.650199" stroke-linecap="round" stroke-linejoin="round"/>
<path d="M257.9 73.6511C258.3 73.6194 258.699 73.5844 259.099 73.5527" stroke="black" stroke-width="0.650199" stroke-linecap="round" stroke-linejoin="round"/>
<path d="M259.135 63.9629C259.566 64.2366 260 64.5103 260.43 64.784" stroke="black" stroke-width="0.650199" stroke-linecap="round" stroke-linejoin="round"/>
<path d="M262.828 79.9877C263.319 79.8611 263.812 79.7346 264.302 79.6113" stroke="black" stroke-width="0.650199" stroke-linecap="round" stroke-linejoin="round"/>
<path d="M262.996 81.8965C263.171 82.3603 263.346 82.8274 263.522 83.2912" stroke="black" stroke-width="0.650199" stroke-linecap="round" stroke-linejoin="round"/>
<path d="M270.484 80.4927C271.007 80.3367 271.526 80.1775 272.048 80.0215" stroke="black" stroke-width="0.650199" stroke-linecap="round" stroke-linejoin="round"/>
<path d="M278.902 82.5508C279.151 82.7931 279.403 83.0354 279.651 83.2777" stroke="black" stroke-width="0.650199" stroke-linecap="round" stroke-linejoin="round"/>
<path d="M282.115 82.3591C282.422 82.1719 282.727 81.988 283.035 81.8008" stroke="black" stroke-width="0.650199" stroke-linecap="round" stroke-linejoin="round"/>
<path d="M282.815 76.3594L282.823 77.559" stroke="black" stroke-width="0.650199" stroke-linecap="round" stroke-linejoin="round"/>
<path d="M277.57 94.0839C277.998 93.8634 278.426 93.6462 278.854 93.4258" stroke="black" stroke-width="0.650199" stroke-linecap="round" stroke-linejoin="round"/>
<path d="M276.602 95.5566C276.792 95.796 276.985 96.0386 277.175 96.278" stroke="black" stroke-width="0.650199" stroke-linecap="round" stroke-linejoin="round"/>
<path d="M270.899 87.5C270.81 87.8386 270.718 88.1773 270.629 88.516" stroke="black" stroke-width="0.650199" stroke-linecap="round" stroke-linejoin="round"/>
<path d="M267.303 88.1641C267.489 88.3776 267.673 88.591 267.859 88.8077" stroke="black" stroke-width="0.650199" stroke-linecap="round" stroke-linejoin="round"/>
<path d="M245.873 96.7656C246.241 96.7959 246.611 96.8261 246.979 96.8564" stroke="black" stroke-width="0.650199" stroke-linecap="round" stroke-linejoin="round"/>
<path d="M241.09 100.961C241.125 101.423 241.157 101.884 241.193 102.342" stroke="black" stroke-width="0.650199" stroke-linecap="round" stroke-linejoin="round"/>
<path d="M235.76 101.991C236.189 101.989 236.621 101.986 237.05 101.987" stroke="black" stroke-width="0.650199" stroke-linecap="round" stroke-linejoin="round"/>
<path d="M254.752 101.613C254.907 101.95 255.065 102.287 255.22 102.624" stroke="black" stroke-width="0.650199" stroke-linecap="round" stroke-linejoin="round"/>
<path d="M249.32 102.848C248.859 102.974 248.398 103.1 247.941 103.223" stroke="black" stroke-width="0.650199" stroke-linecap="round" stroke-linejoin="round"/>
<path d="M248.24 108.895C235.207 108.974 222.903 106.069 213.589 100.716C203.876 95.1312 198.501 87.5241 198.451 79.2928C198.4 71.0614 203.682 63.3891 213.325 57.6862C222.57 52.2198 234.841 49.1634 247.874 49.0836C260.907 49.0037 273.21 51.9096 282.525 57.2623C292.237 62.8466 297.612 70.4537 297.663 78.6851C297.713 86.9164 292.432 94.5888 282.788 100.292C273.543 105.758 261.273 108.815 248.24 108.895ZM247.902 53.7877C235.689 53.8625 224.259 56.6861 215.72 61.7353C207.576 66.5512 203.112 72.7751 203.152 79.264C203.191 85.7528 207.732 91.9215 215.934 96.6373C224.537 101.582 236.001 104.265 248.211 104.19C260.422 104.116 271.855 101.292 280.393 96.2425C288.537 91.4266 293.002 85.2027 292.962 78.7139C292.922 72.225 288.385 66.0563 280.18 61.3405C271.576 56.3963 260.116 53.7129 247.902 53.7877Z" fill="white"/>
<path d="M277.577 101.595C278.487 106.988 279.025 112.308 278.81 117.771C287.978 125.893 300.088 130.617 312.335 130.849C315.968 130.919 319.525 131.555 323.052 132.458L340.303 98.5069C332.398 100.729 324.442 102.572 316.222 102.94C310.114 103.213 303.413 103.619 297.305 103.892C297.39 102.662 297.475 101.433 297.56 100.203C297.593 99.7357 297.621 99.243 297.417 98.8186C297.214 98.3942 296.514 97.9332 296.087 98.1281C295.601 98.8621 294.796 99.2771 294.31 100.011C294.844 99.2542 294.954 98.2124 294.587 97.3624C294.22 96.5124 293.005 96.0698 292.088 95.9432C291.462 97.175 290.606 97.9212 289.978 99.1559C290.064 98.0616 290.148 96.9339 289.786 95.8964C289.426 94.8603 288.477 94.1665 287.379 94.1739C286.007 97.7213 284.377 101.331 283.005 104.878C282.138 102.83 279.79 101.345 277.581 101.601L277.577 101.595Z" fill="#FF9A7D"/>
<path d="M296.665 104.67C296.966 104.309 297.266 103.947 297.566 103.586" stroke="black" stroke-width="0.650199" stroke-linecap="round" stroke-linejoin="round"/>
<path d="M294.208 113.145C295.562 111.419 296.92 109.695 298.274 107.969" stroke="black" stroke-width="0.650199" stroke-linecap="round" stroke-linejoin="round"/>
<path d="M294.632 99.6133C293.276 102.822 293.012 106.484 293.895 109.857" stroke="black" stroke-width="0.650199" stroke-linecap="round" stroke-linejoin="round"/>
<path d="M290.129 113.078C288.434 108.548 288.439 103.405 290.145 98.8789" stroke="black" stroke-width="0.650199" stroke-linecap="round" stroke-linejoin="round"/>
<path d="M264.11 84.0606C265.981 88.4097 270.616 91.9247 275.149 92.7144L291.598 127.918C292.055 128.898 293.222 129.323 294.203 128.862C295.183 128.405 295.608 127.239 295.148 126.257L279.401 92.5557C283.129 91.4487 284.642 87.6812 282.769 83.3233C280.588 78.2481 274.041 69.0723 267.269 69.3397C260.22 69.6198 261.927 78.9839 264.11 84.0606Z" fill="black"/>
<path d="M266.48 81.5574C268.139 85.4123 272.654 88.4104 276.568 88.2583C279.481 88.1448 281.236 86.3126 281.261 83.7945C279.746 80.3593 275.708 74.205 271.03 71.8281C269.737 71.1713 268.492 70.8594 267.33 70.9071C267.148 70.9132 266.979 70.9296 266.819 70.9504C263.94 72.7477 265.082 78.3091 266.477 81.5559L266.48 81.5574Z" fill="#FF6400"/>
<path d="M266.826 79.7476C265.527 80.1713 264.818 81.5678 265.242 82.8668C265.665 84.1658 267.062 84.8754 268.361 84.4517C269.66 84.028 270.369 82.6315 269.946 81.3325C269.522 80.0335 268.125 79.3239 266.826 79.7476Z" fill="#FFA000"/>
<path d="M267.973 71.7287C266.645 71.4061 265.307 72.221 264.985 73.5487C264.662 74.8764 265.477 76.2143 266.805 76.5368C268.133 76.8594 269.47 76.0446 269.793 74.7168C270.116 73.3891 269.301 72.0513 267.973 71.7287Z" fill="#FFA000"/>
<path d="M272.087 85.4781C271.602 86.4317 271.983 87.5987 272.937 88.0832C273.89 88.5677 275.057 88.1871 275.542 87.2335C276.026 86.28 275.646 85.1129 274.692 84.6284C273.739 84.1439 272.571 84.5246 272.087 85.4781Z" fill="#FFA000"/>
<path d="M268.999 77.1304C268.515 78.084 268.895 79.251 269.849 79.7355C270.802 80.22 271.969 79.8393 272.454 78.8858C272.938 77.9322 272.558 76.7652 271.604 76.2807C270.651 75.7962 269.484 76.1769 268.999 77.1304Z" fill="#FFA000"/>
<path d="M269.308 84.8394C268.823 85.7929 269.204 86.96 270.157 87.4445C271.111 87.929 272.278 87.5483 272.762 86.5948C273.247 85.6412 272.866 84.4742 271.913 83.9897C270.959 83.5052 269.792 83.8858 269.308 84.8394Z" fill="#FFA000"/>
<path d="M271.767 76.2116C272.404 76.9543 273.602 77.1437 274.434 76.6257L271.772 73.5117C271.131 74.2548 271.132 75.4659 271.769 76.2087L271.767 76.2116Z" fill="#BAD734"/>
<path d="M265.124 79.0401L268.086 79.0607C268.137 78.2556 267.423 77.4877 266.616 77.4824C265.809 77.4772 265.084 78.2359 265.124 79.0401Z" fill="#BAD734"/>
<path d="M274.213 78.8413C272.589 79.7918 271.631 81.7702 271.891 83.6344C272.151 85.4985 273.62 87.1349 275.443 87.6018C277.266 88.0686 279.34 87.3318 280.462 85.8197C280.103 82.629 277.304 79.6972 274.21 78.8398L274.213 78.8413Z" fill="#A92A23"/>
<path d="M275.128 86.5991C275.647 85.6414 276.17 84.6852 276.69 83.7246" stroke="black" stroke-width="0.650199" stroke-linecap="round" stroke-linejoin="round"/>
<path d="M273.375 85.2567C273.782 84.198 274.191 83.1408 274.598 82.082" stroke="black" stroke-width="0.650199" stroke-linecap="round" stroke-linejoin="round"/>
<path d="M276.297 78.3152C275.98 78.0485 275.668 77.7804 275.351 77.5137" stroke="black" stroke-width="0.650199" stroke-linecap="round" stroke-linejoin="round"/>
<path d="M270.496 82.7666C270.687 82.4771 270.878 82.1875 271.066 81.8965" stroke="black" stroke-width="0.650199" stroke-linecap="round" stroke-linejoin="round"/>
<path d="M271.305 80.9196C270.973 80.7692 270.639 80.6217 270.31 80.4727" stroke="black" stroke-width="0.650199" stroke-linecap="round" stroke-linejoin="round"/>
<path d="M270.555 73.657C270.581 73.4333 270.608 73.2139 270.635 72.9902" stroke="black" stroke-width="0.650199" stroke-linecap="round" stroke-linejoin="round"/>
<path d="M278.975 81.0233C278.873 80.8002 278.771 80.5771 278.672 80.3555" stroke="black" stroke-width="0.650199" stroke-linecap="round" stroke-linejoin="round"/>
<path d="M279.817 114.883C286.318 118.675 292.816 122.465 299.316 126.256L312.402 115.223C310.516 112.956 307.703 111.486 304.767 111.231C301.83 110.975 298.735 111.59 296.489 113.497C292.037 113.296 287.093 112.793 282.638 112.648C281.357 112.606 280.058 113.62 279.819 114.88L279.817 114.883Z" fill="#FF9A7D"/>
<path d="M302.994 111.268C300.67 111.083 298.461 111.914 296.758 113.507C294.132 113.329 291.502 113.152 288.875 112.974C285.716 112.761 280.623 111.596 279.83 114.858C286.2 118.605 292.573 122.353 298.943 126.101" stroke="black" stroke-width="0.650199" stroke-linecap="round" stroke-linejoin="round"/>
<path d="M203.52 106.881C199.728 113.539 202.055 122.014 208.714 125.803C215.373 129.595 223.847 127.267 227.636 120.608L203.52 106.881Z" fill="#FFA000"/>
<path d="M212.652 114.26L204.585 115.681C204.056 115.775 203.55 115.401 203.501 114.869C203.334 113.095 203.557 111.269 204.206 109.529C204.395 109.024 204.979 108.796 205.468 109.024L212.892 112.493C213.257 112.663 213.474 113.052 213.418 113.452C213.418 113.455 213.418 113.462 213.418 113.465C213.365 113.869 213.061 114.192 212.659 114.263L212.652 114.26Z" fill="#FFDC00"/>
<path d="M213.716 115.915L208.206 122.34C207.916 122.68 207.392 122.709 207.072 122.393C205.822 121.165 204.874 119.701 204.263 118.112C204.101 117.694 204.335 117.227 204.764 117.095L212.847 114.59C213.191 114.484 213.549 114.638 213.749 114.939C213.749 114.943 213.756 114.949 213.759 114.952C213.959 115.253 213.955 115.644 213.72 115.915H213.716Z" fill="#FFDC00"/>
<path d="M216.276 125.855C214.384 125.967 212.451 125.634 210.635 124.823C210.055 124.563 209.817 123.866 210.132 123.314C211.177 121.468 213.158 117.974 214.056 116.411C214.281 116.019 214.725 115.809 215.171 115.894C215.174 115.894 215.181 115.894 215.184 115.894C215.633 115.975 215.983 116.328 216.054 116.779L217.279 124.62C217.377 125.246 216.913 125.818 216.279 125.855H216.276Z" fill="#FFDC00"/>
<path d="M224.799 121.626C223.537 123.103 221.967 124.225 220.239 124.944C219.675 125.178 219.032 124.88 218.853 124.299L216.482 116.651C216.349 116.229 216.506 115.773 216.865 115.511C216.868 115.511 216.871 115.504 216.878 115.501C217.231 115.242 217.712 115.239 218.071 115.494L224.618 120.102C225.117 120.454 225.199 121.159 224.802 121.623L224.799 121.626Z" fill="#FFDC00"/>
<path d="M277.594 127.279C277.513 125.102 277.668 122.926 277.847 120.753C278.141 117.217 276.104 113.764 272.63 112.413C269.156 111.063 265.32 112.237 263.153 115.046C261.821 116.771 260.466 118.48 258.934 120.033C256.789 122.208 254.167 125.15 253.351 127.256C250.832 133.741 254.047 141.042 260.535 143.561C267.02 146.08 274.322 142.866 276.841 136.377C277.66 134.269 277.711 130.331 277.598 127.276L277.594 127.279Z" fill="#BAD734"/>
<path d="M264.137 142.948C266.534 143.17 269.001 142.589 271.045 141.319C273.089 140.048 274.702 138.091 275.563 135.842" stroke="black" stroke-width="0.650199" stroke-linecap="round" stroke-linejoin="round"/>
<path d="M270.655 134.41C273.057 131.712 272.818 127.577 270.119 125.175C267.421 122.773 263.287 123.013 260.885 125.711C258.482 128.409 258.722 132.544 261.421 134.946C264.119 137.348 268.253 137.108 270.655 134.41Z" fill="#A92A23"/>
<path d="M261.107 129.237C261.298 127.964 262.042 126.783 263.103 126.058C264.169 125.333 265.539 125.074 266.792 125.366" stroke="white" stroke-width="0.650199" stroke-linecap="round" stroke-linejoin="round"/>
</g>
</g>
<path d="M44.456 52.948C44.456 57.832 41.244 61.264 36.624 61.264C32.026 61.264 28.858 57.854 28.858 52.948C28.858 48.064 32.048 44.632 36.646 44.632C41.244 44.632 44.456 48.042 44.456 52.948ZM41.486 52.948C41.486 49.516 39.594 47.338 36.646 47.338C33.698 47.338 31.806 49.516 31.806 52.948C31.806 56.38 33.698 58.558 36.646 58.558C39.594 58.558 41.486 56.336 41.486 52.948ZM53.5009 50.088V52.574H52.5109C50.5749 52.574 49.3649 53.608 49.3649 55.72V61H46.6809V50.154H49.2109L49.3649 51.738C49.8269 50.66 50.8609 49.934 52.3129 49.934C52.6869 49.934 53.0609 49.978 53.5009 50.088ZM59.4184 61.286C56.2724 61.286 54.3144 58.976 54.3144 55.61C54.3144 52.222 56.2944 49.802 59.5724 49.802C61.0904 49.802 62.4324 50.44 63.1144 51.518V44.632H65.7764V61H63.3124L63.1364 59.306C62.4764 60.56 61.0684 61.286 59.4184 61.286ZM60.0124 58.822C61.8824 58.822 63.0924 57.48 63.0924 55.522C63.0924 53.564 61.8824 52.2 60.0124 52.2C58.1424 52.2 56.9984 53.586 56.9984 55.522C56.9984 57.458 58.1424 58.822 60.0124 58.822ZM73.4355 61.286C70.2015 61.286 67.9355 58.932 67.9355 55.566C67.9355 52.156 70.1575 49.802 73.3475 49.802C76.6035 49.802 78.6715 51.98 78.6715 55.368V56.182L70.4875 56.204C70.6855 58.118 71.6975 59.086 73.4795 59.086C74.9535 59.086 75.9215 58.514 76.2295 57.48H78.7155C78.2535 59.856 76.2735 61.286 73.4355 61.286ZM73.3695 52.002C71.7855 52.002 70.8175 52.86 70.5535 54.488H76.0095C76.0095 52.992 74.9755 52.002 73.3695 52.002ZM87.6396 50.088V52.574H86.6496C84.7136 52.574 83.5036 53.608 83.5036 55.72V61H80.8196V50.154H83.3496L83.5036 51.738C83.9656 50.66 84.9996 49.934 86.4516 49.934C86.8256 49.934 87.1996 49.978 87.6396 50.088ZM104.582 54.422H98.598V61H95.782V44.918H105.726V47.514H98.598V51.892H104.582V54.422ZM106.393 55.544C106.393 52.156 108.835 49.824 112.201 49.824C115.567 49.824 118.009 52.156 118.009 55.544C118.009 58.932 115.567 61.264 112.201 61.264C108.835 61.264 106.393 58.932 106.393 55.544ZM109.077 55.544C109.077 57.524 110.353 58.866 112.201 58.866C114.049 58.866 115.325 57.524 115.325 55.544C115.325 53.564 114.049 52.222 112.201 52.222C110.353 52.222 109.077 53.564 109.077 55.544ZM119.498 55.544C119.498 52.156 121.94 49.824 125.306 49.824C128.672 49.824 131.114 52.156 131.114 55.544C131.114 58.932 128.672 61.264 125.306 61.264C121.94 61.264 119.498 58.932 119.498 55.544ZM122.182 55.544C122.182 57.524 123.458 58.866 125.306 58.866C127.154 58.866 128.43 57.524 128.43 55.544C128.43 53.564 127.154 52.222 125.306 52.222C123.458 52.222 122.182 53.564 122.182 55.544ZM137.707 61.286C134.561 61.286 132.603 58.976 132.603 55.61C132.603 52.222 134.583 49.802 137.861 49.802C139.379 49.802 140.721 50.44 141.403 51.518V44.632H144.065V61H141.601L141.425 59.306C140.765 60.56 139.357 61.286 137.707 61.286ZM138.301 58.822C140.171 58.822 141.381 57.48 141.381 55.522C141.381 53.564 140.171 52.2 138.301 52.2C136.431 52.2 135.287 53.586 135.287 55.522C135.287 57.458 136.431 58.822 138.301 58.822Z" fill="white"/>
<path d="M30.44 73.7C30.44 72.5 31.4 71.71 32.84 71.71C34.13 71.71 34.98 72.43 35.09 73.63H34.36C34.28 72.82 33.73 72.36 32.83 72.36C31.82 72.36 31.16 72.88 31.16 73.69C31.16 74.32 31.53 74.72 32.28 74.91L33.51 75.21C34.63 75.48 35.21 76.12 35.21 77.09C35.21 78.33 34.25 79.12 32.77 79.12C31.38 79.12 30.44 78.39 30.35 77.22H31.09C31.13 77.97 31.79 78.46 32.77 78.46C33.82 78.46 34.49 77.95 34.49 77.13C34.49 76.49 34.13 76.07 33.36 75.89L32.15 75.59C31.03 75.32 30.44 74.68 30.44 73.7ZM39.7548 74.16H40.4448V79H39.8448L39.7548 78.18C39.4848 78.74 38.8148 79.12 38.0548 79.12C36.9148 79.12 36.2948 78.34 36.2948 77.16V74.15H36.9948V76.94C36.9948 78.09 37.5048 78.5 38.2748 78.5C39.2048 78.5 39.7548 77.88 39.7548 76.73V74.16ZM41.8821 81.11V74.16H42.4821L42.5521 75.14C42.8921 74.39 43.5721 74.03 44.3821 74.03C45.7821 74.03 46.6221 75.1 46.6221 76.56C46.6221 78.02 45.8121 79.12 44.3821 79.12C43.5621 79.12 42.9121 78.77 42.5721 78.07V81.11H41.8821ZM42.5821 76.58C42.5821 77.69 43.2021 78.5 44.2621 78.5C45.3121 78.5 45.9221 77.69 45.9221 76.58C45.9221 75.46 45.3121 74.66 44.2621 74.66C43.2021 74.66 42.5821 75.46 42.5821 76.58ZM49.752 79.12C48.332 79.12 47.382 78.1 47.382 76.58C47.382 75.07 48.322 74.03 49.702 74.03C51.012 74.03 51.902 74.96 51.902 76.33V76.67H48.052C48.102 77.85 48.722 78.53 49.762 78.53C50.552 78.53 51.062 78.19 51.242 77.55H51.902C51.642 78.57 50.892 79.12 49.752 79.12ZM49.702 74.62C48.792 74.62 48.192 75.22 48.072 76.17H51.212C51.212 75.24 50.612 74.62 49.702 74.62ZM55.5352 74.1V74.72H55.1552C54.2652 74.72 53.6952 75.32 53.6952 76.24V79H53.0052V74.16H53.6552L53.7052 74.91C53.8952 74.39 54.4052 74.05 55.0852 74.05C55.2352 74.05 55.3652 74.06 55.5352 74.1ZM58.6859 74.16H59.4259V73.22C59.4259 72.13 60.0259 71.71 60.7659 71.71C60.9359 71.71 61.1359 71.72 61.2959 71.75V72.34H60.8859C60.2759 72.34 60.1159 72.65 60.1159 73.22V74.16H61.2559V74.74H60.1159V79H59.4259V74.74H58.6859V74.16ZM63.4088 79.12C62.3788 79.12 61.7688 78.54 61.7688 77.69C61.7688 76.8 62.4488 76.24 63.5788 76.15L65.1788 76.02V75.86C65.1788 74.91 64.6088 74.61 63.8988 74.61C63.0588 74.61 62.5588 74.99 62.5588 75.64H61.9288C61.9288 74.66 62.7288 74.03 63.9188 74.03C65.0388 74.03 65.8588 74.59 65.8588 75.87V79H65.2788L65.1888 78.15C64.8888 78.76 64.2288 79.12 63.4088 79.12ZM63.5688 78.56C64.5888 78.56 65.1788 77.85 65.1788 76.8V76.54L63.7488 76.65C62.8388 76.73 62.4688 77.13 62.4688 77.67C62.4688 78.26 62.9088 78.56 63.5688 78.56ZM66.8334 77.64H67.4934C67.4934 78.2 67.9134 78.55 68.5934 78.55C69.3434 78.55 69.7834 78.23 69.7834 77.71C69.7834 77.31 69.5834 77.08 69.0134 76.94L68.1834 76.73C67.3434 76.52 66.9334 76.08 66.9334 75.42C66.9334 74.57 67.6434 74.03 68.6834 74.03C69.7034 74.03 70.3634 74.59 70.3934 75.49H69.7234C69.7034 74.93 69.3134 74.6 68.6634 74.6C67.9834 74.6 67.6034 74.89 67.6034 75.41C67.6034 75.78 67.8634 76.04 68.3934 76.17L69.2234 76.38C70.0634 76.59 70.4434 76.98 70.4434 77.68C70.4434 78.55 69.7034 79.12 68.6034 79.12C67.5134 79.12 66.8334 78.54 66.8334 77.64ZM72.6894 79H72.0094V74.74H71.0394V74.16H72.0094V72.63H72.6894V74.16H73.6594V74.74H72.6894V79ZM76.7913 74.16H77.5313V73.22C77.5313 72.13 78.1313 71.71 78.8713 71.71C79.0413 71.71 79.2413 71.72 79.4013 71.75V72.34H78.9913C78.3813 72.34 78.2213 72.65 78.2213 73.22V74.16H79.3613V74.74H78.2213V79H77.5313V74.74H76.7913V74.16ZM79.8136 76.58C79.8136 75.1 80.8536 74.03 82.2736 74.03C83.6936 74.03 84.7336 75.1 84.7336 76.58C84.7336 78.05 83.6936 79.12 82.2736 79.12C80.8536 79.12 79.8136 78.05 79.8136 76.58ZM80.5136 76.57C80.5136 77.71 81.2336 78.5 82.2736 78.5C83.3036 78.5 84.0336 77.71 84.0336 76.57C84.0336 75.45 83.3036 74.65 82.2736 74.65C81.2336 74.65 80.5136 75.45 80.5136 76.57ZM85.4972 76.58C85.4972 75.1 86.5372 74.03 87.9572 74.03C89.3772 74.03 90.4172 75.1 90.4172 76.58C90.4172 78.05 89.3772 79.12 87.9572 79.12C86.5372 79.12 85.4972 78.05 85.4972 76.58ZM86.1972 76.57C86.1972 77.71 86.9172 78.5 87.9572 78.5C88.9872 78.5 89.7172 77.71 89.7172 76.57C89.7172 75.45 88.9872 74.65 87.9572 74.65C86.9172 74.65 86.1972 75.45 86.1972 76.57ZM93.4208 79.12C92.0108 79.12 91.1808 78.04 91.1808 76.59C91.1808 75.13 92.0108 74.03 93.4508 74.03C94.2508 74.03 94.8908 74.38 95.2308 75.08V71.71H95.9208V79H95.3208L95.2508 78.01C94.9108 78.76 94.2308 79.12 93.4208 79.12ZM93.5408 78.49C94.6008 78.49 95.2208 77.69 95.2208 76.57C95.2208 75.46 94.6008 74.65 93.5408 74.65C92.4908 74.65 91.8808 75.46 91.8808 76.57C91.8808 77.69 92.4908 78.49 93.5408 78.49ZM102.034 79.12C100.624 79.12 99.7941 78.04 99.7941 76.59C99.7941 75.13 100.624 74.03 102.064 74.03C102.864 74.03 103.504 74.38 103.844 75.08V71.71H104.534V79H103.934L103.864 78.01C103.524 78.76 102.844 79.12 102.034 79.12ZM102.154 78.49C103.214 78.49 103.834 77.69 103.834 76.57C103.834 75.46 103.214 74.65 102.154 74.65C101.104 74.65 100.494 75.46 100.494 76.57C100.494 77.69 101.104 78.49 102.154 78.49ZM108.004 79.12C106.584 79.12 105.634 78.1 105.634 76.58C105.634 75.07 106.574 74.03 107.954 74.03C109.264 74.03 110.154 74.96 110.154 76.33V76.67H106.304C106.354 77.85 106.974 78.53 108.014 78.53C108.804 78.53 109.314 78.19 109.494 77.55H110.154C109.894 78.57 109.144 79.12 108.004 79.12ZM107.954 74.62C107.044 74.62 106.444 75.22 106.324 76.17H109.464C109.464 75.24 108.864 74.62 107.954 74.62ZM111.977 79H111.287V71.71H111.977V79ZM113.785 72.83C113.505 72.83 113.275 72.6 113.275 72.32C113.275 72.04 113.505 71.8 113.785 71.8C114.065 71.8 114.305 72.04 114.305 72.32C114.305 72.6 114.065 72.83 113.785 72.83ZM113.445 79V74.16H114.135V79H113.445ZM116.924 79L114.944 74.16H115.684L116.934 77.28C117.064 77.63 117.194 77.96 117.284 78.28C117.374 77.95 117.504 77.63 117.644 77.28L118.914 74.16H119.624L117.614 79H116.924ZM122.252 79.12C120.832 79.12 119.882 78.1 119.882 76.58C119.882 75.07 120.822 74.03 122.202 74.03C123.512 74.03 124.402 74.96 124.402 76.33V76.67H120.552C120.602 77.85 121.222 78.53 122.262 78.53C123.052 78.53 123.562 78.19 123.742 77.55H124.402C124.142 78.57 123.392 79.12 122.252 79.12ZM122.202 74.62C121.292 74.62 120.692 75.22 120.572 76.17H123.712C123.712 75.24 123.112 74.62 122.202 74.62ZM128.035 74.1V74.72H127.655C126.765 74.72 126.195 75.32 126.195 76.24V79H125.505V74.16H126.155L126.205 74.91C126.395 74.39 126.905 74.05 127.585 74.05C127.735 74.05 127.865 74.06 128.035 74.1ZM128.609 81.11V80.54H129.139C129.559 80.54 129.979 80.51 130.219 79.86L130.429 79.29L128.469 74.16H129.199L130.759 78.38L132.289 74.16H132.999L130.779 80.11C130.499 80.87 130.029 81.18 129.339 81.18C129.049 81.18 128.829 81.16 128.609 81.11ZM30.31 91.64H30.97C30.97 92.2 31.39 92.55 32.07 92.55C32.82 92.55 33.26 92.23 33.26 91.71C33.26 91.31 33.06 91.08 32.49 90.94L31.66 90.73C30.82 90.52 30.41 90.08 30.41 89.42C30.41 88.57 31.12 88.03 32.16 88.03C33.18 88.03 33.84 88.59 33.87 89.49H33.2C33.18 88.93 32.79 88.6 32.14 88.6C31.46 88.6 31.08 88.89 31.08 89.41C31.08 89.78 31.34 90.04 31.87 90.17L32.7 90.38C33.54 90.59 33.92 90.98 33.92 91.68C33.92 92.55 33.18 93.12 32.08 93.12C30.99 93.12 30.31 92.54 30.31 91.64ZM37.0859 93.12C35.6659 93.12 34.7159 92.1 34.7159 90.58C34.7159 89.07 35.6559 88.03 37.0359 88.03C38.3459 88.03 39.2359 88.96 39.2359 90.33V90.67H35.3859C35.4359 91.85 36.0559 92.53 37.0959 92.53C37.8859 92.53 38.3959 92.19 38.5759 91.55H39.2359C38.9759 92.57 38.2259 93.12 37.0859 93.12ZM37.0359 88.62C36.1259 88.62 35.5259 89.22 35.4059 90.17H38.5459C38.5459 89.24 37.9459 88.62 37.0359 88.62ZM42.8691 88.1V88.72H42.4891C41.5991 88.72 41.0291 89.32 41.0291 90.24V93H40.3391V88.16H40.9891L41.0391 88.91C41.2291 88.39 41.7391 88.05 42.4191 88.05C42.5691 88.05 42.6991 88.06 42.8691 88.1ZM45.2829 93L43.3029 88.16H44.0429L45.2929 91.28C45.4229 91.63 45.5529 91.96 45.6429 92.28C45.7329 91.95 45.8629 91.63 46.0029 91.28L47.2729 88.16H47.9829L45.9729 93H45.2829ZM49.1362 86.83C48.8562 86.83 48.6262 86.6 48.6262 86.32C48.6262 86.04 48.8562 85.8 49.1362 85.8C49.4162 85.8 49.6562 86.04 49.6562 86.32C49.6562 86.6 49.4162 86.83 49.1362 86.83ZM48.7962 93V88.16H49.4862V93H48.7962ZM50.5851 90.59C50.5851 89.07 51.5151 88.03 52.9251 88.03C54.0451 88.03 54.8651 88.68 55.0551 89.68H54.3651C54.1851 89.01 53.6051 88.64 52.9351 88.64C51.9551 88.64 51.2651 89.39 51.2651 90.58C51.2651 91.73 51.9051 92.5 52.8851 92.5C53.6051 92.5 54.1851 92.1 54.3751 91.48H55.0751C54.8451 92.47 53.9851 93.12 52.8851 93.12C51.5151 93.12 50.5851 92.11 50.5851 90.59ZM58.1504 93.12C56.7304 93.12 55.7804 92.1 55.7804 90.58C55.7804 89.07 56.7204 88.03 58.1004 88.03C59.4104 88.03 60.3004 88.96 60.3004 90.33V90.67H56.4504C56.5004 91.85 57.1204 92.53 58.1604 92.53C58.9504 92.53 59.4604 92.19 59.6404 91.55H60.3004C60.0404 92.57 59.2904 93.12 58.1504 93.12ZM58.1004 88.62C57.1904 88.62 56.5904 89.22 56.4704 90.17H59.6104C59.6104 89.24 59.0104 88.62 58.1004 88.62ZM60.9936 91.64H61.6536C61.6536 92.2 62.0736 92.55 62.7536 92.55C63.5036 92.55 63.9436 92.23 63.9436 91.71C63.9436 91.31 63.7436 91.08 63.1736 90.94L62.3436 90.73C61.5036 90.52 61.0936 90.08 61.0936 89.42C61.0936 88.57 61.8036 88.03 62.8436 88.03C63.8636 88.03 64.5236 88.59 64.5536 89.49H63.8836C63.8636 88.93 63.4736 88.6 62.8236 88.6C62.1436 88.6 61.7636 88.89 61.7636 89.41C61.7636 89.78 62.0236 90.04 62.5536 90.17L63.3836 90.38C64.2236 90.59 64.6036 90.98 64.6036 91.68C64.6036 92.55 63.8636 93.12 62.7636 93.12C61.6736 93.12 60.9936 92.54 60.9936 91.64ZM69.623 93H68.943V88.74H67.973V88.16H68.943V86.63H69.623V88.16H70.593V88.74H69.623V93ZM71.1027 90.58C71.1027 89.1 72.1427 88.03 73.5627 88.03C74.9827 88.03 76.0227 89.1 76.0227 90.58C76.0227 92.05 74.9827 93.12 73.5627 93.12C72.1427 93.12 71.1027 92.05 71.1027 90.58ZM71.8027 90.57C71.8027 91.71 72.5227 92.5 73.5627 92.5C74.5927 92.5 75.3227 91.71 75.3227 90.57C75.3227 89.45 74.5927 88.65 73.5627 88.65C72.5227 88.65 71.8027 89.45 71.8027 90.57ZM81.0097 93H80.3297V88.74H79.3597V88.16H80.3297V86.63H81.0097V88.16H81.9797V88.74H81.0097V93ZM83.5682 92.99H82.8782V85.71H83.5682V89C83.8782 88.42 84.4682 88.03 85.2782 88.03C86.5482 88.03 87.1182 88.82 87.1182 90.04V93H86.4282V90.19C86.4282 89.06 85.8982 88.66 85.1482 88.66C84.1082 88.66 83.5682 89.43 83.5682 90.36V92.99ZM90.5234 93.12C89.1034 93.12 88.1534 92.1 88.1534 90.58C88.1534 89.07 89.0934 88.03 90.4734 88.03C91.7834 88.03 92.6734 88.96 92.6734 90.33V90.67H88.8234C88.8734 91.85 89.4934 92.53 90.5334 92.53C91.3234 92.53 91.8334 92.19 92.0134 91.55H92.6734C92.4134 92.57 91.6634 93.12 90.5234 93.12ZM90.4734 88.62C89.5634 88.62 88.9634 89.22 88.8434 90.17H91.9834C91.9834 89.24 91.3834 88.62 90.4734 88.62ZM96.2101 90.59C96.2101 89.07 97.1401 88.03 98.5501 88.03C99.6701 88.03 100.49 88.68 100.68 89.68H99.9901C99.8101 89.01 99.2301 88.64 98.5601 88.64C97.5801 88.64 96.8901 89.39 96.8901 90.58C96.8901 91.73 97.5301 92.5 98.5101 92.5C99.2301 92.5 99.8101 92.1 100 91.48H100.7C100.47 92.47 99.6101 93.12 98.5101 93.12C97.1401 93.12 96.2101 92.11 96.2101 90.59ZM101.405 90.58C101.405 89.1 102.445 88.03 103.865 88.03C105.285 88.03 106.325 89.1 106.325 90.58C106.325 92.05 105.285 93.12 103.865 93.12C102.445 93.12 101.405 92.05 101.405 90.58ZM102.105 90.57C102.105 91.71 102.825 92.5 103.865 92.5C104.895 92.5 105.625 91.71 105.625 90.57C105.625 89.45 104.895 88.65 103.865 88.65C102.825 88.65 102.105 89.45 102.105 90.57ZM108.119 93H107.429V88.16H108.029L108.109 88.85C108.349 88.34 108.889 88.03 109.569 88.03C110.329 88.03 110.899 88.43 111.129 89.06C111.349 88.43 111.939 88.03 112.719 88.03C113.769 88.03 114.459 88.71 114.459 89.83V93H113.789V89.97C113.789 89.14 113.329 88.65 112.589 88.65C111.779 88.65 111.299 89.26 111.299 90.01V93H110.619V89.96C110.619 89.14 110.149 88.66 109.419 88.66C108.609 88.66 108.119 89.26 108.119 90V93ZM115.307 88.16H116.047V87.22C116.047 86.13 116.647 85.71 117.387 85.71C117.557 85.71 117.757 85.72 117.917 85.75V86.34H117.507C116.897 86.34 116.737 86.65 116.737 87.22V88.16H117.877V88.74H116.737V93H116.047V88.74H115.307V88.16ZM118.329 90.58C118.329 89.1 119.369 88.03 120.789 88.03C122.209 88.03 123.249 89.1 123.249 90.58C123.249 92.05 122.209 93.12 120.789 93.12C119.369 93.12 118.329 92.05 118.329 90.58ZM119.029 90.57C119.029 91.71 119.749 92.5 120.789 92.5C121.819 92.5 122.549 91.71 122.549 90.57C122.549 89.45 121.819 88.65 120.789 88.65C119.749 88.65 119.029 89.45 119.029 90.57ZM126.883 88.1V88.72H126.503C125.613 88.72 125.043 89.32 125.043 90.24V93H124.353V88.16H125.003L125.053 88.91C125.243 88.39 125.753 88.05 126.433 88.05C126.583 88.05 126.713 88.06 126.883 88.1ZM129.105 93H128.425V88.74H127.455V88.16H128.425V86.63H129.105V88.16H130.075V88.74H129.105V93ZM133.407 90.58C133.407 89.1 134.447 88.03 135.867 88.03C137.287 88.03 138.327 89.1 138.327 90.58C138.327 92.05 137.287 93.12 135.867 93.12C134.447 93.12 133.407 92.05 133.407 90.58ZM134.107 90.57C134.107 91.71 134.827 92.5 135.867 92.5C136.897 92.5 137.627 91.71 137.627 90.57C137.627 89.45 136.897 88.65 135.867 88.65C134.827 88.65 134.107 89.45 134.107 90.57ZM138.852 88.16H139.592V87.22C139.592 86.13 140.192 85.71 140.932 85.71C141.102 85.71 141.302 85.72 141.462 85.75V86.34H141.052C140.442 86.34 140.282 86.65 140.282 87.22V88.16H141.422V88.74H140.282V93H139.592V88.74H138.852V88.16ZM31.74 107L30.14 102.16H30.85L31.8 105.08C31.91 105.4 32 105.73 32.1 106.12C32.18 105.73 32.34 105.24 32.39 105.08L33.35 102.16H34.06L35.01 105.08C35.1 105.34 35.22 105.76 35.31 106.12C35.41 105.72 35.43 105.6 35.6 105.08L36.56 102.16H37.28L35.64 107H34.97L33.97 103.96C33.85 103.6 33.77 103.3 33.71 103.01C33.64 103.27 33.56 103.56 33.43 103.96L32.43 107H31.74ZM38.8319 106.99H38.1419V99.71H38.8319V103C39.1419 102.42 39.7319 102.03 40.5419 102.03C41.8119 102.03 42.3819 102.82 42.3819 104.04V107H41.6919V104.19C41.6919 103.06 41.1619 102.66 40.4119 102.66C39.3719 102.66 38.8319 103.43 38.8319 104.36V106.99ZM45.7871 107.12C44.3671 107.12 43.4171 106.1 43.4171 104.58C43.4171 103.07 44.3571 102.03 45.7371 102.03C47.0471 102.03 47.9371 102.96 47.9371 104.33V104.67H44.0871C44.1371 105.85 44.7571 106.53 45.7971 106.53C46.5871 106.53 47.0971 106.19 47.2771 105.55H47.9371C47.6771 106.57 46.9271 107.12 45.7871 107.12ZM45.7371 102.62C44.8271 102.62 44.2271 103.22 44.1071 104.17H47.2471C47.2471 103.24 46.6471 102.62 45.7371 102.62ZM51.5703 102.1V102.72H51.1903C50.3003 102.72 49.7303 103.32 49.7303 104.24V107H49.0403V102.16H49.6903L49.7403 102.91C49.9303 102.39 50.4403 102.05 51.1203 102.05C51.2703 102.05 51.4003 102.06 51.5703 102.1ZM54.332 107.12C52.912 107.12 51.962 106.1 51.962 104.58C51.962 103.07 52.902 102.03 54.282 102.03C55.592 102.03 56.482 102.96 56.482 104.33V104.67H52.632C52.682 105.85 53.302 106.53 54.342 106.53C55.132 106.53 55.642 106.19 55.822 105.55H56.482C56.222 106.57 55.472 107.12 54.332 107.12ZM54.282 102.62C53.372 102.62 52.772 103.22 52.652 104.17H55.792C55.792 103.24 55.192 102.62 54.282 102.62ZM58.8083 107L56.8283 102.16H57.5683L58.8183 105.28C58.9483 105.63 59.0783 105.96 59.1683 106.28C59.2583 105.95 59.3883 105.63 59.5283 105.28L60.7983 102.16H61.5083L59.4983 107H58.8083ZM64.1367 107.12C62.7167 107.12 61.7667 106.1 61.7667 104.58C61.7667 103.07 62.7067 102.03 64.0867 102.03C65.3967 102.03 66.2867 102.96 66.2867 104.33V104.67H62.4367C62.4867 105.85 63.1067 106.53 64.1467 106.53C64.9367 106.53 65.4467 106.19 65.6267 105.55H66.2867C66.0267 106.57 65.2767 107.12 64.1367 107.12ZM64.0867 102.62C63.1767 102.62 62.5767 103.22 62.4567 104.17H65.5967C65.5967 103.24 64.9967 102.62 64.0867 102.62ZM69.9199 102.1V102.72H69.5399C68.6499 102.72 68.0799 103.32 68.0799 104.24V107H67.3899V102.16H68.0399L68.0899 102.91C68.2799 102.39 68.7899 102.05 69.4699 102.05C69.6199 102.05 69.7499 102.06 69.9199 102.1ZM73.1206 109.11V108.54H73.6506C74.0706 108.54 74.4906 108.51 74.7306 107.86L74.9406 107.29L72.9806 102.16H73.7106L75.2706 106.38L76.8006 102.16H77.5106L75.2906 108.11C75.0106 108.87 74.5406 109.18 73.8506 109.18C73.5606 109.18 73.3406 109.16 73.1206 109.11ZM77.8116 104.58C77.8116 103.1 78.8516 102.03 80.2716 102.03C81.6916 102.03 82.7316 103.1 82.7316 104.58C82.7316 106.05 81.6916 107.12 80.2716 107.12C78.8516 107.12 77.8116 106.05 77.8116 104.58ZM78.5116 104.57C78.5116 105.71 79.2316 106.5 80.2716 106.5C81.3016 106.5 82.0316 105.71 82.0316 104.57C82.0316 103.45 81.3016 102.65 80.2716 102.65C79.2316 102.65 78.5116 103.45 78.5116 104.57ZM87.118 102.16H87.808V107H87.208L87.118 106.18C86.848 106.74 86.178 107.12 85.418 107.12C84.278 107.12 83.658 106.34 83.658 105.16V102.15H84.358V104.94C84.358 106.09 84.868 106.5 85.638 106.5C86.568 106.5 87.118 105.88 87.118 104.73V102.16ZM93.4088 107.12C92.3788 107.12 91.7688 106.54 91.7688 105.69C91.7688 104.8 92.4488 104.24 93.5788 104.15L95.1788 104.02V103.86C95.1788 102.91 94.6088 102.61 93.8988 102.61C93.0588 102.61 92.5588 102.99 92.5588 103.64H91.9288C91.9288 102.66 92.7288 102.03 93.9188 102.03C95.0388 102.03 95.8588 102.59 95.8588 103.87V107H95.2788L95.1888 106.15C94.8888 106.76 94.2288 107.12 93.4088 107.12ZM93.5688 106.56C94.5888 106.56 95.1788 105.85 95.1788 104.8V104.54L93.7488 104.65C92.8388 104.73 92.4688 105.13 92.4688 105.67C92.4688 106.26 92.9088 106.56 93.5688 106.56ZM99.7734 102.1V102.72H99.3934C98.5034 102.72 97.9334 103.32 97.9334 104.24V107H97.2434V102.16H97.8934L97.9434 102.91C98.1334 102.39 98.6434 102.05 99.3234 102.05C99.4734 102.05 99.6034 102.06 99.7734 102.1ZM102.535 107.12C101.115 107.12 100.165 106.1 100.165 104.58C100.165 103.07 101.105 102.03 102.485 102.03C103.795 102.03 104.685 102.96 104.685 104.33V104.67H100.835C100.885 105.85 101.505 106.53 102.545 106.53C103.335 106.53 103.845 106.19 104.025 105.55H104.685C104.425 106.57 103.675 107.12 102.535 107.12ZM102.485 102.62C101.575 102.62 100.975 103.22 100.855 104.17H103.995C103.995 103.24 103.395 102.62 102.485 102.62ZM108.902 100.83C108.622 100.83 108.392 100.6 108.392 100.32C108.392 100.04 108.622 99.8 108.902 99.8C109.182 99.8 109.422 100.04 109.422 100.32C109.422 100.6 109.182 100.83 108.902 100.83ZM108.562 107V102.16H109.252V107H108.562ZM111.381 107H110.691V102.16H111.291L111.391 103C111.711 102.38 112.351 102.03 113.051 102.03C114.381 102.03 114.931 102.82 114.931 104.04V107H114.241V104.19C114.241 103.06 113.731 102.66 112.931 102.66C111.941 102.66 111.381 103.38 111.381 104.47V107ZM118.589 109.11V108.54H119.119C119.539 108.54 119.959 108.51 120.199 107.86L120.409 107.29L118.449 102.16H119.179L120.739 106.38L122.269 102.16H122.979L120.759 108.11C120.479 108.87 120.009 109.18 119.319 109.18C119.029 109.18 118.809 109.16 118.589 109.11ZM123.28 104.58C123.28 103.1 124.32 102.03 125.74 102.03C127.16 102.03 128.2 103.1 128.2 104.58C128.2 106.05 127.16 107.12 125.74 107.12C124.32 107.12 123.28 106.05 123.28 104.58ZM123.98 104.57C123.98 105.71 124.7 106.5 125.74 106.5C126.77 106.5 127.5 105.71 127.5 104.57C127.5 103.45 126.77 102.65 125.74 102.65C124.7 102.65 123.98 103.45 123.98 104.57ZM132.587 102.16H133.277V107H132.677L132.587 106.18C132.317 106.74 131.647 107.12 130.887 107.12C129.747 107.12 129.127 106.34 129.127 105.16V102.15H129.827V104.94C129.827 106.09 130.337 106.5 131.107 106.5C132.037 106.5 132.587 105.88 132.587 104.73V102.16ZM137.244 102.1V102.72H136.864C135.974 102.72 135.404 103.32 135.404 104.24V107H134.714V102.16H135.364L135.414 102.91C135.604 102.39 136.114 102.05 136.794 102.05C136.944 102.05 137.074 102.06 137.244 102.1ZM140.595 104.59C140.595 103.07 141.525 102.03 142.935 102.03C144.055 102.03 144.875 102.68 145.065 103.68H144.375C144.195 103.01 143.615 102.64 142.945 102.64C141.965 102.64 141.275 103.39 141.275 104.58C141.275 105.73 141.915 106.5 142.895 106.5C143.615 106.5 144.195 106.1 144.385 105.48H145.085C144.855 106.47 143.995 107.12 142.895 107.12C141.525 107.12 140.595 106.11 140.595 104.59ZM146.47 100.83C146.19 100.83 145.96 100.6 145.96 100.32C145.96 100.04 146.19 99.8 146.47 99.8C146.75 99.8 146.99 100.04 146.99 100.32C146.99 100.6 146.75 100.83 146.47 100.83ZM146.13 107V102.16H146.82V107H146.13ZM149.369 107H148.689V102.74H147.719V102.16H148.689V100.63H149.369V102.16H150.339V102.74H149.369V107ZM150.748 109.11V108.54H151.278C151.698 108.54 152.118 108.51 152.358 107.86L152.568 107.29L150.608 102.16H151.338L152.898 106.38L154.428 102.16H155.138L152.918 108.11C152.638 108.87 152.168 109.18 151.478 109.18C151.188 109.18 150.968 109.16 150.748 109.11Z" fill="white"/>
</g>
<defs>
<clipPath id="clip0_788_144">
<rect width="322" height="167" fill="white"/>
</clipPath>
</defs>
</svg>
