<svg width="500" height="599" viewBox="0 0 500 599" fill="none" xmlns="http://www.w3.org/2000/svg">
<g clip-path="url(#clip0_723_2779)">
<path d="M249.993 540.254C388.06 540.254 499.986 428.329 499.986 290.261C499.986 152.194 388.06 40.2682 249.993 40.2682C111.926 40.2682 0 152.194 0 290.261C0 428.329 111.926 540.254 249.993 540.254Z" fill="#E1EDFF"/>
<path d="M192.873 585.264C188.757 580.37 181.916 578.395 175.534 578.924C169.166 579.438 164.063 582.289 158.487 585.403C153.62 588.115 151.952 592.536 146.125 594.552L141.259 595.985C141.871 596.263 144.36 597.556 145.027 597.653C158.223 599.447 171.613 598.821 184.906 598.182C188.563 598.001 192.859 597.459 194.639 594.26C196.224 591.424 194.959 587.767 192.859 585.264H192.873Z" fill="#172F35"/>
<path d="M442.627 82.9697C451.046 46.5312 428.332 10.1668 391.893 1.74756C355.455 -6.67163 319.09 16.0425 310.671 52.4811C302.252 88.9196 324.966 125.284 361.405 133.703C397.843 142.122 434.207 119.408 442.627 82.9697Z" fill="#1067F5"/>
<path d="M436.461 82.173C444.447 49.1357 424.139 15.8794 391.102 7.89298C358.065 -0.0934736 324.809 20.2142 316.822 53.2515C308.836 86.2888 329.143 119.545 362.181 127.531C395.218 135.518 428.474 115.21 436.461 82.173Z" fill="white"/>
<path d="M434.676 88.1563C435.496 85.8342 436.163 83.4565 436.706 81.0232H430.685V38.294C428.669 34.5953 426.263 31.1191 423.552 27.9349V81.0371H339.081V53.9507H412.512V17.7428C410.245 16.1159 407.867 14.6281 405.378 13.3211V46.8315H357.254V9.30261C354.807 10.1091 352.429 11.0685 350.121 12.167V46.8176H331.948V69.6352H315.137C315.206 72.0546 315.415 74.4324 315.749 76.7683H331.948V110.028C334.158 112.351 336.536 114.506 339.081 116.48V88.1841H434.676V88.1563Z" fill="#FFF5E5"/>
<path d="M403.153 89.1022L376.79 61.2093L350.44 89.1022H358.491V116.328H395.102V89.1022H403.153Z" fill="#1067F5"/>
<path d="M389.123 30.5492C389.123 37.4877 376.553 49.5431 376.553 49.5431C376.553 49.5431 363.983 37.4877 363.983 30.5492C363.983 23.6108 369.615 17.9794 376.553 17.9794C383.492 17.9794 389.123 23.6108 389.123 30.5492Z" fill="#FF9900"/>
<path d="M376.624 35.9996C379.905 35.9996 382.561 33.3438 382.561 30.0623C382.561 26.7807 379.905 24.1249 376.624 24.1249C373.342 24.1249 370.687 26.7807 370.687 30.0623C370.687 33.3438 373.342 35.9996 376.624 35.9996Z" fill="white"/>
<path d="M213.952 154.315C215.468 153.286 216.997 151.742 216.747 149.921C216.441 147.641 213.702 146.709 211.435 146.334C196.029 143.775 180.191 144.818 164.827 147.654C149.462 150.491 134.501 155.094 119.567 159.696C116.994 160.489 113.949 161.851 113.769 164.535C113.657 166.134 114.742 167.622 116.118 168.456C117.495 169.276 119.122 169.554 120.707 169.763C130.232 171.001 139.896 170.277 149.434 169.179C166.857 167.163 184.14 163.895 201.104 159.418C205.582 158.236 210.114 156.929 213.938 154.343L213.952 154.315Z" fill="#172F35"/>
<path d="M362.746 232.96C361.967 220.209 360.298 207.333 362.44 194.75C354.528 193.888 346.616 193.025 338.718 192.149C336.966 200.478 334.867 208.752 332.447 216.914C331.863 215.718 331.293 214.508 330.765 213.285C327.539 205.79 325.495 197.85 322.575 190.231C319.655 182.611 315.706 175.13 309.504 169.846C307.224 167.9 304.262 166.203 301.37 166.968C299.521 167.455 298.075 168.873 296.865 170.347C293.472 174.518 291.387 179.58 289.871 184.738C287.452 192.97 286.395 201.813 288.397 210.156C292.249 226.286 306.362 237.646 314.733 251.954C317.013 255.861 319.307 258.767 321.463 262.758C325.259 270.127 324.869 271.601 326.927 274.883C330.848 281.14 340.401 282.878 347.603 281.293C354.166 279.847 354.903 276.579 357.809 270.516C363.33 259.003 363.538 245.697 362.76 232.946L362.746 232.96Z" fill="#A6BEBD"/>
<path d="M344.475 198.087C344.587 197.712 344.364 197.308 343.989 197.197C343.613 197.086 343.21 197.308 343.113 197.684C337.565 216.691 334.394 236.381 333.685 256.195C333.532 260.436 333.518 264.913 335.048 268.987C335.229 269.46 335.437 269.947 335.632 270.419C336.272 271.935 336.883 273.367 336.786 274.855C336.717 275.87 336.007 276.968 335.09 277.441C334.839 277.58 334.506 277.691 334.144 277.664C334.547 276.76 334.909 275.759 334.951 274.688C334.992 273.325 334.381 271.657 332.907 271.031C332.42 270.823 331.919 270.767 331.488 270.725C331.224 270.697 330.974 270.67 330.724 270.6C328.666 270.072 327.957 267.305 327.456 264.732C325.454 254.512 320.198 245.46 315.136 236.714L310.868 229.345C310.826 229.943 310.756 230.471 310.631 231.194C310.603 231.333 310.548 231.43 310.492 231.542L313.913 237.437C318.918 246.086 324.105 255.027 326.065 265.01C326.524 267.319 327.275 271.198 330.39 271.977C330.696 272.06 331.029 272.102 331.349 272.13C331.725 272.171 332.086 272.213 332.378 272.338C333.226 272.7 333.588 273.784 333.56 274.632C333.518 275.703 333.032 276.76 332.559 277.775C332.406 278.109 332.517 278.498 332.837 278.679C333.282 278.957 333.783 279.082 334.283 279.082C334.784 279.082 335.284 278.957 335.785 278.693C337.134 277.983 338.149 276.44 338.246 274.924C338.357 273.103 337.662 271.448 336.981 269.849C336.786 269.39 336.591 268.932 336.411 268.473C334.965 264.649 334.992 260.338 335.131 256.236C335.827 236.547 338.983 216.97 344.503 198.073L344.475 198.087Z" fill="#E8E8E8"/>
<path d="M305.166 247.407C309.032 227.259 310.603 206.638 309.226 186.184C312.132 194.277 315.066 202.481 315.873 211.06C317.068 223.95 313.161 237.243 305.166 247.421V247.407Z" fill="#172F35"/>
<path d="M340.247 201.549C342.472 203.065 345.128 203.955 347.811 204.094C351.148 204.261 354.458 203.287 357.447 201.813C359.255 200.923 361.09 199.7 361.702 197.781C362.119 196.474 361.897 195.042 361.66 193.693C361.299 191.593 360.937 189.48 360.59 187.38C360.465 186.671 360.325 185.92 359.867 185.364C359.241 184.613 358.198 184.391 357.239 184.252C353.318 183.709 349.313 183.821 345.434 184.599C342.972 185.1 340.303 186.073 339.218 188.34C338.718 189.382 338.634 190.564 338.565 191.718L338.203 197.336C338.161 198.031 338.12 198.74 338.342 199.408C338.648 200.325 339.441 201.007 340.233 201.549H340.247Z" fill="#172F35"/>
<path d="M348.188 161.1C348.549 161.253 348.966 161.128 349.328 160.989C351.761 160.127 354.195 159.265 356.642 158.403C353.847 153.856 350.496 149.643 346.714 145.875C346.978 150.435 347.242 154.996 347.493 159.557C347.52 160.155 347.645 160.864 348.188 161.086V161.1Z" fill="#FFC088"/>
<path d="M345.755 132.79H324.731C323.494 132.79 322.492 133.793 322.492 135.029V177.327C322.492 178.563 323.494 179.566 324.731 179.566H345.755C346.991 179.566 347.993 178.563 347.993 177.327V135.029C347.993 133.793 346.991 132.79 345.755 132.79Z" fill="#A6BEBD"/>
<path d="M324.828 176.507C325.412 177.633 326.914 177.828 328.179 177.842C333.018 177.925 337.857 177.494 342.682 177.049C343.21 177.007 343.78 176.938 344.184 176.604C344.642 176.229 344.809 175.617 344.934 175.033C346.812 166.746 347.27 158.139 346.311 149.699C339.873 149.073 333.435 148.461 326.997 147.835C326.163 147.752 325.218 147.71 324.62 148.294C324.05 148.85 324.022 149.74 324.036 150.533C324.202 158.639 324.369 166.732 324.536 174.838C324.536 175.394 324.564 175.978 324.828 176.479V176.507Z" fill="#172F35"/>
<path d="M358.616 184.293C358.546 177.744 358.435 166.607 358.379 160.544C358.352 157.402 355.918 155.983 353.179 155.26C350.732 154.621 324.702 149.254 324.716 149.198C324.494 150.519 325.022 151.895 325.842 152.952C326.663 154.009 327.761 154.829 328.846 155.622C327.622 156.498 326.385 157.388 325.411 158.542C324.438 159.696 323.757 161.17 323.854 162.672C323.937 164.173 324.939 165.675 326.399 166.05C325.509 167.205 324.577 168.456 324.466 169.902C324.355 171.362 325.453 173.003 326.899 172.878C326.371 174.63 326.079 176.451 326.065 178.287C329.611 179.872 332.28 183.278 332.948 187.088C333.838 187.088 334.644 186.435 335.075 185.656C335.103 185.601 335.131 185.531 335.159 185.475C337.355 187.505 339.719 189.327 341.443 191.802C347.214 192.678 353.276 192.038 358.56 189.619C358.63 187.839 358.63 186.045 358.616 184.28V184.293Z" fill="#FFC088"/>
<path d="M93.1193 173.531C84.0812 183.376 80.7858 197.253 79.9515 210.601C78.7418 230.054 82.0233 249.52 86.445 268.5C89.6987 282.461 93.6476 296.407 100.35 309.074C107.066 321.742 116.771 333.157 129.425 339.915C148.669 350.177 172.029 348.48 193.317 343.794C214.605 339.095 235.545 331.642 257.348 331.183C264.731 331.03 273.408 331.099 277.788 325.162C280.777 321.116 280.611 315.623 280.277 310.604C279.109 292.778 277.649 274.98 275.869 257.21C274.117 239.759 272.059 222.211 266.901 205.442C261.742 188.673 253.288 172.572 240.384 160.697C234.071 154.885 226.632 150.102 218.331 147.905C209.683 145.624 200.561 146.236 191.648 147.07C172.418 148.878 153.271 151.645 134.305 155.33C119.302 158.25 103.45 162.296 93.1054 173.559L93.1193 173.531Z" fill="#1067F5"/>
<path d="M81.3151 104.411L85.4587 154.968C86.001 161.531 91.8549 166.273 98.265 165.341L220.988 147.557C226.898 146.695 231.125 141.314 230.624 135.265L226.759 88.5454C226.23 82.1214 220.585 77.4216 214.286 78.1307L91.2848 92.0911C85.2223 92.7724 80.8145 98.237 81.3151 104.411Z" fill="#172F35"/>
<path d="M89.2536 105.968L93.2582 154.05C93.7726 160.294 99.4458 164.813 105.647 163.923L224.296 147.014C230.011 146.194 234.085 141.077 233.612 135.321L229.872 90.8811C229.358 84.7769 223.907 80.2996 217.817 80.981L98.8896 94.2461C93.0357 94.8996 88.7669 100.1 89.2536 105.968Z" fill="#A6BEBD"/>
<path d="M221.139 163.77C193.678 165.369 166.396 169.958 139.936 177.41C138.225 177.897 137.641 180.066 138.893 181.318C140.812 183.25 142.619 185.753 143.245 186.643C159.375 209.614 158.999 240.288 159.833 267.124C160.515 289.191 159.736 311.271 158.93 333.338C158.818 336.244 158.902 339.637 161.224 341.375C162.823 342.571 164.978 342.557 166.967 342.501C205.01 341.292 242.956 336.87 280.262 329.306C282.209 277.983 277.815 232.459 261.825 194.333C259.697 189.243 244.791 169.638 240.092 166.732C234.571 163.311 227.633 163.408 221.139 163.784V163.77Z" fill="#172F35"/>
<path d="M140.006 198.476C137.767 192.734 134.152 186.31 130.356 181.471C126.56 176.618 121.359 172.655 115.353 171.348C104.882 169.082 93.8697 175.645 88.5859 184.975C95.2185 179.218 105.063 177.995 113.42 180.72C121.777 183.431 128.673 189.647 133.526 196.961C138.393 204.275 141.396 212.659 143.802 221.099C154.8 259.574 154.327 300.384 151.143 340.277C157.192 292.472 157.526 243.361 140.02 198.476H140.006Z" fill="#FFF5E5"/>
<path d="M305.097 304.861H200.464V327.109H305.097V304.861Z" fill="#172F35"/>
<path d="M309.019 170.403C308.49 168.47 307.864 166.482 306.474 165.049C303.568 162.074 298.771 162.63 294.641 162.157C286.993 161.267 280.417 156.067 276.05 149.699C260.978 156.581 243.416 157.902 229.915 147.043C228.496 148.364 227.008 149.615 225.465 150.769C217.525 156.72 208.168 160.53 198.643 163.339C195.334 164.312 191.802 165.286 189.452 167.803C185.308 172.224 186.448 179.218 187.686 185.156C195.598 223.366 195.264 263.258 186.782 301.344C185.392 307.615 189.549 313.76 195.876 314.915C233.905 321.909 273.506 320.31 310.84 310.215C299.327 264.774 321.324 215.663 309.032 170.431L309.019 170.403Z" fill="#A6BEBD"/>
<path d="M254.416 200.896C246.087 203.565 237.229 204.553 228.511 203.788C228.511 200.409 228.497 197.044 228.483 193.665C237.09 192.956 245.656 191.844 254.152 190.342C254.235 193.86 254.318 197.378 254.416 200.896Z" fill="white"/>
<path d="M254.193 156.637C260.784 163.673 260.965 174.393 260.812 184.029C260.047 230.721 260.339 277.427 261.688 324.105C265.859 323.744 270.017 323.396 274.188 323.035C273.201 279.179 272.214 235.324 271.227 191.482C270.962 179.566 270.67 167.497 267.458 156.011L254.193 156.637Z" fill="#172F35"/>
<path d="M268.502 266.206C267.348 242.165 266.166 217.303 268.03 192.65C269.045 179.148 266.417 168.553 263.413 157.582C262.94 157.693 262.482 157.777 262.009 157.86C264.984 168.748 267.612 179.246 266.611 192.539C264.748 217.261 265.93 242.179 267.084 266.261C267.459 274.006 267.835 282.016 268.113 289.941C268.461 299.925 268.822 310.242 267.39 320.267C267.334 320.657 267.612 321.018 268.002 321.074C268.03 321.074 268.071 321.074 268.099 321.074C268.447 321.074 268.753 320.824 268.808 320.462C270.254 310.312 269.893 299.925 269.545 289.886C269.267 281.96 268.878 273.937 268.516 266.192L268.502 266.206Z" fill="#A6BEBD"/>
<path d="M225.785 150.324C233.544 156.373 243.166 160.002 252.983 160.6C262.8 161.198 272.783 158.751 281.223 153.675C279.179 151.937 277.594 149.657 276.676 147.14C269.46 150.31 261.59 152.368 253.734 151.715C245.877 151.061 238.049 147.46 233.461 141.05C231.778 144.735 229.108 147.974 225.799 150.31L225.785 150.324Z" fill="#172F35"/>
<path d="M260.825 434.884H246.072C227.384 434.884 212.228 466.281 212.228 505.006C212.228 543.73 227.384 575.127 246.072 575.127H260.825C279.512 575.127 294.669 543.73 294.669 505.006C294.669 466.281 279.512 434.884 260.825 434.884Z" fill="#172F35"/>
<path d="M239.092 554.423C247.808 554.423 254.874 532.298 254.874 505.006C254.874 477.713 247.808 455.588 239.092 455.588C230.376 455.588 223.311 477.713 223.311 505.006C223.311 532.298 230.376 554.423 239.092 554.423Z" fill="#A6BEBD"/>
<path d="M235.532 536.57C242.835 536.57 248.755 518.043 248.755 495.189C248.755 472.336 242.835 453.809 235.532 453.809C228.229 453.809 222.309 472.336 222.309 495.189C222.309 518.043 228.229 536.57 235.532 536.57Z" fill="#172F35"/>
<path d="M357.129 371.688C343.197 354.112 322.367 342.168 300.162 339.025C277.956 335.883 254.624 341.57 236.353 354.585C229.79 359.257 223.713 365.055 220.501 372.452C215.788 383.312 217.887 395.771 220.07 407.395C225.841 438.138 231.611 468.868 237.396 499.611C238.063 503.185 238.8 506.897 240.955 509.817C243.792 513.655 248.575 515.476 253.164 516.784C287.286 526.572 323.702 519.523 358.478 512.417C365.5 510.985 373.231 509.094 377.235 503.157C379.432 499.903 380.142 495.899 380.684 492.019C383.465 472.4 383.479 452.391 380.726 432.771C377.653 410.899 370.867 388.985 357.143 371.674L357.129 371.688Z" fill="#172F35"/>
<path d="M241.441 407.687C236.436 395.201 229.177 379.53 215.273 375.692C203.537 372.452 190.772 378.598 183 387.97C175.227 397.342 171.542 409.37 168.692 421.202C161.072 452.905 162.699 486.916 173.572 517.66C201.716 520.788 224.422 522.498 253.956 521.261C255.735 521.191 255.874 489.016 255.819 485.915C255.596 473.957 254.47 462.027 252.482 450.235C250.132 436.331 247.101 421.87 241.789 408.521C241.678 408.243 241.566 407.951 241.441 407.673V407.687Z" fill="#1067F5"/>
<path d="M241.094 416.072C247.324 431.562 247.171 449.04 243.653 465.364C240.135 481.688 233.433 497.136 226.772 512.445C225.66 515.018 223.588 518.077 220.877 517.354C218.861 516.811 218.04 514.461 217.54 512.431C213.716 497.303 209.892 482.091 208.529 466.546C207.181 451 208.404 434.968 214.397 420.549C216.344 415.877 218.944 411.219 223.143 408.41C227.356 405.601 233.53 405.198 237.201 408.688L241.08 416.058L241.094 416.072Z" fill="#172F35"/>
<path d="M271.961 514.336C260.142 513.029 247.169 511.152 239.313 502.211C237.783 507.092 239.939 512.556 243.54 516.199C247.141 519.842 251.98 521.97 256.777 523.722C291.636 536.486 330.18 533.845 366.833 527.977C368.641 522.707 362.689 529.604 364.483 524.334C332.169 533.817 305.416 518.035 271.947 514.336H271.961Z" fill="#1067F5"/>
<path d="M142.677 527.712C160.697 540.616 183.863 546.108 205.053 539.601C185.448 530.354 164.201 525.182 142.677 527.712Z" fill="#172F35"/>
<path d="M192.427 557.83L195.347 526.989C182.416 527.573 169.429 526.781 156.678 524.612C155.927 534.108 154.592 543.55 152.688 552.88C165.939 554.534 179.19 556.175 192.441 557.83H192.427Z" fill="white"/>
<path d="M416.974 407.589C408.965 388.568 404.321 368.169 401.72 347.646C398.647 323.396 398.342 298.882 398.036 274.438C379.417 272.449 360.423 274.007 342.375 278.998C354.708 324.703 369.628 372.118 396.437 413.402C403.333 411.816 410.174 409.703 416.96 407.575L416.974 407.589Z" fill="#FFC088"/>
<path d="M178.703 542.215C183.055 542.938 187.296 544.912 190.119 548.291C194.985 554.117 194.707 562.557 193.748 570.08C192.789 577.602 191.481 585.681 194.916 592.439C177.549 592.383 160.182 593.162 142.884 594.803C141.091 582.552 141.828 569.454 147.946 558.692C154.064 547.93 166.481 540.185 178.689 542.201L178.703 542.215Z" fill="#0C4E5F"/>
<path d="M174.087 540.825C171.931 541.047 169.595 541.714 168.427 543.55C167.802 544.537 167.607 545.719 167.468 546.873C166.467 555.007 167.357 563.378 170.026 571.123C170.43 572.305 170.986 573.584 172.126 574.099C172.877 574.432 173.739 574.363 174.559 574.321C180.038 573.987 185.6 574.849 190.717 576.824C190.147 568.731 190.425 560.569 191.565 552.532C191.871 550.363 192.204 547.972 191.036 546.108C190.341 544.996 189.215 544.245 188.075 543.619C183.834 541.297 178.87 540.296 174.073 540.811L174.087 540.825Z" fill="#F46B29"/>
<path d="M150.351 561.125C151.533 559.707 153.173 558.344 154.995 558.609C156.511 558.831 157.637 560.152 158.36 561.501C159.82 564.254 160.223 567.424 160.96 570.456C161.711 573.487 162.976 576.615 165.576 578.339C160.821 582.219 155.134 584.972 149.141 586.307C147.973 586.571 146.749 586.78 145.568 586.557C144.386 586.335 143.232 585.612 142.801 584.499C142.439 583.568 142.62 582.539 142.801 581.551C144.149 574.335 145.651 566.771 150.337 561.112L150.351 561.125Z" fill="#A6BEBD"/>
<path d="M196.265 585.459C196.015 579.952 194.666 573.987 190.355 570.553C185.266 566.506 177.716 567.383 171.89 570.289C167.44 572.513 163.575 575.711 159.403 578.437C155.232 581.148 150.546 583.442 145.582 583.429C143.997 583.429 142.259 583.234 140.994 584.193C139.561 585.264 139.395 587.308 139.339 589.088C139.283 591.09 139.283 593.273 140.549 594.817C141.883 596.471 144.219 596.874 146.333 597.097C159.862 598.557 173.517 597.667 187.088 596.777C189.076 596.652 191.162 596.485 192.83 595.401C195.917 593.398 196.418 589.129 196.251 585.459H196.265Z" fill="#FFC088"/>
<path d="M288.676 88.1004C293.056 103.284 290.178 120.387 281.084 133.305C279.179 136.016 276.913 138.616 273.909 140.021C268.361 142.621 261.854 140.535 256.097 138.436C249.618 136.072 242.888 133.541 238.146 128.521C233.683 123.794 231.514 117.328 230.429 110.918C229.15 103.257 229.358 94.9694 233.349 88.309C238.313 80.0079 248.325 75.7947 257.988 75.322C267.652 74.8492 277.149 77.5189 286.451 80.1747L288.662 88.1004H288.676Z" fill="#172F35"/>
<path d="M277.539 151.715C276.816 150.797 276.12 149.852 275.495 148.878C271.143 142.135 268.876 134.306 266.665 126.589C258.587 126.714 250.494 126.825 242.415 126.951C240.719 133.43 237.201 139.284 232.654 144.248C245.071 153.856 262.383 154.843 277.539 151.715Z" fill="#FFC088"/>
<path d="M286.284 105.635C286.229 105.343 286.173 105.064 286.104 104.772C285.631 102.645 284.671 100.114 285.756 98.0008C287.452 94.7054 287.188 93.899 284.977 87.0856L282.6 81.774C277.079 75.795 268.723 72.9445 260.574 72.8611C252.426 72.7777 244.445 75.1971 236.964 78.3952C234.475 79.4658 231.764 80.8841 230.93 83.4704C230.457 84.9443 230.679 86.5294 230.93 88.0451C231.917 94.0936 233.113 100.114 234.308 106.121C235.268 110.96 236.255 115.882 238.549 120.262C241.455 125.81 246.225 130.107 250.911 134.278C252.816 135.975 254.762 137.699 257.084 138.742C261.52 140.73 266.887 139.91 271.086 137.449C275.286 134.987 278.442 131.052 280.875 126.825C283.476 122.306 285.353 117.37 286.396 112.267C286.841 110.084 286.701 107.818 286.284 105.635Z" fill="#FFC088"/>
<path d="M250.883 99.8918C253.887 96.805 257.724 95.3867 261.826 95.7204C261.979 95.0947 262.285 94.4968 262.73 94.024C258.003 93.4539 253.094 95.5118 249.979 99.1271C250.327 99.3078 250.633 99.5859 250.883 99.9057V99.8918Z" fill="#0C4E5F"/>
<path d="M257.752 106.441C257.321 106.483 256.862 106.51 256.487 106.288C256.139 106.093 255.93 105.718 255.805 105.342C255.541 104.606 255.527 103.799 255.736 103.048C255.958 102.325 256.417 101.644 257.084 101.268C257.752 100.893 258.628 100.879 259.254 101.296C260.032 101.811 260.296 102.826 260.394 103.757C260.449 104.188 260.477 104.647 260.31 105.05C260.13 105.523 259.699 105.885 259.226 106.093C258.753 106.302 258.239 106.371 257.724 106.427L257.752 106.441Z" fill="#0C4E5F"/>
<path d="M259.462 103.382C259.211 102.951 258.752 102.547 258.252 102.645C257.723 102.756 257.459 103.34 257.376 103.868C257.32 104.244 257.306 104.633 257.431 104.995C257.557 105.356 257.821 105.676 258.182 105.801C258.739 105.996 259.392 105.62 259.628 105.092C259.865 104.55 259.754 103.896 259.462 103.396V103.382Z" fill="#172F35"/>
<path d="M257.197 103.813C257.378 103.813 257.544 103.729 257.67 103.59C257.906 103.326 257.962 102.867 257.697 102.645C257.531 102.506 257.28 102.492 257.099 102.589C256.905 102.687 256.78 102.881 256.738 103.09C256.682 103.41 256.877 103.785 257.197 103.813Z" fill="white"/>
<path d="M280.444 95.6091C282.085 95.6091 283.517 96.5824 284.226 97.959C284.226 97.9729 284.24 97.9868 284.254 98.0007C284.56 97.8895 284.768 97.5279 284.727 97.1803C284.685 96.7632 284.407 96.4156 284.129 96.1097C283.559 95.4839 282.891 94.9278 282.126 94.5662C281.362 94.2047 280.472 94.0518 279.651 94.2464C279.109 94.3716 278.567 94.6775 278.317 95.178C278.164 95.4978 278.178 95.8872 278.317 96.1931C278.942 95.8316 279.665 95.5952 280.43 95.5952L280.444 95.6091Z" fill="#0C4E5F"/>
<path d="M280.027 103.104C279.971 102.576 280.18 102.033 280.472 101.588C280.889 100.949 281.626 100.406 282.376 100.573C282.877 100.684 283.266 101.102 283.475 101.574C283.684 102.047 283.739 102.576 283.767 103.09C283.809 103.716 283.809 104.439 283.322 104.828C282.905 105.162 282.307 105.106 281.806 104.953C280.944 104.675 280.124 104.008 280.027 103.104Z" fill="#0C4E5F"/>
<path d="M282.738 102.2C282.53 101.964 282.224 101.755 281.932 101.853C281.709 101.936 281.57 102.172 281.487 102.395C281.348 102.743 281.25 103.118 281.306 103.479C281.362 103.841 281.598 104.203 281.959 104.314C282.446 104.467 282.988 104.091 283.127 103.605C283.267 103.118 283.086 102.576 282.752 102.2H282.738Z" fill="#172F35"/>
<path d="M281.529 102.52C281.668 102.52 281.793 102.451 281.891 102.353C282.071 102.159 282.113 101.797 281.904 101.63C281.779 101.533 281.599 101.519 281.446 101.588C281.307 101.658 281.209 101.811 281.167 101.964C281.126 102.2 281.265 102.492 281.515 102.52H281.529Z" fill="white"/>
<path d="M282.643 105.384C278.166 102.798 270.045 103.91 265.206 104.731C260.367 105.551 254.569 108.457 250.203 110.696C248.979 111.322 247.7 112.072 247.186 113.338C246.88 114.075 246.88 114.881 246.88 115.674C246.908 119.734 247.102 123.794 247.436 127.826C247.547 129.147 247.686 130.482 248.229 131.692C248.799 132.929 249.758 133.917 250.787 134.821C252.344 136.197 254.096 137.393 256.057 138.088C259.213 139.214 267.765 141.05 270.879 139.826C273.994 138.603 273.716 138.477 275.982 136.03C280.501 131.164 284.019 126.172 286.439 119.984C287.509 117.245 288.705 112.364 287.621 110.835C286.8 109.681 283.853 106.079 282.629 105.37L282.643 105.384Z" fill="#172F35"/>
<path d="M268.528 105.773C261.59 106.302 254.874 109.166 249.646 113.741C250.313 120.415 250.48 126.352 251.356 133.027C252.162 134.501 253.859 136.837 255.013 137.699C258.642 140.424 262.243 141.05 266.734 141.745C273.812 142.83 278.54 138.255 282.419 132.234C286.298 126.213 287.967 117.606 288.718 110.487C282.391 105.412 276.635 105.148 268.542 105.76L268.528 105.773Z" fill="white"/>
<path d="M250.675 115.813C245.141 112.851 241.47 110.793 237.924 108.791L235.728 107.553L236.423 106.316L238.62 107.553C242.165 109.556 245.836 111.614 251.356 114.561L250.689 115.813H250.675Z" fill="white"/>
<path d="M238.98 122.427L238.353 123.714L252.253 130.485L252.88 129.198L238.98 122.427Z" fill="white"/>
<path d="M244.987 97.1944C251.578 91.9106 273.325 93.1481 286.757 92.147C286.479 90.826 285.825 89.6997 284.991 87.0996L282.613 81.7879C277.093 75.8089 268.736 72.9584 260.588 72.875C252.44 72.7916 244.459 75.211 236.978 78.4091C234.489 79.4798 231.778 80.898 230.943 83.4843C230.471 84.9582 230.693 86.5434 230.943 88.059C231.931 94.1075 233.126 100.128 234.322 106.135C235.282 110.974 236.269 115.896 238.563 120.276C239.453 121.973 240.524 123.544 241.706 125.032C239.912 114.103 238.396 103.799 245.001 97.1944H244.987Z" fill="#172F35"/>
<path d="M244.125 55.6608C236.366 57.7743 228.955 61.8484 223.908 68.1055C218.735 74.5156 216.357 82.7611 215.467 90.951C214.647 98.3761 214.981 106.024 217.358 113.115C219.889 120.679 224.881 127.576 231.931 131.386C233.126 132.026 234.475 132.443 235.824 132.262C239.564 131.761 240.301 127.938 240.44 124.739C240.746 117.551 240.148 109.667 238.521 102.256C237.34 96.9022 241.247 91.7436 246.725 91.4933C261.562 90.7981 276.287 90.6451 291.193 89.5883C291.888 89.5327 292.625 89.4632 293.139 89.0043C293.751 88.4482 293.834 87.5304 293.834 86.7101C293.876 75.4055 286.813 64.685 277.01 59.0814C267.193 53.4778 255.054 52.6852 244.153 55.6608H244.125Z" fill="#1067F5"/>
<path d="M234.655 132.54C233.723 132.54 232.875 132.234 232.236 131.664C231.944 131.4 231.916 130.955 232.18 130.663C232.444 130.371 232.889 130.343 233.181 130.607C233.709 131.08 234.377 131.15 234.836 131.122C235.74 131.066 236.671 130.593 237.269 129.898C238.395 128.591 238.715 126.742 238.896 124.934C239.41 119.706 239.007 114.478 237.686 109.403C237.547 108.86 237.394 108.318 237.241 107.776C236.212 104.049 235.156 100.198 236.671 96.5963C237.811 93.8988 240.412 91.7019 243.818 90.5756C246.794 89.5884 249.909 89.4771 252.94 89.3659L285.505 88.1701C288.286 88.0727 291.428 87.9476 294.028 86.6545C294.376 86.4737 294.807 86.6267 294.988 86.9743C295.168 87.3219 295.015 87.7529 294.668 87.9337C291.79 89.3659 288.48 89.491 285.56 89.6023L252.995 90.7981C250.075 90.9093 247.058 91.0206 244.277 91.9383C241.274 92.9394 238.979 94.8443 238.006 97.1664C236.685 100.309 237.672 103.924 238.632 107.414C238.785 107.97 238.938 108.513 239.077 109.055C240.439 114.297 240.857 119.692 240.328 125.087C240.133 127.034 239.758 129.231 238.354 130.844C237.505 131.831 236.226 132.471 234.933 132.554C234.836 132.554 234.752 132.554 234.655 132.554V132.54Z" fill="#A6BEBD"/>
<path d="M263.356 56.7452C250.396 53.9086 236.033 58.7336 227.426 68.8423C218.819 78.9371 216.316 93.8847 221.183 106.232C218.944 95.7062 221.127 84.3183 227.106 75.3636C233.085 66.409 242.791 60.0545 253.372 58.1079L263.356 56.7452Z" fill="#FFF5E5"/>
<path d="M204.206 175.353C205.93 174.254 208.308 174.685 209.962 175.909C211.603 177.133 212.646 178.982 213.508 180.845C218.124 190.787 218.806 202.189 217.346 213.049C215.872 223.908 212.368 234.378 208.878 244.765C222.073 252.858 235.909 259.894 250.23 265.775C227.26 270.725 202.621 267.555 181.652 256.946C195.112 234.351 197.365 207.125 201.48 181.151C201.828 178.968 202.356 176.535 204.206 175.353Z" fill="#172F35"/>
<path d="M220.697 294.488C226.759 296.018 233.364 297.283 239.121 294.836C243.807 292.848 247.172 288.69 250.203 284.602C253.29 280.417 256.363 274.994 254.082 270.322C252.024 266.109 246.741 264.844 242.166 263.801C227.941 260.547 214.315 254.721 202.148 246.656C204.081 236.923 208.141 227.774 211.478 218.444C214.815 209.1 217.471 199.227 216.442 189.369C215.413 179.51 210.032 169.596 200.994 165.508C198.005 164.159 194.57 163.478 191.441 164.438C187.02 165.786 184.169 169.999 181.889 174.032C167.956 198.796 170.181 224.715 161.991 256C160.782 260.603 162.047 265.775 164.466 269.877C167.164 274.452 172.211 277.038 177.05 279.235C191.094 285.603 205.722 290.706 220.683 294.475L220.697 294.488Z" fill="#A6BEBD"/>
<path d="M237.605 284.908C237.132 287.745 237.327 290.971 239.315 293.056C240.65 294.447 242.569 295.1 244.405 295.684C246.045 296.213 247.756 296.755 249.452 296.477C251.218 296.185 252.72 295.059 254.013 293.821C257.28 290.693 259.644 286.632 260.757 282.239C261.382 279.764 261.591 277.024 260.381 274.786C259.227 272.644 256.919 271.309 254.541 270.823C250.523 270.002 246.212 271.448 243.167 274.202C240.122 276.941 238.273 280.876 237.605 284.922V284.908Z" fill="#172F35"/>
<path d="M236.966 294.725C236.702 294.725 236.451 294.586 236.326 294.335C235.561 292.848 234.616 292.931 232.711 293.223C231.376 293.432 229.847 293.668 228.192 293.098C221.976 290.97 215.427 289.497 209.101 288.064C202.871 286.66 196.433 285.214 190.26 283.128C178.594 279.193 167.053 273.784 161.63 260.95C161.477 260.589 161.644 260.171 162.005 260.018C162.367 259.866 162.784 260.032 162.937 260.394C168.137 272.7 179.358 277.942 190.719 281.779C196.809 283.837 203.219 285.283 209.407 286.674C215.775 288.106 222.352 289.594 228.637 291.749C229.972 292.208 231.251 292.013 232.475 291.819C234.268 291.541 236.312 291.221 237.578 293.682C237.758 294.029 237.619 294.46 237.272 294.641C237.16 294.697 237.049 294.725 236.952 294.725H236.966Z" fill="#E8E8E8"/>
<path d="M165.868 555.411C170.082 553.186 174.768 551.573 179.592 551.42C184.431 551.267 189.423 552.671 192.913 555.828C194.067 556.871 194.749 558.609 194.846 560.222C194.874 560.68 194.304 560.917 193.97 560.597C190.132 556.912 184.904 554.535 179.412 554.785C173.502 555.049 167.843 557.538 163.449 561.251C162.323 560.555 162.212 558.97 162.851 557.858C163.491 556.759 164.687 556.036 165.855 555.425L165.868 555.411Z" fill="#172F35"/>
<path d="M166.134 560.361C170.347 558.136 175.033 556.523 179.858 556.37C184.697 556.217 189.689 557.622 193.179 560.778C194.333 561.821 195.014 563.559 195.112 565.172C195.139 565.631 194.569 565.867 194.236 565.547C190.398 561.862 185.17 559.485 179.677 559.735C173.768 559.999 168.109 562.488 163.715 566.201C162.588 565.506 162.477 563.92 163.117 562.808C163.756 561.71 164.952 560.986 166.12 560.375L166.134 560.361Z" fill="#172F35"/>
<path d="M164.284 569.107C167.802 565.172 172.947 562.78 178.217 562.391C183.487 562.001 188.84 563.573 193.22 566.534C194.04 567.091 194.861 567.73 195.222 568.648C195.584 569.566 195.278 570.803 194.36 571.165C190.203 568.119 185.1 566.381 179.941 566.256C174.782 566.131 169.61 567.605 165.285 570.428C164.896 570.678 164.382 570.942 164.02 570.678C163.533 570.316 163.895 569.552 164.298 569.107H164.284Z" fill="#172F35"/>
<path d="M271.296 321.325H225.035C215.483 322.924 203.08 318.266 196.072 324.258C185.059 333.686 182.695 356.462 184.433 369.963C184.753 372.397 185.351 374.927 187.089 376.818C190.649 380.684 197.198 380.489 202.815 380.503C213.16 380.531 223.506 382.464 232.989 386.148C238.634 388.345 244.641 391.224 250.606 389.847C255.097 388.818 258.448 385.564 261.521 382.478C268.696 375.233 275.94 367.794 280.334 358.965C284.728 350.135 285.91 339.526 280.89 330.961C278.638 327.109 275.259 323.897 271.296 321.339V321.325Z" fill="#A6BEBD"/>
<path d="M262.299 336.995C259.379 333.491 255.806 329.779 251.245 329.709C247.838 329.654 244.793 331.698 242.11 333.769C223.366 348.244 209.851 368.364 198.059 388.902C173.156 432.257 154.412 479.143 142.552 527.713C163.631 530.09 184.53 534.095 204.998 539.685C220.279 486.763 235.797 433.258 263.134 385.439C268.459 376.109 274.452 365.945 272.603 355.364C271.379 348.356 266.86 342.432 262.313 336.981L262.299 336.995Z" fill="#A6BEBD"/>
<path d="M186.657 376.151C189.299 379.752 194.194 381.24 198.602 380.531C203.009 379.822 206.917 377.166 209.948 373.898C212.979 370.631 215.259 366.737 217.512 362.886C209.378 370.978 198.101 375.817 186.644 376.151H186.657Z" fill="#172F35"/>
<path d="M149.741 529.047C149.741 529.047 149.616 529.047 149.56 529.019C149.185 528.922 148.949 528.533 149.06 528.143C159.474 489.127 175.548 448.247 198.171 403.154C203.886 391.766 210.366 380.128 221.156 373.926C221.559 373.704 221.795 373.314 221.837 372.869C221.865 372.438 221.698 372.035 221.351 371.771L219.557 370.367C218.695 369.685 218.236 368.628 218.347 367.53C218.444 366.459 219.07 365.528 220.016 365.041C223.603 363.178 227.455 361.899 231.431 361.231C229.026 360.717 226.565 360.564 224.104 360.772C223.353 360.828 222.644 360.397 222.366 359.674C222.087 358.951 222.31 358.158 222.922 357.685C225.508 355.711 228.303 354.029 231.237 352.652L206.028 357.449C202.051 358.2 197.935 358.993 193.791 358.353C189.05 357.63 185.601 355.28 184.1 351.734C183.947 351.373 184.114 350.956 184.475 350.803C184.837 350.65 185.254 350.817 185.407 351.178C187.075 355.113 190.997 356.49 194 356.948C197.907 357.546 201.898 356.782 205.749 356.045L242.013 349.134C242.402 349.065 242.778 349.315 242.847 349.704C242.917 350.093 242.666 350.469 242.277 350.538C235.603 351.804 229.207 354.668 223.77 358.812C223.617 358.923 223.645 359.076 223.687 359.145C223.714 359.229 223.798 359.354 223.979 359.34C226.579 359.118 229.179 359.284 231.723 359.813C232.405 359.952 232.878 360.55 232.864 361.245C232.85 361.94 232.349 362.51 231.654 362.622C227.816 363.261 224.118 364.499 220.655 366.292C220.141 366.557 219.807 367.057 219.751 367.655C219.696 368.267 219.946 368.865 220.433 369.24L222.227 370.645C222.936 371.201 223.311 372.077 223.255 372.967C223.186 373.884 222.671 374.705 221.865 375.164C211.423 381.157 205.054 392.6 199.451 403.794C176.869 448.803 160.837 489.6 150.436 528.519C150.353 528.839 150.061 529.047 149.755 529.047H149.741Z" fill="#E8E8E8"/>
<path d="M445.369 325.496C442.171 315.151 438.709 304.375 431.075 296.685C420.841 286.396 405.268 283.81 390.779 283.142C362.33 281.821 333.158 286.006 307.768 298.896C299.022 303.332 290.609 308.935 284.881 316.889C277.608 326.984 275.398 339.832 274.563 352.249C271.685 395.395 283.129 438.055 287.995 481.034C289.441 493.84 289.914 508.107 281.822 518.16C279.333 521.247 275.898 525.001 277.664 528.561C278.957 531.175 282.35 531.8 285.256 532.078C327.735 536.25 371.799 536.389 411.706 521.233C434.259 512.667 455.881 498.318 466.532 476.682C473.971 461.554 475.431 444.034 473.554 427.278C471.691 410.523 466.671 394.296 461.693 378.195C456.256 360.633 450.82 343.058 445.383 325.496H445.369Z" fill="#1067F5"/>
<path d="M451.667 441.767C444.117 427.056 430.532 414.723 414.208 412.053C399.177 409.592 383.534 415.64 372.299 425.902C361.064 436.164 353.861 450.249 349.537 464.863C345.212 479.463 343.586 494.703 342 509.845C341.319 516.38 341.055 524.055 346.061 528.324C350.538 532.134 357.184 531.425 362.955 530.285C382.463 526.433 401.513 520.19 419.533 511.764C435.106 504.478 451.083 494.16 456.269 477.767C460.024 465.934 457.326 452.808 451.667 441.767Z" fill="#172F35"/>
<path d="M308.671 320.393C306.905 317.376 302.831 316.778 300.231 319.1C292.249 326.191 287.703 337.051 286.465 347.813C284.922 361.231 287.758 374.733 290.581 387.928C300.022 386.413 296.032 387.052 305.473 385.523C304.416 376.387 303.79 367.071 305.612 358.061C307.169 350.344 310.743 342.794 316.444 337.482C318.196 335.855 318.279 333.158 316.694 331.378C313.663 327.985 310.965 324.286 308.671 320.365V320.393Z" fill="white"/>
<path d="M426.778 310.076C426.625 312.147 426.249 314.205 425.665 316.208C425.206 317.793 425.651 319.503 426.861 320.615C433.953 327.123 439.361 335.466 442.337 344.615C443.741 345.06 445.229 343.864 445.674 342.46C446.119 341.055 445.799 339.54 445.466 338.108C443.31 328.527 437.401 316.778 430.365 308.81C429.142 307.434 426.903 308.254 426.75 310.09L426.778 310.076Z" fill="white"/>
<path d="M291.068 465.53C292.362 445.507 288.176 425.596 284.672 405.837C281.168 386.079 278.318 365.722 282.253 346.047C286.188 326.372 298.09 307.225 316.681 299.647C297.117 305.654 285.131 322.84 280.264 342.724C275.398 362.608 277.428 384.869 281.516 404.92C285.604 424.97 290.067 445.104 291.082 465.544L291.068 465.53Z" fill="#FFF5E5"/>
<path d="M398.259 291.207C398.162 285.645 398.093 280.083 398.023 274.521C377.667 272.352 356.893 274.062 337.162 279.513C338.344 283.879 339.554 288.259 340.777 292.653C345.894 319.169 371.548 420.855 371.548 420.855L397.119 414.737L363.762 297.645C375.386 296.672 386.955 294.461 398.273 291.193L398.259 291.207Z" fill="#172F35"/>
<path d="M398.259 289.691C381.545 294.516 364.276 296.838 347.062 295.907C358.561 336.258 372.924 377.194 396.437 413.416C403.334 411.831 410.175 409.717 416.961 407.59C408.951 388.568 404.307 368.17 401.707 347.646C399.274 328.43 398.579 309.061 398.245 289.691H398.259Z" fill="#FFF5E5"/>
<path d="M447.622 256.932C447.622 260.964 445.23 264.245 442.268 264.245C439.307 264.245 436.915 260.978 436.915 256.932C436.915 252.885 439.307 249.618 442.268 249.618C445.23 249.618 447.622 252.885 447.622 256.932Z" fill="#172F35"/>
<path d="M463.723 260.296C463.223 261.492 461.985 262.243 460.72 262.507C459.454 262.772 458.133 262.619 456.854 262.466C450.528 261.701 444.201 260.936 437.86 260.171C438.013 257.849 438.166 255.541 438.319 253.219C444.257 253.553 450.18 253.9 456.117 254.234C458.022 254.345 460.024 254.47 461.665 255.458C463.306 256.445 464.46 258.531 463.723 260.296Z" fill="#172F35"/>
<path d="M440.725 250.216C432.298 250.98 425.819 248.338 419.742 242.457C416.127 238.967 413.36 234.517 409.077 231.889C402.055 227.579 393.101 229.275 384.911 230.123C372.8 231.375 360.091 230.54 348.981 235.504C340.777 239.175 334.256 245.655 327.276 251.314C315.234 261.061 301.385 268.542 286.66 273.353C289.358 276.342 291.374 279.999 292.82 283.907C304.625 281.501 317 281.223 329.097 281.682C347.938 282.391 366.849 284.699 385.592 282.6C393.295 281.738 401.054 280.083 407.812 276.287C413.277 273.228 417.907 268.862 423.232 265.566C428.558 262.257 433.369 260.644 439.362 262.466C443.186 259.768 443.478 253.205 440.738 250.216H440.725Z" fill="#1067F5"/>
<path d="M329.806 258.975C330.543 258.822 331.266 258.558 331.892 258.113C334.937 255.944 334.228 250.966 336.786 248.227L321.728 259.726C324.175 258.503 327.136 259.504 329.82 258.975H329.806Z" fill="#FFC088"/>
<path d="M304.791 293.779C306.307 293.098 307.127 291.401 306.682 289.802C306.293 288.384 306.182 286.896 306.376 285.45C306.599 283.754 307.239 282.113 307.225 280.403C307.211 277.928 305.848 275.661 304.402 273.645C303.331 272.157 302.135 270.683 300.467 269.919C297.964 268.792 295.058 269.557 292.416 270.336C290.706 270.85 288.745 271.601 288.273 273.325C288.064 274.118 288.231 274.966 288.453 275.759C289.385 278.929 291.318 281.807 293.904 283.851C295.517 285.13 297.519 286.312 297.922 288.328C298.214 289.816 297.505 291.346 296.448 292.43C295.392 293.515 294.029 294.238 292.722 294.975C282.043 301.065 273.13 309.909 265.594 319.628C265.399 319.878 265.205 320.142 265.038 320.421C265.01 320.448 264.982 320.476 264.968 320.518C264.537 321.157 264.19 321.894 264.245 322.659C264.342 323.966 265.608 324.898 266.887 325.204C267.833 325.426 269.042 325.287 269.445 324.397C269.724 323.785 269.501 323.076 269.362 322.423C269.223 321.783 269.154 321.116 269.167 320.462C278.901 309.102 291.151 299.911 304.777 293.737L304.791 293.779Z" fill="white"/>
<path d="M411.496 266.429C414.582 261.492 414.249 255.207 413.234 249.479C412.497 245.321 411.357 240.927 408.2 238.132C405.28 235.56 401.206 234.837 397.327 234.448C385.091 233.238 372.618 234.364 360.799 237.771C353.457 239.884 345.726 243.43 342.486 250.355C339.08 257.641 341.235 268.445 347.172 273.868C353.11 279.29 361.23 278.915 369.267 279.096C378.653 279.318 388.845 277.83 397.813 275.036C407.282 272.074 408.631 271.017 411.51 266.429H411.496Z" fill="white"/>
<path d="M400.664 236.631C404.557 240.566 406.824 245.877 407.964 251.3C409.104 256.723 409.188 262.299 409.285 267.833C412.58 259.949 412.58 250.758 409.299 242.888C408.548 241.08 407.603 239.301 406.115 238.007C404.641 236.728 402.527 236.019 400.664 236.617V236.631Z" fill="#172F35"/>
<path d="M441.656 267.847C442.616 268.195 443.672 267.903 444.687 267.944C452.558 268.334 459.051 267.68 465.461 270.711C465.058 270.906 464.835 272.282 465.086 272.658C465.809 273.492 467.366 272.95 467.7 271.893C468.033 270.836 467.394 269.682 466.49 269.043C465.586 268.417 463.862 267.583 462.778 267.374C456.437 266.192 450.694 265.636 444.354 264.454C442.685 263.926 442.157 261.771 442.463 260.046C442.769 258.322 443.631 256.695 443.659 254.943C443.686 252.121 441.058 249.66 438.291 249.52C437.61 249.493 437.082 250.16 437.332 250.814C438.708 254.415 438.333 258.642 436.386 261.979C436.025 262.605 436.219 263.411 436.859 263.745C438.542 264.621 439.696 267.152 441.656 267.847Z" fill="white"/>
<path d="M447.474 219.946C455.672 216.579 459.588 207.204 456.221 199.007C452.854 190.809 443.479 186.893 435.281 190.261C427.084 193.628 423.168 203.002 426.535 211.2C429.902 219.397 439.277 223.313 447.474 219.946Z" fill="white"/>
<path d="M440.28 254.457C439.599 254.457 438.987 253.956 438.875 253.261L435.691 233.461C435.316 231.097 435.511 228.636 436.275 226.369L442.352 208.363C442.602 207.612 443.408 207.222 444.159 207.473C444.91 207.723 445.313 208.529 445.049 209.28L438.973 227.287C438.361 229.122 438.194 231.097 438.5 233.016L441.684 252.816C441.809 253.595 441.281 254.332 440.502 254.457C440.419 254.457 440.349 254.471 440.28 254.471V254.457Z" fill="white"/>
<path d="M260.311 248.199C271.53 248.199 280.626 239.104 280.626 227.885C280.626 216.665 271.53 207.57 260.311 207.57C249.091 207.57 239.996 216.665 239.996 227.885C239.996 239.104 249.091 248.199 260.311 248.199Z" fill="white"/>
<path d="M296.782 275.175C296.143 275.175 295.559 274.73 295.392 274.076L289.19 248.046C288.551 245.349 286.785 243.041 284.352 241.72L262.605 229.859C261.909 229.484 261.659 228.622 262.035 227.926C262.41 227.231 263.286 226.981 263.967 227.356L285.714 239.217C288.857 240.927 291.137 243.917 291.971 247.393L298.173 273.423C298.354 274.187 297.881 274.952 297.116 275.147C297.005 275.175 296.894 275.188 296.782 275.188V275.175Z" fill="white"/>
<path d="M239.634 291.193C240.732 293.877 241.817 296.56 242.915 299.244C258.35 292.736 274.229 287.3 290.414 282.975C289.441 279.972 287.994 277.135 286.131 274.591C270.627 280.125 255.124 285.659 239.634 291.193Z" fill="#172F35"/>
<path d="M280.988 275.397C280.862 273.534 282.267 271.754 284.033 271.142C285.799 270.53 287.815 270.961 289.414 271.949C290.999 272.936 292.209 274.452 293.182 276.051C294.378 278.039 295.268 280.278 295.393 282.6C295.448 283.656 295.045 284.922 294.447 286.145C293.182 288.704 289.789 289.371 287.704 287.425C284.269 284.24 281.21 278.804 280.974 275.397H280.988Z" fill="#172F35"/>
<path d="M245.808 294.613C247.699 298.228 246.879 302.4 243.959 303.943C241.039 305.473 237.131 303.79 235.24 300.161C233.349 296.546 234.17 292.375 237.09 290.831C240.01 289.302 243.917 290.984 245.808 294.613Z" fill="#172F35"/>
<path d="M426.556 436.177C423.803 436.539 413.277 437.915 410.524 438.277C390.209 440.933 378.196 477.224 383.716 519.341C389.236 561.445 410.177 593.426 430.491 590.77C433.245 590.408 443.77 589.032 446.524 588.67C466.838 586.015 478.852 549.723 473.332 507.606C467.812 465.502 446.871 433.521 426.556 436.177Z" fill="#172F35"/>
<path d="M425.876 513.821C429.63 542.451 425.653 566.59 417.004 567.716C408.356 568.842 398.316 546.553 394.562 517.923C390.808 489.293 394.785 465.155 403.433 464.028C412.082 462.902 422.121 485.191 425.876 513.821Z" fill="#A6BEBD"/>
<path d="M458.245 439.139C452.14 430.671 444.256 423.26 434.732 418.991C415.098 410.175 396.675 417.573 387.275 436.344C380.712 449.456 375.08 466.921 375.929 481.688C376.874 498.206 377.236 516.811 380.851 532.954C412.178 529.283 457.132 521.886 484.608 511.624C480.715 486.902 472.886 459.44 458.245 439.139Z" fill="#1067F5"/>
<path d="M400.805 424.539C395.16 427.584 390.752 432.854 388.764 438.958C391.294 435.982 395.799 435.176 399.512 436.4C403.225 437.623 406.172 440.557 408.202 443.894C410.219 447.245 411.414 451 412.596 454.726C418.367 472.969 424.137 491.198 429.922 509.441C430.659 511.791 431.479 514.252 433.287 515.921C436.679 519.063 442.005 518.243 446.51 517.214C444.188 517.714 441.782 516.394 440.309 514.544C438.835 512.695 438.098 510.373 437.389 508.106C429.824 483.592 423.067 458.828 417.115 433.869C416.17 429.906 414.905 425.457 411.303 423.538C408.077 421.814 404.031 422.801 400.819 424.539H400.805Z" fill="#FFF5E5"/>
<path d="M383.771 468.088C382.047 489.474 389.5 510.373 394.561 531.23C395.576 535.387 396.536 539.656 398.886 543.23C401.249 546.789 405.379 549.542 409.606 548.931C414.25 548.263 417.573 543.772 418.422 539.155C419.256 534.539 418.157 529.825 417.059 525.265C411.372 501.641 405.699 478.003 400.012 454.378C396.869 451.166 391.071 452.279 388.04 455.588C385.009 458.897 384.119 463.611 383.757 468.088H383.771Z" fill="#172F35"/>
<path d="M405.032 524.444C405.032 533.9 402.404 541.547 399.15 541.547C395.897 541.547 393.269 533.886 393.269 524.444C393.269 515.003 395.897 507.341 399.15 507.341C402.404 507.341 405.032 515.003 405.032 524.444Z" fill="#A6BEBD"/>
<path d="M410.135 543.355C410.956 544.342 412.471 544.551 413.653 544.05C414.835 543.563 415.711 542.507 416.295 541.352C418.131 537.723 417.338 533.385 416.434 529.436C411.317 507.244 403.433 485.706 399.526 463.277C399.206 461.414 398.873 459.468 397.746 457.938C396.62 456.409 394.423 455.505 392.782 456.45C391.656 457.09 391.072 458.439 391.016 459.746C390.947 461.039 391.308 462.318 391.67 463.569C395.383 476.765 398.275 490.197 400.305 503.754C403.169 504.491 405.005 507.244 406.298 509.914C410.622 518.813 411.887 529.172 409.83 538.85C409.51 540.379 409.148 542.145 410.149 543.355H410.135Z" fill="#A6BEBD"/>
<path d="M395.993 505.534C394.046 507.939 392.6 510.762 391.794 513.751C391.529 510.526 393.226 507.216 395.993 505.534Z" fill="#A6BEBD"/>
<path d="M283.114 289.677C282.127 286.744 280.403 279.207 277.649 277.789C274.215 276.037 270.196 275.842 266.414 275.634C262.41 275.411 258.322 274.883 254.359 275.773C251.383 276.44 249.006 277.747 246.989 280.055C244.848 282.503 243.652 284.408 243.777 287.661C243.903 290.915 249.256 296.574 252.51 296.699C251.55 297.158 251.272 298.479 251.634 299.48C251.995 300.481 252.816 301.232 253.594 301.955C255.346 303.541 257.098 305.14 258.864 306.725C260.157 307.893 261.534 309.102 263.23 309.436C265.399 309.853 267.568 308.755 269.404 307.517C272.699 305.306 276.398 303.763 278.817 300.621C281.71 296.852 284.616 294.183 283.1 289.691L283.114 289.677Z" fill="#FFC088"/>
</g>
<defs>
<clipPath id="clip0_723_2779">
<rect width="500" height="598.821" fill="white"/>
</clipPath>
</defs>
</svg>
