<svg width="561" height="650" viewBox="0 0 561 650" fill="none" xmlns="http://www.w3.org/2000/svg">
<g clip-path="url(#clip0_726_7711)">
<rect width="561" height="650" rx="27" fill="#FFF5E5"/>
<path d="M-219 172.713C-19.8277 287.351 341.311 443.064 192.488 148.814C43.6648 -145.437 6.45898 -219 6.45898 -219" stroke="white" stroke-width="5"/>
<path d="M431.232 332.256C414.735 333.071 397.718 337.708 382.064 332.424C376.556 330.57 371.525 327.548 366.2 325.244C361.478 323.206 356.546 321.717 351.614 320.241C345.543 318.415 339.445 316.588 333.234 315.309C331.548 314.958 329.819 314.663 328.133 314.972C326.447 315.295 324.803 316.363 324.283 318.007C323.496 320.494 325.477 322.939 327.332 324.78C333.389 330.766 339.768 336.443 346.429 341.755C345.909 345.76 341.426 347.488 337.478 348.345C319.744 352.21 300.493 353.193 285.696 363.704C284.685 364.421 283.631 365.292 283.35 366.5C282.984 368.116 284.193 369.76 285.711 370.435C287.228 371.109 288.956 371.053 290.615 370.983C306.297 370.266 321.936 368.678 337.435 366.233C334.906 368.917 332.11 370.983 328.569 371.995C321.655 373.948 314.756 375.901 307.842 377.868C299.032 380.355 289.842 383.082 283.294 389.475C282.746 390.009 282.198 390.655 282.268 391.414C282.366 392.384 283.434 392.904 284.362 393.199C289.8 394.885 295.631 394.745 301.308 394.323C314.208 393.382 326.995 391.119 339.445 387.606C327.627 391.695 316.217 396.431 304.905 401.756C301.238 403.485 297.556 405.396 294.69 408.277C293.664 409.302 292.722 410.904 293.523 412.113C293.917 412.717 294.648 412.998 295.336 413.209C299.074 414.305 303.079 413.883 306.943 413.363C320.067 411.593 333.037 408.74 345.698 404.862C334.161 408.979 323.749 415.949 314.882 424.408C314.25 425.012 313.618 425.659 313.379 426.488C312.957 427.977 314.025 429.565 315.416 430.24C316.807 430.914 318.423 430.872 319.969 430.745C336.719 429.382 351.473 419.771 366.973 413.251C371.835 411.199 376.837 409.443 381.558 407.082C390.13 402.796 397.69 396.613 406.5 392.848C416.744 388.477 428.084 387.62 439.199 386.833L431.218 332.242L431.232 332.256Z" fill="#B77548"/>
<mask id="mask0_726_7711" style="mask-type:luminance" maskUnits="userSpaceOnUse" x="282" y="314" width="158" height="117">
<path d="M431.232 332.256C414.735 333.071 397.718 337.708 382.064 332.424C376.556 330.57 371.525 327.548 366.2 325.244C361.478 323.206 356.546 321.717 351.614 320.241C345.543 318.415 339.445 316.588 333.234 315.309C331.548 314.958 329.819 314.663 328.133 314.972C326.447 315.295 324.803 316.363 324.283 318.007C323.496 320.494 325.477 322.939 327.332 324.78C333.389 330.766 339.768 336.443 346.429 341.755C345.909 345.76 341.426 347.488 337.478 348.345C319.744 352.21 300.493 353.193 285.696 363.704C284.685 364.421 283.631 365.292 283.35 366.5C282.984 368.116 284.193 369.76 285.711 370.435C287.228 371.109 288.956 371.053 290.615 370.983C306.297 370.266 321.936 368.678 337.435 366.233C334.906 368.917 332.11 370.983 328.569 371.995C321.655 373.948 314.756 375.901 307.842 377.868C299.032 380.355 289.842 383.082 283.294 389.475C282.746 390.009 282.198 390.655 282.268 391.414C282.366 392.384 283.434 392.904 284.362 393.199C289.8 394.885 295.631 394.745 301.308 394.323C314.208 393.382 326.995 391.119 339.445 387.606C327.627 391.695 316.217 396.431 304.905 401.756C301.238 403.485 297.556 405.396 294.69 408.277C293.664 409.302 292.722 410.904 293.523 412.113C293.917 412.717 294.648 412.998 295.336 413.209C299.074 414.305 303.079 413.883 306.943 413.363C320.067 411.593 333.037 408.74 345.698 404.862C334.161 408.979 323.749 415.949 314.882 424.408C314.25 425.012 313.618 425.659 313.379 426.488C312.957 427.977 314.025 429.565 315.416 430.24C316.807 430.914 318.423 430.872 319.969 430.745C336.719 429.382 351.473 419.771 366.973 413.251C371.835 411.199 376.837 409.443 381.558 407.082C390.13 402.796 397.69 396.613 406.5 392.848C416.744 388.477 428.084 387.62 439.199 386.833L431.218 332.242L431.232 332.256Z" fill="white"/>
</mask>
<g mask="url(#mask0_726_7711)">
<g style="mix-blend-mode:color-burn" opacity="0.37">
<path d="M411.771 329.137C403.003 349.09 405.518 372.557 416.507 391.274L420.497 376.056C409.368 380.904 397.537 383.644 386.646 389.265C375.756 394.885 366.271 401.602 355.774 407.251C334.949 418.479 312.719 423.804 290.616 431.575C282.03 434.582 282.859 448.381 292.864 448.142C316.71 447.566 340.598 437.828 361.606 427.092C383.991 415.654 403.424 399.972 429.083 396.389C436.868 395.307 438.343 385.724 435.73 380.047C428.409 364.168 424.727 347.741 422.141 330.5C421.439 325.849 413.682 324.837 411.785 329.151L411.771 329.137Z" fill="#C9C9D1"/>
</g>
</g>
<path d="M559.046 289.018C517.003 288.049 478.192 312.949 436.205 315.422C429.558 315.815 420.987 316.883 418.977 323.234C413.174 341.572 414.705 362.116 423.15 379.4C424.795 382.772 426.706 386.06 427.535 389.714C429.052 396.346 427.183 404.37 431.947 409.232C448.767 408.712 464.8 411.649 481.339 414.74C495.279 417.34 509.022 421.218 523.116 422.764C535.58 424.127 548.198 423.635 560.62 422.033L559.032 289.032L559.046 289.018Z" fill="white"/>
<mask id="mask1_726_7711" style="mask-type:luminance" maskUnits="userSpaceOnUse" x="415" y="288" width="146" height="136">
<path d="M559.046 289.018C517.003 288.049 478.192 312.949 436.205 315.422C429.558 315.815 420.987 316.883 418.977 323.234C413.174 341.572 414.705 362.116 423.15 379.4C424.795 382.772 426.706 386.06 427.535 389.714C429.052 396.346 427.183 404.37 431.947 409.232C448.767 408.712 464.8 411.649 481.339 414.74C495.279 417.34 509.022 421.218 523.116 422.764C535.58 424.127 548.198 423.635 560.62 422.033L559.032 289.032L559.046 289.018Z" fill="white"/>
</mask>
<g mask="url(#mask1_726_7711)">
<g opacity="0.25">
<path d="M429.545 409.626C430.894 409.162 434.266 412.633 435.742 413.617C438.313 415.331 441.081 416.554 443.92 417.748C450.622 420.53 457.452 421.921 464.688 422.455C471.307 422.947 477.869 422.048 484.445 421.458C488.239 421.12 491.963 421.345 495.757 421.219C499.551 421.092 503.191 420.193 506.844 420.474C514.081 421.036 521.177 424.465 528.273 425.884C535.369 427.303 542.255 428.104 549.295 428.554C556.897 429.032 564.541 428.835 572.115 428.132C578.86 427.5 587.797 427.767 592.251 422.02C595.034 418.436 595.202 413.279 590.79 410.708C583.933 406.717 575.769 410.132 568.321 410.877C560.874 411.621 553.089 411.888 545.487 411.678C537.323 411.453 529.046 410.792 520.966 409.514C516.947 408.881 512.929 408.108 509.584 405.705C505.917 403.078 503.458 399.762 499.158 397.935C485.359 392.047 469.016 400.872 454.459 398.68C447.629 397.64 443.077 392.342 436.528 390.684C428.954 388.773 422.21 392.651 419.849 399.958C418.064 405.467 423.924 411.537 429.503 409.612L429.545 409.626Z" fill="#C9C9D1"/>
</g>
<g opacity="0.25">
<path d="M425.23 318.078C434.153 315.844 443.005 315.971 452.013 317.769C460.373 319.441 468.256 324.332 476.955 323.601C488.351 322.645 499.986 307.666 488.337 299.108C487.002 298.125 485.231 298.49 483.882 299.108C479.61 301.048 477.011 302.706 474.2 306.486C470.772 311.109 477.179 315.676 481.367 313.652C489.25 309.844 498.159 309.24 506.745 310.547C511.115 311.207 515.007 312.5 519.068 314.172C522.286 315.507 525.518 316.884 529.087 315.914C535.649 314.144 536.057 306.415 541.565 303.577C547.383 300.584 554.324 300.12 560.732 299.783C559.889 293.53 559.032 287.263 558.189 281.01C549.322 282.499 540.104 286.124 531.715 289.3C527.752 290.79 523.902 292.518 519.869 293.825C515.457 295.244 510.918 294.921 506.576 296.424C500.098 298.659 498.37 310.069 506.576 311.362C515.597 312.781 523.466 307.61 531.869 304.799C541.607 301.539 550.643 300.837 560.732 299.797C574.461 298.392 571.917 278.298 558.189 281.024C550.825 282.485 543.195 284.396 537.111 288.991C534.202 291.197 531.996 293.727 530.282 296.958C529.495 298.462 528.904 300.008 528.216 301.539C527.766 302.818 527.19 304.027 526.459 305.165C526.038 304.701 525.546 304.336 524.984 304.041C521.204 302.93 517.48 299.6 513.574 298.223C509.667 296.846 505.072 296.242 500.871 296.228C492.103 296.186 483.236 299.713 476.083 304.603L483.784 310.519L487.283 307.174L481.69 302.916C481.128 314.088 461.216 305.909 454.949 305.249C444.073 304.097 433.239 306.598 423.192 310.715C418.766 312.528 420.311 319.315 425.216 318.078H425.23Z" fill="#C9C9D1"/>
</g>
</g>
<path d="M366.198 240.54H69.2822V517.629H366.198V240.54Z" fill="#C19A5B"/>
<path d="M308.628 215.836H139.232L69.2822 240.54H366.198L308.628 215.836Z" fill="#CEA263"/>
<path d="M109.736 226.248H333.091" stroke="#B78A4E" stroke-width="1.897" stroke-miterlimit="10"/>
<path d="M171.482 255.673H83.5029V290.072H171.482V255.673Z" fill="#FFFAF5"/>
<path d="M102.077 259.931H87.8428V274.165H102.077V259.931Z" fill="#35322F"/>
<path d="M167.799 260.929H109.736V263.402H167.799V260.929Z" fill="#35322F"/>
<path d="M167.799 269.093H109.736V271.566H167.799V269.093Z" fill="#35322F"/>
<path d="M167.799 277.257H109.736V279.73H167.799V277.257Z" fill="#35322F"/>
<path d="M249.989 240.54H185.505V517.629H249.989V240.54Z" fill="#F49422"/>
<mask id="mask2_726_7711" style="mask-type:luminance" maskUnits="userSpaceOnUse" x="185" y="240" width="65" height="278">
<path d="M249.988 240.54H185.504V517.629H249.988V240.54Z" fill="white"/>
</mask>
<g mask="url(#mask2_726_7711)">
<path d="M239.955 224.479C205.05 248.17 171.803 274.236 140.538 302.565C132.669 309.703 144.346 321.324 152.187 314.214C182.426 286.813 214.507 261.632 248.273 238.699C257 232.783 248.765 218.507 239.955 224.479Z" fill="white"/>
<path d="M249.383 303.239C220.113 330.036 190.829 356.833 161.559 383.63C153.718 390.796 165.395 402.431 173.208 395.279C202.478 368.482 231.762 341.685 261.032 314.888C268.873 307.722 257.196 296.087 249.383 303.239Z" fill="white"/>
<path d="M256.858 393.579C223.949 425.659 190.084 456.756 155.32 486.841C147.296 493.783 158.987 505.403 166.969 498.49C201.733 468.419 235.598 437.322 268.507 405.228C276.11 397.822 264.461 386.173 256.858 393.579Z" fill="white"/>
</g>
<g style="mix-blend-mode:color-burn">
<path d="M155.181 226.81C159.354 226.81 159.368 220.318 155.181 220.318C150.993 220.318 150.993 226.81 155.181 226.81Z" fill="#C9C9D1"/>
</g>
<g style="mix-blend-mode:color-burn">
<path d="M259.757 218.759C263.93 218.759 263.944 212.267 259.757 212.267C255.569 212.267 255.569 218.759 259.757 218.759Z" fill="#C9C9D1"/>
</g>
<g style="mix-blend-mode:color-burn">
<path d="M263.196 199.016C224.483 202.529 189.55 222.314 150.879 225.827C146.762 226.206 146.72 232.698 150.879 232.319C189.592 228.806 224.525 209.021 263.196 205.508C267.313 205.129 267.355 198.637 263.196 199.016Z" fill="#C9C9D1"/>
</g>
<g style="mix-blend-mode:color-burn">
<path d="M265.937 211.044C228.756 215.217 195.045 234.497 157.836 238.431C153.733 238.867 153.676 245.359 157.836 244.923C195.087 240.974 228.784 221.695 265.937 217.536C270.04 217.072 270.082 210.58 265.937 211.044Z" fill="#C9C9D1"/>
</g>
<path d="M246.306 203.99C215.167 213.826 184.099 223.902 153.142 234.342C151.765 234.806 152.355 236.998 153.747 236.534C184.689 226.094 215.757 216.019 246.911 206.182C248.302 205.747 247.711 203.555 246.306 203.99Z" fill="white"/>
<path d="M258.729 207.84C230.907 217.255 203.084 226.656 175.275 236.071C173.898 236.534 174.488 238.741 175.879 238.263C203.702 228.848 231.525 219.447 259.333 210.033C260.711 209.569 260.12 207.363 258.729 207.84Z" fill="white"/>
<path d="M267.89 213.658C235.782 224.703 203.617 235.579 171.41 246.329C170.033 246.793 170.623 248.985 172.014 248.521C204.221 237.785 236.386 226.895 268.494 215.85C269.871 215.373 269.281 213.18 267.89 213.658Z" fill="white"/>
<path d="M251.972 215.836H187.488V240.006H251.972V215.836Z" fill="#FFA13B"/>
<g style="mix-blend-mode:color-burn">
<path d="M366.199 240.54V517.629H69.2822V482.12C138.937 482.584 208.607 455.984 257.339 409.416C303.977 364.843 330.563 302.748 330.872 240.54H366.213H366.199Z" fill="#C9C9D1"/>
</g>
<path d="M357.977 488.064H270.068V508.425H357.977V488.064Z" fill="white"/>
<path d="M353.634 491.112H274.143V505.122H353.634V491.112Z" stroke="#35322F" stroke-width="0.702594" stroke-miterlimit="10"/>
<path d="M281.325 492.686H276.562V503.267H281.325V492.686Z" fill="#35322F"/>
<path d="M300.549 492.686H295.785V503.267H300.549V492.686Z" fill="#35322F"/>
<path d="M284.796 492.686H282.421V503.267H284.796V492.686Z" fill="#35322F"/>
<path d="M288.282 492.686H286.609V503.267H288.282V492.686Z" fill="#35322F"/>
<path d="M285.02 492.686H284.317V503.267H285.02V492.686Z" fill="#35322F"/>
<path d="M293.76 492.686H292.565V503.267H293.76V492.686Z" fill="#35322F"/>
<path d="M308.346 492.686H307.151V503.267H308.346V492.686Z" fill="#35322F"/>
<path d="M313.854 492.686H309.091V503.267H313.854V492.686Z" fill="#35322F"/>
<path d="M321.667 492.686H320.473V503.267H321.667V492.686Z" fill="#35322F"/>
<path d="M316.664 492.686H315.47V503.267H316.664V492.686Z" fill="#35322F"/>
<path d="M303.99 492.686H302.796V503.267H303.99V492.686Z" fill="#35322F"/>
<path d="M333.218 492.686H328.454V503.267H333.218V492.686Z" fill="#35322F"/>
<path d="M344.277 492.686H337.026V503.267H344.277V492.686Z" fill="#35322F"/>
<path d="M336.027 492.686H334.833V503.267H336.027V492.686Z" fill="#35322F"/>
<path d="M348.745 492.686H345.611V503.267H348.745V492.686Z" fill="#35322F"/>
<path d="M351.19 492.686H349.63V503.267H351.19V492.686Z" fill="#35322F"/>
<path d="M324.871 492.686H323.677V503.267H324.871V492.686Z" fill="#35322F"/>
<g style="mix-blend-mode:color-burn" opacity="0.38">
<path d="M49.2297 594.66C49.2016 598.061 44.6488 599.972 40.7845 601.138C35.6134 602.684 30.077 604.216 24.6951 604.286C23.0932 604.721 21.4211 605.073 19.6927 605.368C16.7137 605.874 13.6644 606.267 10.7276 606.942C7.80479 607.602 4.99442 608.586 2.60559 610.258C-1.31488 612.998 -3.78801 617.396 -7.48366 620.417C-16.1958 627.514 -28.9549 625.448 -39.8732 628.23C-39.9857 628.258 -40.1262 628.3 -40.2526 628.329C-71.5321 649.238 -142.831 650.713 -143 649.982V620.797C-112.788 626.221 -81.4668 621.429 -51.5785 614.108C-42.5853 611.916 -33.5639 609.457 -25.442 605.031C-18.683 601.363 -12.6969 596.417 -5.9801 592.665C-3.43672 591.232 -0.794968 589.995 1.903 588.927C8.87273 586.103 16.2781 584.374 23.7256 583.334C24.934 583.166 26.1425 583.011 27.365 582.857C31.5665 582.337 35.8383 581.915 40.0117 582.014H40.0398C41.9649 584.613 44.0446 587.128 46.2929 589.545C47.6981 591.077 49.2719 592.735 49.2438 594.674L49.2297 594.66Z" fill="#C9C9D1"/>
</g>
<g filter="url(#filter0_d_726_7711)">
<path d="M353.114 539.1L275.393 555.161L193.779 572.023L226.071 618.24L272.456 606.38L359.606 584.108C359.606 584.108 359.662 584.094 359.704 584.094L367.84 582L353.128 539.086L353.114 539.1Z" fill="#E5E5A8"/>
<mask id="mask3_726_7711" style="mask-type:luminance" maskUnits="userSpaceOnUse" x="193" y="539" width="175" height="80">
<path d="M353.114 539.1L275.393 555.161L193.779 572.023L226.071 618.24L272.456 606.38L359.606 584.108C359.606 584.108 359.662 584.094 359.704 584.094L367.84 582L353.128 539.086L353.114 539.1Z" fill="white"/>
</mask>
<g mask="url(#mask3_726_7711)">
<path d="M192.683 576.942C238.731 567.527 284.906 558.674 331.164 550.37C337.375 549.259 340.888 541.685 339.329 535.994C337.53 529.446 331.193 526.72 324.953 527.83C278.681 536.121 232.52 544.988 186.472 554.402C171.746 557.41 177.985 579.949 192.683 576.942Z" fill="#7E9355"/>
<path d="M180.373 582.421C193.469 602.249 207.62 621.345 222.669 639.725C226.674 644.615 235.049 643.87 239.194 639.725C244.028 634.891 243.213 628.09 239.194 623.2C225.395 606.352 212.552 588.801 200.552 570.632C192.303 558.14 172.054 569.831 180.373 582.421Z" fill="#7E9355"/>
<path d="M229.402 636.831C256.269 630.76 283.038 624.24 309.666 617.186C322.987 613.659 336.266 610.02 349.517 606.254C361.63 602.811 374.094 597.696 386.614 596.179C392.881 595.42 398.305 591.345 398.305 584.487C398.305 578.768 392.923 572.037 386.614 572.796C372.675 574.482 359.41 579.106 345.962 582.956C332.514 586.806 319.446 590.403 306.125 593.944C278.611 601.251 250.957 608.024 223.191 614.291C208.521 617.608 214.732 640.147 229.402 636.831Z" fill="#7E9355"/>
<path d="M202.716 572.066C202.365 574.146 201.494 575.818 199.92 577.223C197.11 579.738 201.255 583.855 204.051 581.354C206.286 579.345 207.845 576.577 208.351 573.612C208.618 572.052 207.944 570.464 206.314 570.014C204.909 569.635 202.983 570.492 202.716 572.052V572.066Z" fill="#7E9355"/>
<path d="M226.477 612.746C226.758 612.69 227.433 613.139 227.756 613.519C228.388 614.278 228.768 615.289 229.133 616.203C229.709 617.664 231.086 618.69 232.73 618.24C234.135 617.861 235.358 616.119 234.768 614.643C233.967 612.591 233.124 610.47 231.452 608.938C229.611 607.28 227.362 606.605 224.931 607.083C223.386 607.392 222.501 609.233 222.894 610.68C223.344 612.296 224.931 613.027 226.491 612.718L226.477 612.746Z" fill="#7E9355"/>
<path d="M291.763 564.407C291.313 563.648 290.555 563.058 289.459 562.946C278.54 561.836 265.809 567.119 261.144 577.686C256.521 588.169 267.959 593.242 276.812 592.061C285.426 590.909 302.386 584.67 302.133 573.766C301.979 567.204 297.229 564.758 291.763 564.407ZM292.803 574.665C292.803 574.665 292.803 574.637 292.789 574.623C292.958 574.595 293.098 574.581 293.196 574.581C293.098 574.581 292.972 574.623 292.817 574.665H292.803Z" fill="#7E9355"/>
</g>
</g>
<g filter="url(#filter1_d_726_7711)">
<path d="M346.453 534.547L268.732 550.608L187.119 567.47L219.41 613.687L265.796 601.827L352.945 579.555C352.945 579.555 353.002 579.541 353.044 579.541L361.18 577.447L346.467 534.533L346.453 534.547Z" fill="#E5E5A8"/>
<mask id="mask4_726_7711" style="mask-type:luminance" maskUnits="userSpaceOnUse" x="187" y="534" width="175" height="80">
<path d="M346.452 534.547L268.732 550.608L187.118 567.47L219.409 613.687L265.795 601.827L352.944 579.555C352.944 579.555 353.001 579.541 353.043 579.541L361.179 577.447L346.466 534.533L346.452 534.547Z" fill="white"/>
</mask>
<g mask="url(#mask4_726_7711)">
<path d="M186.038 572.389C232.086 562.974 278.26 554.121 324.519 545.817C330.73 544.706 334.243 537.132 332.683 531.441C330.884 524.893 324.547 522.167 318.308 523.277C272.035 531.568 225.875 540.435 179.827 549.849C165.1 552.857 171.339 575.396 186.038 572.389Z" fill="#7E9355"/>
<path d="M173.713 577.855C186.809 597.682 200.959 616.779 216.009 635.159C220.014 640.049 228.389 639.304 232.534 635.159C237.368 630.325 236.553 623.524 232.534 618.634C218.735 601.786 205.892 584.235 193.891 566.066C185.643 553.574 165.394 565.265 173.713 577.855Z" fill="#7E9355"/>
<path d="M222.755 632.264C249.622 626.193 276.391 619.673 303.02 612.619C316.341 609.092 329.62 605.453 342.871 601.687C354.983 598.244 367.448 593.129 379.968 591.612C386.235 590.853 391.659 586.778 391.659 579.92C391.659 574.201 386.277 567.47 379.968 568.229C366.028 569.916 352.763 574.539 339.316 578.389C325.868 582.239 312.8 585.836 299.479 589.377C271.965 596.684 244.311 603.457 216.544 609.724C201.874 613.041 208.085 635.58 222.755 632.264Z" fill="#7E9355"/>
<path d="M196.057 567.513C195.706 569.593 194.835 571.265 193.261 572.67C190.451 575.185 194.596 579.302 197.392 576.801C199.626 574.792 201.186 572.024 201.692 569.059C201.959 567.499 201.285 565.911 199.655 565.461C198.249 565.082 196.324 565.939 196.057 567.499V567.513Z" fill="#7E9355"/>
<path d="M219.819 608.193C220.1 608.137 220.775 608.587 221.098 608.966C221.73 609.725 222.109 610.736 222.475 611.65C223.051 613.111 224.428 614.137 226.072 613.687C227.463 613.308 228.7 611.566 228.11 610.09C227.309 608.038 226.466 605.917 224.793 604.385C222.953 602.727 220.704 602.052 218.273 602.53C216.728 602.839 215.842 604.68 216.236 606.127C216.685 607.743 218.273 608.474 219.833 608.165L219.819 608.193Z" fill="#7E9355"/>
<path d="M285.104 559.855C284.654 559.096 283.895 558.506 282.799 558.393C271.881 557.283 259.136 562.567 254.485 573.134C249.862 583.616 261.3 588.689 270.153 587.509C278.767 586.357 295.727 580.118 295.474 569.213C295.32 562.651 290.57 560.206 285.104 559.855ZM286.144 570.113C286.144 570.113 286.144 570.085 286.13 570.07C286.298 570.042 286.439 570.028 286.537 570.028C286.439 570.028 286.312 570.07 286.158 570.113H286.144Z" fill="#7E9355"/>
</g>
</g>
<g filter="url(#filter2_d_726_7711)">
<path d="M349.881 537.891L270.628 542.106L187.413 546.519L212.397 597.049L260.033 592.286L349.53 583.349C349.53 583.349 349.6 583.349 349.628 583.349L357.975 582.506L349.867 537.877L349.881 537.891Z" fill="#E5E5A8"/>
<mask id="mask5_726_7711" style="mask-type:luminance" maskUnits="userSpaceOnUse" x="187" y="537" width="171" height="61">
<path d="M349.88 537.891L270.627 542.106L187.412 546.519L212.396 597.049L260.032 592.286L349.529 583.349C349.529 583.349 349.599 583.349 349.627 583.349L357.974 582.506L349.866 537.877L349.88 537.891Z" fill="white"/>
</mask>
<g mask="url(#mask5_726_7711)">
<path d="M184.209 551.311C231.156 548.908 278.118 547.081 325.107 545.831C340.115 545.423 340.171 522.055 325.107 522.462C278.118 523.713 231.142 525.554 184.209 527.943C169.244 528.701 169.145 552.084 184.209 551.311Z" fill="#7E9355"/>
<path d="M173.362 556.37C182.917 577.04 193.512 597.177 205.133 616.765C212.806 629.693 233.012 617.945 225.312 604.975C213.691 585.387 203.096 565.251 193.541 544.58C190.899 538.847 182.622 537.414 177.55 540.393C171.676 543.836 170.692 550.637 173.362 556.384V556.37Z" fill="#7E9355"/>
<path d="M211.527 616.02C239.462 614.025 267.369 611.538 295.205 608.503C308.892 607.013 322.579 605.397 336.237 603.641C349.895 601.884 362.865 599.074 376.186 599.467C391.236 599.917 391.222 576.549 376.186 576.099C363.301 575.719 350.345 578.46 337.6 580.09C323.478 581.902 309.342 583.574 295.205 585.12C267.369 588.155 239.462 590.643 211.527 592.638C196.603 593.706 196.491 617.088 211.527 616.006V616.02Z" fill="#7E9355"/>
<path d="M196.082 548.331C195.548 549.975 194.424 551.465 192.949 552.435C191.628 553.292 191.08 555.02 191.895 556.425C192.668 557.732 194.565 558.336 195.885 557.479C198.682 555.652 200.663 553.067 201.703 549.891C202.195 548.388 201.127 546.701 199.665 546.294C198.078 545.858 196.56 546.828 196.068 548.331H196.082Z" fill="#7E9355"/>
<path d="M213.283 591.724C215.054 591.654 215.489 594.534 215.812 595.968C216.164 597.513 217.934 598.413 219.41 598.005C220.984 597.569 221.799 595.953 221.447 594.408C220.506 590.305 218.215 585.667 213.283 585.878C211.709 585.949 210.36 587.171 210.36 588.801C210.36 590.333 211.695 591.794 213.283 591.724Z" fill="#7E9355"/>
<path d="M285.425 553.699C285.087 552.884 284.427 552.182 283.359 551.915C272.722 549.175 259.344 552.491 253.147 562.243C247.007 571.911 257.56 578.655 266.483 578.81C275.167 578.965 292.872 575.339 294.263 564.519C295.106 558.013 290.764 554.866 285.41 553.713L285.425 553.699ZM284.919 563.999C284.919 563.999 284.919 563.971 284.919 563.957C285.087 563.957 285.228 563.957 285.326 563.971C285.228 563.971 285.101 563.971 284.933 563.999H284.919Z" fill="#7E9355"/>
</g>
</g>
<path d="M484.066 585.71C442.641 590.262 407.736 602.839 366.198 606.211C341.72 608.193 315.626 616.371 293.297 606.197C291.611 605.439 289.883 604.595 288.744 603.148C288.421 602.741 288.182 602.277 288.014 601.799L359.453 583.546C359.453 583.546 359.51 583.546 359.524 583.546C359.552 582.45 359.58 581.368 359.594 580.272C341.818 578.079 324.043 575.887 306.267 573.709C302.614 573.246 298.848 572.768 295.602 571.011C292.356 569.255 289.714 565.897 289.911 562.201C289.953 561.358 290.121 560.571 290.417 559.826C292.075 555.526 297.499 553.011 302.304 551.76C319.588 547.264 338.038 547.376 354.606 540.716C360.086 538.509 365.257 535.601 370.667 533.212C392.784 523.446 418.879 523.052 441.292 532.158C448.528 535.095 455.934 528.462 462.524 524.289C464.056 523.333 465.939 522.251 467.54 523.038C467.597 522.87 468.665 521.844 468.918 521.703C469.199 521.535 469.55 521.675 469.831 521.83C480.286 527.184 485.583 539.367 486.764 551.044C487.944 562.735 484.318 574.004 484.037 585.738L484.066 585.71Z" fill="#B77548"/>
<mask id="mask6_726_7711" style="mask-type:luminance" maskUnits="userSpaceOnUse" x="288" y="521" width="199" height="91">
<path d="M484.066 585.71C442.641 590.263 407.736 602.839 366.198 606.211C341.72 608.193 315.626 616.371 293.297 606.197C291.611 605.439 289.883 604.595 288.744 603.148C288.421 602.741 288.182 602.277 288.014 601.799L359.453 583.546C359.453 583.546 359.51 583.546 359.524 583.546C359.552 582.45 359.58 581.368 359.594 580.272C341.818 578.08 324.043 575.887 306.267 573.709C302.614 573.246 298.848 572.768 295.602 571.011C292.356 569.255 289.714 565.897 289.911 562.201C289.953 561.358 290.121 560.571 290.417 559.826C292.075 555.526 297.499 553.011 302.304 551.76C319.588 547.264 338.038 547.376 354.606 540.716C360.086 538.509 365.257 535.601 370.667 533.212C392.784 523.446 418.879 523.052 441.292 532.158C448.528 535.095 455.934 528.462 462.524 524.289C464.056 523.333 465.939 522.251 467.54 523.038C467.597 522.87 468.665 521.844 468.918 521.703C469.199 521.535 469.55 521.675 469.831 521.83C480.286 527.184 485.583 539.367 486.764 551.044C487.944 562.735 484.318 574.005 484.037 585.738L484.066 585.71Z" fill="white"/>
</mask>
<g mask="url(#mask6_726_7711)">
<g style="mix-blend-mode:color-burn">
<path d="M356.614 580.496C348.071 583.054 339.232 584.417 330.548 586.454C322.285 588.394 314.065 590.473 305.676 591.836C288.772 594.605 271.614 594.97 256.031 602.417C251.871 604.399 252.799 611.621 257.352 612.479C266.204 614.151 273.343 613.898 282.209 612.113C291.076 610.329 299.479 607.912 308.009 605.284C316.103 602.797 324.253 600.45 332.276 597.71C341.241 594.633 349.602 590.305 358.342 586.721C362.08 585.19 360.731 579.26 356.628 580.482L356.614 580.496Z" fill="#C9C9D1"/>
</g>
<g style="mix-blend-mode:color-burn">
<path d="M311.634 557.916C312.056 559.813 312.266 561.71 312.196 563.649C312.14 565.251 311.746 566.81 311.999 568.398C312.126 569.171 313.166 569.129 313.531 568.595C315.569 565.602 314.739 560.571 313.995 557.255C313.657 555.709 311.283 556.37 311.634 557.902V557.916Z" fill="#C9C9D1"/>
</g>
<g style="mix-blend-mode:color-burn">
<path d="M316.961 557.971C318.071 560.796 317.523 563.311 316.989 566.178C316.835 567.021 317.833 567.766 318.521 567.063C321.022 564.477 320.896 560.402 319.589 557.241C318.929 555.653 316.315 556.327 316.961 557.971Z" fill="#C9C9D1"/>
</g>
<g style="mix-blend-mode:color-burn">
<path d="M360.113 610.498C384.086 607.491 407.805 601.968 431.412 596.811C443.188 594.24 454.977 591.767 466.753 589.265C478.528 586.764 492.96 585.373 504.665 580.694C507.7 579.485 507.602 574.539 503.836 574.609C491.779 574.82 479.217 578.881 467.455 581.368C455.694 583.855 443.932 586.525 432.199 589.223C407.903 594.788 383.327 600.535 359.958 609.275C359.354 609.5 359.368 610.61 360.127 610.512L360.113 610.498Z" fill="#C9C9D1"/>
</g>
<g style="mix-blend-mode:color-burn">
<path d="M426.002 524.234C428.447 524.234 428.447 520.426 426.002 520.426C423.557 520.426 423.557 524.234 426.002 524.234Z" fill="#C9C9D1"/>
</g>
<g style="mix-blend-mode:color-burn">
<path d="M424.652 523.025C429.177 526.79 434.531 529.713 439.688 532.538C443.046 534.364 446.264 536.009 450.199 535.713C455.103 535.348 460.035 532.06 464.349 529.938C470.56 526.889 477.333 524.121 482.94 520.06C485.82 517.98 484.246 512.5 480.326 513.849C471.473 516.898 463.155 522.406 454.962 526.903C444.915 532.411 435.669 523.516 425.861 520.945C424.737 520.65 423.655 522.196 424.652 523.025Z" fill="#C9C9D1"/>
</g>
</g>
<path d="M305.101 566.599C305.087 567.217 305.03 567.92 304.553 568.327C304.201 568.622 303.71 568.679 303.246 568.721C300.028 568.946 296.796 568.791 293.62 568.229C292.665 568.06 291.667 567.836 290.908 567.217C289.573 566.135 289.363 564.196 289.433 562.482C289.489 560.753 289.812 558.842 291.147 557.746C292.103 556.959 293.395 556.735 294.632 556.552C296.417 556.271 304.342 554.051 305.438 555.287C306.07 555.99 305.325 560.093 305.283 561.091C305.227 562.931 305.101 564.772 305.101 566.613V566.599Z" fill="#FF9E97"/>
<path d="M538.291 484.789C520.501 491.281 506.126 505.108 488.378 511.726C480.987 514.481 468.565 514.354 466.401 521.928C464.167 529.741 468.79 537.638 471.151 545.409C477.165 565.292 468.186 586.693 470.448 607.335C470.701 609.626 471.643 612.45 473.947 612.633C485.357 603.752 500.294 600.886 514.698 599.495C529.101 598.103 543.841 597.836 557.514 593.115L558.947 478.494C552.202 480.981 545.078 482.33 538.319 484.789H538.291Z" fill="white"/>
<mask id="mask7_726_7711" style="mask-type:luminance" maskUnits="userSpaceOnUse" x="465" y="478" width="94" height="135">
<path d="M538.292 484.789C520.502 491.281 506.127 505.108 488.379 511.726C480.988 514.481 468.566 514.354 466.402 521.928C464.168 529.741 468.791 537.638 471.152 545.409C477.166 565.292 468.187 586.693 470.449 607.335C470.702 609.626 471.644 612.45 473.948 612.633C485.358 603.752 500.295 600.886 514.699 599.495C529.102 598.103 543.842 597.836 557.515 593.115L558.948 478.494C552.203 480.981 545.079 482.33 538.32 484.789H538.292Z" fill="white"/>
</mask>
<g mask="url(#mask7_726_7711)">
<g opacity="0.25">
<path d="M480.481 499.445C482.068 510.181 489.038 524.401 501.713 524.401C514.388 524.401 519.081 511.459 527.358 504.729C531.334 501.497 536.941 501.454 541.634 499.656C546.988 497.59 551.611 494.583 556.206 491.168C565.579 484.199 575.724 478.578 585.996 473.056C590.675 470.54 589.945 462.32 584.45 461.252C575.64 459.552 566.661 460.212 558.525 464.147C550.824 467.87 544.698 473.997 537.138 477.918C529.578 481.838 521.217 481.81 514.121 487.346C510.931 489.834 508.303 492.728 505.774 495.876C504.186 497.857 501.348 502.902 498.86 503.464H504.523C500.687 502.747 496.851 496.396 495.024 493.29C490.134 484.972 479.202 490.958 480.452 499.431L480.481 499.445Z" fill="#C9C9D1"/>
</g>
<g opacity="0.25">
<path d="M477.026 619.237C480.412 611.199 494.619 612.815 501.757 612.408C513.083 611.747 524.38 610.722 535.622 609.162C546.779 607.616 557.009 603.682 567.534 599.817C572.55 597.976 577.595 596.22 582.569 594.295C588.541 591.976 592.532 589.264 597.436 585.203C602.129 581.325 598.265 573.048 592.504 573.287C579.112 573.821 567.464 579.85 555.084 584.74C542.957 589.531 531.182 591.78 518.31 593.41C501.504 595.545 473.948 596.866 467.878 616.736C466.037 622.75 474.735 624.689 477.026 619.251V619.237Z" fill="#C9C9D1"/>
</g>
</g>
</g>
<defs>
<filter id="filter0_d_726_7711" x="193.779" y="539.086" width="174.061" height="80.714" filterUnits="userSpaceOnUse" color-interpolation-filters="sRGB">
<feFlood flood-opacity="0" result="BackgroundImageFix"/>
<feColorMatrix in="SourceAlpha" type="matrix" values="0 0 0 0 0 0 0 0 0 0 0 0 0 0 0 0 0 0 127 0" result="hardAlpha"/>
<feOffset dy="1.55976"/>
<feColorMatrix type="matrix" values="0 0 0 0 0.717647 0 0 0 0 0.717647 0 0 0 0 0.717647 0 0 0 0.75 0"/>
<feBlend mode="normal" in2="BackgroundImageFix" result="effect1_dropShadow_726_7711"/>
<feBlend mode="normal" in="SourceGraphic" in2="effect1_dropShadow_726_7711" result="shape"/>
</filter>
<filter id="filter1_d_726_7711" x="187.118" y="534.533" width="174.062" height="80.714" filterUnits="userSpaceOnUse" color-interpolation-filters="sRGB">
<feFlood flood-opacity="0" result="BackgroundImageFix"/>
<feColorMatrix in="SourceAlpha" type="matrix" values="0 0 0 0 0 0 0 0 0 0 0 0 0 0 0 0 0 0 127 0" result="hardAlpha"/>
<feOffset dy="1.55976"/>
<feColorMatrix type="matrix" values="0 0 0 0 0.717647 0 0 0 0 0.717647 0 0 0 0 0.717647 0 0 0 0.75 0"/>
<feBlend mode="normal" in2="BackgroundImageFix" result="effect1_dropShadow_726_7711"/>
<feBlend mode="normal" in="SourceGraphic" in2="effect1_dropShadow_726_7711" result="shape"/>
</filter>
<filter id="filter2_d_726_7711" x="187.412" y="537.877" width="170.562" height="60.7323" filterUnits="userSpaceOnUse" color-interpolation-filters="sRGB">
<feFlood flood-opacity="0" result="BackgroundImageFix"/>
<feColorMatrix in="SourceAlpha" type="matrix" values="0 0 0 0 0 0 0 0 0 0 0 0 0 0 0 0 0 0 127 0" result="hardAlpha"/>
<feOffset dy="1.55976"/>
<feColorMatrix type="matrix" values="0 0 0 0 0.717647 0 0 0 0 0.717647 0 0 0 0 0.717647 0 0 0 0.75 0"/>
<feBlend mode="normal" in2="BackgroundImageFix" result="effect1_dropShadow_726_7711"/>
<feBlend mode="normal" in="SourceGraphic" in2="effect1_dropShadow_726_7711" result="shape"/>
</filter>
<clipPath id="clip0_726_7711">
<rect width="561" height="650" rx="27" fill="white"/>
</clipPath>
</defs>
</svg>
