<?xml version="1.0" encoding="utf-8"?>
<!-- Generator: Adobe Illustrator 27.5.0, SVG Export Plug-In . SVG Version: 6.00 Build 0)  -->
<svg version="1.1" xmlns="http://www.w3.org/2000/svg" xmlns:xlink="http://www.w3.org/1999/xlink" x="0px" y="0px"
	 viewBox="0 0 500 500" style="enable-background:new 0 0 500 500;" xml:space="preserve">
<g id="Background_Complete">
	<g>
		<rect y="382.398" style="fill:#EBEBEB;" width="500" height="0.25"/>
		<rect x="416.779" y="398.494" style="fill:#EBEBEB;" width="33.122" height="0.25"/>
		<rect x="322.527" y="401.208" style="fill:#EBEBEB;" width="8.693" height="0.25"/>
		<rect x="396.586" y="389.208" style="fill:#EBEBEB;" width="19.192" height="0.25"/>
		<rect x="52.459" y="390.888" style="fill:#EBEBEB;" width="43.193" height="0.25"/>
		<rect x="104.556" y="390.888" style="fill:#EBEBEB;" width="6.333" height="0.25"/>
		<rect x="131.471" y="395.111" style="fill:#EBEBEB;" width="93.676" height="0.25"/>
		<path style="fill:#EBEBEB;" d="M237.014,337.8H43.915c-3.147,0-5.708-2.561-5.708-5.708V60.66c0-3.147,2.561-5.708,5.708-5.708
			h193.099c3.146,0,5.707,2.561,5.707,5.708v271.432C242.721,335.239,240.16,337.8,237.014,337.8z M43.915,55.203
			c-3.01,0-5.458,2.448-5.458,5.458v271.432c0,3.01,2.448,5.458,5.458,5.458h193.099c3.009,0,5.457-2.448,5.457-5.458V60.66
			c0-3.009-2.448-5.458-5.457-5.458H43.915z"/>
		<path style="fill:#EBEBEB;" d="M453.31,337.8H260.212c-3.147,0-5.707-2.561-5.707-5.708V60.66c0-3.147,2.561-5.708,5.707-5.708
			H453.31c3.148,0,5.708,2.561,5.708,5.708v271.432C459.019,335.239,456.458,337.8,453.31,337.8z M260.212,55.203
			c-3.009,0-5.457,2.448-5.457,5.458v271.432c0,3.01,2.448,5.458,5.457,5.458H453.31c3.01,0,5.458-2.448,5.458-5.458V60.66
			c0-3.009-2.448-5.458-5.458-5.458H260.212z"/>
	</g>
	<g>
		<g>
			
				<rect x="-9.102" y="151.547" transform="matrix(-1.836970e-16 1 -1 -1.836970e-16 373.2961 90.769)" style="fill:#E6E6E6;" width="300.732" height="160.971"/>
			
				<rect x="213.592" y="141.749" transform="matrix(-1.836970e-16 1 -1 -1.836970e-16 367.2372 -79.9999)" style="fill:#E0E0E0;" width="20.054" height="3.739"/>
			
				<rect x="213.592" y="323.859" transform="matrix(-1.836970e-16 1 -1 -1.836970e-16 549.3467 102.1096)" style="fill:#E0E0E0;" width="20.054" height="3.739"/>
			
				<rect x="123.49" y="183.665" transform="matrix(-1.836970e-16 1 -1 -1.836970e-16 505.8885 -41.8233)" style="fill:#F0F0F0;" width="300.732" height="96.736"/>
			
				<rect x="136.04" y="196.215" transform="matrix(-1.836970e-16 1 -1 -1.836970e-16 505.8885 -41.8234)" style="fill:none;stroke:#E6E6E6;stroke-width:1.0459;stroke-miterlimit:10;" width="275.632" height="71.635"/>
			
				<rect x="174.344" y="229.547" transform="matrix(-1.836970e-16 1 -1 -1.836970e-16 556.7422 -92.6771)" style="fill:#E6E6E6;" width="300.732" height="4.972"/>
			<rect x="71.237" y="92.125" style="fill:#F5F5F5;" width="140.054" height="290.273"/>
			<path style="fill:#FFFFFF;" d="M124.822,146.247c-0.043-5.131-4.214-9.277-9.354-9.277c-1.239,0-2.42,0.243-3.502,0.68
				c-1.837-3.759-5.697-6.348-10.162-6.348c-5.4,0-9.913,3.787-11.035,8.85c-5.079,0.327-9.098,4.547-9.098,9.708
				c0,5.374,4.357,9.731,9.731,9.731h30.965c3.81,0,6.898-3.088,6.898-6.898C129.264,149.749,127.419,147.237,124.822,146.247z"/>
			<path style="fill:#FFFFFF;" d="M160.434,122.655c0.036-4.325,3.552-7.82,7.886-7.82c1.044,0,2.04,0.205,2.952,0.573
				c1.549-3.169,4.802-5.351,8.567-5.351c4.552,0,8.357,3.192,9.303,7.46c4.281,0.275,7.669,3.833,7.669,8.184
				c0,4.531-3.673,8.203-8.203,8.203h-26.103c-3.211,0-5.815-2.603-5.815-5.815C156.69,125.607,158.245,123.489,160.434,122.655z"/>
			<rect x="71.237" y="325.728" style="fill:#FAFAFA;" width="140.054" height="56.67"/>
			<path style="fill:#EBEBEB;" d="M168.619,286.926c-10.391,9.094-33.04,38.802-50.063,15.455
				c-17.022-23.347-47.319-30.911-47.319-30.911v54.258h140.054v-41.708C211.291,284.021,186.28,271.471,168.619,286.926z"/>
			<path style="fill:#E0E0E0;" d="M316.023,218.927c0,2.247-1.822,4.069-4.069,4.069s-4.069-1.822-4.069-4.069
				c0-2.248,1.822-4.07,4.069-4.07S316.023,216.679,316.023,218.927z"/>
			<path style="fill:#E6E6E6;" d="M312.791,218.927c0,3.696-2.997,6.693-6.693,6.693c-3.696,0-6.693-2.997-6.693-6.693
				c0-3.697,2.997-6.693,6.693-6.693C309.795,212.234,312.791,215.23,312.791,218.927z"/>
		</g>
		<g>
			<g>
				<path style="fill:#F0F0F0;" d="M415.754,275.497c1.92-44.404,3.256-116.459,2.219-140.559c-0.036-0.837-0.235-1.59-0.539-2.085
					l0,0c-0.895-1.456-2.148,0.013-2.111,2.483c0.183,11.941,0.393,41.787-0.746,93.276c-0.567,25.63-1.384,43.183-0.823,46.885
					H415.754z"/>
				<path style="fill:#F0F0F0;" d="M421.665,183.564c4.586-12.028,13.954-20.58,23.5-20.535
					c3.748,0.018-11.402,13.991-17.702,29.412c-4.895,11.979-10.413,32.131-12.289,43.317
					C416.388,212.222,417.079,195.592,421.665,183.564z"/>
				<path style="fill:#F0F0F0;" d="M412.076,183.442c-4.539-13.227-15.018-23.398-26.354-24.548
					c-4.451-0.451,12.483,16.147,18.802,33.159c4.909,13.215,9.943,35.106,11.328,47.107
					C416.184,214.251,416.615,196.669,412.076,183.442z"/>
				<path style="fill:#F0F0F0;" d="M421.665,202.88c4.586-12.028,13.954-20.58,23.5-20.535c3.748,0.018-11.402,13.991-17.702,29.412
					c-4.895,11.979-10.413,32.131-12.289,43.317C416.388,231.538,417.079,214.907,421.665,202.88z"/>
				<path style="fill:#F0F0F0;" d="M412.076,203.838c-4.539-13.227-15.018-23.398-26.354-24.548
					c-4.451-0.451,12.483,16.147,18.802,33.159c4.909,13.215,9.943,35.106,11.328,47.107
					C416.184,234.646,416.615,217.065,412.076,203.838z"/>
				<path style="fill:#F0F0F0;" d="M420.837,138.126c3.004-8.932,9.436-15.911,16.151-16.861c2.637-0.373-7.762,11.014-11.91,22.509
					c-3.222,8.93-6.732,23.672-7.846,31.733C417.653,158.827,417.833,147.058,420.837,138.126z"/>
				<path style="fill:#F0F0F0;" d="M414.864,141.905c-3.199-9.322-10.584-16.49-18.573-17.3c-3.137-0.318,8.798,11.38,13.251,23.369
					c3.46,9.314,7.007,24.741,7.983,33.199C417.759,163.617,418.063,151.227,414.864,141.905z"/>
				<path style="fill:#F0F0F0;" d="M421.87,149.72c3.883-10.185,11.816-17.426,19.899-17.389c3.173,0.015-9.655,11.847-14.99,24.905
					c-4.145,10.144-8.817,27.208-10.406,36.679C417.401,173.987,417.987,159.905,421.87,149.72z"/>
				<path style="fill:#F0F0F0;" d="M413.98,155.141c-3.844-11.201-12.716-19.813-22.316-20.787
					c-3.769-0.382,10.57,13.673,15.921,28.078c4.157,11.19,8.419,29.726,9.592,39.889
					C417.458,181.229,417.824,166.342,413.98,155.141z"/>
				<path style="fill:#F0F0F0;" d="M422.129,163.848c4.19-10.988,12.748-18.801,21.468-18.76
					c3.424,0.016-10.416,12.782-16.172,26.87c-4.471,10.944-9.513,29.354-11.227,39.573
					C417.307,190.029,417.939,174.836,422.129,163.848z"/>
				<path style="fill:#F0F0F0;" d="M413.376,169.866c-4.268-12.437-14.12-22-24.779-23.081
					c-4.185-0.424,11.737,15.182,17.678,31.177c4.616,12.425,9.349,33.007,10.651,44.292
					C417.238,198.833,417.644,182.303,413.376,169.866z"/>
			</g>
			<g>
				<path style="fill:#E6E6E6;" d="M403.054,268.932l0.677,10.906c0.074,2.445,1.133,4.356,2.414,4.356h17.039
					c1.281,0,2.34-1.911,2.414-4.356l0.677-10.906c0.08-2.653-1.024-4.888-2.414-4.888h-18.393
					C404.077,264.044,402.974,266.279,403.054,268.932z"/>
				<path style="fill:#F5F5F5;" d="M402.035,271.239h25.257c0.371,0,0.682-0.533,0.723-1.238l0.6-10.392
					c0.047-0.823-0.29-1.543-0.723-1.543h-26.457c-0.433,0-0.771,0.72-0.723,1.543l0.6,10.392
					C401.353,270.706,401.664,271.239,402.035,271.239z"/>
			</g>
		</g>
		<g>
			<g>
				<rect x="450.224" y="284.194" style="fill:#E6E6E6;" width="18.109" height="98.204"/>
				<polygon style="fill:#F0F0F0;" points="462.904,382.398 468.333,382.398 468.333,363.606 457.212,363.606 				"/>
				<rect x="347.467" y="284.194" style="fill:#E6E6E6;" width="18.11" height="98.204"/>
				<rect x="360.838" y="284.194" style="fill:#F0F0F0;" width="107.495" height="86.672"/>
				<polygon style="fill:#F0F0F0;" points="366.267,382.398 360.838,382.398 360.838,363.606 371.959,363.606 				"/>
				<rect x="365.05" y="290.294" style="fill:#E6E6E6;" width="99.072" height="34.681"/>
				<path style="fill:#F0F0F0;" d="M431.595,301.072h-30.371c-5.297,0-10.361-4.279-14.004-11.832h0h58.379l0,0
					C441.956,296.793,436.892,301.072,431.595,301.072z"/>
				<rect x="365.05" y="330.581" style="fill:#E6E6E6;" width="99.072" height="34.681"/>
				<path style="fill:#F0F0F0;" d="M431.595,341.358h-30.371c-5.297,0-10.361-4.279-14.004-11.832h0h58.379l0,0
					C441.956,337.079,436.892,341.358,431.595,341.358z"/>
			</g>
		</g>
	</g>
</g>
<g id="Background_Simple" style="display:none;">
	<g style="display:inline;">
		<path style="fill:#407BFF;" d="M285.621,173.563c41.403,6.129,75.541-1.098,107.757,36.337
			c30.466,35.402,25.477,69.259-0.295,100.083c-67.323,80.523-148.035-8.358-240.819-16.105
			c-80.856-6.751-114.759-136.507-49.785-187.93c20.943-16.575,63.335-33.72,90.852-15.907
			C231.893,115.004,228.713,165.138,285.621,173.563z"/>
		<path style="opacity:0.9;fill:#FFFFFF;" d="M285.621,173.563c41.403,6.129,75.541-1.098,107.757,36.337
			c30.466,35.402,25.477,69.259-0.295,100.083c-67.323,80.523-148.035-8.358-240.819-16.105
			c-80.856-6.751-114.759-136.507-49.785-187.93c20.943-16.575,63.335-33.72,90.852-15.907
			C231.893,115.004,228.713,165.138,285.621,173.563z"/>
	</g>
</g>
<g id="Shadow_1_">
	<ellipse id="_x3C_Path_x3E__279_" style="fill:#F5F5F5;" cx="250" cy="416.238" rx="193.889" ry="11.323"/>
</g>
<g id="Character_2">
	<g>
		<path style="fill:#263238;" d="M337.85,125.613c-0.12,0.592-0.531,1.007-0.918,0.929c-0.387-0.079-0.603-0.622-0.482-1.214
			c0.12-0.592,0.531-1.007,0.918-0.929C337.755,124.479,337.971,125.022,337.85,125.613z"/>
		<path style="fill:#ED893E;" d="M337.374,126.632c0,0-2.039,3.14-3.855,4.486c0.848,1.19,2.718,1.105,2.718,1.105L337.374,126.632z
			"/>
		<path style="fill:#263238;" d="M340.684,122.768c0.086,0,0.173-0.031,0.241-0.094c0.144-0.133,0.153-0.357,0.019-0.501
			c-1.331-1.441-2.947-1.185-3.016-1.173c-0.193,0.033-0.323,0.216-0.29,0.409c0.033,0.193,0.218,0.321,0.408,0.29l0,0
			c0.053-0.008,1.316-0.194,2.378,0.955C340.494,122.73,340.589,122.768,340.684,122.768z"/>
		<path style="fill:#FFB573;" d="M354.28,136.381c-1.074,5.476-1.721,13.062,2.109,16.716c0,0-1.497,5.554-11.672,5.554
			c-11.188,0-5.382-4.875-5.382-4.875c4.65-1.443,4.61-6.741,3.546-10.995L354.28,136.381z"/>
		<path style="fill:#263238;" d="M338.415,154.755c0,0,1.243-3.866,2.513-4.532c1.27-0.667,14.815-2.411,16.678-0.872
			c1.863,1.539-2.337,6.484-2.337,6.484L338.415,154.755z"/>
		<path style="fill:#407BFF;" d="M333.021,408.979c-0.961,0-1.878-0.132-2.153-0.564c-0.097-0.151-0.161-0.408,0.078-0.775
			c0.134-0.206,0.335-0.345,0.595-0.415c1.273-0.339,3.767,1.152,3.873,1.216c0.061,0.037,0.09,0.11,0.072,0.182
			c-0.018,0.073-0.079,0.131-0.152,0.145C334.848,408.864,333.915,408.979,333.021,408.979z M331.952,407.527
			c-0.125,0-0.241,0.013-0.346,0.041c-0.167,0.044-0.287,0.126-0.367,0.248c-0.143,0.22-0.107,0.329-0.066,0.392
			c0.309,0.484,2.2,0.495,3.607,0.298C334.115,408.15,332.827,407.527,331.952,407.527z"/>
		<path style="fill:#407BFF;" d="M335.298,408.772c-0.025,0-0.049-0.005-0.071-0.016c-0.87-0.405-2.528-2.024-2.322-2.87
			c0.048-0.199,0.21-0.446,0.701-0.496c0.367-0.037,0.687,0.066,0.958,0.304c0.888,0.782,0.925,2.798,0.927,2.884
			c0.001,0.063-0.032,0.124-0.086,0.161C335.372,408.761,335.335,408.772,335.298,408.772z M333.72,405.738
			c-0.035,0-0.071,0.002-0.107,0.005c-0.322,0.032-0.352,0.158-0.362,0.199c-0.123,0.508,0.989,1.78,1.865,2.334
			c-0.048-0.589-0.216-1.795-0.8-2.308C334.141,405.813,333.945,405.738,333.72,405.738z"/>
		<polygon style="fill:#FFB573;" points="343.543,408.595 336.059,408.595 336.728,391.261 344.212,391.261 		"/>
		<path style="fill:#263238;" d="M336.179,407.728h8.174c0.306,0,0.553,0.212,0.595,0.511l0.936,6.653
			c0.097,0.69-0.48,1.343-1.185,1.331c-2.944-0.05-7.191-0.223-10.897-0.223c-4.333,0-4.877,0.236-9.959,0.236
			c-3.073,0-3.672-3.107-2.363-3.388c5.96-1.281,7.534-1.418,12.848-4.538C334.905,407.972,335.533,407.728,336.179,407.728z"/>
		<g>
			<path style="fill:#FFB573;" d="M314.709,172.724c0.65,0.347,1.065,1.023,1.089,1.759l0.055,1.671
				c0.028,0.856-0.476,1.64-1.266,1.971l-3.359,1.406c-0.962,0.403-2.033,0.467-3.036,0.182l-4.152-1.18
				c-0.905-0.362-1.52-1.215-1.576-2.189c0,0-0.137-2.375-0.137-2.375c-0.086-1.489,1.136-2.725,2.626-2.656l1.976,0.092
				C306.93,171.405,310.492,170.47,314.709,172.724z"/>
			<g>
				<path style="fill:#FFB573;" d="M365.931,165.436c-1.347,2.281-2.922,4.46-4.626,6.558c-1.725,2.081-3.628,4.043-5.674,5.804
					c-4.081,3.566-8.599,6.286-12.946,8.657l-0.402,0.219c-0.959,0.523-2.029,0.658-3.022,0.461
					c-2.243-0.447-4.472-0.968-6.697-1.517c-2.224-0.562-4.434-1.179-6.633-1.864c-2.196-0.695-4.379-1.438-6.537-2.294
					c-1.079-0.431-2.147-0.895-3.216-1.378c-1.091-0.486-2.082-0.967-3.258-1.623c-1.36-0.758-1.847-2.476-1.089-3.835
					c0.613-1.099,1.852-1.628,3.022-1.39l0.27,0.056l3.051,0.623c1.055,0.207,2.129,0.375,3.196,0.559
					c2.138,0.363,4.294,0.687,6.45,0.988c2.152,0.323,4.324,0.571,6.486,0.849l6.509,0.734l-3.424,0.68
					c3.951-2.649,7.591-5.287,10.71-8.255c1.557-1.492,3.009-3.054,4.362-4.728c1.375-1.655,2.602-3.451,3.828-5.287l0.036-0.053
					c1.741-2.606,5.264-3.307,7.87-1.566C366.71,159.512,367.443,162.863,365.931,165.436z"/>
			</g>
		</g>
		<path style="fill:#407BFF;" d="M325.461,160.626c-1.53,8.086-2.488,24.691,1.954,57.577h40.034
			c-0.64-5.056-2.963-29.533,0.646-55.197c0.802-5.704-3.381-10.914-9.12-11.402c-0.857-0.073-1.724-0.133-2.586-0.174
			c-5.115-0.247-12.521-0.41-17.018,0.001c-1.878,0.171-3.721,0.443-5.363,0.733C329.681,152.93,326.278,156.308,325.461,160.626z"
			/>
		<g>
			<polygon style="opacity:0.2;" points="336.729,391.266 336.383,400.2 343.871,400.2 344.217,391.266 			"/>
		</g>
		<path style="fill:#FFB573;" d="M357.838,128.37c-1.923,7.175-2.684,11.473-7.112,14.456c-6.66,4.488-14.953-0.663-15.212-8.268
			c-0.234-6.845,2.95-17.429,10.65-18.875C353.751,114.258,359.761,121.195,357.838,128.37z"/>
		<path style="fill:#263238;" d="M339.336,129.722c-1.281-2.833,0.442-7.494,2.553-8.747c-1.556-1.253-3.161-2.484-2.553-5.48
			c0.608-2.996,6.497-6.718,9.997-4.107s17.167-1.333,12.944,8.222c9.444,3.556-2.5,18.152-8.722,21.882
			C347.333,145.222,342.083,137.833,339.336,129.722z"/>
		<path style="fill:#263238;" d="M361,119.722c0,0,3.722-0.889,4.111-6.111C368.167,118.444,366.389,120.833,361,119.722z"/>
		<path style="fill:#FFB573;" d="M344.638,128.566c-0.437,1.896-1.63,3.548-2.898,4.547c-1.908,1.502-3.401,0.116-3.322-2.092
			c0.071-1.987,1.148-5.162,3.28-5.808C343.798,124.576,345.138,126.398,344.638,128.566z"/>
		<polygon style="fill:#FFB573;" points="415.369,381.151 408.737,384.352 399.78,369.113 406.412,365.912 		"/>
		<path style="fill:#407BFF;" d="M405.016,384.764c-0.711,0.646-1.479,1.164-1.973,1.03c-0.173-0.047-0.394-0.194-0.463-0.626
			c-0.039-0.242,0.016-0.481,0.162-0.707c0.715-1.107,3.564-1.68,3.685-1.704c0.07-0.014,0.14,0.021,0.176,0.087
			c0.036,0.066,0.029,0.15-0.015,0.21C406.292,383.451,405.678,384.163,405.016,384.764z M403.249,384.408
			c-0.092,0.084-0.17,0.172-0.229,0.263c-0.094,0.146-0.128,0.286-0.105,0.431c0.042,0.259,0.142,0.315,0.214,0.335
			c0.554,0.151,1.961-1.112,2.871-2.204C405.268,383.415,403.896,383.82,403.249,384.408z"/>
		<path style="fill:#407BFF;" d="M406.563,383.08c-0.018,0.017-0.04,0.029-0.063,0.036c-0.917,0.285-3.232,0.201-3.648-0.564
			c-0.098-0.18-0.145-0.471,0.186-0.838c0.246-0.274,0.553-0.413,0.914-0.419c1.184-0.018,2.566,1.45,2.625,1.512
			c0.043,0.046,0.06,0.113,0.044,0.177C406.61,383.022,406.59,383.056,406.563,383.08z M403.355,381.895
			c-0.026,0.023-0.051,0.049-0.076,0.076c-0.216,0.24-0.155,0.354-0.134,0.391c0.25,0.459,1.928,0.653,2.95,0.474
			c-0.431-0.404-1.367-1.184-2.144-1.171C403.717,381.668,403.521,381.744,403.355,381.895z"/>
		<path style="fill:#263238;" d="M406.513,381.716l6.052-5.495c0.227-0.206,0.553-0.215,0.784-0.022l5.165,4.297
			c0.535,0.445,0.548,1.317,0.017,1.783c-2.214,1.942-5.474,4.669-8.218,7.16c-3.208,2.913-3.452,3.453-7.214,6.869
			c-2.275,2.065-4.807,0.168-4.027-0.92c3.552-4.955,4.625-6.114,6.462-11.997C405.734,382.752,406.035,382.15,406.513,381.716z"/>
		<g>
			<polygon style="opacity:0.2;" points="399.784,369.116 404.399,376.972 411.034,373.77 406.419,365.914 			"/>
		</g>
		<g>
			<path style="fill:#407BFF;" d="M341.617,218.203c0,0,12.526,57.493,17.316,78.834c5.246,23.371,40.536,78.184,40.536,78.184
				l12.178-6.37c0,0-22.648-46.186-31.422-73.019c-3.896-25.035-12.776-77.63-12.776-77.63H341.617z"/>
			<path style="opacity:0.5;" d="M341.617,218.203c0,0,12.526,57.493,17.316,78.834c5.246,23.371,40.536,78.184,40.536,78.184
				l12.178-6.37c0,0-22.648-46.186-31.422-73.019c-3.896-25.035-12.776-77.63-12.776-77.63H341.617z"/>
		</g>
		<path style="fill:#407BFF;" d="M396.14,372.836c-0.054,0.029,2.724,4.464,2.724,4.464l14.243-7.513l-1.457-4.498L396.14,372.836z"
			/>
		<path style="opacity:0.3;" d="M348.979,244.849c9.424,1.256,10.508,34.457,10.345,53.941c-0.131-0.617-0.273-1.203-0.393-1.756
			c-2.614-11.652-7.533-34.106-11.464-52.079C347.926,244.807,348.437,244.775,348.979,244.849z"/>
		<g>
			<path style="fill:#407BFF;" d="M327.416,218.203c0,0-1.802,55.993-1.174,78.788c0.652,23.71,7.026,101.479,7.026,101.479h12.68
				c0,0,1.686-76.35,3.078-99.667c1.517-25.419,4.706-80.6,4.706-80.6H327.416z"/>
			<path style="opacity:0.5;" d="M327.416,218.203c0,0-1.802,55.993-1.174,78.788c0.652,23.71,7.026,101.479,7.026,101.479h12.68
				c0,0,1.686-76.35,3.078-99.667c1.517-25.419,4.706-80.6,4.706-80.6H327.416z"/>
		</g>
		<path style="fill:#407BFF;" d="M331.707,393.42c-0.059,0,0.286,5.264,0.286,5.264h15.424l0.801-4.698L331.707,393.42z"/>
		<g>
			<path style="fill:#FFB573;" d="M290.966,184.917c0.724,0.135,1.324,0.654,1.569,1.348l0.556,1.577
				c0.285,0.808,0.042,1.707-0.612,2.261l-2.778,2.354c-0.796,0.674-1.797,1.058-2.84,1.089l-4.314,0.128
				c-0.972-0.072-1.815-0.7-2.163-1.611l-0.848-2.223c-0.531-1.394,0.261-2.941,1.702-3.324l1.912-0.508
				C283.152,186.007,286.265,184.041,290.966,184.917z"/>
			<g>
				<path style="fill:#FFB573;" d="M335.966,163.225c-0.822,3.059-1.743,6.09-2.664,9.131c-0.945,3.033-1.921,6.062-2.993,9.077
					c-1.056,3.021-2.181,6.03-3.429,9.046c-0.623,1.509-1.268,3.024-2.005,4.549c-0.734,1.531-1.5,3.054-2.577,4.746l-0.227,0.356
					c-1.01,1.586-2.836,2.34-4.583,2.066c-1.258-0.199-2.516-0.366-3.765-0.605c-1.247-0.277-2.496-0.494-3.73-0.825
					c-1.238-0.31-2.466-0.642-3.68-1.052c-1.219-0.371-2.421-0.82-3.613-1.276c-2.374-0.962-4.694-2.061-6.909-3.377
					c-1.107-0.662-2.182-1.374-3.23-2.152c-0.527-0.376-1.04-0.79-1.555-1.206c-0.255-0.219-0.502-0.429-0.757-0.667
					c-0.264-0.241-0.474-0.442-0.814-0.774c-1.104-1.078-1.125-2.846-0.048-3.951c0.87-0.891,2.189-1.077,3.246-0.549l0.453,0.227
					l1.308,0.654c0.479,0.234,0.96,0.471,1.465,0.681c0.989,0.443,2.03,0.815,3.063,1.181c2.072,0.729,4.2,1.323,6.345,1.819
					c2.153,0.485,4.327,0.86,6.519,1.138c1.087,0.168,2.201,0.228,3.295,0.349l3.313,0.209l-4.809,2.423
					c0.541-1.002,1.122-2.324,1.648-3.669c0.529-1.349,1.057-2.748,1.556-4.172c0.996-2.851,1.935-5.776,2.863-8.714l2.713-8.881
					l2.7-8.933c0.907-2.999,4.073-4.696,7.072-3.789c2.939,0.889,4.627,3.948,3.84,6.893L335.966,163.225z"/>
			</g>
		</g>
		<path style="fill:#407BFF;" d="M342.167,160.083c2.988,9.875-10,23.417-10,23.417l-14.225-6.763c0,0,1.603-11.751,7.614-18.792
			C332.981,149.246,339.892,152.566,342.167,160.083z"/>
	</g>
</g>
<g id="Character_1">
	<g>
		<path style="fill:#263238;" d="M179.4,219.693c5.852,5.474,6.908,10.418,6.13,16.974c-0.778,6.555-9.556,8.555-9.556,8.555
			l0.759-24L179.4,219.693z"/>
		<polygon style="fill:#FFC3BD;" points="160.161,408.013 168.171,407.887 167.671,389.268 159.661,389.393 		"/>
		<path style="fill:#263238;" d="M168.264,406.959l-8.751,0.137c-0.328,0.005-0.585,0.237-0.619,0.559l-0.762,7.159
			c-0.079,0.742,0.562,1.434,1.317,1.409c3.151-0.103,7.691-0.36,11.658-0.423c4.639-0.073,4.188,0.118,9.628,0.032
			c3.29-0.052,3.82-3.397,2.408-3.677c-6.427-1.275-7.075-1.342-12.877-4.602C169.636,407.199,168.956,406.948,168.264,406.959z"/>
		<g>
			<path style="fill:#FFC3BD;" d="M176.767,161.734c3.237,4.023,6.671,8.172,10.101,12.135c3.44,3.976,6.975,7.869,10.638,11.366
				l0.689,0.648l0.345,0.325l0.172,0.163c0.007,0.007,0.044,0.041,0.028,0.027l-0.063-0.051l-0.133-0.093
				c-0.355-0.238-0.741-0.353-0.96-0.391c-0.214-0.043-0.349-0.014-0.348-0.004c-0.033,0.037,0.279,0.04,0.64-0.028
				c0.373-0.067,0.835-0.196,1.321-0.365c1.977-0.707,4.256-1.878,6.45-3.152c4.427-2.565,8.923-5.57,13.296-8.541l4.072,4.443
				c-3.702,4.267-7.614,8.156-12.111,11.762c-2.286,1.774-4.616,3.516-7.613,4.987c-0.759,0.368-1.567,0.72-2.498,1.028
				c-0.942,0.299-1.969,0.59-3.359,0.649c-0.677,0.033-1.491-0.013-2.367-0.199c-0.881-0.186-1.898-0.584-2.81-1.205l-0.339-0.243
				l-0.235-0.181l-0.213-0.17l-0.425-0.34l-0.851-0.68c-2.26-1.817-4.379-3.722-6.41-5.68c-2.057-1.94-3.996-3.96-5.907-5.997
				c-3.816-4.11-7.347-8.286-10.773-12.825L176.767,161.734z"/>
		</g>
		<g>
			<path style="fill:#407BFF;" d="M162.808,165.111c-0.597,7.735,18.287,23.728,18.287,23.728l12.891-13.386
				c0,0-6.473-8.946-14.017-15.119C172.224,153.995,163.464,156.623,162.808,165.111z"/>
		</g>
		<path style="opacity:0.2;" d="M173.661,171.323c3.342,0.561,11.065,9.393,11.355,13.451l-3.918,4.063
			c0,0-7.275-6.159-12.647-12.686C169.988,173.44,171.895,171.029,173.661,171.323z"/>
		<path style="fill:#FFC3BD;" d="M219.656,180.068l9.19-0.37l-1.912-8.937c0,0-7.11-0.656-9.12,4.94L219.656,180.068z"/>
		<path style="fill:#FFC3BD;" d="M235.63,174.638l-2.305-3.606c-0.384-0.6-1.078-0.927-1.786-0.84l-4.605,0.568l1.912,8.937
			l5.907-2.343C235.834,176.925,236.256,175.617,235.63,174.638z"/>
		<polygon style="opacity:0.2;" points="167.669,389.273 167.928,398.87 159.915,398.996 159.656,389.399 		"/>
		<path style="fill:#407BFF;" d="M172.731,157.004c-11.72-1.586-26.147-0.75-38.741,2.777c-1.428,0.4-2.283,1.84-1.955,3.287
			c6.733,29.729,3.938,60.507,4.455,66.875c0,0,42.936-0.692,42.937-0.696c3.064-36.65-0.459-59.647-2.173-68.044
			C176.8,158.977,174.981,157.308,172.731,157.004z"/>
		<path style="fill:#263238;" d="M143.173,157.248l-1.964,0.483c-0.245,0.06-0.329,0.366-0.143,0.536
			c7.456,6.853,37.406,42.811,38.276,73.066h2.588c-0.883-30.707-31.604-67.949-38.475-74.02
			C143.377,157.244,143.275,157.223,143.173,157.248z"/>
		<path style="opacity:0.2;" d="M140.077,173.62c0.658,2.95-0.732,16.41-3.938,19.73c-0.257-4.31-0.646-8.81-1.212-13.41
			L140.077,173.62z"/>
		<path style="fill:#FFC3BD;" d="M146.808,137.032c1.365,5.771,2.906,16.073-1.06,20.286c3.307,2.927,7.613,6.614,14.595,6.341
			c6.982-0.273,5.669-4.981,3.736-7.368c-6.605-1.074-6.693-5.916-5.719-10.55L146.808,137.032z"/>
		<path style="opacity:0.2;" d="M151.518,140.586l6.837,5.15c-0.234,1.097-0.407,2.205-0.445,3.272
			c-2.515-0.175-6.051-2.658-6.412-5.251C151.318,142.464,151.327,141.208,151.518,140.586z"/>
		<path style="fill:#FFC3BD;" d="M144.863,128.271c1.006,7.893,1.193,12.568,5.466,16.339c6.428,5.674,15.985,1.314,17.361-6.742
			c1.238-7.251-0.614-18.941-8.587-21.519C151.248,113.811,143.858,120.378,144.863,128.271z"/>
		<path style="fill:#407BFF;" d="M169.529,116.42c1.117,0.384,2.219,1.559,2.429,2.557c0.124,0.591-0.455,1.079-1.01,0.842
			c-4.262-1.822-14.482-1.066-14.482-1.066S165.334,114.975,169.529,116.42z"/>
		<path style="opacity:0.2;" d="M169.529,116.42c1.117,0.384,2.219,1.559,2.429,2.557c0.124,0.591-0.455,1.079-1.01,0.842
			c-4.262-1.822-14.482-1.066-14.482-1.066S165.334,114.975,169.529,116.42z"/>
		<path style="fill:#263238;" d="M146.752,135.33l3.499-0.663c0,0,3.006-6.823-0.501-8.948c4.012-4.184,18.209-1.296,15.869-6.163
			c-1.923-4-10.882-6.381-17.958-3.76c-7.076,2.621-6.273,5.954-6.273,5.954s-5.58,4.217-1.23,9.186
			C140.169,133.125,144.335,136.333,146.752,135.33z"/>
		<g>
			<path style="fill:#407BFF;" d="M139.387,130.959c0.27,0.286,0.736,0.254,0.98-0.055c1.448-1.839,6.263-7.512,12.261-9.904
				c5.287-2.109,9.46-2.547,11.309-2.632c0.481-0.022,0.769-0.535,0.541-0.96c-0.784-1.455-2.337-4.183-3.474-5.201
				c-1.583-1.417-12.927-2.061-16.231,0.125c-2.226,1.473-8.519,7.792-8.769,10.852
				C135.826,125.343,137.137,128.576,139.387,130.959z"/>
			<path style="opacity:0.3;fill:#FFFFFF;" d="M139.387,130.959c0.27,0.286,0.736,0.254,0.98-0.055
				c1.448-1.839,6.263-7.512,12.261-9.904c5.287-2.109,9.46-2.547,11.309-2.632c0.481-0.022,0.769-0.535,0.541-0.96
				c-0.784-1.455-2.337-4.183-3.474-5.201c-1.583-1.417-12.927-2.061-16.231,0.125c-2.226,1.473-8.519,7.792-8.769,10.852
				C135.826,125.343,137.137,128.576,139.387,130.959z"/>
		</g>
		<path style="fill:#407BFF;" d="M147.139,124.197c5.568-2.731,10.325-2.839,13.029-2.657c1.01,0.068,1.945-0.457,2.473-1.322
			c1.096-1.794,2.94-3.202,6.17-3.635c0.189-0.025,0.22-0.294,0.035-0.34C163.987,115.041,149.386,118.699,147.139,124.197z"/>
		<path style="fill:#FFC3BD;" d="M141.614,136.316c1.119,1.823,2.98,2.952,4.704,3.325c2.592,0.561,3.754-1.797,2.922-4.162
			c-0.749-2.129-3.001-4.986-5.548-4.486C141.181,131.486,140.335,134.232,141.614,136.316z"/>
		<path style="fill:#263238;" d="M154.537,308.922c0.324-40.367-8.611-79.133-8.611-79.133l33.474-0.539
			c0,0-3.849,58.301-5.188,82.72c-1.389,25.391-3.336,84.999-3.336,84.999l-13.59,0.207
			C157.287,397.176,152.658,340.778,154.537,308.922z"/>
		<path style="opacity:0.2;" d="M153.209,252c9.54,13.06,5.25,37.63,1.34,54.99c0.01-21.58-2.54-42.53-4.87-57.15L153.209,252z"/>
		<polygon style="fill:#407BFF;" points="155.585,392.28 156.451,397.513 171.769,397.259 172.663,391.721 		"/>
		<path style="fill:#263238;" d="M158.359,129.593c0.042,0.646,0.419,1.143,0.841,1.112s0.73-0.58,0.688-1.226
			c-0.042-0.646-0.419-1.144-0.841-1.112C158.625,128.398,158.317,128.947,158.359,129.593z"/>
		<path style="fill:#263238;" d="M165.727,129.05c0.042,0.646,0.419,1.144,0.841,1.112s0.73-0.58,0.688-1.226
			c-0.042-0.646-0.419-1.144-0.841-1.112C165.993,127.855,165.685,128.404,165.727,129.05z"/>
		<path style="fill:#ED847E;" d="M163.25,129.544c0,0,1.713,3.615,3.447,5.292c-1.073,1.151-3.048,0.808-3.048,0.808L163.25,129.544
			z"/>
		<path style="fill:#263238;" d="M160.348,137.574c-2.479-0.148-3.731-1.769-3.788-1.845c-0.063-0.083-0.046-0.202,0.038-0.266
			c0.084-0.064,0.203-0.048,0.266,0.035c0.014,0.019,1.476,1.9,4.304,1.689c0.105-0.007,0.195,0.071,0.202,0.176
			c0.007,0.105-0.073,0.196-0.177,0.204C160.897,137.589,160.615,137.59,160.348,137.574z"/>
		<path style="fill:#263238;" d="M153.764,126.577c-0.063-0.004-0.126-0.023-0.183-0.06c-0.175-0.114-0.224-0.349-0.108-0.526
			c1.157-1.767,2.913-1.795,2.987-1.795c0.21-0.001,0.379,0.169,0.378,0.379c-0.001,0.209-0.171,0.38-0.38,0.382l0,0
			c-0.058,0.001-1.426,0.037-2.35,1.447C154.029,126.524,153.896,126.586,153.764,126.577z"/>
		<path style="fill:#263238;" d="M168.111,125.387c-0.123,0.007-0.246-0.047-0.324-0.153c-0.99-1.346-2.358-1.291-2.416-1.288
			c-0.209,0.011-0.387-0.149-0.397-0.358c-0.01-0.209,0.15-0.388,0.359-0.401c0.076-0.003,1.828-0.094,3.069,1.593
			c0.124,0.169,0.087,0.407-0.083,0.532C168.255,125.359,168.183,125.383,168.111,125.387z"/>
		<g>
			<path style="fill:#407BFF;" d="M169.718,407.674c-0.067-0.022-0.117-0.08-0.128-0.151c-0.013-0.08,0.027-0.159,0.098-0.197
				c0.361-0.194,3.561-1.88,4.545-1.352c0.19,0.102,0.301,0.275,0.322,0.501c0,0,0,0,0,0c0.035,0.378-0.08,0.691-0.341,0.93
				c-0.867,0.793-3.173,0.513-4.47,0.276C169.735,407.679,169.726,407.677,169.718,407.674z M173.983,406.279
				c-0.609-0.2-2.347,0.494-3.61,1.121c1.777,0.267,3.096,0.169,3.583-0.276c0.171-0.156,0.243-0.358,0.219-0.615
				c-0.009-0.099-0.046-0.159-0.123-0.201C174.031,406.297,174.008,406.287,173.983,406.279z"/>
			<path style="fill:#407BFF;" d="M169.718,407.674c-0.017-0.006-0.034-0.014-0.049-0.024c-0.056-0.039-0.087-0.104-0.081-0.171
				c0.007-0.092,0.188-2.257,1.195-3.111c0.307-0.261,0.66-0.376,1.049-0.342l0,0c0.524,0.045,0.679,0.307,0.717,0.52
				c0.162,0.905-1.729,2.671-2.69,3.121C169.814,407.686,169.764,407.689,169.718,407.674z M171.995,404.44
				c-0.05-0.016-0.113-0.029-0.195-0.036l0,0c-0.288-0.025-0.54,0.058-0.771,0.254c-0.662,0.561-0.926,1.859-1.019,2.491
				c0.979-0.609,2.261-1.994,2.164-2.537C172.168,404.578,172.153,404.492,171.995,404.44z M171.816,404.214l0.005,0.002
				L171.816,404.214z"/>
		</g>
		<polygon style="fill:#FFC3BD;" points="115.975,408.013 124.002,407.887 125.923,389.268 117.897,389.393 		"/>
		<path style="fill:#263238;" d="M124.586,406.959l-8.751,0.137c-0.328,0.005-0.585,0.237-0.619,0.559l-0.763,7.159
			c-0.079,0.742,0.562,1.434,1.317,1.409c3.151-0.103,4.142-0.36,8.109-0.423c4.639-0.073,2.498,0.118,7.939,0.032
			c3.29-0.052,3.817-3.382,2.408-3.677c-4.458-0.934-5.628-2.708-7.638-4.602C126.062,407.058,125.278,406.948,124.586,406.959z"/>
		<polygon style="opacity:0.2;" points="125.921,389.273 124.932,398.87 116.902,398.996 117.891,389.399 		"/>
		<path style="fill:#263238;" d="M126.556,307.911c4.556-36.078,1.972-60.244,9.934-77.969l28.372-0.458
			c0,0-14.554,57.039-20.092,81.071c-5.755,24.988-16.683,84.036-16.683,84.036l-12.942,0.184
			C115.146,394.776,120.512,337.8,126.556,307.911z"/>
		<polygon style="fill:#407BFF;" points="113.764,392.28 114.58,397.513 129.02,397.259 129.863,391.721 		"/>
		<g>
			<path style="fill:#407BFF;" d="M123.001,407.566c-0.071,0.002-0.138-0.035-0.173-0.098c-0.039-0.071-0.03-0.158,0.024-0.219
				c0.273-0.306,2.699-2.989,3.804-2.831c0.213,0.031,0.377,0.155,0.475,0.36l0,0c0.163,0.343,0.162,0.677-0.001,0.991
				c-0.542,1.043-2.804,1.571-4.104,1.794C123.018,407.565,123.009,407.566,123.001,407.566z M126.527,404.792
				c-0.64,0.021-2.034,1.27-3.005,2.292c1.761-0.36,2.966-0.904,3.271-1.49c0.107-0.206,0.105-0.419-0.005-0.653
				c-0.043-0.09-0.098-0.134-0.185-0.146C126.579,404.792,126.553,404.791,126.527,404.792z"/>
			<path style="fill:#407BFF;" d="M123.001,407.566c-0.018,0.001-0.036-0.001-0.054-0.006c-0.065-0.017-0.117-0.068-0.135-0.133
				c-0.025-0.089-0.598-2.184,0.054-3.332c0.199-0.35,0.491-0.58,0.867-0.682l0,0c0.507-0.138,0.743,0.056,0.852,0.242
				c0.463,0.795-0.707,3.102-1.455,3.855C123.095,407.545,123.048,407.565,123.001,407.566z M124.028,403.747
				c-0.052,0.002-0.116,0.011-0.195,0.033h0c-0.279,0.076-0.487,0.24-0.636,0.503c-0.429,0.755-0.232,2.064-0.101,2.69
				c0.71-0.908,1.439-2.649,1.161-3.126C124.239,403.817,124.195,403.742,124.028,403.747z M123.783,403.597l0.005,0
				L123.783,403.597z"/>
		</g>
		<g>
			<g>
				<path style="fill:#FFFFFF;" d="M157.324,199.565c0.569-1.008,0.485-2.182-0.21-2.944l-1.416-1.551
					c-0.211-0.232-0.261-0.571-0.118-0.85c0.342-0.666,0.256-1.502-0.279-2.088s-1.359-0.747-2.053-0.468
					c-0.291,0.117-0.624,0.036-0.835-0.195l-1.416-1.551c-0.696-0.762-1.857-0.953-2.913-0.478l-0.422,0.19l4.718,5.169l4.718,5.169
					L157.324,199.565z"/>
				
					<rect x="124.606" y="188.335" transform="matrix(0.6741 0.7386 -0.7386 0.6741 198.2689 -34.9858)" style="fill:#263238;" width="28.356" height="37.744"/>
			</g>
			<g>
				<path style="fill:#FFC3BD;" d="M139.9,171.11c-2.478,4.747-4.99,9.628-7.419,14.456c-2.431,4.836-4.826,9.691-6.961,14.546
					c-0.528,1.21-1.067,2.422-1.541,3.626l-0.369,0.905l-0.092,0.226c-0.014,0.033-0.012,0.023-0.021,0.036
					c-0.021,0.022-0.024,0.019-0.03,0.008c-0.033-0.016-0.015-0.354-0.177-0.687c-0.142-0.338-0.388-0.51-0.385-0.45
					c-0.022,0.046,0.145,0.235,0.439,0.429c0.59,0.394,1.57,0.841,2.641,1.189c2.175,0.702,4.722,1.197,7.297,1.59
					c1.294,0.186,2.607,0.368,3.931,0.53l3.952,0.408l0.446,6.01c-1.483,0.317-2.866,0.526-4.311,0.716
					c-1.433,0.194-2.876,0.346-4.336,0.424c-1.461,0.096-2.94,0.119-4.449,0.08c-1.511-0.031-3.05-0.152-4.659-0.41
					c-1.611-0.27-3.293-0.621-5.164-1.477c-0.932-0.431-1.936-0.996-2.96-1.899c-1.009-0.873-2.058-2.218-2.63-3.867
					c-0.575-1.651-0.587-3.411-0.323-4.772c0.063-0.349,0.137-0.688,0.227-0.992l0.131-0.458l0.085-0.26l0.337-1.038
					c0.439-1.398,0.925-2.745,1.406-4.1c1.983-5.374,4.223-10.531,6.59-15.62c2.404-5.081,4.901-10.025,7.666-14.977L139.9,171.11z"
					/>
			</g>
			<g>
				<path style="fill:#407BFF;" d="M133.085,160.118c-7.411,2.294-15.192,22.071-15.192,22.071l16.135,9.041
					c0,0,4.459-8.147,7.967-17.551C145.817,163.435,142.062,157.339,133.085,160.118z"/>
			</g>
			<path style="fill:#FFC3BD;" d="M152.155,211.682l-3.202-2.115c-0.705-0.465-1.501-0.773-2.336-0.902l-4.682-0.725
				c-1.269-0.197-2.538,0.356-3.259,1.418l-1.598,2.356c-0.454,3.961,6.676,5.969,6.676,5.969l3.676,1.739
				c1.246,0.589,2.735,0.19,3.519-0.944l1.969-2.848C153.816,214.333,153.472,212.551,152.155,211.682z"/>
		</g>
	</g>
</g>
<g id="Pack">
	<g>
		<line style="fill:none;stroke:#407BFF;stroke-miterlimit:10;" x1="287.224" y1="122.172" x2="286.717" y2="127.936"/>
		<polyline style="fill:none;stroke:#407BFF;stroke-miterlimit:10;" points="281.181,100.414 289.076,101.108 287.635,117.497 		"/>
		
			<rect x="204.005" y="100.245" transform="matrix(0.9962 0.0876 -0.0876 0.9962 12.0214 -20.8669)" style="fill:#407BFF;" width="79.667" height="52.667"/>
		
			<rect x="230.379" y="99.515" transform="matrix(0.9962 0.0876 -0.0876 0.9962 10.0908 -20.3055)" style="opacity:0.2;fill:#FFFFFF;" width="12.167" height="10.668"/>
		
			<rect x="207.178" y="134.957" transform="matrix(0.9962 0.0876 -0.0876 0.9962 13.1134 -18.1457)" style="opacity:0.2;fill:#FFFFFF;" width="12.363" height="10.84"/>
		<g style="opacity:0.2;">
			<path style="fill:#FFFFFF;" d="M223.897,136.573l10.906,0.958l-0.825,9.39l-10.906-0.959L223.897,136.573 M223.255,135.806
				l-0.949,10.799l12.315,1.083l0.949-10.799L223.255,135.806L223.255,135.806z"/>
		</g>
		
			<rect x="265.054" y="102.923" transform="matrix(0.9962 0.0876 -0.0876 0.9962 12.3732 -23.5251)" style="opacity:0.1;" width="18.5" height="52.667"/>
		<polygon style="opacity:0.1;" points="201.852,149.322 281.213,156.299 282.99,136.083 		"/>
	</g>
</g>
</svg>
